<svg height="6200" viewBox="-50 -50 3100 6200" width="3100" xmlns="http://www.w3.org/2000/svg" xmlns:xlink="http://www.w3.org/1999/xlink">
<title>Skills 3 Exercise 1</title>
<desc>
<text>
Skills 3 Exercise 1
</text>
</desc>
<defs>
<style>
text { text-anchor: middle } path,rect,circle { fill:none; stroke: black; }
</style>
<g id="Rink">
<clipPath id="clip-rink">
<rect height="6100" rx="750" ry="750" width="3000" x="0" y="0"/>
</clipPath>
<rect height="6100" rx="750" ry="750" style="text { text-anchor: middle } path,rect,circle { fill:none; stroke: black; } clip-path:url(#clip-rink)" width="3000" x="0" y="0"/>
<path d="M 0,3050 l 3000,0" style="stroke:red;"/>
<circle cx="1500" cy="3050" r="400" style="stroke:red;"/>
<circle cx="1500" cy="3050" r="2" style="fill: black;"/>
<path d="M 0,2250 l 3000,0" style="stroke: blue;"/>
<path d="M 0,3850 l 3000,0" style="stroke: blue;"/>
</g>
<g id="Info[markers=true,grid=100]">
<path d="M 0,0 l 10,0 l -20,0 l 10,0 l 0,20 l 8,-8 l -8,8 l-8,-8 l 8,8 l 0,-30 l 0,10" id="end-mark" style="stroke:red;"/>
<path d="M 0,0 l 10,0 l -20,0 l 10,0 l 0,20 l 8,-8 l -8,8 l-8,-8 l 8,8 l 0,-30 l 0,10" id="start-mark" style="stroke:green;"/>
</g>
<g id="LFO-[angle=45]">
<path d="M 0,0 a 381,381 0 0 0 111,270"/>
</g>
<g id="RFI-[angle=45]">
<path d="M 0,0 a 381,381 0 0 0 111,270"/>
</g>
<g id="LFO+[angle=90]">
<path d="M 0,0 a 381,381 0 0 0 381,381"/>
</g>
<g id="LF---[label=&quot;COE&quot;]">
<path d="M 0,0 l 0,100"/>
</g>
<g id="LFI&gt;&gt;&gt;[len=1100]">
<path d="M 0,0 a 350,350 0 1 1 -700,0"/>
</g>
<g id="RFO[angle=45,len=200]">
<path d="M 0,0 a 254,254 0 0 1 -74,180"/>
</g>
<g id="xf-LFI[angle=45,len=200]">
<path d="M 0,0 a 254,254 0 0 1 -74,180"/>
</g>
<g id="LFI[angle=45,len=200]">
<path d="M 0,0 a 254,254 0 0 1 -74,180"/>
</g>
<g id="RFO&gt;&gt;&gt;[len=1200]">
<path d="M 0,0 a 381,381 0 1 1 -763,0"/>
</g>
<g id="RF---[label=&quot;COE&quot;]">
<path d="M 0,0 l 0,100"/>
</g>
<g id="RFI&gt;&gt;&gt;[len=1200]">
<path d="M 0,0 a 381,381 0 1 0 763,0"/>
</g>
<g id="LFO[angle=45,len=200]">
<path d="M 0,0 a 254,254 0 0 0 74,180"/>
</g>
<g id="xf-RFI[angle=45,len=200]">
<path d="M 0,0 a 254,254 0 0 0 74,180"/>
</g>
<g id="RFI[angle=45,len=200]">
<path d="M 0,0 a 254,254 0 0 0 74,180"/>
</g>
<g id="LFO[angle=190,len=1100]">
<path d="M 0,0 a 331,331 0 1 0 658,-57"/>
</g>
<g id="RFO[angle=190,len=1100]">
<path d="M 0,0 a 331,331 0 1 1 -658,-57"/>
</g>
<g id="RFI&gt;&gt;&gt;[len=1100]">
<path d="M 0,0 a 350,350 0 1 0 700,0"/>
</g>
<g id="LFO-[angle=30]">
<path d="M 0,0 a 572,572 0 0 0 76,286"/>
</g>
<g id="RFI-[angle=30]">
<path d="M 0,0 a 572,572 0 0 0 76,286"/>
</g>
<g id="xf-RFI+[angle=90]">
<path d="M 0,0 a 381,381 0 0 0 381,381"/>
</g>
<g id="RFO&gt;&gt;&gt;[len=1100]">
<path d="M 0,0 a 350,350 0 1 1 -700,0"/>
</g>
<g id="xf-LFI&gt;&gt;&gt;[len=1100]">
<path d="M 0,0 a 350,350 0 1 1 -700,0"/>
</g>
<g id="LFO&gt;&gt;&gt;[len=1100]">
<path d="M 0,0 a 350,350 0 1 0 700,0"/>
</g>
<g id="xf-RFI&gt;&gt;&gt;[len=1100]">
<path d="M 0,0 a 350,350 0 1 0 700,0"/>
</g>
</defs>
<use id="r_0_c_0_4" style="stroke-width:4;" transform="translate(0 0) rotate(0)" xlink:href="#Rink"/>
<text style="font-size: 90pt;" x="1500" y="200">
Skills 3 Exercise 1
</text>
<use style="stroke-width:4;" transform="translate(0 0) rotate(0)" xlink:href="#start-mark"/>
<text style="font-size:50pt;" x="1000" y="500">
SIDE 1
</text>
<use style="stroke-width:4;" transform="translate(0 0) rotate(0)" xlink:href="#end-mark"/>
<use style="stroke-width:4;" transform="translate(0 0) rotate(0)" xlink:href="#start-mark"/>
<use style="stroke-width:4;" transform="translate(800 500) rotate(90)" xlink:href="#end-mark"/>
<use style="stroke-width:4;" transform="translate(800 515) rotate(90)" xlink:href="#start-mark"/>
<use id="r_7_c_0_22" style="stroke-width:4;" transform="translate(800 515) rotate(90)" xlink:href="#LFO-[angle=45]"/>
<text style="font-size:24pt;" x="665" y="600">
LFO
</text>
<use style="stroke-width:4;" transform="translate(530 626) rotate(45)" xlink:href="#end-mark"/>
<use style="stroke-width:4;" transform="translate(508 604) rotate(45)" xlink:href="#start-mark"/>
<use id="r_8_c_0_22" style="stroke-width:4;" transform="translate(508 604) rotate(45)" xlink:href="#RFI-[angle=45]"/>
<text style="font-size:24pt;" x="472" y="759">
RFI
</text>
<use style="stroke-width:4;" transform="translate(395 873) rotate(0)" xlink:href="#end-mark"/>
<use style="stroke-width:4;" transform="translate(425 873) rotate(0)" xlink:href="#start-mark"/>
<use id="r_11_c_0_22" style="stroke-width:4;" transform="translate(425 873) rotate(0)" xlink:href="#LFO+[angle=90]"/>
<text style="font-size:24pt;" x="645" y="1063">
LFO
</text>
<use style="stroke-width:4;" transform="translate(806 1254) rotate(270)" xlink:href="#end-mark"/>
<use style="stroke-width:4;" transform="translate(806 1254) rotate(270)" xlink:href="#start-mark"/>
<use id="r_12_c_0_24" style="stroke-width:4;" transform="translate(806 1254) rotate(270)" xlink:href="#LF---[label=&quot;COE&quot;]"/>
<text style="font-size:24pt;" x="856" y="1224">
COE
</text>
<use style="stroke-width:4;" transform="translate(906 1254) rotate(270)" xlink:href="#end-mark"/>
<use style="stroke-width:4;" transform="translate(906 1254) rotate(270)" xlink:href="#start-mark"/>
<use id="r_13_c_0_24" style="stroke-width:4;" transform="translate(906 1254) rotate(270)" xlink:href="#LFI&gt;&gt;&gt;[len=1100]"/>
<text style="font-size:24pt;" x="906" y="1574">
LFI
</text>
<use style="stroke-width:4;" transform="translate(906 1954) rotate(90)" xlink:href="#end-mark"/>
<use style="stroke-width:4;" transform="translate(906 1924) rotate(90)" xlink:href="#start-mark"/>
<use id="r_15_c_0_22" style="stroke-width:4;" transform="translate(906 1924) rotate(90)" xlink:href="#RFO[angle=45,len=200]"/>
<text style="font-size:24pt;" x="816" y="1917">
RFO
</text>
<use style="stroke-width:4;" transform="translate(726 1850) rotate(135)" xlink:href="#end-mark"/>
<use style="stroke-width:4;" transform="translate(726 1828) rotate(135)" xlink:href="#start-mark"/>
<use id="r_16_c_0_25" style="stroke-width:4;" transform="translate(726 1828) rotate(135)" xlink:href="#xf-LFI[angle=45,len=200]"/>
<text style="font-size:24pt;" x="667" y="1759">
LFI
</text>
<text style="font-size:24pt;" x="702" y="1820">
XF
</text>
<use style="stroke-width:4;" transform="translate(651 1648) rotate(180)" xlink:href="#end-mark"/>
<use style="stroke-width:4;" transform="translate(681 1648) rotate(180)" xlink:href="#start-mark"/>
<use id="r_17_c_0_22" style="stroke-width:4;" transform="translate(681 1648) rotate(180)" xlink:href="#RFO[angle=45,len=200]"/>
<text style="font-size:24pt;" x="688" y="1558">
RFO
</text>
<use style="stroke-width:4;" transform="translate(755 1468) rotate(225)" xlink:href="#end-mark"/>
<use style="stroke-width:4;" transform="translate(733 1446) rotate(225)" xlink:href="#start-mark"/>
<use id="r_18_c_0_22" style="stroke-width:4;" transform="translate(733 1446) rotate(225)" xlink:href="#LFI[angle=45,len=200]"/>
<text style="font-size:24pt;" x="801" y="1387">
LFI
</text>
<use style="stroke-width:4;" transform="translate(912 1371) rotate(270)" xlink:href="#end-mark"/>
<use style="stroke-width:4;" transform="translate(912 1401) rotate(270)" xlink:href="#start-mark"/>
<use id="r_20_c_0_24" style="stroke-width:4;" transform="translate(912 1401) rotate(270)" xlink:href="#RFO&gt;&gt;&gt;[len=1200]"/>
<text style="font-size:24pt;" x="912" y="1752">
RFO
</text>
<use style="stroke-width:4;" transform="translate(912 2164) rotate(90)" xlink:href="#end-mark"/>
<use style="stroke-width:4;" transform="translate(912 2164) rotate(90)" xlink:href="#start-mark"/>
<use id="r_21_c_0_24" style="stroke-width:4;" transform="translate(912 2164) rotate(90)" xlink:href="#RF---[label=&quot;COE&quot;]"/>
<text style="font-size:24pt;" x="862" y="2194">
COE
</text>
<use style="stroke-width:4;" transform="translate(812 2164) rotate(90)" xlink:href="#end-mark"/>
<use style="stroke-width:4;" transform="translate(812 2164) rotate(90)" xlink:href="#start-mark"/>
<use id="r_22_c_0_24" style="stroke-width:4;" transform="translate(812 2164) rotate(90)" xlink:href="#RFI&gt;&gt;&gt;[len=1200]"/>
<text style="font-size:24pt;" x="812" y="2575">
RFI
</text>
<use style="stroke-width:4;" transform="translate(812 2927) rotate(270)" xlink:href="#end-mark"/>
<use style="stroke-width:4;" transform="translate(812 2897) rotate(270)" xlink:href="#start-mark"/>
<use id="r_24_c_0_22" style="stroke-width:4;" transform="translate(812 2897) rotate(270)" xlink:href="#LFO[angle=45,len=200]"/>
<text style="font-size:24pt;" x="902" y="2830">
LFO
</text>
<use style="stroke-width:4;" transform="translate(992 2823) rotate(225)" xlink:href="#end-mark"/>
<use style="stroke-width:4;" transform="translate(992 2801) rotate(225)" xlink:href="#start-mark"/>
<use id="r_25_c_0_25" style="stroke-width:4;" transform="translate(992 2801) rotate(225)" xlink:href="#xf-RFI[angle=45,len=200]"/>
<text style="font-size:24pt;" x="1008" y="2689">
RFI
</text>
<text style="font-size:24pt;" x="987" y="2764">
XF
</text>
<use style="stroke-width:4;" transform="translate(1066 2621) rotate(180)" xlink:href="#end-mark"/>
<use style="stroke-width:4;" transform="translate(1036 2621) rotate(180)" xlink:href="#start-mark"/>
<use id="r_26_c_0_22" style="stroke-width:4;" transform="translate(1036 2621) rotate(180)" xlink:href="#LFO[angle=45,len=200]"/>
<text style="font-size:24pt;" x="969" y="2531">
LFO
</text>
<use style="stroke-width:4;" transform="translate(962 2441) rotate(135)" xlink:href="#end-mark"/>
<use style="stroke-width:4;" transform="translate(983 2419) rotate(135)" xlink:href="#start-mark"/>
<use id="r_27_c_0_22" style="stroke-width:4;" transform="translate(983 2419) rotate(135)" xlink:href="#RFI[angle=45,len=200]"/>
<text style="font-size:24pt;" x="871" y="2402">
RFI
</text>
<use style="stroke-width:4;" transform="translate(803 2344) rotate(90)" xlink:href="#end-mark"/>
<use style="stroke-width:4;" transform="translate(803 2374) rotate(90)" xlink:href="#start-mark"/>
<use id="r_29_c_0_24" style="stroke-width:4;" transform="translate(803 2374) rotate(90)" xlink:href="#LFO[angle=190,len=1100]"/>
<text style="font-size:24pt;" x="831" y="2733">
LFO
</text>
<use style="stroke-width:4;" transform="translate(860 3032) rotate(260)" xlink:href="#end-mark"/>
<use style="stroke-width:4;" transform="translate(860 3032) rotate(260)" xlink:href="#start-mark"/>
<use id="r_30_c_0_24" style="stroke-width:4;" transform="translate(860 3032) rotate(260)" xlink:href="#LF---[label=&quot;COE&quot;]"/>
<text style="font-size:24pt;" x="904" y="2993">
COE
</text>
<use style="stroke-width:4;" transform="translate(958 3014) rotate(260)" xlink:href="#end-mark"/>
<use style="stroke-width:4;" transform="translate(958 3014) rotate(260)" xlink:href="#start-mark"/>
<use id="r_31_c_0_24" style="stroke-width:4;" transform="translate(958 3014) rotate(260)" xlink:href="#LFI&gt;&gt;&gt;[len=1100]"/>
<text style="font-size:24pt;" x="1013" y="3329">
LFI
</text>
<use style="stroke-width:4;" transform="translate(1079 3703) rotate(80)" xlink:href="#end-mark"/>
<use style="stroke-width:4;" transform="translate(1073 3673) rotate(80)" xlink:href="#start-mark"/>
<use id="r_33_c_0_22" style="stroke-width:4;" transform="translate(1073 3673) rotate(80)" xlink:href="#RFO[angle=45,len=200]"/>
<text style="font-size:24pt;" x="983" y="3681">
RFO
</text>
<use style="stroke-width:4;" transform="translate(882 3631) rotate(125)" xlink:href="#end-mark"/>
<use style="stroke-width:4;" transform="translate(878 3610) rotate(125)" xlink:href="#start-mark"/>
<use id="r_34_c_0_25" style="stroke-width:4;" transform="translate(878 3610) rotate(125)" xlink:href="#xf-LFI[angle=45,len=200]"/>
<text style="font-size:24pt;" x="808" y="3552">
LFI
</text>
<text style="font-size:24pt;" x="853" y="3606">
XF
</text>
<use style="stroke-width:4;" transform="translate(772 3446) rotate(170)" xlink:href="#end-mark"/>
<use style="stroke-width:4;" transform="translate(801 3440) rotate(170)" xlink:href="#start-mark"/>
<use id="r_35_c_0_22" style="stroke-width:4;" transform="translate(801 3440) rotate(170)" xlink:href="#RFO[angle=45,len=200]"/>
<text style="font-size:24pt;" x="792" y="3350">
RFO
</text>
<use style="stroke-width:4;" transform="translate(842 3249) rotate(215)" xlink:href="#end-mark"/>
<use style="stroke-width:4;" transform="translate(817 3231) rotate(215)" xlink:href="#start-mark"/>
<use id="r_36_c_0_22" style="stroke-width:4;" transform="translate(817 3231) rotate(215)" xlink:href="#LFI[angle=45,len=200]"/>
<text style="font-size:24pt;" x="874" y="3161">
LFI
</text>
<use style="stroke-width:4;" transform="translate(980 3125) rotate(260)" xlink:href="#end-mark"/>
<use style="stroke-width:4;" transform="translate(985 3154) rotate(260)" xlink:href="#start-mark"/>
<use id="r_38_c_0_24" style="stroke-width:4;" transform="translate(985 3154) rotate(260)" xlink:href="#RFO[angle=190,len=1100]"/>
<text style="font-size:24pt;" x="1009" y="3453">
RFO
</text>
<use style="stroke-width:4;" transform="translate(1043 3811) rotate(90)" xlink:href="#end-mark"/>
<use style="stroke-width:4;" transform="translate(1043 3811) rotate(90)" xlink:href="#start-mark"/>
<use id="r_39_c_0_24" style="stroke-width:4;" transform="translate(1043 3811) rotate(90)" xlink:href="#RF---[label=&quot;COE&quot;]"/>
<text style="font-size:24pt;" x="993" y="3841">
COE
</text>
<use style="stroke-width:4;" transform="translate(943 3811) rotate(90)" xlink:href="#end-mark"/>
<use style="stroke-width:4;" transform="translate(943 3811) rotate(90)" xlink:href="#start-mark"/>
<use id="r_40_c_0_24" style="stroke-width:4;" transform="translate(943 3811) rotate(90)" xlink:href="#RFI&gt;&gt;&gt;[len=1100]"/>
<text style="font-size:24pt;" x="943" y="4191">
RFI
</text>
<use style="stroke-width:4;" transform="translate(943 4511) rotate(270)" xlink:href="#end-mark"/>
<use style="stroke-width:4;" transform="translate(943 4481) rotate(270)" xlink:href="#start-mark"/>
<use id="r_42_c_0_22" style="stroke-width:4;" transform="translate(943 4481) rotate(270)" xlink:href="#LFO[angle=45,len=200]"/>
<text style="font-size:24pt;" x="1033" y="4414">
LFO
</text>
<use style="stroke-width:4;" transform="translate(1123 4407) rotate(225)" xlink:href="#end-mark"/>
<use style="stroke-width:4;" transform="translate(1123 4385) rotate(225)" xlink:href="#start-mark"/>
<use id="r_43_c_0_25" style="stroke-width:4;" transform="translate(1123 4385) rotate(225)" xlink:href="#xf-RFI[angle=45,len=200]"/>
<text style="font-size:24pt;" x="1139" y="4273">
RFI
</text>
<text style="font-size:24pt;" x="1118" y="4348">
XF
</text>
<use style="stroke-width:4;" transform="translate(1197 4205) rotate(180)" xlink:href="#end-mark"/>
<use style="stroke-width:4;" transform="translate(1167 4205) rotate(180)" xlink:href="#start-mark"/>
<use id="r_44_c_0_22" style="stroke-width:4;" transform="translate(1167 4205) rotate(180)" xlink:href="#LFO[angle=45,len=200]"/>
<text style="font-size:24pt;" x="1100" y="4115">
LFO
</text>
<use style="stroke-width:4;" transform="translate(1093 4025) rotate(135)" xlink:href="#end-mark"/>
<use style="stroke-width:4;" transform="translate(1114 4003) rotate(135)" xlink:href="#start-mark"/>
<use id="r_45_c_0_22" style="stroke-width:4;" transform="translate(1114 4003) rotate(135)" xlink:href="#RFI[angle=45,len=200]"/>
<text style="font-size:24pt;" x="1002" y="3986">
RFI
</text>
<use style="stroke-width:4;" transform="translate(934 3928) rotate(90)" xlink:href="#end-mark"/>
<use style="stroke-width:4;" transform="translate(934 3958) rotate(90)" xlink:href="#start-mark"/>
<use id="r_47_c_0_24" style="stroke-width:4;" transform="translate(934 3958) rotate(90)" xlink:href="#LFO[angle=190,len=1100]"/>
<text style="font-size:24pt;" x="962" y="4317">
LFO
</text>
<use style="stroke-width:4;" transform="translate(991 4616) rotate(260)" xlink:href="#end-mark"/>
<use style="stroke-width:4;" transform="translate(991 4616) rotate(260)" xlink:href="#start-mark"/>
<text style="font-size:50pt;" x="2000" y="5800">
SIDE 2
</text>
<use style="stroke-width:4;" transform="translate(991 4616) rotate(260)" xlink:href="#end-mark"/>
<use style="stroke-width:4;" transform="translate(991 4616) rotate(260)" xlink:href="#start-mark"/>
<use style="stroke-width:4;" transform="translate(2200 5800) rotate(270)" xlink:href="#end-mark"/>
<use style="stroke-width:4;" transform="translate(2200 5800) rotate(270)" xlink:href="#start-mark"/>
<use id="r_53_c_0_22" style="stroke-width:4;" transform="translate(2200 5800) rotate(270)" xlink:href="#LFO-[angle=30]"/>
<text style="font-size:24pt;" x="2343" y="5732">
LFO
</text>
<use style="stroke-width:4;" transform="translate(2486 5724) rotate(240)" xlink:href="#end-mark"/>
<use style="stroke-width:4;" transform="translate(2501 5749) rotate(240)" xlink:href="#start-mark"/>
<use id="r_54_c_0_22" style="stroke-width:4;" transform="translate(2501 5749) rotate(240)" xlink:href="#RFI-[angle=30]"/>
<text style="font-size:24pt;" x="2590" y="5618">
RFI
</text>
<use style="stroke-width:4;" transform="translate(2710 5540) rotate(210)" xlink:href="#end-mark"/>
<use style="stroke-width:4;" transform="translate(2684 5525) rotate(210)" xlink:href="#start-mark"/>
<use id="r_55_c_0_22" style="stroke-width:4;" transform="translate(2684 5525) rotate(210)" xlink:href="#LFO-[angle=30]"/>
<text style="font-size:24pt;" x="2696" y="5367">
LFO
</text>
<use style="stroke-width:4;" transform="translate(2761 5239) rotate(180)" xlink:href="#end-mark"/>
<use style="stroke-width:4;" transform="translate(2746 5224) rotate(180)" xlink:href="#start-mark"/>
<use id="r_58_c_0_25" style="stroke-width:4;" transform="translate(2746 5224) rotate(180)" xlink:href="#xf-RFI+[angle=90]"/>
<text style="font-size:24pt;" x="2526" y="5034">
RFI
</text>
<text style="font-size:24pt;" x="2679" y="5177">
XF
</text>
<use style="stroke-width:4;" transform="translate(2365 4843) rotate(90)" xlink:href="#end-mark"/>
<use style="stroke-width:4;" transform="translate(2365 4843) rotate(90)" xlink:href="#start-mark"/>
<use id="r_59_c_0_24" style="stroke-width:4;" transform="translate(2365 4843) rotate(90)" xlink:href="#RF---[label=&quot;COE&quot;]"/>
<text style="font-size:24pt;" x="2315" y="4873">
COE
</text>
<use style="stroke-width:4;" transform="translate(2265 4843) rotate(90)" xlink:href="#end-mark"/>
<use style="stroke-width:4;" transform="translate(2265 4843) rotate(90)" xlink:href="#start-mark"/>
<use id="r_60_c_0_24" style="stroke-width:4;" transform="translate(2265 4843) rotate(90)" xlink:href="#RFO&gt;&gt;&gt;[len=1100]"/>
<text style="font-size:24pt;" x="2265" y="4523">
RFO
</text>
<use style="stroke-width:4;" transform="translate(2265 4143) rotate(270)" xlink:href="#end-mark"/>
<use style="stroke-width:4;" transform="translate(2280 4158) rotate(270)" xlink:href="#start-mark"/>
<use id="r_62_c_0_25" style="stroke-width:4;" transform="translate(2280 4158) rotate(270)" xlink:href="#xf-LFI[angle=45,len=200]"/>
<text style="font-size:24pt;" x="2370" y="4165">
LFI
</text>
<text style="font-size:24pt;" x="2302" y="4147">
XF
</text>
<use style="stroke-width:4;" transform="translate(2460 4232) rotate(315)" xlink:href="#end-mark"/>
<use style="stroke-width:4;" transform="translate(2438 4253) rotate(315)" xlink:href="#start-mark"/>
<use id="r_63_c_0_22" style="stroke-width:4;" transform="translate(2438 4253) rotate(315)" xlink:href="#RFO[angle=45,len=200]"/>
<text style="font-size:24pt;" x="2496" y="4321">
RFO
</text>
<use style="stroke-width:4;" transform="translate(2512 4432) rotate(0)" xlink:href="#end-mark"/>
<use style="stroke-width:4;" transform="translate(2542 4432) rotate(0)" xlink:href="#start-mark"/>
<use id="r_64_c_0_22" style="stroke-width:4;" transform="translate(2542 4432) rotate(0)" xlink:href="#LFI[angle=45,len=200]"/>
<text style="font-size:24pt;" x="2535" y="4522">
LFI
</text>
<use style="stroke-width:4;" transform="translate(2468 4612) rotate(45)" xlink:href="#end-mark"/>
<use style="stroke-width:4;" transform="translate(2446 4590) rotate(45)" xlink:href="#start-mark"/>
<use id="r_65_c_0_22" style="stroke-width:4;" transform="translate(2446 4590) rotate(45)" xlink:href="#RFO[angle=45,len=200]"/>
<text style="font-size:24pt;" x="2377" y="4648">
RFO
</text>
<use style="stroke-width:4;" transform="translate(2266 4664) rotate(90)" xlink:href="#end-mark"/>
<use style="stroke-width:4;" transform="translate(2251 4649) rotate(90)" xlink:href="#start-mark"/>
<use id="r_67_c_0_27" style="stroke-width:4;" transform="translate(2251 4649) rotate(90)" xlink:href="#xf-LFI&gt;&gt;&gt;[len=1100]"/>
<text style="font-size:24pt;" x="2251" y="4329">
LFI
</text>
<text style="font-size:24pt;" x="2251" y="4582">
XF
</text>
<use style="stroke-width:4;" transform="translate(2251 3949) rotate(270)" xlink:href="#end-mark"/>
<use style="stroke-width:4;" transform="translate(2251 3949) rotate(270)" xlink:href="#start-mark"/>
<use id="r_68_c_0_24" style="stroke-width:4;" transform="translate(2251 3949) rotate(270)" xlink:href="#LF---[label=&quot;COE&quot;]"/>
<text style="font-size:24pt;" x="2301" y="3919">
COE
</text>
<use style="stroke-width:4;" transform="translate(2351 3949) rotate(270)" xlink:href="#end-mark"/>
<use style="stroke-width:4;" transform="translate(2351 3949) rotate(270)" xlink:href="#start-mark"/>
<use id="r_69_c_0_24" style="stroke-width:4;" transform="translate(2351 3949) rotate(270)" xlink:href="#LFO&gt;&gt;&gt;[len=1100]"/>
<text style="font-size:24pt;" x="2351" y="3569">
LFO
</text>
<use style="stroke-width:4;" transform="translate(2351 3249) rotate(90)" xlink:href="#end-mark"/>
<use style="stroke-width:4;" transform="translate(2336 3264) rotate(90)" xlink:href="#start-mark"/>
<use id="r_71_c_0_25" style="stroke-width:4;" transform="translate(2336 3264) rotate(90)" xlink:href="#xf-RFI[angle=45,len=200]"/>
<text style="font-size:24pt;" x="2246" y="3331">
RFI
</text>
<text style="font-size:24pt;" x="2314" y="3293">
XF
</text>
<use style="stroke-width:4;" transform="translate(2156 3338) rotate(45)" xlink:href="#end-mark"/>
<use style="stroke-width:4;" transform="translate(2177 3359) rotate(45)" xlink:href="#start-mark"/>
<use id="r_72_c_0_22" style="stroke-width:4;" transform="translate(2177 3359) rotate(45)" xlink:href="#LFO[angle=45,len=200]"/>
<text style="font-size:24pt;" x="2160" y="3470">
LFO
</text>
<use style="stroke-width:4;" transform="translate(2102 3538) rotate(0)" xlink:href="#end-mark"/>
<use style="stroke-width:4;" transform="translate(2072 3538) rotate(0)" xlink:href="#start-mark"/>
<use id="r_73_c_0_22" style="stroke-width:4;" transform="translate(2072 3538) rotate(0)" xlink:href="#RFI[angle=45,len=200]"/>
<text style="font-size:24pt;" x="2139" y="3628">
RFI
</text>
<use style="stroke-width:4;" transform="translate(2146 3718) rotate(315)" xlink:href="#end-mark"/>
<use style="stroke-width:4;" transform="translate(2167 3696) rotate(315)" xlink:href="#start-mark"/>
<use id="r_74_c_0_22" style="stroke-width:4;" transform="translate(2167 3696) rotate(315)" xlink:href="#LFO[angle=45,len=200]"/>
<text style="font-size:24pt;" x="2278" y="3712">
LFO
</text>
<use style="stroke-width:4;" transform="translate(2346 3770) rotate(270)" xlink:href="#end-mark"/>
<use style="stroke-width:4;" transform="translate(2361 3755) rotate(270)" xlink:href="#start-mark"/>
<use id="r_76_c_0_27" style="stroke-width:4;" transform="translate(2361 3755) rotate(270)" xlink:href="#xf-RFI&gt;&gt;&gt;[len=1100]"/>
<text style="font-size:24pt;" x="2361" y="3375">
RFI
</text>
<text style="font-size:24pt;" x="2361" y="3648">
XF
</text>
<use style="stroke-width:4;" transform="translate(2361 3055) rotate(90)" xlink:href="#end-mark"/>
<use style="stroke-width:4;" transform="translate(2361 3055) rotate(90)" xlink:href="#start-mark"/>
<use id="r_77_c_0_24" style="stroke-width:4;" transform="translate(2361 3055) rotate(90)" xlink:href="#RF---[label=&quot;COE&quot;]"/>
<text style="font-size:24pt;" x="2311" y="3085">
COE
</text>
<use style="stroke-width:4;" transform="translate(2261 3055) rotate(90)" xlink:href="#end-mark"/>
<use style="stroke-width:4;" transform="translate(2261 3055) rotate(90)" xlink:href="#start-mark"/>
<use id="r_78_c_0_24" style="stroke-width:4;" transform="translate(2261 3055) rotate(90)" xlink:href="#RFO&gt;&gt;&gt;[len=1100]"/>
<text style="font-size:24pt;" x="2261" y="2735">
RFO
</text>
<use style="stroke-width:4;" transform="translate(2261 2355) rotate(270)" xlink:href="#end-mark"/>
<use style="stroke-width:4;" transform="translate(2276 2370) rotate(270)" xlink:href="#start-mark"/>
<use id="r_80_c_0_25" style="stroke-width:4;" transform="translate(2276 2370) rotate(270)" xlink:href="#xf-LFI[angle=45,len=200]"/>
<text style="font-size:24pt;" x="2366" y="2377">
LFI
</text>
<text style="font-size:24pt;" x="2298" y="2359">
XF
</text>
<use style="stroke-width:4;" transform="translate(2456 2444) rotate(315)" xlink:href="#end-mark"/>
<use style="stroke-width:4;" transform="translate(2434 2465) rotate(315)" xlink:href="#start-mark"/>
<use id="r_81_c_0_22" style="stroke-width:4;" transform="translate(2434 2465) rotate(315)" xlink:href="#RFO[angle=45,len=200]"/>
<text style="font-size:24pt;" x="2492" y="2533">
RFO
</text>
<use style="stroke-width:4;" transform="translate(2508 2644) rotate(0)" xlink:href="#end-mark"/>
<use style="stroke-width:4;" transform="translate(2538 2644) rotate(0)" xlink:href="#start-mark"/>
<use id="r_82_c_0_22" style="stroke-width:4;" transform="translate(2538 2644) rotate(0)" xlink:href="#LFI[angle=45,len=200]"/>
<text style="font-size:24pt;" x="2531" y="2734">
LFI
</text>
<use style="stroke-width:4;" transform="translate(2464 2824) rotate(45)" xlink:href="#end-mark"/>
<use style="stroke-width:4;" transform="translate(2442 2802) rotate(45)" xlink:href="#start-mark"/>
<use id="r_83_c_0_22" style="stroke-width:4;" transform="translate(2442 2802) rotate(45)" xlink:href="#RFO[angle=45,len=200]"/>
<text style="font-size:24pt;" x="2373" y="2860">
RFO
</text>
<use style="stroke-width:4;" transform="translate(2262 2876) rotate(90)" xlink:href="#end-mark"/>
<use style="stroke-width:4;" transform="translate(2247 2861) rotate(90)" xlink:href="#start-mark"/>
<use id="r_85_c_0_27" style="stroke-width:4;" transform="translate(2247 2861) rotate(90)" xlink:href="#xf-LFI&gt;&gt;&gt;[len=1100]"/>
<text style="font-size:24pt;" x="2247" y="2541">
LFI
</text>
<text style="font-size:24pt;" x="2247" y="2794">
XF
</text>
<use style="stroke-width:4;" transform="translate(2247 2161) rotate(270)" xlink:href="#end-mark"/>
<use style="stroke-width:4;" transform="translate(2247 2161) rotate(270)" xlink:href="#start-mark"/>
<use id="r_86_c_0_24" style="stroke-width:4;" transform="translate(2247 2161) rotate(270)" xlink:href="#LF---[label=&quot;COE&quot;]"/>
<text style="font-size:24pt;" x="2297" y="2131">
COE
</text>
<use style="stroke-width:4;" transform="translate(2347 2161) rotate(270)" xlink:href="#end-mark"/>
<use style="stroke-width:4;" transform="translate(2347 2161) rotate(270)" xlink:href="#start-mark"/>
<use id="r_87_c_0_24" style="stroke-width:4;" transform="translate(2347 2161) rotate(270)" xlink:href="#LFO&gt;&gt;&gt;[len=1100]"/>
<text style="font-size:24pt;" x="2347" y="1781">
LFO
</text>
<use style="stroke-width:4;" transform="translate(2347 1461) rotate(90)" xlink:href="#end-mark"/>
<use style="stroke-width:4;" transform="translate(2332 1476) rotate(90)" xlink:href="#start-mark"/>
<use id="r_89_c_0_25" style="stroke-width:4;" transform="translate(2332 1476) rotate(90)" xlink:href="#xf-RFI[angle=45,len=200]"/>
<text style="font-size:24pt;" x="2242" y="1543">
RFI
</text>
<text style="font-size:24pt;" x="2310" y="1505">
XF
</text>
<use style="stroke-width:4;" transform="translate(2152 1550) rotate(45)" xlink:href="#end-mark"/>
<use style="stroke-width:4;" transform="translate(2173 1571) rotate(45)" xlink:href="#start-mark"/>
<use id="r_90_c_0_22" style="stroke-width:4;" transform="translate(2173 1571) rotate(45)" xlink:href="#LFO[angle=45,len=200]"/>
<text style="font-size:24pt;" x="2156" y="1682">
LFO
</text>
<use style="stroke-width:4;" transform="translate(2098 1750) rotate(0)" xlink:href="#end-mark"/>
<use style="stroke-width:4;" transform="translate(2068 1750) rotate(0)" xlink:href="#start-mark"/>
<use id="r_91_c_0_22" style="stroke-width:4;" transform="translate(2068 1750) rotate(0)" xlink:href="#RFI[angle=45,len=200]"/>
<text style="font-size:24pt;" x="2135" y="1840">
RFI
</text>
<use style="stroke-width:4;" transform="translate(2142 1930) rotate(315)" xlink:href="#end-mark"/>
<use style="stroke-width:4;" transform="translate(2163 1908) rotate(315)" xlink:href="#start-mark"/>
<use id="r_92_c_0_22" style="stroke-width:4;" transform="translate(2163 1908) rotate(315)" xlink:href="#LFO[angle=45,len=200]"/>
<text style="font-size:24pt;" x="2274" y="1924">
LFO
</text>
<use style="stroke-width:4;" transform="translate(2342 1982) rotate(270)" xlink:href="#end-mark"/>
<use style="stroke-width:4;" transform="translate(2357 1967) rotate(270)" xlink:href="#start-mark"/>
<use id="r_94_c_0_27" style="stroke-width:4;" transform="translate(2357 1967) rotate(270)" xlink:href="#xf-RFI&gt;&gt;&gt;[len=1100]"/>
<text style="font-size:24pt;" x="2357" y="1587">
RFI
</text>
<text style="font-size:24pt;" x="2357" y="1860">
XF
</text>
<use style="stroke-width:4;" transform="translate(2357 1267) rotate(90)" xlink:href="#end-mark"/>
<path d="M 0,0 L 0,6100" style="stroke:gray; stroke-width:2;"/>
<path d="M 100,0 L 100,6100" style="stroke:lightgray"/>
<path d="M 200,0 L 200,6100" style="stroke:lightgray"/>
<path d="M 300,0 L 300,6100" style="stroke:lightgray"/>
<path d="M 400,0 L 400,6100" style="stroke:lightgray"/>
<path d="M 500,0 L 500,6100" style="stroke:lightgray"/>
<path d="M 600,0 L 600,6100" style="stroke:lightgray"/>
<path d="M 700,0 L 700,6100" style="stroke:lightgray"/>
<path d="M 800,0 L 800,6100" style="stroke:lightgray"/>
<path d="M 900,0 L 900,6100" style="stroke:lightgray"/>
<path d="M 1000,0 L 1000,6100" style="stroke:lightgray"/>
<path d="M 1100,0 L 1100,6100" style="stroke:lightgray"/>
<path d="M 1200,0 L 1200,6100" style="stroke:lightgray"/>
<path d="M 1300,0 L 1300,6100" style="stroke:lightgray"/>
<path d="M 1400,0 L 1400,6100" style="stroke:lightgray"/>
<path d="M 1500,0 L 1500,6100" style="stroke:lightgray"/>
<path d="M 1600,0 L 1600,6100" style="stroke:lightgray"/>
<path d="M 1700,0 L 1700,6100" style="stroke:lightgray"/>
<path d="M 1800,0 L 1800,6100" style="stroke:lightgray"/>
<path d="M 1900,0 L 1900,6100" style="stroke:lightgray"/>
<path d="M 2000,0 L 2000,6100" style="stroke:lightgray"/>
<path d="M 2100,0 L 2100,6100" style="stroke:lightgray"/>
<path d="M 2200,0 L 2200,6100" style="stroke:lightgray"/>
<path d="M 2300,0 L 2300,6100" style="stroke:lightgray"/>
<path d="M 2400,0 L 2400,6100" style="stroke:lightgray"/>
<path d="M 2500,0 L 2500,6100" style="stroke:lightgray"/>
<path d="M 2600,0 L 2600,6100" style="stroke:lightgray"/>
<path d="M 2700,0 L 2700,6100" style="stroke:lightgray"/>
<path d="M 2800,0 L 2800,6100" style="stroke:lightgray"/>
<path d="M 2900,0 L 2900,6100" style="stroke:lightgray"/>
<path d="M 0,0 L 3000,0" style="stroke:gray; stroke-width:2;"/>
<path d="M 0,100 L 3000,100" style="stroke:lightgray"/>
<path d="M 0,200 L 3000,200" style="stroke:lightgray"/>
<path d="M 0,300 L 3000,300" style="stroke:lightgray"/>
<path d="M 0,400 L 3000,400" style="stroke:lightgray"/>
<path d="M 0,500 L 3000,500" style="stroke:lightgray"/>
<path d="M 0,600 L 3000,600" style="stroke:lightgray"/>
<path d="M 0,700 L 3000,700" style="stroke:lightgray"/>
<path d="M 0,800 L 3000,800" style="stroke:lightgray"/>
<path d="M 0,900 L 3000,900" style="stroke:lightgray"/>
<path d="M 0,1000 L 3000,1000" style="stroke:lightgray"/>
<path d="M 0,1100 L 3000,1100" style="stroke:lightgray"/>
<path d="M 0,1200 L 3000,1200" style="stroke:lightgray"/>
<path d="M 0,1300 L 3000,1300" style="stroke:lightgray"/>
<path d="M 0,1400 L 3000,1400" style="stroke:lightgray"/>
<path d="M 0,1500 L 3000,1500" style="stroke:lightgray"/>
<path d="M 0,1600 L 3000,1600" style="stroke:lightgray"/>
<path d="M 0,1700 L 3000,1700" style="stroke:lightgray"/>
<path d="M 0,1800 L 3000,1800" style="stroke:lightgray"/>
<path d="M 0,1900 L 3000,1900" style="stroke:lightgray"/>
<path d="M 0,2000 L 3000,2000" style="stroke:lightgray"/>
<path d="M 0,2100 L 3000,2100" style="stroke:lightgray"/>
<path d="M 0,2200 L 3000,2200" style="stroke:lightgray"/>
<path d="M 0,2300 L 3000,2300" style="stroke:lightgray"/>
<path d="M 0,2400 L 3000,2400" style="stroke:lightgray"/>
<path d="M 0,2500 L 3000,2500" style="stroke:lightgray"/>
<path d="M 0,2600 L 3000,2600" style="stroke:lightgray"/>
<path d="M 0,2700 L 3000,2700" style="stroke:lightgray"/>
<path d="M 0,2800 L 3000,2800" style="stroke:lightgray"/>
<path d="M 0,2900 L 3000,2900" style="stroke:lightgray"/>
<path d="M 0,3000 L 3000,3000" style="stroke:lightgray"/>
<path d="M 0,3100 L 3000,3100" style="stroke:lightgray"/>
<path d="M 0,3200 L 3000,3200" style="stroke:lightgray"/>
<path d="M 0,3300 L 3000,3300" style="stroke:lightgray"/>
<path d="M 0,3400 L 3000,3400" style="stroke:lightgray"/>
<path d="M 0,3500 L 3000,3500" style="stroke:lightgray"/>
<path d="M 0,3600 L 3000,3600" style="stroke:lightgray"/>
<path d="M 0,3700 L 3000,3700" style="stroke:lightgray"/>
<path d="M 0,3800 L 3000,3800" style="stroke:lightgray"/>
<path d="M 0,3900 L 3000,3900" style="stroke:lightgray"/>
<path d="M 0,4000 L 3000,4000" style="stroke:lightgray"/>
<path d="M 0,4100 L 3000,4100" style="stroke:lightgray"/>
<path d="M 0,4200 L 3000,4200" style="stroke:lightgray"/>
<path d="M 0,4300 L 3000,4300" style="stroke:lightgray"/>
<path d="M 0,4400 L 3000,4400" style="stroke:lightgray"/>
<path d="M 0,4500 L 3000,4500" style="stroke:lightgray"/>
<path d="M 0,4600 L 3000,4600" style="stroke:lightgray"/>
<path d="M 0,4700 L 3000,4700" style="stroke:lightgray"/>
<path d="M 0,4800 L 3000,4800" style="stroke:lightgray"/>
<path d="M 0,4900 L 3000,4900" style="stroke:lightgray"/>
<path d="M 0,5000 L 3000,5000" style="stroke:lightgray"/>
<path d="M 0,5100 L 3000,5100" style="stroke:lightgray"/>
<path d="M 0,5200 L 3000,5200" style="stroke:lightgray"/>
<path d="M 0,5300 L 3000,5300" style="stroke:lightgray"/>
<path d="M 0,5400 L 3000,5400" style="stroke:lightgray"/>
<path d="M 0,5500 L 3000,5500" style="stroke:lightgray"/>
<path d="M 0,5600 L 3000,5600" style="stroke:lightgray"/>
<path d="M 0,5700 L 3000,5700" style="stroke:lightgray"/>
<path d="M 0,5800 L 3000,5800" style="stroke:lightgray"/>
<path d="M 0,5900 L 3000,5900" style="stroke:lightgray"/>
<path d="M 0,6000 L 3000,6000" style="stroke:lightgray"/>
</svg>