<svg height="6200" viewBox="-50 -50 3100 6200" width="3100" xmlns="http://www.w3.org/2000/svg" xmlns:xlink="http://www.w3.org/1999/xlink">
<title>Skills 2 Exercise 1</title>
<desc>
<text>
Skills 2 Exercise 1
</text>
</desc>
<defs>
<style>
text { text-anchor: middle } path,rect,circle { fill:none; stroke: black; }
</style>
<g id="Rink">
<clipPath id="clip-rink">
<rect height="6100" rx="750" ry="750" width="3000" x="0" y="0"/>
</clipPath>
<rect height="6100" rx="750" ry="750" style="text { text-anchor: middle } path,rect,circle { fill:none; stroke: black; } clip-path:url(#clip-rink)" width="3000" x="0" y="0"/>
<path d="M 0,3050 l 3000,0"/>
<circle cx="1500" cy="3050" r="400"/>
<circle cx="1500" cy="3050" r="2" style="fill: black;"/>
<path d="M 0,2250 l 3000,0" style="stroke: blue;"/>
<path d="M 0,3850 l 3000,0" style="stroke: blue;"/>
</g>
<g id="Info"/>
<g id="RBO[angle=30,len=200]">
<path d="M 0,0 a 381,381 0 0 0 51,190"/>
</g>
<g id="xf-LBI[angle=30,len=200]">
<path d="M 0,0 a 381,381 0 0 0 51,190"/>
</g>
<g id="RBO[angle=120,len=800]">
<path d="M 0,0 a 381,381 0 0 0 572,330"/>
</g>
<g id="LBO[angle=30,len=200]">
<path d="M 0,0 a 381,381 0 0 1 -51,190"/>
</g>
<g id="xf-RBI[angle=30,len=200]">
<path d="M 0,0 a 381,381 0 0 1 -51,190"/>
</g>
<g id="LBO[angle=120,len=800]">
<path d="M 0,0 a 381,381 0 0 1 -572,330"/>
</g>
<g id="RBO--[angle=40]">
<path d="M 0,0 a 343,343 0 0 0 80,220"/>
</g>
<g id="xf-LBI[angle=140,len=800]">
<path d="M 0,0 a 327,327 0 0 0 578,210"/>
</g>
<g id="wd-RBI--[angle=30]">
<path d="M 0,0 a 458,458 0 0 1 -61,229"/>
</g>
<g id="LBO--[angle=40]">
<path d="M 0,0 a 343,343 0 0 1 -80,220"/>
</g>
<g id="xf-RBI[angle=130,len=800]">
<path d="M 0,0 a 352,352 0 0 1 -579,270"/>
</g>
<g id="wd-LBI--[angle=30]">
<path d="M 0,0 a 458,458 0 0 0 61,229"/>
</g>
<g id="LBI--[angle=30]">
<path d="M 0,0 a 458,458 0 0 0 61,229"/>
</g>
</defs>
<use id="r_0_c_0_4" style="stroke-width:4;" transform="translate(0 0) rotate(0)" xlink:href="#Rink"/>
<text style="font-size: 90pt;" x="1500" y="200">
Skills 2 Exercise 1
</text>
<text style="font-size:50pt;" x="900" y="730">
SIDE 1
</text>
<use id="r_7_c_0_22" style="stroke-width:4;" transform="translate(600 700) rotate(90)" xlink:href="#RBO[angle=30,len=200]"/>
<text style="font-size:24pt;" x="505" y="755">
RBO
</text>
<use id="r_8_c_0_25" style="stroke-width:4;" transform="translate(404 771) rotate(60)" xlink:href="#xf-LBI[angle=30,len=200]"/>
<text style="font-size:24pt;" x="349" y="866">
LBI
</text>
<text style="font-size:24pt;" x="397" y="805">
XF
</text>
<use id="r_9_c_0_23" style="stroke-width:4;" transform="translate(289 925) rotate(30)" xlink:href="#RBO[angle=120,len=800]"/>
<text style="font-size:24pt;" x="480" y="1225">
RBO
</text>
<use id="r_11_c_0_22" style="stroke-width:4;" transform="translate(619 1526) rotate(270)" xlink:href="#LBO[angle=30,len=200]"/>
<text style="font-size:24pt;" x="714" y="1521">
LBO
</text>
<use id="r_12_c_0_25" style="stroke-width:4;" transform="translate(814 1597) rotate(300)" xlink:href="#xf-RBI[angle=30,len=200]"/>
<text style="font-size:24pt;" x="898" y="1640">
RBI
</text>
<text style="font-size:24pt;" x="840" y="1596">
XF
</text>
<use id="r_13_c_0_23" style="stroke-width:4;" transform="translate(927 1751) rotate(330)" xlink:href="#LBO[angle=120,len=800]"/>
<text style="font-size:24pt;" x="787" y="2021">
LBO
</text>
<use id="r_15_c_0_22" style="stroke-width:4;" transform="translate(596 2352) rotate(90)" xlink:href="#RBO[angle=30,len=200]"/>
<text style="font-size:24pt;" x="501" y="2407">
RBO
</text>
<use id="r_16_c_0_25" style="stroke-width:4;" transform="translate(400 2423) rotate(60)" xlink:href="#xf-LBI[angle=30,len=200]"/>
<text style="font-size:24pt;" x="345" y="2518">
LBI
</text>
<text style="font-size:24pt;" x="393" y="2457">
XF
</text>
<use id="r_17_c_0_23" style="stroke-width:4;" transform="translate(285 2577) rotate(30)" xlink:href="#RBO[angle=120,len=800]"/>
<text style="font-size:24pt;" x="476" y="2877">
RBO
</text>
<use id="r_19_c_0_22" style="stroke-width:4;" transform="translate(615 3178) rotate(270)" xlink:href="#LBO[angle=30,len=200]"/>
<text style="font-size:24pt;" x="710" y="3173">
LBO
</text>
<use id="r_20_c_0_25" style="stroke-width:4;" transform="translate(810 3249) rotate(300)" xlink:href="#xf-RBI[angle=30,len=200]"/>
<text style="font-size:24pt;" x="894" y="3292">
RBI
</text>
<text style="font-size:24pt;" x="836" y="3248">
XF
</text>
<use id="r_21_c_0_23" style="stroke-width:4;" transform="translate(923 3403) rotate(330)" xlink:href="#LBO[angle=120,len=800]"/>
<text style="font-size:24pt;" x="783" y="3673">
LBO
</text>
<text style="font-size:50pt;" x="2100" y="5020">
SIDE 2
</text>
<use id="r_26_c_0_22" style="stroke-width:4;" transform="translate(2300 5000) rotate(270)" xlink:href="#RBO--[angle=40]"/>
<text style="font-size:24pt;" x="2410" y="4930">
RBO
</text>
<use id="r_27_c_0_26" style="stroke-width:4;" transform="translate(2521 4898) rotate(230)" xlink:href="#xf-LBI[angle=140,len=800]"/>
<text style="font-size:24pt;" x="2396" y="4586">
LBI
</text>
<text style="font-size:24pt;" x="2481" y="4810">
XF
</text>
<use id="r_28_c_0_25" style="stroke-width:4;" transform="translate(2310 4380) rotate(90)" xlink:href="#wd-RBI--[angle=30]"/>
<text style="font-size:24pt;" x="2196" y="4380">
RBI
</text>
<text style="font-size:24pt;" x="2282" y="4393">
Wd
</text>
<use id="r_29_c_0_22" style="stroke-width:4;" transform="translate(2096 4293) rotate(120)" xlink:href="#LBO--[angle=40]"/>
<text style="font-size:24pt;" x="2005" y="4229">
LBO
</text>
<use id="r_30_c_0_26" style="stroke-width:4;" transform="translate(1953 4093) rotate(160)" xlink:href="#xf-RBI[angle=130,len=800]"/>
<text style="font-size:24pt;" x="2150" y="3877">
RBI
</text>
<text style="font-size:24pt;" x="1990" y="4044">
XF
</text>
<use id="r_31_c_0_25" style="stroke-width:4;" transform="translate(2383 3697) rotate(290)" xlink:href="#wd-LBI--[angle=30]"/>
<text style="font-size:24pt;" x="2510" y="3679">
LBI
</text>
<text style="font-size:24pt;" x="2418" y="3681">
Wd
</text>
<use id="r_32_c_0_22" style="stroke-width:4;" transform="translate(2613 3688) rotate(260)" xlink:href="#RBO--[angle=40]"/>
<text style="font-size:24pt;" x="2709" y="3599">
RBO
</text>
<use id="r_33_c_0_26" style="stroke-width:4;" transform="translate(2813 3549) rotate(220)" xlink:href="#xf-LBI[angle=140,len=800]"/>
<text style="font-size:24pt;" x="2636" y="3263">
LBI
</text>
<text style="font-size:24pt;" x="2759" y="3469">
XF
</text>
<use id="r_34_c_0_25" style="stroke-width:4;" transform="translate(2515 3075) rotate(80)" xlink:href="#wd-RBI--[angle=30]"/>
<text style="font-size:24pt;" x="2402" y="3094">
RBI
</text>
<text style="font-size:24pt;" x="2489" y="3092">
Wd
</text>
<use id="r_35_c_0_22" style="stroke-width:4;" transform="translate(2288 3025) rotate(110)" xlink:href="#LBO--[angle=40]"/>
<text style="font-size:24pt;" x="2188" y="2977">
LBO
</text>
<use id="r_36_c_0_26" style="stroke-width:4;" transform="translate(2113 2853) rotate(150)" xlink:href="#xf-RBI[angle=130,len=800]"/>
<text style="font-size:24pt;" x="2269" y="2606">
RBI
</text>
<text style="font-size:24pt;" x="2141" y="2798">
XF
</text>
<use id="r_38_c_0_22" style="stroke-width:4;" transform="translate(2473 2358) rotate(280)" xlink:href="#LBI--[angle=30]"/>
<text style="font-size:24pt;" x="2595" y="2318">
LBI
</text>
</svg>