<svg height="6200" viewBox="-50 -50 3100 6200" width="3100" xmlns="http://www.w3.org/2000/svg" xmlns:xlink="http://www.w3.org/1999/xlink">
<title>Skills 1</title>
<desc>
<text>
Skills 1
</text>
</desc>
<defs>
<style>
text { text-anchor: middle } path,rect,circle { fill:none; stroke: black; }
</style>
<g id="Rink[centre-circle=400,mid-lines=800,goal-lines=-1]">
<clipPath id="clip-rink">
<rect height="6100" rx="750" ry="750" width="3000" x="0" y="0"/>
</clipPath>
<rect height="6100" rx="750" ry="750" style="text { text-anchor: middle } path,rect,circle { fill:none; stroke: black; } clip-path:url(#clip-rink)" width="3000" x="0" y="0"/>
<path d="M 0,3050 l 3000,0"/>
<circle cx="1500" cy="3050" r="400"/>
<circle cx="1500" cy="3050" r="2" style="fill: black;"/>
<path d="M 0,2250 l 3000,0" style="stroke: blue;"/>
<path d="M 0,3850 l 3000,0" style="stroke: blue;"/>
</g>
<g id="Info"/>
<g id="LFO--">
<path d="M 0,0 a 687,687 0 0 0 41,235"/>
</g>
<g id="RFI--">
<path d="M 0,0 a 687,687 0 0 0 41,235"/>
</g>
<g id="LFO[angle=140,len=900]">
<path d="M 0,0 a 368,368 0 0 0 650,236"/>
</g>
<g id="RFO--">
<path d="M 0,0 a 687,687 0 0 1 -41,235"/>
</g>
<g id="LFI--">
<path d="M 0,0 a 687,687 0 0 1 -41,235"/>
</g>
<g id="RFO[angle=140,len=900]">
<path d="M 0,0 a 368,368 0 0 1 -650,236"/>
</g>
<g id="LFO&gt;-">
<path d="M 0,0 a 286,286 0 0 0 143,248"/>
</g>
<g id="xf-RFI&gt;&gt;++">
<path d="M 0,0 a 442,442 0 0 0 594,416"/>
</g>
<g id="xf-LFI&gt;&gt;++">
<path d="M 0,0 a 442,442 0 0 1 -594,416"/>
</g>
</defs>
<use id="r_0_c_0_51" style="stroke-width:4;" transform="translate(0 0) rotate(0)" xlink:href="#Rink[centre-circle=400,mid-lines=800,goal-lines=-1]"/>
<text style="font-size: 48pt;" x="1500" y="100">
Skills 1
</text>
<text style="font-size:24pt;" x="1300" y="500">
SIDE 1
</text>
<use id="r_6_c_0_5" style="stroke-width:4;" transform="translate(700 515) rotate(90)" xlink:href="#LFO--"/>
<text style="font-size:24pt;" x="583" y="565">
LFO
</text>
<use id="r_7_c_0_5" style="stroke-width:4;" transform="translate(454 527) rotate(70)" xlink:href="#RFI--"/>
<text style="font-size:24pt;" x="361" y="614">
RFI
</text>
<use id="r_8_c_0_22" style="stroke-width:4;" transform="translate(266 667) rotate(50)" xlink:href="#LFO[angle=140,len=900]"/>
<text style="font-size:24pt;" x="403" y="1014">
LFO
</text>
<use id="r_9_c_0_5" style="stroke-width:4;" transform="translate(503 1346) rotate(270)" xlink:href="#RFO--"/>
<text style="font-size:24pt;" x="620" y="1336">
RFO
</text>
<use id="r_10_c_0_5" style="stroke-width:4;" transform="translate(748 1358) rotate(290)" xlink:href="#LFI--"/>
<text style="font-size:24pt;" x="861" y="1388">
LFI
</text>
<use id="r_11_c_0_22" style="stroke-width:4;" transform="translate(934 1498) rotate(310)" xlink:href="#RFO[angle=140,len=900]"/>
<text style="font-size:24pt;" x="834" y="1799">
RFO
</text>
<use id="r_12_c_0_5" style="stroke-width:4;" transform="translate(696 2177) rotate(90)" xlink:href="#LFO--"/>
<text style="font-size:24pt;" x="579" y="2227">
LFO
</text>
<use id="r_13_c_0_5" style="stroke-width:4;" transform="translate(450 2189) rotate(70)" xlink:href="#RFI--"/>
<text style="font-size:24pt;" x="357" y="2276">
RFI
</text>
<use id="r_14_c_0_22" style="stroke-width:4;" transform="translate(262 2329) rotate(50)" xlink:href="#LFO[angle=140,len=900]"/>
<text style="font-size:24pt;" x="399" y="2676">
LFO
</text>
<use id="r_15_c_0_5" style="stroke-width:4;" transform="translate(499 3008) rotate(270)" xlink:href="#RFO--"/>
<text style="font-size:24pt;" x="616" y="2998">
RFO
</text>
<use id="r_16_c_0_5" style="stroke-width:4;" transform="translate(744 3020) rotate(290)" xlink:href="#LFI--"/>
<text style="font-size:24pt;" x="857" y="3050">
LFI
</text>
<use id="r_17_c_0_22" style="stroke-width:4;" transform="translate(930 3160) rotate(310)" xlink:href="#RFO[angle=140,len=900]"/>
<text style="font-size:24pt;" x="830" y="3461">
RFO
</text>
<text style="font-size:24pt;" x="1600" y="5500">
SIDE 2
</text>
<use id="r_21_c_0_5" style="stroke-width:4;" transform="translate(2200 5470) rotate(270)" xlink:href="#LFO&gt;-"/>
<text style="font-size:24pt;" x="2324" y="5369">
LFO
</text>
<use id="r_22_c_0_10" style="stroke-width:4;" transform="translate(2442 5306) rotate(210)" xlink:href="#xf-RFI&gt;&gt;++"/>
<text style="font-size:24pt;" x="2262" y="4962">
RFI
</text>
<use id="r_23_c_0_5" style="stroke-width:4;" transform="translate(2129 4677) rotate(100)" xlink:href="#LFI--"/>
<text style="font-size:24pt;" x="2012" y="4666">
LFI
</text>
<use id="r_24_c_0_5" style="stroke-width:4;" transform="translate(1919 4569) rotate(120)" xlink:href="#RFO--"/>
<text style="font-size:24pt;" x="1812" y="4519">
RFO
</text>
<use id="r_25_c_0_10" style="stroke-width:4;" transform="translate(1736 4393) rotate(140)" xlink:href="#xf-LFI&gt;&gt;++"/>
<text style="font-size:24pt;" x="1806" y="4062">
LFI
</text>
<use id="r_26_c_0_5" style="stroke-width:4;" transform="translate(1933 3720) rotate(250)" xlink:href="#RFI--"/>
<text style="font-size:24pt;" x="2025" y="3632">
RFI
</text>
<use id="r_27_c_0_5" style="stroke-width:4;" transform="translate(2119 3578) rotate(230)" xlink:href="#LFO--"/>
<text style="font-size:24pt;" x="2176" y="3464">
LFO
</text>
<use id="r_28_c_0_10" style="stroke-width:4;" transform="translate(2266 3374) rotate(210)" xlink:href="#xf-RFI&gt;&gt;++"/>
<text style="font-size:24pt;" x="2086" y="3030">
RFI
</text>
<use id="r_29_c_0_5" style="stroke-width:4;" transform="translate(1953 2745) rotate(100)" xlink:href="#LFI--"/>
<text style="font-size:24pt;" x="1836" y="2734">
LFI
</text>
<use id="r_30_c_0_5" style="stroke-width:4;" transform="translate(1743 2637) rotate(120)" xlink:href="#RFO--"/>
<text style="font-size:24pt;" x="1636" y="2587">
RFO
</text>
<use id="r_31_c_0_10" style="stroke-width:4;" transform="translate(1560 2461) rotate(140)" xlink:href="#xf-LFI&gt;&gt;++"/>
<text style="font-size:24pt;" x="1630" y="2130">
LFI
</text>
<use id="r_32_c_0_5" style="stroke-width:4;" transform="translate(1757 1788) rotate(250)" xlink:href="#RFI--"/>
<text style="font-size:24pt;" x="1849" y="1700">
RFI
</text>
</svg>