<svg height="6200" viewBox="-50 -50 3100 6200" width="3100" xmlns="http://www.w3.org/2000/svg" xmlns:xlink="http://www.w3.org/1999/xlink">
<title>Skills 1 Exercise 2</title>
<desc>
<text>
Skills 1 Exercise 2
</text>
</desc>
<defs>
<style>
text { text-anchor: middle } path,rect,circle { fill:none; stroke: black; }
</style>
<g id="Rink">
<clipPath id="clip-rink">
<rect height="6100" rx="750" ry="750" width="3000" x="0" y="0"/>
</clipPath>
<rect height="6100" rx="750" ry="750" style="text { text-anchor: middle } path,rect,circle { fill:none; stroke: black; } clip-path:url(#clip-rink)" width="3000" x="0" y="0"/>
<path d="M 0,3050 l 3000,0"/>
<circle cx="1500" cy="3050" r="400"/>
<circle cx="1500" cy="3050" r="2" style="fill: black;"/>
<path d="M 0,2250 l 3000,0" style="stroke: blue;"/>
<path d="M 0,3850 l 3000,0" style="stroke: blue;"/>
</g>
<g id="Info"/>
<g id="RBO-">
<path d="M 0,0 a 859,859 0 0 0 51,293"/>
</g>
<g id="xf-LBI-">
<path d="M 0,0 a 859,859 0 0 0 51,293"/>
</g>
<g id="RBO[angle=160,len=2400]">
<path d="M 0,0 a 859,859 0 0 0 1667,293"/>
</g>
<g id="LBO-">
<path d="M 0,0 a 859,859 0 0 1 -51,293"/>
</g>
<g id="xf-RBI-">
<path d="M 0,0 a 859,859 0 0 1 -51,293"/>
</g>
<g id="LBO[angle=160,len=2400]">
<path d="M 0,0 a 859,859 0 0 1 -1667,293"/>
</g>
</defs>
<use id="r_0_c_0_4" style="stroke-width:4;" transform="translate(0 0) rotate(0)" xlink:href="#Rink"/>
<text style="font-size: 90pt;" x="1500" y="200">
Skills 1 Exercise 2
</text>
<text style="font-size:50pt;" x="1200" y="2800">
START CIRCLE 1
</text>
<use id="r_7_c_0_4" style="stroke-width:4;" transform="translate(1600 2780) rotate(270)" xlink:href="#RBO-"/>
<text style="font-size:24pt;" x="1746" y="2725">
RBO
</text>
<use id="r_8_c_0_7" style="stroke-width:4;" transform="translate(1901 2709) rotate(250)" xlink:href="#xf-LBI-"/>
<text style="font-size:24pt;" x="2019" y="2607">
LBI
</text>
<use id="r_9_c_0_4" style="stroke-width:4;" transform="translate(2138 2537) rotate(230)" xlink:href="#RBO-"/>
<text style="font-size:24pt;" x="2214" y="2401">
RBO
</text>
<use id="r_10_c_0_7" style="stroke-width:4;" transform="translate(2323 2288) rotate(210)" xlink:href="#xf-LBI-"/>
<text style="font-size:24pt;" x="2348" y="2134">
LBI
</text>
<use id="r_11_c_0_4" style="stroke-width:4;" transform="translate(2395 2002) rotate(190)" xlink:href="#RBO-"/>
<text style="font-size:24pt;" x="2366" y="1848">
RBO
</text>
<use id="r_12_c_0_7" style="stroke-width:4;" transform="translate(2377 1691) rotate(170)" xlink:href="#xf-LBI-"/>
<text style="font-size:24pt;" x="2297" y="1556">
LBI
</text>
<use id="r_13_c_0_24" style="stroke-width:4;" transform="translate(2249 1426) rotate(150)" xlink:href="#RBO[angle=160,len=2400]"/>
<text style="font-size:24pt;" x="1428" y="1731">
RBO
</text>
<text style="font-size:50pt;" x="1200" y="3340">
START CIRCLE 2
</text>
<use id="r_18_c_0_4" style="stroke-width:4;" transform="translate(1600 3310) rotate(270)" xlink:href="#LBO-"/>
<text style="font-size:24pt;" x="1746" y="3305">
LBO
</text>
<use id="r_19_c_0_7" style="stroke-width:4;" transform="translate(1901 3380) rotate(290)" xlink:href="#xf-RBI-"/>
<text style="font-size:24pt;" x="2039" y="3425">
RBI
</text>
<use id="r_20_c_0_4" style="stroke-width:4;" transform="translate(2138 3550) rotate(310)" xlink:href="#LBO-"/>
<text style="font-size:24pt;" x="2253" y="3640">
LBO
</text>
<use id="r_21_c_0_7" style="stroke-width:4;" transform="translate(2323 3797) rotate(330)" xlink:href="#xf-RBI-"/>
<text style="font-size:24pt;" x="2400" y="3920">
RBI
</text>
<use id="r_22_c_0_4" style="stroke-width:4;" transform="translate(2395 4081) rotate(350)" xlink:href="#LBO-"/>
<text style="font-size:24pt;" x="2425" y="4223">
LBO
</text>
<use id="r_23_c_0_7" style="stroke-width:4;" transform="translate(2377 4390) rotate(10)" xlink:href="#xf-RBI-"/>
<text style="font-size:24pt;" x="2356" y="4534">
RBI
</text>
<use id="r_24_c_0_24" style="stroke-width:4;" transform="translate(2249 4654) rotate(30)" xlink:href="#LBO[angle=160,len=2400]"/>
<text style="font-size:24pt;" x="1480" y="4378">
LBO
</text>
</svg>