<svg height="675" viewBox="-50 -50 598 675" width="598" xmlns="http://www.w3.org/2000/svg" xmlns:xlink="http://www.w3.org/1999/xlink">
<!-- LFO-Ctr -->
<title>Skating Diagram</title>
<desc>
<text>
Skating Diagram
</text>
</desc>
<defs>
<style>
text { text-anchor: middle } path,rect,circle { fill:none; }
</style>
<g id="LFO-Ctr_0::LFO[angle=90,len=337]">
<path d="M 0,0 a 214,214 0 0 0 214,214"/>
</g>
<g id="LFO-Ctr_1::LF[len=20,label=&quot; &quot;]">
<path d="M 0,0 l 0,20"/>
</g>
<g id="LFO-Ctr_2::LFI[angle=80,len=93,label=&quot; &quot;]">
<path d="M 0,0 a 66,66 0 0 1 -55,65"/>
</g>
<g id="LFO-Ctr_5::LBO[angle=80,len=68,label=&quot; &quot;]">
<path d="M 0,0 a 48,48 0 0 1 -40,47"/>
</g>
<g id="LFO-Ctr_6::LBO[angle=90,len=382]">
<path d="M 0,0 a 243,243 0 0 1 -243,243"/>
</g>
</defs>
<use id="r_0_c_0_7" style="stroke:black; stroke-width:1;" transform="translate(0 0) rotate(0)" xlink:href="#LFO-Ctr_0::LFO[angle=90,len=337]"/>
<text id="r_0_c_0_7_n2" style="stroke:black; fill:black; font-size:12pt;" x="87" y="126">
LFO
</text>
<use id="r_0_c_0_7_n3" style="stroke:black; stroke-width:1;" transform="translate(214 214) rotate(270)" xlink:href="#LFO-Ctr_1::LF[len=20,label=&quot; &quot;]"/>
<use id="r_0_c_0_7_n4" style="stroke:black; stroke-width:1;" transform="translate(234 214) rotate(270)" xlink:href="#LFO-Ctr_2::LFI[angle=80,len=93,label=&quot; &quot;]"/>
<text id="r_0_c_0_7_n5" style="stroke:black; fill:black; font-size:12pt;" x="305" y="308">
Ctr
</text>
<use id="r_0_c_0_7_n6" style="stroke:black; stroke-width:1;" transform="translate(299 269) rotate(215)" xlink:href="#LFO-Ctr_5::LBO[angle=80,len=68,label=&quot; &quot;]"/>
<use id="r_0_c_0_7_n7" style="stroke:black; stroke-width:1;" transform="translate(358 253) rotate(295)" xlink:href="#LFO-Ctr_6::LBO[angle=90,len=382]"/>
<text id="r_0_c_0_7_n8" style="stroke:black; fill:black; font-size:12pt;" x="449" y="401">
LBO
</text>
</svg>