<svg height="6200" viewBox="-50 -50 3100 6200" width="3100" xmlns="http://www.w3.org/2000/svg" xmlns:xlink="http://www.w3.org/1999/xlink">
<title>Skills 4 Exercise 2</title>
<desc>
<text>
Skills 4 Exercise 2
</text>
</desc>
<defs>
<style>
text { text-anchor: middle } path,rect,circle { fill:none; }
</style>
<g id="Rink">
<clipPath id="clip-rink">
<rect height="6100" rx="750" ry="750" width="3000" x="0" y="0"/>
</clipPath>
<rect height="6100" rx="750" ry="750" style="text { text-anchor: middle } path,rect,circle { fill:none; } clip-path:url(#clip-rink)" width="3000" x="0" y="0"/>
<path d="M 0,3050 l 3000,0" style="stroke:red;"/>
<circle cx="1500" cy="3050" r="400" style="stroke:red;"/>
<circle cx="1500" cy="3050" r="2" style="fill: black;"/>
<path d="M 0,2250 l 3000,0" style="stroke: blue;"/>
<path d="M 0,3850 l 3000,0" style="stroke: blue;"/>
</g>
<g id="Info"/>
<g id="LF[len=400,label=&quot; &quot;,style=&quot;dashed&quot;]">
<path d="M 0,0 l 0,400" stroke-dasharray="50 30"/>
</g>
<g id="LFO3&gt;[len=250]_0::LFO[angle=40,len=187,label=&quot;LFO3&quot;]">
<path d="M 0,0 a 267,267 0 0 0 62,172"/>
</g>
<g id="LFO3&gt;[len=250]_1::LFO&gt;[len=63,label=&quot; &quot;]">
<path d="M 0,0 a 60,60 0 0 0 30,52"/>
</g>
<g id="LFO3&gt;[len=250]_3::LBI&gt;[len=63,label=&quot; &quot;]">
<path d="M 0,0 a 60,60 0 0 0 30,52"/>
</g>
<g id="LFO3&gt;[len=250]_4::LBI[angle=40,len=187]">
<path d="M 0,0 a 267,267 0 0 0 62,172"/>
</g>
<g id="RBO3[len=200]_0::RBO[angle=36,len=150,label=&quot;RBO3&quot;]">
<path d="M 0,0 a 238,238 0 0 0 45,140"/>
</g>
<g id="RBO3[len=200]_1::RBO[angle=54,len=50,label=&quot; &quot;]">
<path d="M 0,0 a 53,53 0 0 0 21,42"/>
</g>
<g id="RBO3[len=200]_3::RFI[angle=54,len=50,label=&quot; &quot;]">
<path d="M 0,0 a 53,53 0 0 0 21,42"/>
</g>
<g id="RBO3[len=200]_4::RFI[angle=36,len=150]">
<path d="M 0,0 a 238,238 0 0 0 45,140"/>
</g>
<g id="RFI3[len=200,transition-label=&quot; &quot;]_0::RFI[angle=36,len=150,label=&quot;RFI3&quot;,transition-label=&quot; &quot;]">
<path d="M 0,0 a 238,238 0 0 0 45,140"/>
</g>
<g id="RFI3[len=200,transition-label=&quot; &quot;]_1::RFI[angle=54,len=50,label=&quot; &quot;]">
<path d="M 0,0 a 53,53 0 0 0 21,42"/>
</g>
<g id="RFI3[len=200,transition-label=&quot; &quot;]_3::RBO[angle=54,len=50,label=&quot; &quot;]">
<path d="M 0,0 a 53,53 0 0 0 21,42"/>
</g>
<g id="RFI3[len=200,transition-label=&quot; &quot;]_4::RBO[angle=36,len=150]">
<path d="M 0,0 a 238,238 0 0 0 45,140"/>
</g>
<g id="LFO-[angle=80]">
<path d="M 0,0 a 214,214 0 0 0 177,211"/>
</g>
<g id="xf-RFO3&gt;&gt;-[transition-label=&quot;CR&quot;]_0::xf-RFO[angle=48,len=225,label=&quot;RFO3&quot;,transition-label=&quot;CR&quot;]">
<path d="M 0,0 a 268,268 0 0 1 -88,199"/>
</g>
<g id="xf-RFO3&gt;&gt;-[transition-label=&quot;CR&quot;]_1::RFO[angle=72,len=75,label=&quot; &quot;]">
<path d="M 0,0 a 59,59 0 0 1 -41,56"/>
</g>
<g id="xf-RFO3&gt;&gt;-[transition-label=&quot;CR&quot;]_3::RBI[angle=72,len=75,label=&quot; &quot;]">
<path d="M 0,0 a 59,59 0 0 1 -41,56"/>
</g>
<g id="xf-RFO3&gt;&gt;-[transition-label=&quot;CR&quot;]_4::RBI[angle=48,len=225]">
<path d="M 0,0 a 268,268 0 0 1 -88,199"/>
</g>
<g id="LBO3&lt;[len=200]_0::LBO[angle=32,len=150,label=&quot;LBO3&quot;]">
<path d="M 0,0 a 268,268 0 0 1 -40,142"/>
</g>
<g id="LBO3&lt;[len=200]_1::LBO[angle=48,len=50,label=&quot; &quot;]">
<path d="M 0,0 a 59,59 0 0 1 -19,44"/>
</g>
<g id="LBO3&lt;[len=200]_3::LFI[angle=48,len=50,label=&quot; &quot;]">
<path d="M 0,0 a 59,59 0 0 1 -19,44"/>
</g>
<g id="LBO3&lt;[len=200]_4::LFI[angle=32,len=150]">
<path d="M 0,0 a 268,268 0 0 1 -40,142"/>
</g>
<g id="LFI3&gt;[len=180,transition-label=&quot; &quot;]_0::LFI[angle=40,len=135,label=&quot;LFI3&quot;,transition-label=&quot; &quot;]">
<path d="M 0,0 a 193,193 0 0 1 -45,124"/>
</g>
<g id="LFI3&gt;[len=180,transition-label=&quot; &quot;]_1::LFI&gt;[len=45,label=&quot; &quot;]">
<path d="M 0,0 a 42,42 0 0 1 -21,37"/>
</g>
<g id="LFI3&gt;[len=180,transition-label=&quot; &quot;]_3::LBO&gt;[len=45,label=&quot; &quot;]">
<path d="M 0,0 a 42,42 0 0 1 -21,37"/>
</g>
<g id="LFI3&gt;[len=180,transition-label=&quot; &quot;]_4::LBO[angle=40,len=135]">
<path d="M 0,0 a 193,193 0 0 1 -45,124"/>
</g>
<g id="RFO-[angle=80]">
<path d="M 0,0 a 214,214 0 0 1 -177,211"/>
</g>
<g id="xf-LFO3[angle=130,len=250,transition-label=&quot;CR&quot;]_0::xf-LFO[angle=52,len=187,label=&quot;LFO3&quot;,transition-label=&quot;CR&quot;]">
<path d="M 0,0 a 206,206 0 0 0 79,162"/>
</g>
<g id="xf-LFO3[angle=130,len=250,transition-label=&quot;CR&quot;]_1::LFO[angle=78,len=63,label=&quot; &quot;]">
<path d="M 0,0 a 46,46 0 0 0 36,45"/>
</g>
<g id="xf-LFO3[angle=130,len=250,transition-label=&quot;CR&quot;]_3::LBI[angle=78,len=63,label=&quot; &quot;]">
<path d="M 0,0 a 46,46 0 0 0 36,45"/>
</g>
<g id="xf-LFO3[angle=130,len=250,transition-label=&quot;CR&quot;]_4::LBI[angle=52,len=187]">
<path d="M 0,0 a 206,206 0 0 0 79,162"/>
</g>
<g id="RBO3&lt;&lt;[len=180]_0::RBO[angle=28,len=135,label=&quot;RBO3&quot;]">
<path d="M 0,0 a 276,276 0 0 0 32,129"/>
</g>
<g id="RBO3&lt;&lt;[len=180]_1::RBO[angle=42,len=45,label=&quot; &quot;]">
<path d="M 0,0 a 61,61 0 0 0 15,41"/>
</g>
<g id="RBO3&lt;&lt;[len=180]_3::RFI[angle=42,len=45,label=&quot; &quot;]">
<path d="M 0,0 a 61,61 0 0 0 15,41"/>
</g>
<g id="RBO3&lt;&lt;[len=180]_4::RFI[angle=28,len=135]">
<path d="M 0,0 a 276,276 0 0 0 32,129"/>
</g>
<g id="RFI3[len=180,transition-label=&quot; &quot;]_0::RFI[angle=36,len=135,label=&quot;RFI3&quot;,transition-label=&quot; &quot;]">
<path d="M 0,0 a 214,214 0 0 0 41,126"/>
</g>
<g id="RFI3[len=180,transition-label=&quot; &quot;]_1::RFI[angle=54,len=45,label=&quot; &quot;]">
<path d="M 0,0 a 47,47 0 0 0 19,38"/>
</g>
<g id="RFI3[len=180,transition-label=&quot; &quot;]_3::RBO[angle=54,len=45,label=&quot; &quot;]">
<path d="M 0,0 a 47,47 0 0 0 19,38"/>
</g>
<g id="RFI3[len=180,transition-label=&quot; &quot;]_4::RBO[angle=36,len=135]">
<path d="M 0,0 a 214,214 0 0 0 41,126"/>
</g>
<g id="LFO[angle=90,len=350]">
<path d="M 0,0 a 222,222 0 0 0 222,222"/>
</g>
<g id="xf-RFO3-[angle=110,transition-label=&quot;CR&quot;]_0::xf-RFO[angle=44,len=225,label=&quot;RFO3&quot;,transition-label=&quot;CR&quot;]">
<path d="M 0,0 a 292,292 0 0 1 -82,203"/>
</g>
<g id="xf-RFO3-[angle=110,transition-label=&quot;CR&quot;]_1::RFO[angle=66,len=75,label=&quot; &quot;]">
<path d="M 0,0 a 65,65 0 0 1 -38,59"/>
</g>
<g id="xf-RFO3-[angle=110,transition-label=&quot;CR&quot;]_3::RBI[angle=66,len=75,label=&quot; &quot;]">
<path d="M 0,0 a 65,65 0 0 1 -38,59"/>
</g>
<g id="xf-RFO3-[angle=110,transition-label=&quot;CR&quot;]_4::RBI[angle=44,len=225]">
<path d="M 0,0 a 292,292 0 0 1 -82,203"/>
</g>
<g id="LBO3[len=200]_0::LBO[angle=36,len=150,label=&quot;LBO3&quot;]">
<path d="M 0,0 a 238,238 0 0 1 -45,140"/>
</g>
<g id="LBO3[len=200]_1::LBO[angle=54,len=50,label=&quot; &quot;]">
<path d="M 0,0 a 53,53 0 0 1 -21,42"/>
</g>
<g id="LBO3[len=200]_3::LFI[angle=54,len=50,label=&quot; &quot;]">
<path d="M 0,0 a 53,53 0 0 1 -21,42"/>
</g>
<g id="LBO3[len=200]_4::LFI[angle=36,len=150]">
<path d="M 0,0 a 238,238 0 0 1 -45,140"/>
</g>
<g id="LFI3[len=150,transition-label=&quot; &quot;]_0::LFI[angle=36,len=112,label=&quot;LFI3&quot;,transition-label=&quot; &quot;]">
<path d="M 0,0 a 178,178 0 0 1 -34,104"/>
</g>
<g id="LFI3[len=150,transition-label=&quot; &quot;]_1::LFI[angle=54,len=38,label=&quot; &quot;]">
<path d="M 0,0 a 40,40 0 0 1 -16,32"/>
</g>
<g id="LFI3[len=150,transition-label=&quot; &quot;]_3::LBO[angle=54,len=38,label=&quot; &quot;]">
<path d="M 0,0 a 40,40 0 0 1 -16,32"/>
</g>
<g id="LFI3[len=150,transition-label=&quot; &quot;]_4::LBO[angle=36,len=112]">
<path d="M 0,0 a 178,178 0 0 1 -34,104"/>
</g>
<g id="LF[len=550,label=&quot; &quot;,style=&quot;dashed&quot;]">
<path d="M 0,0 l 0,550" stroke-dasharray="50 30"/>
</g>
<g id="LFO3[len=200]_0::LFO[angle=36,len=150,label=&quot;LFO3&quot;]">
<path d="M 0,0 a 238,238 0 0 0 45,140"/>
</g>
<g id="LFO3[len=200]_1::LFO[angle=54,len=50,label=&quot; &quot;]">
<path d="M 0,0 a 53,53 0 0 0 21,42"/>
</g>
<g id="LFO3[len=200]_3::LBI[angle=54,len=50,label=&quot; &quot;]">
<path d="M 0,0 a 53,53 0 0 0 21,42"/>
</g>
<g id="LFO3[len=200]_4::LBI[angle=36,len=150]">
<path d="M 0,0 a 238,238 0 0 0 45,140"/>
</g>
<g id="RBO[len=150]">
<path d="M 0,0 a 429,429 0 0 0 25,146"/>
</g>
<g id="xf-LBI3[len=230]_0::xf-LBI[angle=36,len=172,label=&quot;LBI3&quot;]">
<path d="M 0,0 a 273,273 0 0 0 52,160"/>
</g>
<g id="xf-LBI3[len=230]_1::LBI[angle=54,len=58,label=&quot; &quot;]">
<path d="M 0,0 a 61,61 0 0 0 25,49"/>
</g>
<g id="xf-LBI3[len=230]_3::LFO[angle=54,len=58,label=&quot; &quot;]">
<path d="M 0,0 a 61,61 0 0 0 25,49"/>
</g>
<g id="xf-LBI3[len=230]_4::LFO[angle=36,len=172]">
<path d="M 0,0 a 273,273 0 0 0 52,160"/>
</g>
<g id="LFO3[len=230]_0::LFO[angle=36,len=172,label=&quot;LFO3&quot;]">
<path d="M 0,0 a 273,273 0 0 0 52,160"/>
</g>
<g id="LFO3[len=230]_1::LFO[angle=54,len=58,label=&quot; &quot;]">
<path d="M 0,0 a 61,61 0 0 0 25,49"/>
</g>
<g id="LFO3[len=230]_3::LBI[angle=54,len=58,label=&quot; &quot;]">
<path d="M 0,0 a 61,61 0 0 0 25,49"/>
</g>
<g id="LFO3[len=230]_4::LBI[angle=36,len=172]">
<path d="M 0,0 a 273,273 0 0 0 52,160"/>
</g>
<g id="RBO&gt;[len=250]">
<path d="M 0,0 a 238,238 0 0 0 119,206"/>
</g>
<g id="xb-LBO&gt;[len=200,transition-label=&quot;CR&quot;]">
<path d="M 0,0 a 190,190 0 0 1 -95,165"/>
</g>
<g id="RFO3&gt;[len=200]_0::RFO[angle=40,len=150,label=&quot;RFO3&quot;]">
<path d="M 0,0 a 214,214 0 0 1 -50,138"/>
</g>
<g id="RFO3&gt;[len=200]_1::RFO&gt;[len=50,label=&quot; &quot;]">
<path d="M 0,0 a 47,47 0 0 1 -23,41"/>
</g>
<g id="RFO3&gt;[len=200]_3::RBI&gt;[len=50,label=&quot; &quot;]">
<path d="M 0,0 a 47,47 0 0 1 -23,41"/>
</g>
<g id="RFO3&gt;[len=200]_4::RBI[angle=40,len=150]">
<path d="M 0,0 a 214,214 0 0 1 -50,138"/>
</g>
<g id="LBO[len=180]">
<path d="M 0,0 a 515,515 0 0 1 -31,176"/>
</g>
<g id="xf-RBI3[len=230]_0::xf-RBI[angle=36,len=172,label=&quot;RBI3&quot;]">
<path d="M 0,0 a 273,273 0 0 1 -52,160"/>
</g>
<g id="xf-RBI3[len=230]_1::RBI[angle=54,len=58,label=&quot; &quot;]">
<path d="M 0,0 a 61,61 0 0 1 -25,49"/>
</g>
<g id="xf-RBI3[len=230]_3::RFO[angle=54,len=58,label=&quot; &quot;]">
<path d="M 0,0 a 61,61 0 0 1 -25,49"/>
</g>
<g id="xf-RBI3[len=230]_4::RFO[angle=36,len=172]">
<path d="M 0,0 a 273,273 0 0 1 -52,160"/>
</g>
<g id="RFO3[len=200]_0::RFO[angle=36,len=150,label=&quot;RFO3&quot;]">
<path d="M 0,0 a 238,238 0 0 1 -45,140"/>
</g>
<g id="RFO3[len=200]_1::RFO[angle=54,len=50,label=&quot; &quot;]">
<path d="M 0,0 a 53,53 0 0 1 -21,42"/>
</g>
<g id="RFO3[len=200]_3::RBI[angle=54,len=50,label=&quot; &quot;]">
<path d="M 0,0 a 53,53 0 0 1 -21,42"/>
</g>
<g id="RFO3[len=200]_4::RBI[angle=36,len=150]">
<path d="M 0,0 a 238,238 0 0 1 -45,140"/>
</g>
<g id="LBO&gt;[len=250]">
<path d="M 0,0 a 238,238 0 0 1 -119,206"/>
</g>
<g id="xb-RBO&gt;[len=200,transition-label=&quot;CR&quot;]">
<path d="M 0,0 a 190,190 0 0 0 95,165"/>
</g>
<g id="LFO3[len=180]_0::LFO[angle=36,len=135,label=&quot;LFO3&quot;]">
<path d="M 0,0 a 214,214 0 0 0 41,126"/>
</g>
<g id="LFO3[len=180]_1::LFO[angle=54,len=45,label=&quot; &quot;]">
<path d="M 0,0 a 47,47 0 0 0 19,38"/>
</g>
<g id="LFO3[len=180]_3::LBI[angle=54,len=45,label=&quot; &quot;]">
<path d="M 0,0 a 47,47 0 0 0 19,38"/>
</g>
<g id="LFO3[len=180]_4::LBI[angle=36,len=135]">
<path d="M 0,0 a 214,214 0 0 0 41,126"/>
</g>
<g id="RBO[len=180]">
<path d="M 0,0 a 515,515 0 0 0 31,176"/>
</g>
<g id="xf-LBI3[len=250]_0::xf-LBI[angle=36,len=187,label=&quot;LBI3&quot;]">
<path d="M 0,0 a 297,297 0 0 0 56,174"/>
</g>
<g id="xf-LBI3[len=250]_1::LBI[angle=54,len=63,label=&quot; &quot;]">
<path d="M 0,0 a 66,66 0 0 0 27,54"/>
</g>
<g id="xf-LBI3[len=250]_3::LFO[angle=54,len=63,label=&quot; &quot;]">
<path d="M 0,0 a 66,66 0 0 0 27,54"/>
</g>
<g id="xf-LBI3[len=250]_4::LFO[angle=36,len=187]">
<path d="M 0,0 a 297,297 0 0 0 56,174"/>
</g>
<g id="LFO3&gt;[len=230]_0::LFO[angle=40,len=172,label=&quot;LFO3&quot;]">
<path d="M 0,0 a 246,246 0 0 0 57,158"/>
</g>
<g id="LFO3&gt;[len=230]_1::LFO&gt;[len=58,label=&quot; &quot;]">
<path d="M 0,0 a 55,55 0 0 0 27,47"/>
</g>
<g id="LFO3&gt;[len=230]_3::LBI&gt;[len=58,label=&quot; &quot;]">
<path d="M 0,0 a 55,55 0 0 0 27,47"/>
</g>
<g id="LFO3&gt;[len=230]_4::LBI[angle=40,len=172]">
<path d="M 0,0 a 246,246 0 0 0 57,158"/>
</g>
<g id="xb-LBO[angle=70,len=250,transition-label=&quot;CR&quot;]">
<path d="M 0,0 a 204,204 0 0 1 -134,192"/>
</g>
</defs>
<use id="r_0_c_0_4" style="stroke:black; stroke-width:4;" transform="translate(0 0) rotate(0)" xlink:href="#Rink"/>
<text id="r_1_c_0_53" style="stroke:black; fill:black; font-size: 90pt;" x="1500" y="200">
Skills 4 Exercise 2
</text>
<text id="r_4_c_0_46" style="stroke:black; fill:black; font-size:50pt;" x="1050" y="625">
SIDE 1
</text>
<use id="r_6_c_0_37" style="stroke:black; stroke-width:4;" transform="translate(900 600) rotate(90)" xlink:href="#LF[len=400,label=&quot; &quot;,style=&quot;dashed&quot;]"/>
<use id="r_8_c_0_24" style="stroke:black; stroke-width:4;" transform="translate(500 600) rotate(90)" xlink:href="#LFO3&gt;[len=250]_0::LFO[angle=40,len=187,label=&quot;LFO3&quot;]"/>
<text id="r_8_c_0_24_n2" style="stroke:black; fill:black; font-size:24pt;" x="433" y="683">
LFO3
</text>
<use id="r_8_c_0_24_n3" style="stroke:black; stroke-width:4;" transform="translate(328 662) rotate(50)" xlink:href="#LFO3&gt;[len=250]_1::LFO&gt;[len=63,label=&quot; &quot;]"/>
<use id="r_8_c_0_24_n4" style="stroke:black; stroke-width:4;" transform="translate(307 718) rotate(125)" xlink:href="#LFO3&gt;[len=250]_3::LBI&gt;[len=63,label=&quot; &quot;]"/>
<use id="r_8_c_0_24_n5" style="stroke:black; stroke-width:4;" transform="translate(247 712) rotate(65)" xlink:href="#LFO3&gt;[len=250]_4::LBI[angle=40,len=187]"/>
<text id="r_8_c_0_24_n6" style="stroke:black; fill:black; font-size:24pt;" x="221" y="815">
LBI
</text>
<text id="r_9_c_0_36" style="stroke:black; fill:black; font-size:24pt;" x="391" y="966">
RBO Double 3
</text>
<use id="r_10_c_0_23" style="stroke:black; stroke-width:4;" transform="translate(147 852) rotate(25)" xlink:href="#RBO3[len=200]_0::RBO[angle=36,len=150,label=&quot;RBO3&quot;]"/>
<text id="r_10_c_0_23_n2" style="stroke:black; fill:black; font-size:24pt;" x="197" y="931">
RBO3
</text>
<use id="r_10_c_0_23_n3" style="stroke:black; stroke-width:4;" transform="translate(128 997) rotate(349)" xlink:href="#RBO3[len=200]_1::RBO[angle=54,len=50,label=&quot; &quot;]"/>
<use id="r_10_c_0_23_n4" style="stroke:black; stroke-width:4;" transform="translate(156 1034) rotate(70)" xlink:href="#RBO3[len=200]_3::RFI[angle=54,len=50,label=&quot; &quot;]"/>
<use id="r_10_c_0_23_n5" style="stroke:black; stroke-width:4;" transform="translate(123 1068) rotate(16)" xlink:href="#RBO3[len=200]_4::RFI[angle=36,len=150]"/>
<text id="r_10_c_0_23_n6" style="stroke:black; fill:black; font-size:24pt;" x="184" y="1138">
RFI
</text>
<use id="r_11_c_0_44" style="stroke:black; stroke-width:4;" transform="translate(129 1214) rotate(340)" xlink:href="#RFI3[len=200,transition-label=&quot; &quot;]_0::RFI[angle=36,len=150,label=&quot;RFI3&quot;,transition-label=&quot; &quot;]"/>
<text id="r_11_c_0_44_n2" style="stroke:black; fill:black; font-size:24pt;" x="220" y="1234">
RFI3
</text>
<use id="r_11_c_0_44_n3" style="stroke:black; stroke-width:4;" transform="translate(219 1330) rotate(304)" xlink:href="#RFI3[len=200,transition-label=&quot; &quot;]_1::RFI[angle=54,len=50,label=&quot; &quot;]"/>
<use id="r_11_c_0_44_n4" style="stroke:black; stroke-width:4;" transform="translate(265 1336) rotate(25)" xlink:href="#RFI3[len=200,transition-label=&quot; &quot;]_3::RBO[angle=54,len=50,label=&quot; &quot;]"/>
<use id="r_11_c_0_44_n5" style="stroke:black; stroke-width:4;" transform="translate(266 1382) rotate(331)" xlink:href="#RFI3[len=200,transition-label=&quot; &quot;]_4::RBO[angle=36,len=150]"/>
<text id="r_11_c_0_44_n6" style="stroke:black; fill:black; font-size:24pt;" x="359" y="1388">
RBO
</text>
<use id="r_13_c_0_22" style="stroke:black; stroke-width:4;" transform="translate(392 1485) rotate(325)" xlink:href="#LFO-[angle=80]"/>
<text id="r_13_c_0_22_n2" style="stroke:black; fill:black; font-size:24pt;" x="530" y="1500">
LFO
</text>
<use id="r_15_c_0_49" style="stroke:black; stroke-width:4;" transform="translate(665 1536) rotate(245)" xlink:href="#xf-RFO3&gt;&gt;-[transition-label=&quot;CR&quot;]_0::xf-RFO[angle=48,len=225,label=&quot;RFO3&quot;,transition-label=&quot;CR&quot;]"/>
<text id="r_15_c_0_49_n2" style="stroke:black; fill:black; font-size:24pt;" x="774" y="1581">
RFO3
</text>
<text id="r_15_c_0_49_n3" style="stroke:black; fill:black; font-size:24pt;" x="654" y="1487">
CR
</text>
<use id="r_15_c_0_49_n4" style="stroke:black; stroke-width:4;" transform="translate(882 1531) rotate(293)" xlink:href="#xf-RFO3&gt;&gt;-[transition-label=&quot;CR&quot;]_1::RFO[angle=72,len=75,label=&quot; &quot;]"/>
<use id="r_15_c_0_49_n5" style="stroke:black; stroke-width:4;" transform="translate(917 1590) rotate(230)" xlink:href="#xf-RFO3&gt;&gt;-[transition-label=&quot;CR&quot;]_3::RBI[angle=72,len=75,label=&quot; &quot;]"/>
<use id="r_15_c_0_49_n6" style="stroke:black; stroke-width:4;" transform="translate(986 1585) rotate(302)" xlink:href="#xf-RFO3&gt;&gt;-[transition-label=&quot;CR&quot;]_4::RBI[angle=48,len=225]"/>
<text id="r_15_c_0_49_n7" style="stroke:black; fill:black; font-size:24pt;" x="1007" y="1702">
RBI
</text>
<text id="r_16_c_0_37" style="stroke:black; fill:black; font-size:24pt;" x="811" y="1818">
LBO Double 3
</text>
<use id="r_17_c_0_23" style="stroke:black; stroke-width:4;" transform="translate(1077 1771) rotate(350)" xlink:href="#LBO3&lt;[len=200]_0::LBO[angle=32,len=150,label=&quot;LBO3&quot;]"/>
<text id="r_17_c_0_23_n2" style="stroke:black; fill:black; font-size:24pt;" x="1008" y="1838">
LBO3
</text>
<use id="r_17_c_0_23_n3" style="stroke:black; stroke-width:4;" transform="translate(1062 1917) rotate(22)" xlink:href="#LBO3&lt;[len=200]_1::LBO[angle=48,len=50,label=&quot; &quot;]"/>
<use id="r_17_c_0_23_n4" style="stroke:black; stroke-width:4;" transform="translate(1027 1950) rotate(295)" xlink:href="#LBO3&lt;[len=200]_3::LFI[angle=48,len=50,label=&quot; &quot;]"/>
<use id="r_17_c_0_23_n5" style="stroke:black; stroke-width:4;" transform="translate(1058 1985) rotate(343)" xlink:href="#LBO3&lt;[len=200]_4::LFI[angle=32,len=150]"/>
<text id="r_17_c_0_23_n6" style="stroke:black; fill:black; font-size:24pt;" x="998" y="2060">
LFI
</text>
<use id="r_18_c_0_45" style="stroke:black; stroke-width:4;" transform="translate(1064 2132) rotate(15)" xlink:href="#LFI3&gt;[len=180,transition-label=&quot; &quot;]_0::LFI[angle=40,len=135,label=&quot;LFI3&quot;,transition-label=&quot; &quot;]"/>
<text id="r_18_c_0_45_n2" style="stroke:black; fill:black; font-size:24pt;" x="977" y="2152">
LFI3
</text>
<use id="r_18_c_0_45_n3" style="stroke:black; stroke-width:4;" transform="translate(988 2240) rotate(55)" xlink:href="#LFI3&gt;[len=180,transition-label=&quot; &quot;]_1::LFI&gt;[len=45,label=&quot; &quot;]"/>
<use id="r_18_c_0_45_n4" style="stroke:black; stroke-width:4;" transform="translate(945 2244) rotate(340)" xlink:href="#LFI3&gt;[len=180,transition-label=&quot; &quot;]_3::LBO&gt;[len=45,label=&quot; &quot;]"/>
<use id="r_18_c_0_45_n5" style="stroke:black; stroke-width:4;" transform="translate(937 2285) rotate(40)" xlink:href="#LFI3&gt;[len=180,transition-label=&quot; &quot;]_4::LBO[angle=40,len=135]"/>
<text id="r_18_c_0_45_n6" style="stroke:black; fill:black; font-size:24pt;" x="850" y="2267">
LBO
</text>
<use id="r_20_c_0_22" style="stroke:black; stroke-width:4;" transform="translate(805 2349) rotate(50)" xlink:href="#RFO-[angle=80]"/>
<text id="r_20_c_0_22_n2" style="stroke:black; fill:black; font-size:24pt;" x="667" y="2327">
RFO
</text>
<use id="r_22_c_0_49" style="stroke:black; stroke-width:4;" transform="translate(527 2327) rotate(130)" xlink:href="#xf-LFO3[angle=130,len=250,transition-label=&quot;CR&quot;]_0::xf-LFO[angle=52,len=187,label=&quot;LFO3&quot;,transition-label=&quot;CR&quot;]"/>
<text id="r_22_c_0_49_n2" style="stroke:black; fill:black; font-size:24pt;" x="427" y="2353">
LFO3
</text>
<text id="r_22_c_0_49_n3" style="stroke:black; fill:black; font-size:24pt;" x="550" y="2284">
CR
</text>
<use id="r_22_c_0_49_n4" style="stroke:black; stroke-width:4;" transform="translate(352 2283) rotate(78)" xlink:href="#xf-LFO3[angle=130,len=250,transition-label=&quot;CR&quot;]_1::LFO[angle=78,len=63,label=&quot; &quot;]"/>
<use id="r_22_c_0_49_n5" style="stroke:black; stroke-width:4;" transform="translate(315 2327) rotate(135)" xlink:href="#xf-LFO3[angle=130,len=250,transition-label=&quot;CR&quot;]_3::LBI[angle=78,len=63,label=&quot; &quot;]"/>
<use id="r_22_c_0_49_n6" style="stroke:black; stroke-width:4;" transform="translate(257 2320) rotate(57)" xlink:href="#xf-LFO3[angle=130,len=250,transition-label=&quot;CR&quot;]_4::LBI[angle=52,len=187]"/>
<text id="r_22_c_0_49_n7" style="stroke:black; fill:black; font-size:24pt;" x="253" y="2422">
LBI
</text>
<text id="r_23_c_0_36" style="stroke:black; fill:black; font-size:24pt;" x="466" y="2502">
RBO Double 3
</text>
<use id="r_24_c_0_23" style="stroke:black; stroke-width:4;" transform="translate(197 2478) rotate(5)" xlink:href="#RBO3&lt;&lt;[len=180]_0::RBO[angle=28,len=135,label=&quot;RBO3&quot;]"/>
<text id="r_24_c_0_23_n2" style="stroke:black; fill:black; font-size:24pt;" x="269" y="2533">
RBO3
</text>
<use id="r_24_c_0_23_n3" style="stroke:black; stroke-width:4;" transform="translate(217 2609) rotate(337)" xlink:href="#RBO3&lt;&lt;[len=180]_1::RBO[angle=42,len=45,label=&quot; &quot;]"/>
<use id="r_24_c_0_23_n4" style="stroke:black; stroke-width:4;" transform="translate(246 2640) rotate(70)" xlink:href="#RBO3&lt;&lt;[len=180]_3::RFI[angle=42,len=45,label=&quot; &quot;]"/>
<use id="r_24_c_0_23_n5" style="stroke:black; stroke-width:4;" transform="translate(212 2668) rotate(28)" xlink:href="#RBO3&lt;&lt;[len=180]_4::RFI[angle=28,len=135]"/>
<text id="r_24_c_0_23_n6" style="stroke:black; fill:black; font-size:24pt;" x="256" y="2747">
RFI
</text>
<use id="r_25_c_0_44" style="stroke:black; stroke-width:4;" transform="translate(181 2796) rotate(0)" xlink:href="#RFI3[len=180,transition-label=&quot; &quot;]_0::RFI[angle=36,len=135,label=&quot;RFI3&quot;,transition-label=&quot; &quot;]"/>
<text id="r_25_c_0_44_n2" style="stroke:black; fill:black; font-size:24pt;" x="259" y="2840">
RFI3
</text>
<use id="r_25_c_0_44_n3" style="stroke:black; stroke-width:4;" transform="translate(222 2922) rotate(324)" xlink:href="#RFI3[len=180,transition-label=&quot; &quot;]_1::RFI[angle=54,len=45,label=&quot; &quot;]"/>
<use id="r_25_c_0_44_n4" style="stroke:black; stroke-width:4;" transform="translate(259 2941) rotate(45)" xlink:href="#RFI3[len=180,transition-label=&quot; &quot;]_3::RBO[angle=54,len=45,label=&quot; &quot;]"/>
<use id="r_25_c_0_44_n5" style="stroke:black; stroke-width:4;" transform="translate(245 2981) rotate(351)" xlink:href="#RFI3[len=180,transition-label=&quot; &quot;]_4::RBO[angle=36,len=135]"/>
<text id="r_25_c_0_44_n6" style="stroke:black; fill:black; font-size:24pt;" x="328" y="3012">
RBO
</text>
<use id="r_27_c_0_22" style="stroke:black; stroke-width:4;" transform="translate(323 3109) rotate(345)" xlink:href="#LFO[angle=90,len=350]"/>
<text id="r_27_c_0_22_n2" style="stroke:black; fill:black; font-size:24pt;" x="461" y="3182">
LFO
</text>
<use id="r_29_c_0_49" style="stroke:black; stroke-width:4;" transform="translate(604 3246) rotate(255)" xlink:href="#xf-RFO3-[angle=110,transition-label=&quot;CR&quot;]_0::xf-RFO[angle=44,len=225,label=&quot;RFO3&quot;,transition-label=&quot;CR&quot;]"/>
<text id="r_29_c_0_49_n2" style="stroke:black; fill:black; font-size:24pt;" x="706" y="3308">
RFO3
</text>
<text id="r_29_c_0_49_n3" style="stroke:black; fill:black; font-size:24pt;" x="602" y="3196">
CR
</text>
<use id="r_29_c_0_49_n4" style="stroke:black; stroke-width:4;" transform="translate(821 3272) rotate(299)" xlink:href="#xf-RFO3-[angle=110,transition-label=&quot;CR&quot;]_1::RFO[angle=66,len=75,label=&quot; &quot;]"/>
<use id="r_29_c_0_49_n5" style="stroke:black; stroke-width:4;" transform="translate(854 3333) rotate(230)" xlink:href="#xf-RFO3-[angle=110,transition-label=&quot;CR&quot;]_3::RBI[angle=66,len=75,label=&quot; &quot;]"/>
<use id="r_29_c_0_49_n6" style="stroke:black; stroke-width:4;" transform="translate(923 3324) rotate(296)" xlink:href="#xf-RFO3-[angle=110,transition-label=&quot;CR&quot;]_4::RBI[angle=44,len=225]"/>
<text id="r_29_c_0_49_n7" style="stroke:black; fill:black; font-size:24pt;" x="959" y="3438">
RBI
</text>
<text id="r_30_c_0_37" style="stroke:black; fill:black; font-size:24pt;" x="787" y="3589">
LBO Double 3
</text>
<use id="r_31_c_0_23" style="stroke:black; stroke-width:4;" transform="translate(1040 3497) rotate(340)" xlink:href="#LBO3[len=200]_0::LBO[angle=36,len=150,label=&quot;LBO3&quot;]"/>
<text id="r_31_c_0_23_n2" style="stroke:black; fill:black; font-size:24pt;" x="983" y="3571">
LBO3
</text>
<use id="r_31_c_0_23_n3" style="stroke:black; stroke-width:4;" transform="translate(1045 3643) rotate(16)" xlink:href="#LBO3[len=200]_1::LBO[angle=54,len=50,label=&quot; &quot;]"/>
<use id="r_31_c_0_23_n4" style="stroke:black; stroke-width:4;" transform="translate(1013 3677) rotate(295)" xlink:href="#LBO3[len=200]_3::LFI[angle=54,len=50,label=&quot; &quot;]"/>
<use id="r_31_c_0_23_n5" style="stroke:black; stroke-width:4;" transform="translate(1042 3713) rotate(349)" xlink:href="#LBO3[len=200]_4::LFI[angle=36,len=150]"/>
<text id="r_31_c_0_23_n6" style="stroke:black; fill:black; font-size:24pt;" x="974" y="3778">
LFI
</text>
<use id="r_32_c_0_44" style="stroke:black; stroke-width:4;" transform="translate(1026 3859) rotate(25)" xlink:href="#LFI3[len=150,transition-label=&quot; &quot;]_0::LFI[angle=36,len=112,label=&quot;LFI3&quot;,transition-label=&quot; &quot;]"/>
<text id="r_32_c_0_44_n2" style="stroke:black; fill:black; font-size:24pt;" x="943" y="3856">
LFI3
</text>
<use id="r_32_c_0_44_n3" style="stroke:black; stroke-width:4;" transform="translate(951 3938) rotate(61)" xlink:href="#LFI3[len=150,transition-label=&quot; &quot;]_1::LFI[angle=54,len=38,label=&quot; &quot;]"/>
<use id="r_32_c_0_44_n4" style="stroke:black; stroke-width:4;" transform="translate(915 3939) rotate(340)" xlink:href="#LFI3[len=150,transition-label=&quot; &quot;]_3::LBO[angle=54,len=38,label=&quot; &quot;]"/>
<use id="r_32_c_0_44_n5" style="stroke:black; stroke-width:4;" transform="translate(910 3974) rotate(34)" xlink:href="#LFI3[len=150,transition-label=&quot; &quot;]_4::LBO[angle=36,len=112]"/>
<text id="r_32_c_0_44_n6" style="stroke:black; fill:black; font-size:24pt;" x="828" y="3958">
LBO
</text>
<use id="r_34_c_0_22" style="stroke:black; stroke-width:4;" transform="translate(805 4043) rotate(40)" xlink:href="#RFO-[angle=80]"/>
<text id="r_34_c_0_22_n2" style="stroke:black; fill:black; font-size:24pt;" x="665" y="4045">
RFO
</text>
<text id="r_38_c_0_47" style="stroke:black; fill:black; font-size:50pt;" x="1750" y="5525">
SIDE 2
</text>
<use id="r_40_c_0_37" style="stroke:black; stroke-width:4;" transform="translate(1900 5500) rotate(270)" xlink:href="#LF[len=550,label=&quot; &quot;,style=&quot;dashed&quot;]"/>
<use id="r_42_c_0_23" style="stroke:black; stroke-width:4;" transform="translate(2450 5500) rotate(270)" xlink:href="#LFO3[len=200]_0::LFO[angle=36,len=150,label=&quot;LFO3&quot;]"/>
<text id="r_42_c_0_23_n2" style="stroke:black; fill:black; font-size:24pt;" x="2501" y="5421">
LFO3
</text>
<use id="r_42_c_0_23_n3" style="stroke:black; stroke-width:4;" transform="translate(2590 5455) rotate(234)" xlink:href="#LFO3[len=200]_1::LFO[angle=54,len=50,label=&quot; &quot;]"/>
<use id="r_42_c_0_23_n4" style="stroke:black; stroke-width:4;" transform="translate(2611 5413) rotate(315)" xlink:href="#LFO3[len=200]_3::LBI[angle=54,len=50,label=&quot; &quot;]"/>
<use id="r_42_c_0_23_n5" style="stroke:black; stroke-width:4;" transform="translate(2655 5427) rotate(261)" xlink:href="#LFO3[len=200]_4::LBI[angle=36,len=150]"/>
<text id="r_42_c_0_23_n6" style="stroke:black; fill:black; font-size:24pt;" x="2693" y="5340">
LBI
</text>
<use id="r_43_c_0_13" style="stroke:black; stroke-width:4;" transform="translate(2764 5341) rotate(225)" xlink:href="#RBO[len=150]"/>
<text id="r_43_c_0_13_n2" style="stroke:black; fill:black; font-size:24pt;" x="2754" y="5243">
RBO
</text>
<use id="r_44_c_0_17" style="stroke:black; stroke-width:4;" transform="translate(2841 5200) rotate(205)" xlink:href="#xf-LBI3[len=230]_0::xf-LBI[angle=36,len=172,label=&quot;LBI3&quot;]"/>
<text id="r_44_c_0_17_n2" style="stroke:black; fill:black; font-size:24pt;" x="2793" y="5109">
LBI3
</text>
<text id="r_44_c_0_17_n3" style="stroke:black; fill:black; font-size:24pt;" x="2887" y="5213">
XF
</text>
<use id="r_44_c_0_17_n4" style="stroke:black; stroke-width:4;" transform="translate(2861 5033) rotate(169)" xlink:href="#xf-LBI3[len=230]_1::LBI[angle=54,len=58,label=&quot; &quot;]"/>
<use id="r_44_c_0_17_n5" style="stroke:black; stroke-width:4;" transform="translate(2827 4989) rotate(250)" xlink:href="#xf-LBI3[len=230]_3::LFO[angle=54,len=58,label=&quot; &quot;]"/>
<use id="r_44_c_0_17_n6" style="stroke:black; stroke-width:4;" transform="translate(2864 4948) rotate(196)" xlink:href="#xf-LBI3[len=230]_4::LFO[angle=36,len=172]"/>
<text id="r_44_c_0_17_n7" style="stroke:black; fill:black; font-size:24pt;" x="2803" y="4866">
LFO
</text>
<text id="r_45_c_0_36" style="stroke:black; fill:black; font-size:24pt;" x="2623" y="4868">
LBI Double 3
</text>
<use id="r_46_c_0_14" style="stroke:black; stroke-width:4;" transform="translate(2858 4783) rotate(160)" xlink:href="#LFO3[len=230]_0::LFO[angle=36,len=172,label=&quot;LFO3&quot;]"/>
<text id="r_46_c_0_14_n2" style="stroke:black; fill:black; font-size:24pt;" x="2760" y="4752">
LFO3
</text>
<use id="r_46_c_0_14_n3" style="stroke:black; stroke-width:4;" transform="translate(2754 4650) rotate(124)" xlink:href="#LFO3[len=230]_1::LFO[angle=54,len=58,label=&quot; &quot;]"/>
<use id="r_46_c_0_14_n4" style="stroke:black; stroke-width:4;" transform="translate(2699 4643) rotate(205)" xlink:href="#LFO3[len=230]_3::LBI[angle=54,len=58,label=&quot; &quot;]"/>
<use id="r_46_c_0_14_n5" style="stroke:black; stroke-width:4;" transform="translate(2697 4588) rotate(151)" xlink:href="#LFO3[len=230]_4::LBI[angle=36,len=172]"/>
<text id="r_46_c_0_14_n6" style="stroke:black; fill:black; font-size:24pt;" x="2596" y="4573">
LBI
</text>
<use id="r_47_c_0_22" style="stroke:black; stroke-width:4;" transform="translate(2562 4502) rotate(115)" xlink:href="#RBO&gt;[len=250]"/>
<text id="r_47_c_0_22_n2" style="stroke:black; fill:black; font-size:24pt;" x="2446" y="4550">
RBO
</text>
<use id="r_48_c_0_47" style="stroke:black; stroke-width:4;" transform="translate(2321 4542) rotate(55)" xlink:href="#xb-LBO&gt;[len=200,transition-label=&quot;CR&quot;]"/>
<text id="r_48_c_0_47_n2" style="stroke:black; fill:black; font-size:24pt;" x="2221" y="4505">
LBO
</text>
<text id="r_48_c_0_47_n3" style="stroke:black; fill:black; font-size:24pt;" x="2341" y="4586">
CR
</text>
<use id="r_51_c_0_24" style="stroke:black; stroke-width:4;" transform="translate(2111 4550) rotate(65)" xlink:href="#RFO3&gt;[len=200]_0::RFO[angle=40,len=150,label=&quot;RFO3&quot;]"/>
<text id="r_51_c_0_24_n2" style="stroke:black; fill:black; font-size:24pt;" x="2033" y="4499">
RFO3
</text>
<use id="r_51_c_0_24_n3" style="stroke:black; stroke-width:4;" transform="translate(1964 4563) rotate(105)" xlink:href="#RFO3&gt;[len=200]_1::RFO&gt;[len=50,label=&quot; &quot;]"/>
<use id="r_51_c_0_24_n4" style="stroke:black; stroke-width:4;" transform="translate(1930 4530) rotate(30)" xlink:href="#RFO3&gt;[len=200]_3::RBI&gt;[len=50,label=&quot; &quot;]"/>
<use id="r_51_c_0_24_n5" style="stroke:black; stroke-width:4;" transform="translate(1889 4554) rotate(90)" xlink:href="#RFO3&gt;[len=200]_4::RBI[angle=40,len=150]"/>
<text id="r_51_c_0_24_n6" style="stroke:black; fill:black; font-size:24pt;" x="1840" y="4475">
RBI
</text>
<use id="r_52_c_0_13" style="stroke:black; stroke-width:4;" transform="translate(1774 4481) rotate(130)" xlink:href="#LBO[len=180]"/>
<text id="r_52_c_0_13_n2" style="stroke:black; fill:black; font-size:24pt;" x="1764" y="4372">
LBO
</text>
<use id="r_53_c_0_17" style="stroke:black; stroke-width:4;" transform="translate(1664 4323) rotate(150)" xlink:href="#xf-RBI3[len=230]_0::xf-RBI[angle=36,len=172,label=&quot;RBI3&quot;]"/>
<text id="r_53_c_0_17_n2" style="stroke:black; fill:black; font-size:24pt;" x="1703" y="4228">
RBI3
</text>
<text id="r_53_c_0_17_n3" style="stroke:black; fill:black; font-size:24pt;" x="1618" y="4340">
XF
</text>
<use id="r_53_c_0_17_n4" style="stroke:black; stroke-width:4;" transform="translate(1629 4158) rotate(186)" xlink:href="#xf-RBI3[len=230]_1::RBI[angle=54,len=58,label=&quot; &quot;]"/>
<use id="r_53_c_0_17_n5" style="stroke:black; stroke-width:4;" transform="translate(1658 4111) rotate(105)" xlink:href="#xf-RBI3[len=230]_3::RFO[angle=54,len=58,label=&quot; &quot;]"/>
<use id="r_53_c_0_17_n6" style="stroke:black; stroke-width:4;" transform="translate(1617 4074) rotate(159)" xlink:href="#xf-RBI3[len=230]_4::RFO[angle=36,len=172]"/>
<text id="r_53_c_0_17_n7" style="stroke:black; fill:black; font-size:24pt;" x="1670" y="3987">
RFO
</text>
<text id="r_54_c_0_37" style="stroke:black; fill:black; font-size:24pt;" x="1851" y="3973">
RBI Double 3
</text>
<use id="r_55_c_0_14" style="stroke:black; stroke-width:4;" transform="translate(1610 3909) rotate(195)" xlink:href="#RFO3[len=200]_0::RFO[angle=36,len=150,label=&quot;RFO3&quot;]"/>
<text id="r_55_c_0_14_n2" style="stroke:black; fill:black; font-size:24pt;" x="1699" y="3880">
RFO3
</text>
<use id="r_55_c_0_14_n3" style="stroke:black; stroke-width:4;" transform="translate(1689 3785) rotate(231)" xlink:href="#RFO3[len=200]_1::RFO[angle=54,len=50,label=&quot; &quot;]"/>
<use id="r_55_c_0_14_n4" style="stroke:black; stroke-width:4;" transform="translate(1734 3774) rotate(150)" xlink:href="#RFO3[len=200]_3::RBI[angle=54,len=50,label=&quot; &quot;]"/>
<use id="r_55_c_0_14_n5" style="stroke:black; stroke-width:4;" transform="translate(1731 3727) rotate(204)" xlink:href="#RFO3[len=200]_4::RBI[angle=36,len=150]"/>
<text id="r_55_c_0_14_n6" style="stroke:black; fill:black; font-size:24pt;" x="1823" y="3712">
RBI
</text>
<use id="r_56_c_0_22" style="stroke:black; stroke-width:4;" transform="translate(1844 3644) rotate(240)" xlink:href="#LBO&gt;[len=250]"/>
<text id="r_56_c_0_22_n2" style="stroke:black; fill:black; font-size:24pt;" x="1963" y="3682">
LBO
</text>
<use id="r_57_c_0_47" style="stroke:black; stroke-width:4;" transform="translate(2086 3664) rotate(300)" xlink:href="#xb-RBO&gt;[len=200,transition-label=&quot;CR&quot;]"/>
<text id="r_57_c_0_47_n2" style="stroke:black; fill:black; font-size:24pt;" x="2181" y="3618">
RBO
</text>
<text id="r_57_c_0_47_n3" style="stroke:black; fill:black; font-size:24pt;" x="2069" y="3710">
CR
</text>
<use id="r_60_c_0_23" style="stroke:black; stroke-width:4;" transform="translate(2295 3655) rotate(290)" xlink:href="#LFO3[len=180]_0::LFO[angle=36,len=135,label=&quot;LFO3&quot;]"/>
<text id="r_60_c_0_23_n2" style="stroke:black; fill:black; font-size:24pt;" x="2363" y="3596">
LFO3
</text>
<use id="r_60_c_0_23_n3" style="stroke:black; stroke-width:4;" transform="translate(2427 3659) rotate(254)" xlink:href="#LFO3[len=180]_1::LFO[angle=54,len=45,label=&quot; &quot;]"/>
<use id="r_60_c_0_23_n4" style="stroke:black; stroke-width:4;" transform="translate(2458 3630) rotate(335)" xlink:href="#LFO3[len=180]_3::LBI[angle=54,len=45,label=&quot; &quot;]"/>
<use id="r_60_c_0_23_n5" style="stroke:black; stroke-width:4;" transform="translate(2491 3656) rotate(281)" xlink:href="#LFO3[len=180]_4::LBI[angle=36,len=135]"/>
<text id="r_60_c_0_23_n6" style="stroke:black; fill:black; font-size:24pt;" x="2549" y="3587">
LBI
</text>
<use id="r_61_c_0_13" style="stroke:black; stroke-width:4;" transform="translate(2609 3614) rotate(245)" xlink:href="#RBO[len=180]"/>
<text id="r_61_c_0_13_n2" style="stroke:black; fill:black; font-size:24pt;" x="2646" y="3511">
RBO
</text>
<use id="r_62_c_0_17" style="stroke:black; stroke-width:4;" transform="translate(2755 3489) rotate(225)" xlink:href="#xf-LBI3[len=250]_0::xf-LBI[angle=36,len=187,label=&quot;LBI3&quot;]"/>
<text id="r_62_c_0_17_n2" style="stroke:black; fill:black; font-size:24pt;" x="2745" y="3382">
LBI3
</text>
<text id="r_62_c_0_17_n3" style="stroke:black; fill:black; font-size:24pt;" x="2795" y="3516">
XF
</text>
<use id="r_62_c_0_17_n4" style="stroke:black; stroke-width:4;" transform="translate(2838 3326) rotate(189)" xlink:href="#xf-LBI3[len=250]_1::LBI[angle=54,len=63,label=&quot; &quot;]"/>
<use id="r_62_c_0_17_n5" style="stroke:black; stroke-width:4;" transform="translate(2819 3268) rotate(270)" xlink:href="#xf-LBI3[len=250]_3::LFO[angle=54,len=63,label=&quot; &quot;]"/>
<use id="r_62_c_0_17_n6" style="stroke:black; stroke-width:4;" transform="translate(2873 3241) rotate(216)" xlink:href="#xf-LBI3[len=250]_4::LFO[angle=36,len=187]"/>
<text id="r_62_c_0_17_n7" style="stroke:black; fill:black; font-size:24pt;" x="2847" y="3136">
LFO
</text>
<text id="r_63_c_0_36" style="stroke:black; fill:black; font-size:24pt;" x="2681" y="3070">
LBI Double 3
</text>
<use id="r_64_c_0_24" style="stroke:black; stroke-width:4;" transform="translate(2931 3070) rotate(180)" xlink:href="#LFO3&gt;[len=230]_0::LFO[angle=40,len=172,label=&quot;LFO3&quot;]"/>
<text id="r_64_c_0_24_n2" style="stroke:black; fill:black; font-size:24pt;" x="2850" y="3010">
LFO3
</text>
<use id="r_64_c_0_24_n3" style="stroke:black; stroke-width:4;" transform="translate(2874 2912) rotate(140)" xlink:href="#LFO3&gt;[len=230]_1::LFO&gt;[len=58,label=&quot; &quot;]"/>
<use id="r_64_c_0_24_n4" style="stroke:black; stroke-width:4;" transform="translate(2823 2893) rotate(215)" xlink:href="#LFO3&gt;[len=230]_3::LBI&gt;[len=58,label=&quot; &quot;]"/>
<use id="r_64_c_0_24_n5" style="stroke:black; stroke-width:4;" transform="translate(2827 2839) rotate(155)" xlink:href="#LFO3&gt;[len=230]_4::LBI[angle=40,len=172]"/>
<text id="r_64_c_0_24_n6" style="stroke:black; fill:black; font-size:24pt;" x="2728" y="2818">
LBI
</text>
<use id="r_65_c_0_22" style="stroke:black; stroke-width:4;" transform="translate(2698 2749) rotate(115)" xlink:href="#RBO&gt;[len=250]"/>
<text id="r_65_c_0_22_n2" style="stroke:black; fill:black; font-size:24pt;" x="2582" y="2797">
RBO
</text>
<use id="r_66_c_0_47" style="stroke:black; stroke-width:4;" transform="translate(2457 2789) rotate(55)" xlink:href="#xb-LBO[angle=70,len=250,transition-label=&quot;CR&quot;]"/>
<text id="r_66_c_0_47_n2" style="stroke:black; fill:black; font-size:24pt;" x="2340" y="2754">
LBO
</text>
<text id="r_66_c_0_47_n3" style="stroke:black; fill:black; font-size:24pt;" x="2474" y="2835">
CR
</text>
<use id="r_69_c_0_24" style="stroke:black; stroke-width:4;" transform="translate(2203 2778) rotate(75)" xlink:href="#RFO3&gt;[len=200]_0::RFO[angle=40,len=150,label=&quot;RFO3&quot;]"/>
<text id="r_69_c_0_24_n2" style="stroke:black; fill:black; font-size:24pt;" x="2135" y="2714">
RFO3
</text>
<use id="r_69_c_0_24_n3" style="stroke:black; stroke-width:4;" transform="translate(2056 2765) rotate(115)" xlink:href="#RFO3&gt;[len=200]_1::RFO&gt;[len=50,label=&quot; &quot;]"/>
<use id="r_69_c_0_24_n4" style="stroke:black; stroke-width:4;" transform="translate(2028 2726) rotate(40)" xlink:href="#RFO3&gt;[len=200]_3::RBI&gt;[len=50,label=&quot; &quot;]"/>
<use id="r_69_c_0_24_n5" style="stroke:black; stroke-width:4;" transform="translate(1984 2742) rotate(100)" xlink:href="#RFO3&gt;[len=200]_4::RBI[angle=40,len=150]"/>
<text id="r_69_c_0_24_n6" style="stroke:black; fill:black; font-size:24pt;" x="1949" y="2655">
RBI
</text>
<use id="r_70_c_0_13" style="stroke:black; stroke-width:4;" transform="translate(1882 2651) rotate(140)" xlink:href="#LBO[len=180]"/>
<text id="r_70_c_0_13_n2" style="stroke:black; fill:black; font-size:24pt;" x="1891" y="2542">
LBO
</text>
<use id="r_71_c_0_17" style="stroke:black; stroke-width:4;" transform="translate(1800 2476) rotate(160)" xlink:href="#xf-RBI3[len=230]_0::xf-RBI[angle=36,len=172,label=&quot;RBI3&quot;]"/>
<text id="r_71_c_0_17_n2" style="stroke:black; fill:black; font-size:24pt;" x="1854" y="2390">
RBI3
</text>
<text id="r_71_c_0_17_n3" style="stroke:black; fill:black; font-size:24pt;" x="1752" y="2484">
XF
</text>
<use id="r_71_c_0_17_n4" style="stroke:black; stroke-width:4;" transform="translate(1794 2307) rotate(196)" xlink:href="#xf-RBI3[len=230]_1::RBI[angle=54,len=58,label=&quot; &quot;]"/>
<use id="r_71_c_0_17_n5" style="stroke:black; stroke-width:4;" transform="translate(1831 2266) rotate(115)" xlink:href="#xf-RBI3[len=230]_3::RFO[angle=54,len=58,label=&quot; &quot;]"/>
<use id="r_71_c_0_17_n6" style="stroke:black; stroke-width:4;" transform="translate(1797 2222) rotate(169)" xlink:href="#xf-RBI3[len=230]_4::RFO[angle=36,len=172]"/>
<text id="r_71_c_0_17_n7" style="stroke:black; fill:black; font-size:24pt;" x="1864" y="2145">
RFO
</text>
<text id="r_72_c_0_37" style="stroke:black; fill:black; font-size:24pt;" x="2044" y="2164">
RBI Double 3
</text>
<use id="r_73_c_0_14" style="stroke:black; stroke-width:4;" transform="translate(1818 2059) rotate(205)" xlink:href="#RFO3[len=200]_0::RFO[angle=36,len=150,label=&quot;RFO3&quot;]"/>
<text id="r_73_c_0_14_n2" style="stroke:black; fill:black; font-size:24pt;" x="1911" y="2046">
RFO3
</text>
<use id="r_73_c_0_14_n3" style="stroke:black; stroke-width:4;" transform="translate(1917 1951) rotate(241)" xlink:href="#RFO3[len=200]_1::RFO[angle=54,len=50,label=&quot; &quot;]"/>
<use id="r_73_c_0_14_n4" style="stroke:black; stroke-width:4;" transform="translate(1963 1949) rotate(160)" xlink:href="#RFO3[len=200]_3::RBI[angle=54,len=50,label=&quot; &quot;]"/>
<use id="r_73_c_0_14_n5" style="stroke:black; stroke-width:4;" transform="translate(1968 1902) rotate(214)" xlink:href="#RFO3[len=200]_4::RBI[angle=36,len=150]"/>
<text id="r_73_c_0_14_n6" style="stroke:black; fill:black; font-size:24pt;" x="2062" y="1903">
RBI
</text>
<use id="r_74_c_0_22" style="stroke:black; stroke-width:4;" transform="translate(2094 1840) rotate(250)" xlink:href="#LBO&gt;[len=250]"/>
<text id="r_74_c_0_22_n2" style="stroke:black; fill:black; font-size:24pt;" x="2204" y="1898">
LBO
</text>
<use id="r_75_c_0_47" style="stroke:black; stroke-width:4;" transform="translate(2329 1902) rotate(310)" xlink:href="#xb-RBO&gt;[len=200,transition-label=&quot;CR&quot;]"/>
<text id="r_75_c_0_47_n2" style="stroke:black; fill:black; font-size:24pt;" x="2430" y="1873">
RBO
</text>
<text id="r_75_c_0_47_n3" style="stroke:black; fill:black; font-size:24pt;" x="2305" y="1944">
CR
</text>
</svg>