<svg height="6200" viewBox="-50 -50 3100 6200" width="3100" xmlns="http://www.w3.org/2000/svg" xmlns:xlink="http://www.w3.org/1999/xlink">
<!-- Rink
Title [text="Skills 2 Exercise 2",y=200,font-size=90]
Info [grid=0,markers=false]

Text [x=1250,y=730,text="SIDE 1",font-size=50]
Warp [x=1100,y=700,dir=90,code="RFI"]
RF [len=500,label=" ",style="dashed"]
Warp [x=600,y=700,dir=70,code="RFI"]

|:
  RFI [angle=140]
  RFO [angle=140]
  RFI [angle=140]
!|x4

Text [x=1650,y=5025,text="SIDE 2",font-size=50]
Warp [x=1800,y=5000,dir=270,code="LBO"]
LB [len=500,label=" ",style="dashed"]
Warp [x=2300,y=5000,dir=250,code="LBO"]

|:
  LBI [angle=140]
  LBO [angle=140]
  LBI [angle=140]
!|x4
 -->
<title>Skills 2 Exercise 2</title>
<desc>
<text>
Skills 2 Exercise 2
</text>
</desc>
<defs>
<style>
text { text-anchor: middle } path,rect,circle { fill:none; }
</style>
<g id="Rink">
<clipPath id="clip-rink">
<rect height="6100" rx="750" ry="750" width="3000" x="0" y="0"/>
</clipPath>
<rect height="6100" rx="750" ry="750" style="text { text-anchor: middle } path,rect,circle { fill:none; } clip-path:url(#clip-rink)" width="3000" x="0" y="0"/>
<path d="M 0,3050 l 3000,0" style="stroke:red;"/>
<circle cx="1500" cy="3050" r="400" style="stroke:red;"/>
<circle cx="1500" cy="3050" r="2" style="fill: black;"/>
<path d="M 0,2250 l 3000,0" style="stroke: blue;"/>
<path d="M 0,3850 l 3000,0" style="stroke: blue;"/>
</g>
<g id="Info"/>
<g id="RF[len=500,label=&quot; &quot;,style=&quot;dashed&quot;]">
<path d="M 0,0 l 0,500" stroke-dasharray="50 30"/>
</g>
<g id="RFI[angle=140]">
<path d="M 0,0 a 184,184 0 0 0 325,118"/>
</g>
<g id="RFO[angle=140]">
<path d="M 0,0 a 184,184 0 0 1 -325,118"/>
</g>
<g id="LFI[angle=140]">
<path d="M 0,0 a 184,184 0 0 1 -325,118"/>
</g>
<g id="LFO[angle=140]">
<path d="M 0,0 a 184,184 0 0 0 325,118"/>
</g>
<g id="LB[len=500,label=&quot; &quot;,style=&quot;dashed&quot;]">
<path d="M 0,0 l 0,500" stroke-dasharray="50 30"/>
</g>
<g id="LBI[angle=140]">
<path d="M 0,0 a 184,184 0 0 0 325,118"/>
</g>
<g id="LBO[angle=140]">
<path d="M 0,0 a 184,184 0 0 1 -325,118"/>
</g>
<g id="RBI[angle=140]">
<path d="M 0,0 a 184,184 0 0 1 -325,118"/>
</g>
<g id="RBO[angle=140]">
<path d="M 0,0 a 184,184 0 0 0 325,118"/>
</g>
</defs>
<use id="r_0_c_0_4" style="stroke:black; stroke-width:4;" transform="translate(0 0) rotate(0)" xlink:href="#Rink"/>
<text id="r_1_c_0_53" style="stroke:black; fill:black; font-size: 90pt;" x="1500" y="200">
Skills 2 Exercise 2
</text>
<text id="r_4_c_0_46" style="stroke:black; fill:black; font-size:50pt;" x="1250" y="730">
SIDE 1
</text>
<use id="r_6_c_0_37" style="stroke:black; stroke-width:4;" transform="translate(1100 700) rotate(90)" xlink:href="#RF[len=500,label=&quot; &quot;,style=&quot;dashed&quot;]"/>
<use id="r_10_c_2_17" style="stroke:black; stroke-width:4;" transform="translate(600 700) rotate(70)" xlink:href="#RFI[angle=140]"/>
<text id="r_10_c_2_17_n2" style="stroke:black; fill:black; font-size:24pt;" x="549" y="872">
RFI
</text>
<use id="r_11_c_2_17" style="stroke:black; stroke-width:4;" transform="translate(600 1045) rotate(290)" xlink:href="#RFO[angle=140]"/>
<text id="r_11_c_2_17_n2" style="stroke:black; fill:black; font-size:24pt;" x="650" y="1217">
RFO
</text>
<use id="r_12_c_2_17" style="stroke:black; stroke-width:4;" transform="translate(599 1390) rotate(70)" xlink:href="#RFI[angle=140]"/>
<text id="r_12_c_2_17_n2" style="stroke:black; fill:black; font-size:24pt;" x="548" y="1562">
RFI
</text>
<use id="r_10_c_2_17_rep_2" style="stroke:black; stroke-width:4;" transform="translate(609 1706) rotate(290)" xlink:href="#LFI[angle=140]"/>
<text id="r_10_c_2_17_rep_2_n2" style="stroke:black; fill:black; font-size:24pt;" x="659" y="1878">
LFI
</text>
<use id="r_11_c_2_17_rep_2" style="stroke:black; stroke-width:4;" transform="translate(608 2051) rotate(70)" xlink:href="#LFO[angle=140]"/>
<text id="r_11_c_2_17_rep_2_n2" style="stroke:black; fill:black; font-size:24pt;" x="557" y="2223">
LFO
</text>
<use id="r_12_c_2_17_rep_2" style="stroke:black; stroke-width:4;" transform="translate(608 2396) rotate(290)" xlink:href="#LFI[angle=140]"/>
<text id="r_12_c_2_17_rep_2_n2" style="stroke:black; fill:black; font-size:24pt;" x="658" y="2568">
LFI
</text>
<use id="r_10_c_2_17_rep_3" style="stroke:black; stroke-width:4;" transform="translate(596 2712) rotate(70)" xlink:href="#RFI[angle=140]"/>
<text id="r_10_c_2_17_rep_3_n2" style="stroke:black; fill:black; font-size:24pt;" x="545" y="2884">
RFI
</text>
<use id="r_11_c_2_17_rep_3" style="stroke:black; stroke-width:4;" transform="translate(596 3057) rotate(290)" xlink:href="#RFO[angle=140]"/>
<text id="r_11_c_2_17_rep_3_n2" style="stroke:black; fill:black; font-size:24pt;" x="646" y="3229">
RFO
</text>
<use id="r_12_c_2_17_rep_3" style="stroke:black; stroke-width:4;" transform="translate(595 3402) rotate(70)" xlink:href="#RFI[angle=140]"/>
<text id="r_12_c_2_17_rep_3_n2" style="stroke:black; fill:black; font-size:24pt;" x="544" y="3574">
RFI
</text>
<use id="r_10_c_2_17_rep_4" style="stroke:black; stroke-width:4;" transform="translate(605 3718) rotate(290)" xlink:href="#LFI[angle=140]"/>
<text id="r_10_c_2_17_rep_4_n2" style="stroke:black; fill:black; font-size:24pt;" x="655" y="3890">
LFI
</text>
<use id="r_11_c_2_17_rep_4" style="stroke:black; stroke-width:4;" transform="translate(604 4063) rotate(70)" xlink:href="#LFO[angle=140]"/>
<text id="r_11_c_2_17_rep_4_n2" style="stroke:black; fill:black; font-size:24pt;" x="553" y="4235">
LFO
</text>
<use id="r_12_c_2_17_rep_4" style="stroke:black; stroke-width:4;" transform="translate(604 4408) rotate(290)" xlink:href="#LFI[angle=140]"/>
<text id="r_12_c_2_17_rep_4_n2" style="stroke:black; fill:black; font-size:24pt;" x="654" y="4580">
LFI
</text>
<text id="r_15_c_0_47" style="stroke:black; fill:black; font-size:50pt;" x="1650" y="5025">
SIDE 2
</text>
<use id="r_17_c_0_37" style="stroke:black; stroke-width:4;" transform="translate(1800 5000) rotate(270)" xlink:href="#LB[len=500,label=&quot; &quot;,style=&quot;dashed&quot;]"/>
<use id="r_21_c_2_17" style="stroke:black; stroke-width:4;" transform="translate(2300 5000) rotate(250)" xlink:href="#LBI[angle=140]"/>
<text id="r_21_c_2_17_n2" style="stroke:black; fill:black; font-size:24pt;" x="2350" y="4827">
LBI
</text>
<use id="r_22_c_2_17" style="stroke:black; stroke-width:4;" transform="translate(2299 4654) rotate(110)" xlink:href="#LBO[angle=140]"/>
<text id="r_22_c_2_17_n2" style="stroke:black; fill:black; font-size:24pt;" x="2248" y="4481">
LBO
</text>
<use id="r_23_c_2_17" style="stroke:black; stroke-width:4;" transform="translate(2299 4308) rotate(250)" xlink:href="#LBI[angle=140]"/>
<text id="r_23_c_2_17_n2" style="stroke:black; fill:black; font-size:24pt;" x="2349" y="4135">
LBI
</text>
<use id="r_21_c_2_17_rep_2" style="stroke:black; stroke-width:4;" transform="translate(2287 3990) rotate(110)" xlink:href="#RBI[angle=140]"/>
<text id="r_21_c_2_17_rep_2_n2" style="stroke:black; fill:black; font-size:24pt;" x="2236" y="3817">
RBI
</text>
<use id="r_22_c_2_17_rep_2" style="stroke:black; stroke-width:4;" transform="translate(2287 3644) rotate(250)" xlink:href="#RBO[angle=140]"/>
<text id="r_22_c_2_17_rep_2_n2" style="stroke:black; fill:black; font-size:24pt;" x="2337" y="3471">
RBO
</text>
<use id="r_23_c_2_17_rep_2" style="stroke:black; stroke-width:4;" transform="translate(2286 3298) rotate(110)" xlink:href="#RBI[angle=140]"/>
<text id="r_23_c_2_17_rep_2_n2" style="stroke:black; fill:black; font-size:24pt;" x="2235" y="3125">
RBI
</text>
<use id="r_21_c_2_17_rep_3" style="stroke:black; stroke-width:4;" transform="translate(2296 2980) rotate(250)" xlink:href="#LBI[angle=140]"/>
<text id="r_21_c_2_17_rep_3_n2" style="stroke:black; fill:black; font-size:24pt;" x="2346" y="2807">
LBI
</text>
<use id="r_22_c_2_17_rep_3" style="stroke:black; stroke-width:4;" transform="translate(2295 2634) rotate(110)" xlink:href="#LBO[angle=140]"/>
<text id="r_22_c_2_17_rep_3_n2" style="stroke:black; fill:black; font-size:24pt;" x="2244" y="2461">
LBO
</text>
<use id="r_23_c_2_17_rep_3" style="stroke:black; stroke-width:4;" transform="translate(2295 2288) rotate(250)" xlink:href="#LBI[angle=140]"/>
<text id="r_23_c_2_17_rep_3_n2" style="stroke:black; fill:black; font-size:24pt;" x="2345" y="2115">
LBI
</text>
<use id="r_21_c_2_17_rep_4" style="stroke:black; stroke-width:4;" transform="translate(2283 1970) rotate(110)" xlink:href="#RBI[angle=140]"/>
<text id="r_21_c_2_17_rep_4_n2" style="stroke:black; fill:black; font-size:24pt;" x="2232" y="1797">
RBI
</text>
<use id="r_22_c_2_17_rep_4" style="stroke:black; stroke-width:4;" transform="translate(2283 1624) rotate(250)" xlink:href="#RBO[angle=140]"/>
<text id="r_22_c_2_17_rep_4_n2" style="stroke:black; fill:black; font-size:24pt;" x="2333" y="1451">
RBO
</text>
<use id="r_23_c_2_17_rep_4" style="stroke:black; stroke-width:4;" transform="translate(2282 1278) rotate(110)" xlink:href="#RBI[angle=140]"/>
<text id="r_23_c_2_17_rep_4_n2" style="stroke:black; fill:black; font-size:24pt;" x="2231" y="1105">
RBI
</text>
</svg>