<svg height="6200" viewBox="-50 -50 3100 6200" width="3100" xmlns="http://www.w3.org/2000/svg" xmlns:xlink="http://www.w3.org/1999/xlink">
<title>Skills 5 Exercise 3</title>
<desc>
<text>
Skills 5 Exercise 3
</text>
</desc>
<defs>
<style>
text { text-anchor: middle } path,rect,circle { fill:none; }
</style>
<g id="Rink">
<clipPath id="clip-rink">
<rect height="6100" rx="750" ry="750" width="3000" x="0" y="0"/>
</clipPath>
<rect height="6100" rx="750" ry="750" style="text { text-anchor: middle } path,rect,circle { fill:none; } clip-path:url(#clip-rink)" width="3000" x="0" y="0"/>
<path d="M 0,3050 l 3000,0" style="stroke:red;"/>
<circle cx="1500" cy="3050" r="400" style="stroke:red;"/>
<circle cx="1500" cy="3050" r="2" style="fill: black;"/>
<path d="M 0,2250 l 3000,0" style="stroke: blue;"/>
<path d="M 0,3850 l 3000,0" style="stroke: blue;"/>
</g>
<g id="Info"/>
<g id="RB[len=500,label=&quot; &quot;,style=&quot;dashed&quot;]">
<path d="M 0,0 l 0,500" stroke-dasharray="50 30"/>
</g>
<g id="RBO-[angle=30]">
<path d="M 0,0 a 572,572 0 0 0 76,286"/>
</g>
<g id="xf-LBI[angle=30,len=250]">
<path d="M 0,0 a 477,477 0 0 0 63,238"/>
</g>
<g id="RBO-ClMo[angle=50,len=250,delta-angle=10]_0::RBO[angle=50,len=250]">
<path d="M 0,0 a 286,286 0 0 0 102,219"/>
</g>
<g id="RBO-ClMo[angle=50,len=250,delta-angle=10]_3::LFO&gt;[len=250]">
<path d="M 0,0 a 238,238 0 0 0 119,206"/>
</g>
<g id="RFO3[len=250]_0::RFO[angle=36,len=187,label=&quot;RFO3&quot;]">
<path d="M 0,0 a 297,297 0 0 1 -56,174"/>
</g>
<g id="RFO3[len=250]_1::RFO[angle=54,len=63,label=&quot; &quot;]">
<path d="M 0,0 a 66,66 0 0 1 -27,54"/>
</g>
<g id="RFO3[len=250]_3::RBI[angle=54,len=63,label=&quot; &quot;]">
<path d="M 0,0 a 66,66 0 0 1 -27,54"/>
</g>
<g id="RFO3[len=250]_4::RBI[angle=36,len=187]">
<path d="M 0,0 a 297,297 0 0 1 -56,174"/>
</g>
<g id="LBO-[angle=30]">
<path d="M 0,0 a 572,572 0 0 1 -76,286"/>
</g>
<g id="xf-RBI[angle=30,len=250]">
<path d="M 0,0 a 477,477 0 0 1 -63,238"/>
</g>
<g id="LBO-ClMo[angle=50,len=250]_0::LBO[angle=50,len=250]">
<path d="M 0,0 a 286,286 0 0 1 -102,219"/>
</g>
<g id="LBO-ClMo[angle=50,len=250]_3::RFO[angle=50,len=250]">
<path d="M 0,0 a 286,286 0 0 1 -102,219"/>
</g>
<g id="LFO3[len=200]_0::LFO[angle=36,len=150,label=&quot;LFO3&quot;]">
<path d="M 0,0 a 238,238 0 0 0 45,140"/>
</g>
<g id="LFO3[len=200]_1::LFO[angle=54,len=50,label=&quot; &quot;]">
<path d="M 0,0 a 53,53 0 0 0 21,42"/>
</g>
<g id="LFO3[len=200]_3::LBI[angle=54,len=50,label=&quot; &quot;]">
<path d="M 0,0 a 53,53 0 0 0 21,42"/>
</g>
<g id="LFO3[len=200]_4::LBI[angle=36,len=150]">
<path d="M 0,0 a 238,238 0 0 0 45,140"/>
</g>
<g id="RBO-ClMo[angle=45,len=350,delta-len=50]_0::RBO[angle=45,len=350]">
<path d="M 0,0 a 445,445 0 0 0 130,315"/>
</g>
<g id="RBO-ClMo[angle=45,len=350,delta-len=50]_3::LFO[angle=45,len=400]">
<path d="M 0,0 a 509,509 0 0 0 149,360"/>
</g>
<g id="RFO3&gt;-_0::RFO[angle=40,len=225,label=&quot;RFO3&quot;]">
<path d="M 0,0 a 322,322 0 0 1 -75,207"/>
</g>
<g id="RFO3&gt;-_1::RFO&gt;[len=75,label=&quot; &quot;]">
<path d="M 0,0 a 71,71 0 0 1 -35,62"/>
</g>
<g id="RFO3&gt;-_3::RBI&gt;[len=75,label=&quot; &quot;]">
<path d="M 0,0 a 71,71 0 0 1 -35,62"/>
</g>
<g id="RFO3&gt;-_4::RBI[angle=40,len=225]">
<path d="M 0,0 a 322,322 0 0 1 -75,207"/>
</g>
<g id="LBO-[angle=40]">
<path d="M 0,0 a 429,429 0 0 1 -100,276"/>
</g>
<g id="xf-RBI[angle=30,len=350]">
<path d="M 0,0 a 668,668 0 0 1 -89,334"/>
</g>
<g id="LBO-ClMo&lt;&lt;&lt;-[delta-angle=-20]_0::LBO&gt;-">
<path d="M 0,0 a 286,286 0 0 1 -143,248"/>
</g>
<g id="LBO-ClMo&lt;&lt;&lt;-[delta-angle=-20]_3::RFO-[angle=40]">
<path d="M 0,0 a 429,429 0 0 1 -100,276"/>
</g>
<g id="LFO3[len=250]_0::LFO[angle=36,len=187,label=&quot;LFO3&quot;]">
<path d="M 0,0 a 297,297 0 0 0 56,174"/>
</g>
<g id="LFO3[len=250]_1::LFO[angle=54,len=63,label=&quot; &quot;]">
<path d="M 0,0 a 66,66 0 0 0 27,54"/>
</g>
<g id="LFO3[len=250]_3::LBI[angle=54,len=63,label=&quot; &quot;]">
<path d="M 0,0 a 66,66 0 0 0 27,54"/>
</g>
<g id="LFO3[len=250]_4::LBI[angle=36,len=187]">
<path d="M 0,0 a 297,297 0 0 0 56,174"/>
</g>
<g id="RF[label=&quot; &quot;,style=&quot;dashed&quot;]">
<path d="M 0,0 l 0,450" stroke-dasharray="50 30"/>
</g>
<g id="RFI[angle=90,label=&quot; &quot;,style=&quot;dashed&quot;]">
<path d="M 0,0 a 286,286 0 0 0 286,286" stroke-dasharray="50 30"/>
</g>
<g id="RFI-OpCho[delta-angle=-50,delta-len=-200]_0::RFI[angle=90]">
<path d="M 0,0 a 286,286 0 0 0 286,286"/>
</g>
<g id="RFI-OpCho[delta-angle=-50,delta-len=-200]_3::LBO[angle=40,len=250]">
<path d="M 0,0 a 358,358 0 0 1 -83,230"/>
</g>
<g id="xf-RBI[len=200]">
<path d="M 0,0 a 572,572 0 0 1 -34,195"/>
</g>
<g id="LBO-ClMo[angle=20,len=250]_0::LBO[len=250]">
<path d="M 0,0 a 716,716 0 0 1 -43,244"/>
</g>
<g id="LBO-ClMo[angle=20,len=250]_3::RFO[len=250]">
<path d="M 0,0 a 716,716 0 0 1 -43,244"/>
</g>
<g id="LFI-OpCho[angle=75,len=350,delta-angle=-40,delta-len=-200,transition-label=&quot;Slip Chasse&quot;]_0::LFI[angle=75,len=350,transition-label=&quot;Slip Chasse&quot;]">
<path d="M 0,0 a 267,267 0 0 1 -198,258"/>
</g>
<g id="LFI-OpCho[angle=75,len=350,delta-angle=-40,delta-len=-200,transition-label=&quot;Slip Chasse&quot;]_3::RBO[angle=35,len=150]">
<path d="M 0,0 a 245,245 0 0 0 44,140"/>
</g>
<g id="xf-LBI[len=200]">
<path d="M 0,0 a 572,572 0 0 0 34,195"/>
</g>
<g id="RBO-ClMo[angle=20,len=250]_0::RBO[len=250]">
<path d="M 0,0 a 716,716 0 0 0 43,244"/>
</g>
<g id="RBO-ClMo[angle=20,len=250]_3::LFO[len=250]">
<path d="M 0,0 a 716,716 0 0 0 43,244"/>
</g>
<g id="RFI-OpCho[angle=75,delta-angle=-40,delta-len=-200,transition-label=&quot;Slip Chasse&quot;]_0::RFI[angle=75,transition-label=&quot;Slip Chasse&quot;]">
<path d="M 0,0 a 343,343 0 0 0 254,332"/>
</g>
<g id="RFI-OpCho[angle=75,delta-angle=-40,delta-len=-200,transition-label=&quot;Slip Chasse&quot;]_3::LBO[angle=35,len=250]">
<path d="M 0,0 a 409,409 0 0 1 -74,234"/>
</g>
<g id="LBO-ClMo-[angle=20,delta-len=-50]_0::LBO-">
<path d="M 0,0 a 859,859 0 0 1 -51,293"/>
</g>
<g id="LBO-ClMo-[angle=20,delta-len=-50]_3::RFO[len=250]">
<path d="M 0,0 a 716,716 0 0 1 -43,244"/>
</g>
<g id="LFI-OpCho[angle=75,delta-angle=-40,delta-len=-200,transition-label=&quot;Slip Chasse&quot;]_0::LFI[angle=75,transition-label=&quot;Slip Chasse&quot;]">
<path d="M 0,0 a 343,343 0 0 1 -254,332"/>
</g>
<g id="LFI-OpCho[angle=75,delta-angle=-40,delta-len=-200,transition-label=&quot;Slip Chasse&quot;]_3::RBO[angle=35,len=250]">
<path d="M 0,0 a 409,409 0 0 0 74,234"/>
</g>
<g id="RBO-ClMo-[angle=25]_0::RBO-[angle=25]">
<path d="M 0,0 a 687,687 0 0 0 64,290"/>
</g>
<g id="RBO-ClMo-[angle=25]_3::LFO-[angle=25]">
<path d="M 0,0 a 687,687 0 0 0 64,290"/>
</g>
</defs>
<use id="r_0_c_0_4" style="stroke:black; stroke-width:4;" transform="translate(0 0) rotate(0)" xlink:href="#Rink"/>
<text id="r_1_c_0_53" style="stroke:black; fill:black; font-size: 90pt;" x="1500" y="200">
Skills 5 Exercise 3
</text>
<text id="r_4_c_0_46" style="stroke:black; fill:black; font-size:50pt;" x="1350" y="725">
SIDE 1
</text>
<use id="r_7_c_0_37" style="stroke:black; stroke-width:4;" transform="translate(1200 700) rotate(90)" xlink:href="#RB[len=500,label=&quot; &quot;,style=&quot;dashed&quot;]"/>
<use id="r_8_c_0_22" style="stroke:black; stroke-width:4;" transform="translate(700 700) rotate(90)" xlink:href="#RBO-[angle=30]"/>
<text id="r_8_c_0_22_n2" style="stroke:black; fill:black; font-size:24pt;" x="570" y="788">
RBO
</text>
<use id="r_9_c_0_25" style="stroke:black; stroke-width:4;" transform="translate(408 796) rotate(60)" xlink:href="#xf-LBI[angle=30,len=250]"/>
<text id="r_9_c_0_25_n2" style="stroke:black; fill:black; font-size:24pt;" x="359" y="922">
LBI
</text>
<text id="r_9_c_0_25_n3" style="stroke:black; fill:black; font-size:24pt;" x="373" y="760">
XF
</text>
<use id="r_10_c_0_42" style="stroke:black; stroke-width:4;" transform="translate(258 984) rotate(30)" xlink:href="#RBO-ClMo[angle=50,len=250,delta-angle=10]_0::RBO[angle=50,len=250]"/>
<text id="r_10_c_0_42_n2" style="stroke:black; fill:black; font-size:24pt;" x="291" y="1108">
RBO
</text>
<text id="r_10_c_0_42_n3" style="stroke:black; fill:black; font-size:24pt;" x="292" y="1203">
ClMo
</text>
<use id="r_10_c_0_42_n4" style="stroke:black; stroke-width:4;" transform="translate(253 1185) rotate(340)" xlink:href="#RBO-ClMo[angle=50,len=250,delta-angle=10]_3::LFO&gt;[len=250]"/>
<text id="r_10_c_0_42_n5" style="stroke:black; fill:black; font-size:24pt;" x="369" y="1232">
LFO
</text>
<use id="r_13_c_0_14" style="stroke:black; stroke-width:4;" transform="translate(442 1366) rotate(260)" xlink:href="#RFO3[len=250]_0::RFO[angle=36,len=187,label=&quot;RFO3&quot;]"/>
<text id="r_13_c_0_14_n2" style="stroke:black; fill:black; font-size:24pt;" x="524" y="1434">
RFO3
</text>
<use id="r_13_c_0_14_n3" style="stroke:black; stroke-width:4;" transform="translate(623 1390) rotate(296)" xlink:href="#RFO3[len=250]_1::RFO[angle=54,len=63,label=&quot; &quot;]"/>
<use id="r_13_c_0_14_n4" style="stroke:black; stroke-width:4;" transform="translate(659 1437) rotate(215)" xlink:href="#RFO3[len=250]_3::RBI[angle=54,len=63,label=&quot; &quot;]"/>
<use id="r_13_c_0_14_n5" style="stroke:black; stroke-width:4;" transform="translate(712 1408) rotate(269)" xlink:href="#RFO3[len=250]_4::RBI[angle=36,len=187]"/>
<text id="r_13_c_0_14_n6" style="stroke:black; fill:black; font-size:24pt;" x="782" y="1488">
RBI
</text>
<use id="r_15_c_0_22" style="stroke:black; stroke-width:4;" transform="translate(868 1485) rotate(305)" xlink:href="#LBO-[angle=30]"/>
<text id="r_15_c_0_22_n2" style="stroke:black; fill:black; font-size:24pt;" x="924" y="1631">
LBO
</text>
<use id="r_16_c_0_25" style="stroke:black; stroke-width:4;" transform="translate(1050 1730) rotate(335)" xlink:href="#xf-RBI[angle=30,len=250]"/>
<text id="r_16_c_0_25_n2" style="stroke:black; fill:black; font-size:24pt;" x="1017" y="1861">
RBI
</text>
<text id="r_16_c_0_25_n3" style="stroke:black; fill:black; font-size:24pt;" x="1098" y="1720">
XF
</text>
<use id="r_17_c_0_27" style="stroke:black; stroke-width:4;" transform="translate(1063 1969) rotate(5)" xlink:href="#LBO-ClMo[angle=50,len=250]_0::LBO[angle=50,len=250]"/>
<text id="r_17_c_0_27_n2" style="stroke:black; fill:black; font-size:24pt;" x="964" y="2051">
LBO
</text>
<text id="r_17_c_0_27_n3" style="stroke:black; fill:black; font-size:24pt;" x="907" y="2128">
ClMo
</text>
<use id="r_17_c_0_27_n4" style="stroke:black; stroke-width:4;" transform="translate(949 2136) rotate(55)" xlink:href="#LBO-ClMo[angle=50,len=250]_3::RFO[angle=50,len=250]"/>
<text id="r_17_c_0_27_n5" style="stroke:black; fill:black; font-size:24pt;" x="822" y="2113">
RFO
</text>
<use id="r_20_c_0_14" style="stroke:black; stroke-width:4;" transform="translate(709 2206) rotate(95)" xlink:href="#LFO3[len=200]_0::LFO[angle=36,len=150,label=&quot;LFO3&quot;]"/>
<text id="r_20_c_0_14_n2" style="stroke:black; fill:black; font-size:24pt;" x="651" y="2280">
LFO3
</text>
<use id="r_20_c_0_14_n3" style="stroke:black; stroke-width:4;" transform="translate(565 2238) rotate(59)" xlink:href="#LFO3[len=200]_1::LFO[angle=54,len=50,label=&quot; &quot;]"/>
<use id="r_20_c_0_14_n4" style="stroke:black; stroke-width:4;" transform="translate(539 2277) rotate(140)" xlink:href="#LFO3[len=200]_3::LBI[angle=54,len=50,label=&quot; &quot;]"/>
<use id="r_20_c_0_14_n5" style="stroke:black; stroke-width:4;" transform="translate(495 2258) rotate(86)" xlink:href="#LFO3[len=200]_4::LBI[angle=36,len=150]"/>
<text id="r_20_c_0_14_n6" style="stroke:black; fill:black; font-size:24pt;" x="449" y="2340">
LBI
</text>
<use id="r_22_c_0_22" style="stroke:black; stroke-width:4;" transform="translate(381 2335) rotate(50)" xlink:href="#RBO-[angle=30]"/>
<text id="r_22_c_0_22_n2" style="stroke:black; fill:black; font-size:24pt;" x="337" y="2485">
RBO
</text>
<use id="r_23_c_0_25" style="stroke:black; stroke-width:4;" transform="translate(218 2596) rotate(20)" xlink:href="#xf-LBI[angle=30,len=250]"/>
<text id="r_23_c_0_25_n2" style="stroke:black; fill:black; font-size:24pt;" x="261" y="2723">
LBI
</text>
<text id="r_23_c_0_25_n3" style="stroke:black; fill:black; font-size:24pt;" x="168" y="2590">
XF
</text>
<use id="r_24_c_0_40" style="stroke:black; stroke-width:4;" transform="translate(224 2835) rotate(350)" xlink:href="#RBO-ClMo[angle=45,len=350,delta-len=50]_0::RBO[angle=45,len=350]"/>
<text id="r_24_c_0_40_n2" style="stroke:black; fill:black; font-size:24pt;" x="346" y="2958">
RBO
</text>
<text id="r_24_c_0_40_n3" style="stroke:black; fill:black; font-size:24pt;" x="440" y="3072">
ClMo
</text>
<use id="r_24_c_0_40_n4" style="stroke:black; stroke-width:4;" transform="translate(398 3080) rotate(305)" xlink:href="#RBO-ClMo[angle=45,len=350,delta-len=50]_3::LFO[angle=45,len=400]"/>
<text id="r_24_c_0_40_n5" style="stroke:black; fill:black; font-size:24pt;" x="594" y="3090">
LFO
</text>
<use id="r_27_c_0_24" style="stroke:black; stroke-width:4;" transform="translate(793 3189) rotate(240)" xlink:href="#RFO3&gt;-_0::RFO[angle=40,len=225,label=&quot;RFO3&quot;]"/>
<text id="r_27_c_0_24_n2" style="stroke:black; fill:black; font-size:24pt;" x="910" y="3220">
RFO3
</text>
<use id="r_27_c_0_24_n3" style="stroke:black; stroke-width:4;" transform="translate(1009 3150) rotate(280)" xlink:href="#RFO3&gt;-_1::RFO&gt;[len=75,label=&quot; &quot;]"/>
<use id="r_27_c_0_24_n4" style="stroke:black; stroke-width:4;" transform="translate(1063 3195) rotate(205)" xlink:href="#RFO3&gt;-_3::RBI&gt;[len=75,label=&quot; &quot;]"/>
<use id="r_27_c_0_24_n5" style="stroke:black; stroke-width:4;" transform="translate(1120 3153) rotate(265)" xlink:href="#RFO3&gt;-_4::RBI[angle=40,len=225]"/>
<text id="r_27_c_0_24_n6" style="stroke:black; fill:black; font-size:24pt;" x="1213" y="3231">
RBI
</text>
<use id="r_29_c_0_22" style="stroke:black; stroke-width:4;" transform="translate(1314 3235) rotate(305)" xlink:href="#LBO-[angle=40]"/>
<text id="r_29_c_0_22_n2" style="stroke:black; fill:black; font-size:24pt;" x="1361" y="3380">
LBO
</text>
<use id="r_30_c_0_25" style="stroke:black; stroke-width:4;" transform="translate(1471 3493) rotate(345)" xlink:href="#xf-RBI[angle=30,len=350]"/>
<text id="r_30_c_0_25_n2" style="stroke:black; fill:black; font-size:24pt;" x="1423" y="3666">
RBI
</text>
<text id="r_30_c_0_25_n3" style="stroke:black; fill:black; font-size:24pt;" x="1521" y="3496">
XF
</text>
<use id="r_31_c_0_43" style="stroke:black; stroke-width:4;" transform="translate(1442 3830) rotate(15)" xlink:href="#LBO-ClMo&lt;&lt;&lt;-[delta-angle=-20]_0::LBO&gt;-"/>
<text id="r_31_c_0_43_n2" style="stroke:black; fill:black; font-size:24pt;" x="1317" y="3908">
LBO
</text>
<text id="r_31_c_0_43_n3" style="stroke:black; fill:black; font-size:24pt;" x="1223" y="3974">
ClMo
</text>
<use id="r_31_c_0_43_n4" style="stroke:black; stroke-width:4;" transform="translate(1260 3995) rotate(75)" xlink:href="#LBO-ClMo&lt;&lt;&lt;-[delta-angle=-20]_3::RFO-[angle=40]"/>
<text id="r_31_c_0_43_n5" style="stroke:black; fill:black; font-size:24pt;" x="1118" y="3937">
RFO
</text>
<use id="r_34_c_0_14" style="stroke:black; stroke-width:4;" transform="translate(960 3998) rotate(105)" xlink:href="#LFO3[len=250]_0::LFO[angle=36,len=187,label=&quot;LFO3&quot;]"/>
<text id="r_34_c_0_14_n2" style="stroke:black; fill:black; font-size:24pt;" x="872" y="4059">
LFO3
</text>
<use id="r_34_c_0_14_n3" style="stroke:black; stroke-width:4;" transform="translate(777 4007) rotate(69)" xlink:href="#LFO3[len=250]_1::LFO[angle=54,len=63,label=&quot; &quot;]"/>
<use id="r_34_c_0_14_n4" style="stroke:black; stroke-width:4;" transform="translate(736 4051) rotate(150)" xlink:href="#LFO3[len=250]_3::LBI[angle=54,len=63,label=&quot; &quot;]"/>
<use id="r_34_c_0_14_n5" style="stroke:black; stroke-width:4;" transform="translate(685 4017) rotate(96)" xlink:href="#LFO3[len=250]_4::LBI[angle=36,len=187]"/>
<text id="r_34_c_0_14_n6" style="stroke:black; fill:black; font-size:24pt;" x="607" y="4091">
LBI
</text>
<text id="r_38_c_0_47" style="stroke:black; fill:black; font-size:50pt;" x="1750" y="5625">
SIDE 2
</text>
<use id="r_41_c_0_29" style="stroke:black; stroke-width:4;" transform="translate(1900 5630) rotate(270)" xlink:href="#RF[label=&quot; &quot;,style=&quot;dashed&quot;]"/>
<use id="r_42_c_0_39" style="stroke:black; stroke-width:4;" transform="translate(2350 5630) rotate(270)" xlink:href="#RFI[angle=90,label=&quot; &quot;,style=&quot;dashed&quot;]"/>
<use id="r_44_c_0_51" style="stroke:black; stroke-width:4;" transform="translate(2636 5344) rotate(180)" xlink:href="#RFI-OpCho[delta-angle=-50,delta-len=-200]_0::RFI[angle=90]"/>
<text id="r_44_c_0_51_n2" style="stroke:black; fill:black; font-size:24pt;" x="2503" y="5192">
RFI
</text>
<text id="r_44_c_0_51_n3" style="stroke:black; fill:black; font-size:24pt;" x="2340" y="5138">
OpCho
</text>
<use id="r_44_c_0_51_n4" style="stroke:black; stroke-width:4;" transform="translate(2350 5098) rotate(90)" xlink:href="#RFI-OpCho[delta-angle=-50,delta-len=-200]_3::LBO[angle=40,len=250]"/>
<text id="r_44_c_0_51_n5" style="stroke:black; fill:black; font-size:24pt;" x="2252" y="5010">
LBO
</text>
<use id="r_46_c_0_25" style="stroke:black; stroke-width:4;" transform="translate(2118 4994) rotate(130)" xlink:href="#xf-RBI[len=200]"/>
<text id="r_46_c_0_25_n2" style="stroke:black; fill:black; font-size:24pt;" x="2101" y="4878">
RBI
</text>
<text id="r_46_c_0_25_n3" style="stroke:black; fill:black; font-size:24pt;" x="2080" y="5024">
XF
</text>
<use id="r_47_c_0_27" style="stroke:black; stroke-width:4;" transform="translate(2015 4827) rotate(150)" xlink:href="#LBO-ClMo[angle=20,len=250]_0::LBO[len=250]"/>
<text id="r_47_c_0_27_n2" style="stroke:black; fill:black; font-size:24pt;" x="2028" y="4690">
LBO
</text>
<text id="r_47_c_0_27_n3" style="stroke:black; fill:black; font-size:24pt;" x="1989" y="4583">
ClMo
</text>
<use id="r_47_c_0_27_n4" style="stroke:black; stroke-width:4;" transform="translate(1964 4618) rotate(170)" xlink:href="#LBO-ClMo[angle=20,len=250]_3::RFO[len=250]"/>
<text id="r_47_c_0_27_n5" style="stroke:black; fill:black; font-size:24pt;" x="2023" y="4493">
RFO
</text>
<use id="r_49_c_0_90" style="stroke:black; stroke-width:4;" transform="translate(1933 4366) rotate(190)" xlink:href="#LFI-OpCho[angle=75,len=350,delta-angle=-40,delta-len=-200,transition-label=&quot;Slip Chasse&quot;]_0::LFI[angle=75,len=350,transition-label=&quot;Slip Chasse&quot;]"/>
<text id="r_49_c_0_90_n2" style="stroke:black; fill:black; font-size:24pt;" x="2063" y="4268">
LFI
</text>
<text id="r_49_c_0_90_n3" style="stroke:black; fill:black; font-size:24pt;" x="1888" y="4340">
Slip Chasse
</text>
<text id="r_49_c_0_90_n4" style="stroke:black; fill:black; font-size:24pt;" x="2188" y="4224">
OpCho
</text>
<use id="r_49_c_0_90_n5" style="stroke:black; stroke-width:4;" transform="translate(2175 4185) rotate(265)" xlink:href="#LFI-OpCho[angle=75,len=350,delta-angle=-40,delta-len=-200,transition-label=&quot;Slip Chasse&quot;]_3::RBO[angle=35,len=150]"/>
<text id="r_49_c_0_90_n6" style="stroke:black; fill:black; font-size:24pt;" x="2219" y="4101">
RBO
</text>
<use id="r_51_c_0_25" style="stroke:black; stroke-width:4;" transform="translate(2311 4108) rotate(230)" xlink:href="#xf-LBI[len=200]"/>
<text id="r_51_c_0_25_n2" style="stroke:black; fill:black; font-size:24pt;" x="2327" y="3992">
LBI
</text>
<text id="r_51_c_0_25_n3" style="stroke:black; fill:black; font-size:24pt;" x="2348" y="4138">
XF
</text>
<use id="r_52_c_0_27" style="stroke:black; stroke-width:4;" transform="translate(2412 3941) rotate(210)" xlink:href="#RBO-ClMo[angle=20,len=250]_0::RBO[len=250]"/>
<text id="r_52_c_0_27_n2" style="stroke:black; fill:black; font-size:24pt;" x="2398" y="3804">
RBO
</text>
<text id="r_52_c_0_27_n3" style="stroke:black; fill:black; font-size:24pt;" x="2436" y="3697">
ClMo
</text>
<use id="r_52_c_0_27_n4" style="stroke:black; stroke-width:4;" transform="translate(2461 3732) rotate(190)" xlink:href="#RBO-ClMo[angle=20,len=250]_3::LFO[len=250]"/>
<text id="r_52_c_0_27_n5" style="stroke:black; fill:black; font-size:24pt;" x="2401" y="3607">
LFO
</text>
<use id="r_54_c_0_90" style="stroke:black; stroke-width:4;" transform="translate(2492 3480) rotate(170)" xlink:href="#RFI-OpCho[angle=75,delta-angle=-40,delta-len=-200,transition-label=&quot;Slip Chasse&quot;]_0::RFI[angle=75,transition-label=&quot;Slip Chasse&quot;]"/>
<text id="r_54_c_0_90_n2" style="stroke:black; fill:black; font-size:24pt;" x="2337" y="3338">
RFI
</text>
<text id="r_54_c_0_90_n3" style="stroke:black; fill:black; font-size:24pt;" x="2535" y="3449">
Slip Chasse
</text>
<text id="r_54_c_0_90_n4" style="stroke:black; fill:black; font-size:24pt;" x="2167" y="3275">
OpCho
</text>
<use id="r_54_c_0_90_n5" style="stroke:black; stroke-width:4;" transform="translate(2180 3236) rotate(95)" xlink:href="#RFI-OpCho[angle=75,delta-angle=-40,delta-len=-200,transition-label=&quot;Slip Chasse&quot;]_3::LBO[angle=35,len=250]"/>
<text id="r_54_c_0_90_n6" style="stroke:black; fill:black; font-size:24pt;" x="2085" y="3141">
LBO
</text>
<use id="r_56_c_0_25" style="stroke:black; stroke-width:4;" transform="translate(1953 3121) rotate(130)" xlink:href="#xf-RBI[len=200]"/>
<text id="r_56_c_0_25_n2" style="stroke:black; fill:black; font-size:24pt;" x="1936" y="3005">
RBI
</text>
<text id="r_56_c_0_25_n3" style="stroke:black; fill:black; font-size:24pt;" x="1915" y="3151">
XF
</text>
<use id="r_57_c_0_41" style="stroke:black; stroke-width:4;" transform="translate(1850 2954) rotate(150)" xlink:href="#LBO-ClMo-[angle=20,delta-len=-50]_0::LBO-"/>
<text id="r_57_c_0_41_n2" style="stroke:black; fill:black; font-size:24pt;" x="1853" y="2793">
LBO
</text>
<text id="r_57_c_0_41_n3" style="stroke:black; fill:black; font-size:24pt;" x="1806" y="2663">
ClMo
</text>
<use id="r_57_c_0_41_n4" style="stroke:black; stroke-width:4;" transform="translate(1781 2698) rotate(170)" xlink:href="#LBO-ClMo-[angle=20,delta-len=-50]_3::RFO[len=250]"/>
<text id="r_57_c_0_41_n5" style="stroke:black; fill:black; font-size:24pt;" x="1840" y="2573">
RFO
</text>
<use id="r_59_c_0_90" style="stroke:black; stroke-width:4;" transform="translate(1751 2447) rotate(190)" xlink:href="#LFI-OpCho[angle=75,delta-angle=-40,delta-len=-200,transition-label=&quot;Slip Chasse&quot;]_0::LFI[angle=75,transition-label=&quot;Slip Chasse&quot;]"/>
<text id="r_59_c_0_90_n2" style="stroke:black; fill:black; font-size:24pt;" x="1905" y="2305">
LFI
</text>
<text id="r_59_c_0_90_n3" style="stroke:black; fill:black; font-size:24pt;" x="1707" y="2416">
Slip Chasse
</text>
<text id="r_59_c_0_90_n4" style="stroke:black; fill:black; font-size:24pt;" x="2074" y="2242">
OpCho
</text>
<use id="r_59_c_0_90_n5" style="stroke:black; stroke-width:4;" transform="translate(2061 2203) rotate(265)" xlink:href="#LFI-OpCho[angle=75,delta-angle=-40,delta-len=-200,transition-label=&quot;Slip Chasse&quot;]_3::RBO[angle=35,len=250]"/>
<text id="r_59_c_0_90_n6" style="stroke:black; fill:black; font-size:24pt;" x="2155" y="2108">
RBO
</text>
<use id="r_61_c_0_25" style="stroke:black; stroke-width:4;" transform="translate(2288 2088) rotate(230)" xlink:href="#xf-LBI[len=200]"/>
<text id="r_61_c_0_25_n2" style="stroke:black; fill:black; font-size:24pt;" x="2304" y="1972">
LBI
</text>
<text id="r_61_c_0_25_n3" style="stroke:black; fill:black; font-size:24pt;" x="2325" y="2118">
XF
</text>
<use id="r_62_c_0_27" style="stroke:black; stroke-width:4;" transform="translate(2389 1921) rotate(210)" xlink:href="#RBO-ClMo-[angle=25]_0::RBO-[angle=25]"/>
<text id="r_62_c_0_27_n2" style="stroke:black; fill:black; font-size:24pt;" x="2381" y="1762">
RBO
</text>
<text id="r_62_c_0_27_n3" style="stroke:black; fill:black; font-size:24pt;" x="2418" y="1631">
ClMo
</text>
<use id="r_62_c_0_27_n4" style="stroke:black; stroke-width:4;" transform="translate(2445 1664) rotate(185)" xlink:href="#RBO-ClMo-[angle=25]_3::LFO-[angle=25]"/>
<text id="r_62_c_0_27_n5" style="stroke:black; fill:black; font-size:24pt;" x="2370" y="1524">
LFO
</text>
</svg>