<svg height="6200" viewBox="-50 -50 3100 6200" width="3100" xmlns="http://www.w3.org/2000/svg" xmlns:xlink="http://www.w3.org/1999/xlink">
<!-- Rink
Title [text="Skills 5 Exercise 5",y=200,font-size=90]
Info [grid=0,markers=false,font-size=36]

Text [x=1900,y=825,text="START",font-size=50]
Warp [x=1700,y=815,dir=90,code="RBO"]
RB [len=500,label=" ",style="dashed"]
RBO [len=300,angle=30,label=" "]
|:
  RBO [angle=30,len=200]
  LBI3 [angle=100,len=500]
  xf-RFI [angle=30,len=330]
  LFO [angle=30,len=300]
  xf-RFI [angle=40,len=300]
  LFI-OpMo [len=400,angle=85]
!|x4
 -->
<title>Skills 5 Exercise 5</title>
<desc>
<text>
Skills 5 Exercise 5
</text>
</desc>
<defs>
<style>
text { text-anchor: middle } path,rect,circle { fill:none; }
</style>
<g id="Rink">
<clipPath id="clip-rink">
<rect height="6100" rx="750" ry="750" width="3000" x="0" y="0"/>
</clipPath>
<rect height="6100" rx="750" ry="750" style="text { text-anchor: middle } path,rect,circle { fill:none; } clip-path:url(#clip-rink)" width="3000" x="0" y="0"/>
<path d="M 0,3050 l 3000,0" style="stroke:red;"/>
<circle cx="1500" cy="3050" r="400" style="stroke:red;"/>
<circle cx="1500" cy="3050" r="2" style="fill: black;"/>
<path d="M 0,2250 l 3000,0" style="stroke: blue;"/>
<path d="M 0,3850 l 3000,0" style="stroke: blue;"/>
</g>
<g id="Info[font-size=36]"/>
<g id="RB[len=500,label=&quot; &quot;,style=&quot;dashed&quot;]">
<path d="M 0,0 l 0,500" stroke-dasharray="50 30"/>
</g>
<g id="RBO-[angle=30,label=&quot; &quot;]">
<path d="M 0,0 a 572,572 0 0 0 76,286"/>
</g>
<g id="RBO[angle=30,len=200]">
<path d="M 0,0 a 381,381 0 0 0 51,190"/>
</g>
<g id="LBI3&gt;[len=500]_0::LBI[angle=40,len=375,label=&quot;LBI3&quot;]">
<path d="M 0,0 a 537,537 0 0 0 125,345"/>
</g>
<g id="LBI3&gt;[len=500]_1::LBI&gt;[len=125,label=&quot; &quot;]">
<path d="M 0,0 a 119,119 0 0 0 59,103"/>
</g>
<g id="LBI3&gt;[len=500]_3::LFO&gt;[len=125,label=&quot; &quot;]">
<path d="M 0,0 a 119,119 0 0 0 59,103"/>
</g>
<g id="LBI3&gt;[len=500]_4::LFO[angle=40,len=375]">
<path d="M 0,0 a 537,537 0 0 0 125,345"/>
</g>
<g id="xf-RFI[angle=30,len=330]">
<path d="M 0,0 a 630,630 0 0 0 84,315"/>
</g>
<g id="LFO-[angle=30]">
<path d="M 0,0 a 572,572 0 0 0 76,286"/>
</g>
<g id="xf-RFI-[angle=40]">
<path d="M 0,0 a 429,429 0 0 0 100,276"/>
</g>
<g id="LFI-OpMo[angle=85,len=400]_0::LFI[angle=85,len=400]">
<path d="M 0,0 a 269,269 0 0 1 -246,268"/>
</g>
<g id="LFI-OpMo[angle=85,len=400]_3::RBI[angle=85,len=400]">
<path d="M 0,0 a 269,269 0 0 1 -246,268"/>
</g>
<g id="LBO[angle=30,len=200]">
<path d="M 0,0 a 381,381 0 0 1 -51,190"/>
</g>
<g id="opposite(LBI3)&gt;[len=500]_0::RBI[angle=40,len=375,label=&quot;LBI3&quot;]">
<path d="M 0,0 a 537,537 0 0 1 -125,345"/>
</g>
<g id="opposite(LBI3)&gt;[len=500]_1::RBI&gt;[len=125,label=&quot; &quot;]">
<path d="M 0,0 a 119,119 0 0 1 -59,103"/>
</g>
<g id="opposite(LBI3)&gt;[len=500]_3::RFO&gt;[len=125,label=&quot; &quot;]">
<path d="M 0,0 a 119,119 0 0 1 -59,103"/>
</g>
<g id="opposite(LBI3)&gt;[len=500]_4::RFO[angle=40,len=375]">
<path d="M 0,0 a 537,537 0 0 1 -125,345"/>
</g>
<g id="xf-LFI[angle=30,len=330]">
<path d="M 0,0 a 630,630 0 0 1 -84,315"/>
</g>
<g id="RFO-[angle=30]">
<path d="M 0,0 a 572,572 0 0 1 -76,286"/>
</g>
<g id="xf-LFI-[angle=40]">
<path d="M 0,0 a 429,429 0 0 1 -100,276"/>
</g>
<g id="opposite(LFI-OpMo)[angle=85,len=400]_0::RFI[angle=85,len=400]">
<path d="M 0,0 a 269,269 0 0 0 246,268"/>
</g>
<g id="opposite(LFI-OpMo)[angle=85,len=400]_3::LBI[angle=85,len=400]">
<path d="M 0,0 a 269,269 0 0 0 246,268"/>
</g>
</defs>
<use id="r_0_c_0_4" style="stroke:black; stroke-width:4;" transform="translate(0 0) rotate(0)" xlink:href="#Rink"/>
<text id="r_1_c_0_53" style="stroke:black; fill:black; font-size: 90pt;" x="1500" y="200">
Skills 5 Exercise 5
</text>
<text id="r_4_c_0_45" style="stroke:black; fill:black; font-size:50pt;" x="1900" y="825">
START
</text>
<use id="r_6_c_0_37" style="stroke:black; stroke-width:4;" transform="translate(1700 815) rotate(90)" xlink:href="#RB[len=500,label=&quot; &quot;,style=&quot;dashed&quot;]"/>
<use id="r_7_c_0_32" style="stroke:black; stroke-width:4;" transform="translate(1200 815) rotate(90)" xlink:href="#RBO-[angle=30,label=&quot; &quot;]"/>
<use id="r_9_c_2_24" style="stroke:black; stroke-width:4;" transform="translate(914 891) rotate(60)" xlink:href="#RBO[angle=30,len=200]"/>
<text id="r_9_c_2_24_n2" style="stroke:black; fill:black; font-size:36pt;" x="911" y="1027">
RBO
</text>
<use id="r_10_c_2_26" style="stroke:black; stroke-width:4;" transform="translate(748 1015) rotate(30)" xlink:href="#LBI3&gt;[len=500]_0::LBI[angle=40,len=375,label=&quot;LBI3&quot;]"/>
<text id="r_10_c_2_26_n2" style="stroke:black; fill:black; font-size:36pt;" x="789" y="1208">
LBI3
</text>
<use id="r_10_c_2_26_n3" style="stroke:black; stroke-width:4;" transform="translate(683 1376) rotate(350)" xlink:href="#LBI3&gt;[len=500]_1::LBI&gt;[len=125,label=&quot; &quot;]"/>
<use id="r_10_c_2_26_n4" style="stroke:black; stroke-width:4;" transform="translate(758 1467) rotate(65)" xlink:href="#LBI3&gt;[len=500]_3::LFO&gt;[len=125,label=&quot; &quot;]"/>
<use id="r_10_c_2_26_n5" style="stroke:black; stroke-width:4;" transform="translate(689 1564) rotate(5)" xlink:href="#LBI3&gt;[len=500]_4::LFO[angle=40,len=375]"/>
<text id="r_10_c_2_26_n6" style="stroke:black; fill:black; font-size:36pt;" x="808" y="1722">
LFO
</text>
<use id="r_11_c_2_27" style="stroke:black; stroke-width:4;" transform="translate(806 1919) rotate(325)" xlink:href="#xf-RFI[angle=30,len=330]"/>
<text id="r_11_c_2_27_n2" style="stroke:black; fill:black; font-size:36pt;" x="986" y="1958">
RFI
</text>
<text id="r_11_c_2_27_n3" style="stroke:black; fill:black; font-size:36pt;" x="756" y="1973">
XF
</text>
<use id="r_12_c_2_24" style="stroke:black; stroke-width:4;" transform="translate(1067 2100) rotate(295)" xlink:href="#LFO-[angle=30]"/>
<text id="r_12_c_2_24_n2" style="stroke:black; fill:black; font-size:36pt;" x="1228" y="2039">
LFO
</text>
<use id="r_13_c_2_27" style="stroke:black; stroke-width:4;" transform="translate(1371 2134) rotate(265)" xlink:href="#xf-RFI-[angle=40]"/>
<text id="r_13_c_2_27_n2" style="stroke:black; fill:black; font-size:36pt;" x="1469" y="1998">
RFI
</text>
<text id="r_13_c_2_27_n3" style="stroke:black; fill:black; font-size:36pt;" x="1391" y="2204">
XF
</text>
<use id="r_14_c_2_29" style="stroke:black; stroke-width:4;" transform="translate(1615 1988) rotate(225)" xlink:href="#LFI-OpMo[angle=85,len=400]_0::LFI[angle=85,len=400]"/>
<text id="r_14_c_2_29_n2" style="stroke:black; fill:black; font-size:36pt;" x="1798" y="2015">
LFI
</text>
<text id="r_14_c_2_29_n3" style="stroke:black; fill:black; font-size:36pt;" x="1955" y="2044">
OpMo
</text>
<use id="r_14_c_2_29_n4" style="stroke:black; stroke-width:4;" transform="translate(1876 1991) rotate(220)" xlink:href="#LFI-OpMo[angle=85,len=400]_3::RBI[angle=85,len=400]"/>
<text id="r_14_c_2_29_n5" style="stroke:black; fill:black; font-size:36pt;" x="2060" y="2002">
RBI
</text>
<use id="r_9_c_2_24_rep_2" style="stroke:black; stroke-width:4;" transform="translate(2218 1968) rotate(305)" xlink:href="#LBO[angle=30,len=200]"/>
<text id="r_9_c_2_24_rep_2_n2" style="stroke:black; fill:black; font-size:36pt;" x="2209" y="2104">
LBO
</text>
<use id="r_10_c_2_26_rep_2" style="stroke:black; stroke-width:4;" transform="translate(2371 2105) rotate(335)" xlink:href="#opposite(LBI3)&gt;[len=500]_0::RBI[angle=40,len=375,label=&quot;LBI3&quot;]"/>
<text id="r_10_c_2_26_rep_2_n2" style="stroke:black; fill:black; font-size:36pt;" x="2312" y="2294">
LBI3
</text>
<use id="r_10_c_2_26_rep_2_n3" style="stroke:black; stroke-width:4;" transform="translate(2403 2470) rotate(15)" xlink:href="#opposite(LBI3)&gt;[len=500]_1::RBI&gt;[len=125,label=&quot; &quot;]"/>
<use id="r_10_c_2_26_rep_2_n4" style="stroke:black; stroke-width:4;" transform="translate(2319 2554) rotate(300)" xlink:href="#opposite(LBI3)&gt;[len=500]_3::RFO&gt;[len=125,label=&quot; &quot;]"/>
<use id="r_10_c_2_26_rep_2_n5" style="stroke:black; stroke-width:4;" transform="translate(2378 2656) rotate(0)" xlink:href="#opposite(LBI3)&gt;[len=500]_4::RFO[angle=40,len=375]"/>
<text id="r_10_c_2_26_rep_2_n6" style="stroke:black; fill:black; font-size:36pt;" x="2245" y="2803">
RFO
</text>
<use id="r_11_c_2_27_rep_2" style="stroke:black; stroke-width:4;" transform="translate(2232 3001) rotate(40)" xlink:href="#xf-LFI[angle=30,len=330]"/>
<text id="r_11_c_2_27_rep_2_n2" style="stroke:black; fill:black; font-size:36pt;" x="2048" y="3024">
LFI
</text>
<text id="r_11_c_2_27_rep_2_n3" style="stroke:black; fill:black; font-size:36pt;" x="2276" y="3059">
XF
</text>
<use id="r_12_c_2_24_rep_2" style="stroke:black; stroke-width:4;" transform="translate(1954 3159) rotate(70)" xlink:href="#RFO-[angle=30]"/>
<text id="r_12_c_2_24_rep_2_n2" style="stroke:black; fill:black; font-size:36pt;" x="1798" y="3084">
RFO
</text>
<use id="r_13_c_2_27_rep_2" style="stroke:black; stroke-width:4;" transform="translate(1646 3167) rotate(100)" xlink:href="#xf-LFI-[angle=40]"/>
<text id="r_13_c_2_27_rep_2_n2" style="stroke:black; fill:black; font-size:36pt;" x="1559" y="3023">
LFI
</text>
<text id="r_13_c_2_27_rep_2_n3" style="stroke:black; fill:black; font-size:36pt;" x="1619" y="3235">
XF
</text>
<use id="r_14_c_2_29_rep_2" style="stroke:black; stroke-width:4;" transform="translate(1413 3000) rotate(140)" xlink:href="#opposite(LFI-OpMo)[angle=85,len=400]_0::RFI[angle=85,len=400]"/>
<text id="r_14_c_2_29_rep_2_n2" style="stroke:black; fill:black; font-size:36pt;" x="1228" y="3011">
RFI
</text>
<text id="r_14_c_2_29_rep_2_n3" style="stroke:black; fill:black; font-size:36pt;" x="1067" y="3026">
OpMo
</text>
<use id="r_14_c_2_29_rep_2_n4" style="stroke:black; stroke-width:4;" transform="translate(1151 2980) rotate(145)" xlink:href="#opposite(LFI-OpMo)[angle=85,len=400]_3::LBI[angle=85,len=400]"/>
<text id="r_14_c_2_29_rep_2_n5" style="stroke:black; fill:black; font-size:36pt;" x="965" y="2975">
LBI
</text>
<use id="r_9_c_2_24_rep_3" style="stroke:black; stroke-width:4;" transform="translate(812 2927) rotate(60)" xlink:href="#RBO[angle=30,len=200]"/>
<text id="r_9_c_2_24_rep_3_n2" style="stroke:black; fill:black; font-size:36pt;" x="809" y="3063">
RBO
</text>
<use id="r_10_c_2_26_rep_3" style="stroke:black; stroke-width:4;" transform="translate(646 3051) rotate(30)" xlink:href="#LBI3&gt;[len=500]_0::LBI[angle=40,len=375,label=&quot;LBI3&quot;]"/>
<text id="r_10_c_2_26_rep_3_n2" style="stroke:black; fill:black; font-size:36pt;" x="687" y="3244">
LBI3
</text>
<use id="r_10_c_2_26_rep_3_n3" style="stroke:black; stroke-width:4;" transform="translate(581 3412) rotate(350)" xlink:href="#LBI3&gt;[len=500]_1::LBI&gt;[len=125,label=&quot; &quot;]"/>
<use id="r_10_c_2_26_rep_3_n4" style="stroke:black; stroke-width:4;" transform="translate(656 3503) rotate(65)" xlink:href="#LBI3&gt;[len=500]_3::LFO&gt;[len=125,label=&quot; &quot;]"/>
<use id="r_10_c_2_26_rep_3_n5" style="stroke:black; stroke-width:4;" transform="translate(587 3600) rotate(5)" xlink:href="#LBI3&gt;[len=500]_4::LFO[angle=40,len=375]"/>
<text id="r_10_c_2_26_rep_3_n6" style="stroke:black; fill:black; font-size:36pt;" x="706" y="3758">
LFO
</text>
<use id="r_11_c_2_27_rep_3" style="stroke:black; stroke-width:4;" transform="translate(704 3955) rotate(325)" xlink:href="#xf-RFI[angle=30,len=330]"/>
<text id="r_11_c_2_27_rep_3_n2" style="stroke:black; fill:black; font-size:36pt;" x="884" y="3994">
RFI
</text>
<text id="r_11_c_2_27_rep_3_n3" style="stroke:black; fill:black; font-size:36pt;" x="654" y="4009">
XF
</text>
<use id="r_12_c_2_24_rep_3" style="stroke:black; stroke-width:4;" transform="translate(965 4136) rotate(295)" xlink:href="#LFO-[angle=30]"/>
<text id="r_12_c_2_24_rep_3_n2" style="stroke:black; fill:black; font-size:36pt;" x="1126" y="4075">
LFO
</text>
<use id="r_13_c_2_27_rep_3" style="stroke:black; stroke-width:4;" transform="translate(1269 4170) rotate(265)" xlink:href="#xf-RFI-[angle=40]"/>
<text id="r_13_c_2_27_rep_3_n2" style="stroke:black; fill:black; font-size:36pt;" x="1367" y="4034">
RFI
</text>
<text id="r_13_c_2_27_rep_3_n3" style="stroke:black; fill:black; font-size:36pt;" x="1289" y="4240">
XF
</text>
<use id="r_14_c_2_29_rep_3" style="stroke:black; stroke-width:4;" transform="translate(1513 4024) rotate(225)" xlink:href="#LFI-OpMo[angle=85,len=400]_0::LFI[angle=85,len=400]"/>
<text id="r_14_c_2_29_rep_3_n2" style="stroke:black; fill:black; font-size:36pt;" x="1696" y="4051">
LFI
</text>
<text id="r_14_c_2_29_rep_3_n3" style="stroke:black; fill:black; font-size:36pt;" x="1853" y="4080">
OpMo
</text>
<use id="r_14_c_2_29_rep_3_n4" style="stroke:black; stroke-width:4;" transform="translate(1774 4027) rotate(220)" xlink:href="#LFI-OpMo[angle=85,len=400]_3::RBI[angle=85,len=400]"/>
<text id="r_14_c_2_29_rep_3_n5" style="stroke:black; fill:black; font-size:36pt;" x="1958" y="4038">
RBI
</text>
<use id="r_9_c_2_24_rep_4" style="stroke:black; stroke-width:4;" transform="translate(2116 4004) rotate(305)" xlink:href="#LBO[angle=30,len=200]"/>
<text id="r_9_c_2_24_rep_4_n2" style="stroke:black; fill:black; font-size:36pt;" x="2107" y="4140">
LBO
</text>
<use id="r_10_c_2_26_rep_4" style="stroke:black; stroke-width:4;" transform="translate(2269 4141) rotate(335)" xlink:href="#opposite(LBI3)&gt;[len=500]_0::RBI[angle=40,len=375,label=&quot;LBI3&quot;]"/>
<text id="r_10_c_2_26_rep_4_n2" style="stroke:black; fill:black; font-size:36pt;" x="2210" y="4330">
LBI3
</text>
<use id="r_10_c_2_26_rep_4_n3" style="stroke:black; stroke-width:4;" transform="translate(2301 4506) rotate(15)" xlink:href="#opposite(LBI3)&gt;[len=500]_1::RBI&gt;[len=125,label=&quot; &quot;]"/>
<use id="r_10_c_2_26_rep_4_n4" style="stroke:black; stroke-width:4;" transform="translate(2217 4590) rotate(300)" xlink:href="#opposite(LBI3)&gt;[len=500]_3::RFO&gt;[len=125,label=&quot; &quot;]"/>
<use id="r_10_c_2_26_rep_4_n5" style="stroke:black; stroke-width:4;" transform="translate(2276 4692) rotate(0)" xlink:href="#opposite(LBI3)&gt;[len=500]_4::RFO[angle=40,len=375]"/>
<text id="r_10_c_2_26_rep_4_n6" style="stroke:black; fill:black; font-size:36pt;" x="2143" y="4839">
RFO
</text>
<use id="r_11_c_2_27_rep_4" style="stroke:black; stroke-width:4;" transform="translate(2130 5037) rotate(40)" xlink:href="#xf-LFI[angle=30,len=330]"/>
<text id="r_11_c_2_27_rep_4_n2" style="stroke:black; fill:black; font-size:36pt;" x="1946" y="5060">
LFI
</text>
<text id="r_11_c_2_27_rep_4_n3" style="stroke:black; fill:black; font-size:36pt;" x="2174" y="5095">
XF
</text>
<use id="r_12_c_2_24_rep_4" style="stroke:black; stroke-width:4;" transform="translate(1852 5195) rotate(70)" xlink:href="#RFO-[angle=30]"/>
<text id="r_12_c_2_24_rep_4_n2" style="stroke:black; fill:black; font-size:36pt;" x="1696" y="5120">
RFO
</text>
<use id="r_13_c_2_27_rep_4" style="stroke:black; stroke-width:4;" transform="translate(1544 5203) rotate(100)" xlink:href="#xf-LFI-[angle=40]"/>
<text id="r_13_c_2_27_rep_4_n2" style="stroke:black; fill:black; font-size:36pt;" x="1457" y="5059">
LFI
</text>
<text id="r_13_c_2_27_rep_4_n3" style="stroke:black; fill:black; font-size:36pt;" x="1517" y="5271">
XF
</text>
<use id="r_14_c_2_29_rep_4" style="stroke:black; stroke-width:4;" transform="translate(1311 5036) rotate(140)" xlink:href="#opposite(LFI-OpMo)[angle=85,len=400]_0::RFI[angle=85,len=400]"/>
<text id="r_14_c_2_29_rep_4_n2" style="stroke:black; fill:black; font-size:36pt;" x="1126" y="5047">
RFI
</text>
<text id="r_14_c_2_29_rep_4_n3" style="stroke:black; fill:black; font-size:36pt;" x="965" y="5062">
OpMo
</text>
<use id="r_14_c_2_29_rep_4_n4" style="stroke:black; stroke-width:4;" transform="translate(1049 5016) rotate(145)" xlink:href="#opposite(LFI-OpMo)[angle=85,len=400]_3::LBI[angle=85,len=400]"/>
<text id="r_14_c_2_29_rep_4_n5" style="stroke:black; fill:black; font-size:36pt;" x="863" y="5011">
LBI
</text>
</svg>