<svg height="6200" viewBox="-50 -50 3100 6200" width="3100" xmlns="http://www.w3.org/2000/svg" xmlns:xlink="http://www.w3.org/1999/xlink">
<title>Skills 4 Exercise 4</title>
<desc>
<text>
Skills 4 Exercise 4
</text>
</desc>
<defs>
<style>
text { text-anchor: middle } path,rect,circle { fill:none; stroke: black; }
</style>
<g id="Rink">
<clipPath id="clip-rink">
<rect height="6100" rx="750" ry="750" width="3000" x="0" y="0"/>
</clipPath>
<rect height="6100" rx="750" ry="750" style="text { text-anchor: middle } path,rect,circle { fill:none; stroke: black; } clip-path:url(#clip-rink)" width="3000" x="0" y="0"/>
<path d="M 0,3050 l 3000,0" style="stroke:red;"/>
<circle cx="1500" cy="3050" r="400" style="stroke:red;"/>
<circle cx="1500" cy="3050" r="2" style="fill: black;"/>
<path d="M 0,2250 l 3000,0" style="stroke: blue;"/>
<path d="M 0,3850 l 3000,0" style="stroke: blue;"/>
</g>
<g id="Info[grid=100,font-size=30]"/>
<g id="LF[len=400,label=&quot; &quot;,style=&quot;dashed&quot;]">
<path d="M 0,0 l 0,400" stroke-dasharray="50 30"/>
</g>
<g id="LFO3&gt;-_0::LFO[angle=40,len=225,label=&quot;LFO3&quot;]">
<path d="M 0,0 a 322,322 0 0 0 75,207"/>
</g>
<g id="LFO3&gt;-_1::LFO&gt;[len=75,label=&quot; &quot;]">
<path d="M 0,0 a 71,71 0 0 0 35,62"/>
</g>
<g id="LFO3&gt;-_3::LBI&gt;[len=75,label=&quot; &quot;]">
<path d="M 0,0 a 71,71 0 0 0 35,62"/>
</g>
<g id="LFO3&gt;-_4::LBI[angle=40,len=225]">
<path d="M 0,0 a 322,322 0 0 0 75,207"/>
</g>
<g id="RFI-[angle=70]">
<path d="M 0,0 a 245,245 0 0 0 161,230"/>
</g>
<g id="LFI---">
<path d="M 0,0 a 286,286 0 0 1 -17,97"/>
</g>
<g id="LFI-Tw1.5&gt;&gt;[len=40]_0::LFI[angle=32,len=30,label=&quot; &quot;]">
<path d="M 0,0 a 53,53 0 0 1 -8,28"/>
</g>
<g id="LFI-Tw1.5&gt;&gt;[len=40]_1::LFI[angle=48,len=10,label=&quot; &quot;]">
<path d="M 0,0 a 11,11 0 0 1 -3,8"/>
</g>
<g id="LFI-Tw1.5&gt;&gt;[len=40]_3::LBO[angle=48,len=10,label=&quot; &quot;]">
<path d="M 0,0 a 11,11 0 0 1 -3,8"/>
</g>
<g id="LFI-Tw1.5&gt;&gt;[len=40]_4::LBO[angle=32,len=30,label=&quot; &quot;]">
<path d="M 0,0 a 53,53 0 0 1 -8,28"/>
</g>
<g id="LFI-Tw1.5&gt;&gt;[len=40]_5::LBO[angle=32,len=30,label=&quot; &quot;]">
<path d="M 0,0 a 53,53 0 0 1 -8,28"/>
</g>
<g id="LFI-Tw1.5&gt;&gt;[len=40]_6::LBO[angle=48,len=10,label=&quot; &quot;]">
<path d="M 0,0 a 11,11 0 0 1 -3,8"/>
</g>
<g id="LFI-Tw1.5&gt;&gt;[len=40]_9::LFI[angle=48,len=10,label=&quot; &quot;]">
<path d="M 0,0 a 11,11 0 0 1 -3,8"/>
</g>
<g id="LFI-Tw1.5&gt;&gt;[len=40]_10::LFI[angle=32,len=30,label=&quot; &quot;]">
<path d="M 0,0 a 53,53 0 0 1 -8,28"/>
</g>
<g id="LFI-Tw1.5&gt;&gt;[len=40]_11::LFI[angle=32,len=30,label=&quot; &quot;]">
<path d="M 0,0 a 53,53 0 0 1 -8,28"/>
</g>
<g id="LFI-Tw1.5&gt;&gt;[len=40]_12::LFI[angle=48,len=10,label=&quot; &quot;]">
<path d="M 0,0 a 11,11 0 0 1 -3,8"/>
</g>
<g id="LFI-Tw1.5&gt;&gt;[len=40]_14::LBO[angle=48,len=10,label=&quot; &quot;]">
<path d="M 0,0 a 11,11 0 0 1 -3,8"/>
</g>
<g id="LFI-Tw1.5&gt;&gt;[len=40]_15::LBO[angle=32,len=30,label=&quot; &quot;]">
<path d="M 0,0 a 53,53 0 0 1 -8,28"/>
</g>
<g id="LBO[len=250,label=&quot; &quot;]">
<path d="M 0,0 a 716,716 0 0 1 -43,244"/>
</g>
<g id="RFO3&gt;-_0::RFO[angle=40,len=225,label=&quot;RFO3&quot;]">
<path d="M 0,0 a 322,322 0 0 1 -75,207"/>
</g>
<g id="RFO3&gt;-_1::RFO&gt;[len=75,label=&quot; &quot;]">
<path d="M 0,0 a 71,71 0 0 1 -35,62"/>
</g>
<g id="RFO3&gt;-_3::RBI&gt;[len=75,label=&quot; &quot;]">
<path d="M 0,0 a 71,71 0 0 1 -35,62"/>
</g>
<g id="RFO3&gt;-_4::RBI[angle=40,len=225]">
<path d="M 0,0 a 322,322 0 0 1 -75,207"/>
</g>
<g id="LFI-[angle=70]">
<path d="M 0,0 a 245,245 0 0 1 -161,230"/>
</g>
<g id="RFI---">
<path d="M 0,0 a 286,286 0 0 0 17,97"/>
</g>
<g id="RFI-Tw1.5&gt;&gt;[len=40]_0::RFI[angle=32,len=30,label=&quot; &quot;]">
<path d="M 0,0 a 53,53 0 0 0 8,28"/>
</g>
<g id="RFI-Tw1.5&gt;&gt;[len=40]_1::RFI[angle=48,len=10,label=&quot; &quot;]">
<path d="M 0,0 a 11,11 0 0 0 3,8"/>
</g>
<g id="RFI-Tw1.5&gt;&gt;[len=40]_3::RBO[angle=48,len=10,label=&quot; &quot;]">
<path d="M 0,0 a 11,11 0 0 0 3,8"/>
</g>
<g id="RFI-Tw1.5&gt;&gt;[len=40]_4::RBO[angle=32,len=30,label=&quot; &quot;]">
<path d="M 0,0 a 53,53 0 0 0 8,28"/>
</g>
<g id="RFI-Tw1.5&gt;&gt;[len=40]_5::RBO[angle=32,len=30,label=&quot; &quot;]">
<path d="M 0,0 a 53,53 0 0 0 8,28"/>
</g>
<g id="RFI-Tw1.5&gt;&gt;[len=40]_6::RBO[angle=48,len=10,label=&quot; &quot;]">
<path d="M 0,0 a 11,11 0 0 0 3,8"/>
</g>
<g id="RFI-Tw1.5&gt;&gt;[len=40]_9::RFI[angle=48,len=10,label=&quot; &quot;]">
<path d="M 0,0 a 11,11 0 0 0 3,8"/>
</g>
<g id="RFI-Tw1.5&gt;&gt;[len=40]_10::RFI[angle=32,len=30,label=&quot; &quot;]">
<path d="M 0,0 a 53,53 0 0 0 8,28"/>
</g>
<g id="RFI-Tw1.5&gt;&gt;[len=40]_11::RFI[angle=32,len=30,label=&quot; &quot;]">
<path d="M 0,0 a 53,53 0 0 0 8,28"/>
</g>
<g id="RFI-Tw1.5&gt;&gt;[len=40]_12::RFI[angle=48,len=10,label=&quot; &quot;]">
<path d="M 0,0 a 11,11 0 0 0 3,8"/>
</g>
<g id="RFI-Tw1.5&gt;&gt;[len=40]_14::RBO[angle=48,len=10,label=&quot; &quot;]">
<path d="M 0,0 a 11,11 0 0 0 3,8"/>
</g>
<g id="RFI-Tw1.5&gt;&gt;[len=40]_15::RBO[angle=32,len=30,label=&quot; &quot;]">
<path d="M 0,0 a 53,53 0 0 0 8,28"/>
</g>
<g id="RBO[len=250,label=&quot; &quot;]">
<path d="M 0,0 a 716,716 0 0 0 43,244"/>
</g>
<g id="LBO[angle=45,len=250,label=&quot; &quot;]">
<path d="M 0,0 a 318,318 0 0 1 -93,225"/>
</g>
<g id="RBO&gt;[len=250,label=&quot; &quot;]">
<path d="M 0,0 a 238,238 0 0 0 119,206"/>
</g>
<g id="RB+[label=&quot; &quot;,style=&quot;dashed&quot;]">
<path d="M 0,0 l 0,600" stroke-dasharray="50 30"/>
</g>
<g id="RBO-[angle=85]">
<path d="M 0,0 a 202,202 0 0 0 184,201"/>
</g>
<g id="xb-LBO-[angle=80,transition-label=&quot;CR&quot;]">
<path d="M 0,0 a 214,214 0 0 1 -177,211"/>
</g>
<g id="xb-RBO-[angle=80,transition-label=&quot;CR&quot;]">
<path d="M 0,0 a 214,214 0 0 0 177,211"/>
</g>
<g id="xb-LBO---[angle=40,label=&quot; &quot;,transition-label=&quot;CR&quot;]">
<path d="M 0,0 a 143,143 0 0 1 -33,92"/>
</g>
<g id="LBO-Tw1[angle=120,len=40]_0::LBO[angle=48,len=30,label=&quot; &quot;]">
<path d="M 0,0 a 35,35 0 0 1 -11,26"/>
</g>
<g id="LBO-Tw1[angle=120,len=40]_1::LBO[angle=72,len=10,label=&quot; &quot;]">
<path d="M 0,0 a 7,7 0 0 1 -5,7"/>
</g>
<g id="LBO-Tw1[angle=120,len=40]_3::LFI[angle=72,len=10,label=&quot; &quot;]">
<path d="M 0,0 a 7,7 0 0 1 -5,7"/>
</g>
<g id="LBO-Tw1[angle=120,len=40]_4::LFI[angle=48,len=30,label=&quot; &quot;]">
<path d="M 0,0 a 35,35 0 0 1 -11,26"/>
</g>
<g id="LBO-Tw1[angle=120,len=40]_6::LFI[angle=48,len=30,label=&quot; &quot;]">
<path d="M 0,0 a 35,35 0 0 1 -11,26"/>
</g>
<g id="LBO-Tw1[angle=120,len=40]_7::LFI[angle=72,len=10,label=&quot; &quot;]">
<path d="M 0,0 a 7,7 0 0 1 -5,7"/>
</g>
<g id="LBO-Tw1[angle=120,len=40]_9::LBO[angle=72,len=10,label=&quot; &quot;]">
<path d="M 0,0 a 7,7 0 0 1 -5,7"/>
</g>
<g id="LBO-Tw1[angle=120,len=40]_10::LBO[angle=48,len=30,label=&quot; &quot;]">
<path d="M 0,0 a 35,35 0 0 1 -11,26"/>
</g>
<g id="LBO---[angle=40,label=&quot; &quot;]">
<path d="M 0,0 a 143,143 0 0 1 -33,92"/>
</g>
<g id="xb-RBO---[angle=40,label=&quot; &quot;,transition-label=&quot;CR&quot;]">
<path d="M 0,0 a 143,143 0 0 0 33,92"/>
</g>
<g id="RBO-Tw1[angle=120,len=40]_0::RBO[angle=48,len=30,label=&quot; &quot;]">
<path d="M 0,0 a 35,35 0 0 0 11,26"/>
</g>
<g id="RBO-Tw1[angle=120,len=40]_1::RBO[angle=72,len=10,label=&quot; &quot;]">
<path d="M 0,0 a 7,7 0 0 0 5,7"/>
</g>
<g id="RBO-Tw1[angle=120,len=40]_3::RFI[angle=72,len=10,label=&quot; &quot;]">
<path d="M 0,0 a 7,7 0 0 0 5,7"/>
</g>
<g id="RBO-Tw1[angle=120,len=40]_4::RFI[angle=48,len=30,label=&quot; &quot;]">
<path d="M 0,0 a 35,35 0 0 0 11,26"/>
</g>
<g id="RBO-Tw1[angle=120,len=40]_6::RFI[angle=48,len=30,label=&quot; &quot;]">
<path d="M 0,0 a 35,35 0 0 0 11,26"/>
</g>
<g id="RBO-Tw1[angle=120,len=40]_7::RFI[angle=72,len=10,label=&quot; &quot;]">
<path d="M 0,0 a 7,7 0 0 0 5,7"/>
</g>
<g id="RBO-Tw1[angle=120,len=40]_9::RBO[angle=72,len=10,label=&quot; &quot;]">
<path d="M 0,0 a 7,7 0 0 0 5,7"/>
</g>
<g id="RBO-Tw1[angle=120,len=40]_10::RBO[angle=48,len=30,label=&quot; &quot;]">
<path d="M 0,0 a 35,35 0 0 0 11,26"/>
</g>
<g id="RBO---[angle=40,label=&quot; &quot;]">
<path d="M 0,0 a 143,143 0 0 0 33,92"/>
</g>
</defs>
<use id="r_0_c_0_4" style="stroke-width:4;" transform="translate(0 0) rotate(0)" xlink:href="#Rink"/>
<text style="font-size: 90pt;" x="1500" y="200">
Skills 4 Exercise 4
</text>
<text style="font-size:50pt;" x="1350" y="1630">
SIDE 1
</text>
<use id="r_7_c_0_37" style="stroke-width:4;" transform="translate(1200 1600) rotate(90)" xlink:href="#LF[len=400,label=&quot; &quot;,style=&quot;dashed&quot;]"/>
<use id="r_9_c_0_43" style="stroke-width:4;" transform="translate(800 1600) rotate(90)" xlink:href="#LFO3&gt;-_0::LFO[angle=40,len=225,label=&quot;LFO3&quot;]"/>
<text style="font-size:30pt;" x="720" y="1703">
LFO3
</text>
<use id="r_9_c_0_39" style="stroke-width:4;" transform="translate(593 1675) rotate(50)" xlink:href="#LFO3&gt;-_1::LFO&gt;[len=75,label=&quot; &quot;]"/>
<use id="r_9_c_0_39" style="stroke-width:4;" transform="translate(568 1741) rotate(125)" xlink:href="#LFO3&gt;-_3::LBI&gt;[len=75,label=&quot; &quot;]"/>
<use id="r_9_c_0_30" style="stroke-width:4;" transform="translate(497 1734) rotate(65)" xlink:href="#LFO3&gt;-_4::LBI[angle=40,len=225]"/>
<text style="font-size:30pt;" x="468" y="1861">
LBI
</text>
<use id="r_11_c_0_22" style="stroke-width:4;" transform="translate(360 1912) rotate(25)" xlink:href="#RFI-[angle=70]"/>
<text style="font-size:30pt;" x="428" y="2042">
RFI
</text>
<use id="r_13_c_0_13" style="stroke-width:4;" transform="translate(442 2154) rotate(240)" xlink:href="#LFI---"/>
<text style="font-size:30pt;" x="517" y="2216">
LFI
</text>
<use id="r_14_c_0_39" style="stroke-width:4;" transform="translate(534 2120) rotate(260)" xlink:href="#LFI-Tw1.5&gt;&gt;[len=40]_0::LFI[angle=32,len=30,label=&quot; &quot;]"/>
<use id="r_14_c_0_39" style="stroke-width:4;" transform="translate(562 2123) rotate(292)" xlink:href="#LFI-Tw1.5&gt;&gt;[len=40]_1::LFI[angle=48,len=10,label=&quot; &quot;]"/>
<use id="r_14_c_0_39" style="stroke-width:4;" transform="translate(568 2128) rotate(180)" xlink:href="#LFI-Tw1.5&gt;&gt;[len=40]_3::LBO[angle=48,len=10,label=&quot; &quot;]"/>
<use id="r_14_c_0_39" style="stroke-width:4;" transform="translate(571 2120) rotate(228)" xlink:href="#LFI-Tw1.5&gt;&gt;[len=40]_4::LBO[angle=32,len=30,label=&quot; &quot;]"/>
<use id="r_14_c_0_39" style="stroke-width:4;" transform="translate(597 2107) rotate(260)" xlink:href="#LFI-Tw1.5&gt;&gt;[len=40]_5::LBO[angle=32,len=30,label=&quot; &quot;]"/>
<use id="r_14_c_0_39" style="stroke-width:4;" transform="translate(625 2110) rotate(292)" xlink:href="#LFI-Tw1.5&gt;&gt;[len=40]_6::LBO[angle=48,len=10,label=&quot; &quot;]"/>
<text style="font-size:30pt;" x="693" y="2198">
LFI-Tw1.5
</text>
<use id="r_14_c_0_39" style="stroke-width:4;" transform="translate(631 2115) rotate(180)" xlink:href="#LFI-Tw1.5&gt;&gt;[len=40]_9::LFI[angle=48,len=10,label=&quot; &quot;]"/>
<use id="r_14_c_0_39" style="stroke-width:4;" transform="translate(634 2107) rotate(228)" xlink:href="#LFI-Tw1.5&gt;&gt;[len=40]_10::LFI[angle=32,len=30,label=&quot; &quot;]"/>
<use id="r_14_c_0_39" style="stroke-width:4;" transform="translate(660 2094) rotate(260)" xlink:href="#LFI-Tw1.5&gt;&gt;[len=40]_11::LFI[angle=32,len=30,label=&quot; &quot;]"/>
<use id="r_14_c_0_39" style="stroke-width:4;" transform="translate(688 2097) rotate(292)" xlink:href="#LFI-Tw1.5&gt;&gt;[len=40]_12::LFI[angle=48,len=10,label=&quot; &quot;]"/>
<use id="r_14_c_0_39" style="stroke-width:4;" transform="translate(694 2102) rotate(180)" xlink:href="#LFI-Tw1.5&gt;&gt;[len=40]_14::LBO[angle=48,len=10,label=&quot; &quot;]"/>
<use id="r_14_c_0_39" style="stroke-width:4;" transform="translate(697 2094) rotate(228)" xlink:href="#LFI-Tw1.5&gt;&gt;[len=40]_15::LBO[angle=32,len=30,label=&quot; &quot;]"/>
<use id="r_15_c_0_23" style="stroke-width:4;" transform="translate(722 2080) rotate(260)" xlink:href="#LBO[len=250,label=&quot; &quot;]"/>
<use id="r_18_c_0_43" style="stroke-width:4;" transform="translate(984 2094) rotate(270)" xlink:href="#RFO3&gt;-_0::RFO[angle=40,len=225,label=&quot;RFO3&quot;]"/>
<text style="font-size:30pt;" x="1064" y="2197">
RFO3
</text>
<use id="r_18_c_0_39" style="stroke-width:4;" transform="translate(1191 2169) rotate(310)" xlink:href="#RFO3&gt;-_1::RFO&gt;[len=75,label=&quot; &quot;]"/>
<use id="r_18_c_0_39" style="stroke-width:4;" transform="translate(1215 2235) rotate(235)" xlink:href="#RFO3&gt;-_3::RBI&gt;[len=75,label=&quot; &quot;]"/>
<use id="r_18_c_0_30" style="stroke-width:4;" transform="translate(1285 2228) rotate(295)" xlink:href="#RFO3&gt;-_4::RBI[angle=40,len=225]"/>
<text style="font-size:30pt;" x="1313" y="2355">
RBI
</text>
<use id="r_20_c_0_22" style="stroke-width:4;" transform="translate(1422 2406) rotate(335)" xlink:href="#LFI-[angle=70]"/>
<text style="font-size:30pt;" x="1353" y="2536">
LFI
</text>
<use id="r_22_c_0_13" style="stroke-width:4;" transform="translate(1333 2645) rotate(110)" xlink:href="#RFI---"/>
<text style="font-size:30pt;" x="1269" y="2719">
RFI
</text>
<use id="r_23_c_0_39" style="stroke-width:4;" transform="translate(1236 2627) rotate(90)" xlink:href="#RFI-Tw1.5&gt;&gt;[len=40]_0::RFI[angle=32,len=30,label=&quot; &quot;]"/>
<use id="r_23_c_0_39" style="stroke-width:4;" transform="translate(1208 2635) rotate(58)" xlink:href="#RFI-Tw1.5&gt;&gt;[len=40]_1::RFI[angle=48,len=10,label=&quot; &quot;]"/>
<use id="r_23_c_0_39" style="stroke-width:4;" transform="translate(1202 2641) rotate(170)" xlink:href="#RFI-Tw1.5&gt;&gt;[len=40]_3::RBO[angle=48,len=10,label=&quot; &quot;]"/>
<use id="r_23_c_0_39" style="stroke-width:4;" transform="translate(1197 2633) rotate(122)" xlink:href="#RFI-Tw1.5&gt;&gt;[len=40]_4::RBO[angle=32,len=30,label=&quot; &quot;]"/>
<use id="r_23_c_0_39" style="stroke-width:4;" transform="translate(1169 2624) rotate(90)" xlink:href="#RFI-Tw1.5&gt;&gt;[len=40]_5::RBO[angle=32,len=30,label=&quot; &quot;]"/>
<use id="r_23_c_0_39" style="stroke-width:4;" transform="translate(1141 2632) rotate(58)" xlink:href="#RFI-Tw1.5&gt;&gt;[len=40]_6::RBO[angle=48,len=10,label=&quot; &quot;]"/>
<text style="font-size:30pt;" x="1147" y="2741">
RFI-Tw1.5
</text>
<use id="r_23_c_0_39" style="stroke-width:4;" transform="translate(1135 2638) rotate(170)" xlink:href="#RFI-Tw1.5&gt;&gt;[len=40]_9::RFI[angle=48,len=10,label=&quot; &quot;]"/>
<use id="r_23_c_0_39" style="stroke-width:4;" transform="translate(1130 2630) rotate(122)" xlink:href="#RFI-Tw1.5&gt;&gt;[len=40]_10::RFI[angle=32,len=30,label=&quot; &quot;]"/>
<use id="r_23_c_0_39" style="stroke-width:4;" transform="translate(1102 2621) rotate(90)" xlink:href="#RFI-Tw1.5&gt;&gt;[len=40]_11::RFI[angle=32,len=30,label=&quot; &quot;]"/>
<use id="r_23_c_0_39" style="stroke-width:4;" transform="translate(1074 2629) rotate(58)" xlink:href="#RFI-Tw1.5&gt;&gt;[len=40]_12::RFI[angle=48,len=10,label=&quot; &quot;]"/>
<use id="r_23_c_0_39" style="stroke-width:4;" transform="translate(1068 2635) rotate(170)" xlink:href="#RFI-Tw1.5&gt;&gt;[len=40]_14::RBO[angle=48,len=10,label=&quot; &quot;]"/>
<use id="r_23_c_0_39" style="stroke-width:4;" transform="translate(1063 2627) rotate(122)" xlink:href="#RFI-Tw1.5&gt;&gt;[len=40]_15::RBO[angle=32,len=30,label=&quot; &quot;]"/>
<use id="r_24_c_0_23" style="stroke-width:4;" transform="translate(1044 2621) rotate(90)" xlink:href="#RBO[len=250,label=&quot; &quot;]"/>
<use id="r_27_c_0_43" style="stroke-width:4;" transform="translate(787 2681) rotate(80)" xlink:href="#LFO3&gt;-_0::LFO[angle=40,len=225,label=&quot;LFO3&quot;]"/>
<text style="font-size:30pt;" x="726" y="2796">
LFO3
</text>
<use id="r_27_c_0_39" style="stroke-width:4;" transform="translate(596 2790) rotate(40)" xlink:href="#LFO3&gt;-_1::LFO&gt;[len=75,label=&quot; &quot;]"/>
<use id="r_27_c_0_39" style="stroke-width:4;" transform="translate(582 2859) rotate(115)" xlink:href="#LFO3&gt;-_3::LBI&gt;[len=75,label=&quot; &quot;]"/>
<use id="r_27_c_0_30" style="stroke-width:4;" transform="translate(511 2864) rotate(55)" xlink:href="#LFO3&gt;-_4::LBI[angle=40,len=225]"/>
<text style="font-size:30pt;" x="504" y="2994">
LBI
</text>
<use id="r_29_c_0_22" style="stroke-width:4;" transform="translate(407 3064) rotate(15)" xlink:href="#RFI-[angle=70]"/>
<text style="font-size:30pt;" x="496" y="3180">
RFI
</text>
<use id="r_31_c_0_13" style="stroke-width:4;" transform="translate(534 3285) rotate(240)" xlink:href="#LFI---"/>
<text style="font-size:30pt;" x="609" y="3347">
LFI
</text>
<use id="r_32_c_0_39" style="stroke-width:4;" transform="translate(626 3251) rotate(260)" xlink:href="#LFI-Tw1.5&gt;&gt;[len=40]_0::LFI[angle=32,len=30,label=&quot; &quot;]"/>
<use id="r_32_c_0_39" style="stroke-width:4;" transform="translate(654 3254) rotate(292)" xlink:href="#LFI-Tw1.5&gt;&gt;[len=40]_1::LFI[angle=48,len=10,label=&quot; &quot;]"/>
<use id="r_32_c_0_39" style="stroke-width:4;" transform="translate(660 3259) rotate(180)" xlink:href="#LFI-Tw1.5&gt;&gt;[len=40]_3::LBO[angle=48,len=10,label=&quot; &quot;]"/>
<use id="r_32_c_0_39" style="stroke-width:4;" transform="translate(663 3251) rotate(228)" xlink:href="#LFI-Tw1.5&gt;&gt;[len=40]_4::LBO[angle=32,len=30,label=&quot; &quot;]"/>
<use id="r_32_c_0_39" style="stroke-width:4;" transform="translate(689 3238) rotate(260)" xlink:href="#LFI-Tw1.5&gt;&gt;[len=40]_5::LBO[angle=32,len=30,label=&quot; &quot;]"/>
<use id="r_32_c_0_39" style="stroke-width:4;" transform="translate(717 3241) rotate(292)" xlink:href="#LFI-Tw1.5&gt;&gt;[len=40]_6::LBO[angle=48,len=10,label=&quot; &quot;]"/>
<text style="font-size:30pt;" x="785" y="3329">
LFI-Tw1.5
</text>
<use id="r_32_c_0_39" style="stroke-width:4;" transform="translate(723 3246) rotate(180)" xlink:href="#LFI-Tw1.5&gt;&gt;[len=40]_9::LFI[angle=48,len=10,label=&quot; &quot;]"/>
<use id="r_32_c_0_39" style="stroke-width:4;" transform="translate(726 3238) rotate(228)" xlink:href="#LFI-Tw1.5&gt;&gt;[len=40]_10::LFI[angle=32,len=30,label=&quot; &quot;]"/>
<use id="r_32_c_0_39" style="stroke-width:4;" transform="translate(752 3225) rotate(260)" xlink:href="#LFI-Tw1.5&gt;&gt;[len=40]_11::LFI[angle=32,len=30,label=&quot; &quot;]"/>
<use id="r_32_c_0_39" style="stroke-width:4;" transform="translate(780 3228) rotate(292)" xlink:href="#LFI-Tw1.5&gt;&gt;[len=40]_12::LFI[angle=48,len=10,label=&quot; &quot;]"/>
<use id="r_32_c_0_39" style="stroke-width:4;" transform="translate(786 3233) rotate(180)" xlink:href="#LFI-Tw1.5&gt;&gt;[len=40]_14::LBO[angle=48,len=10,label=&quot; &quot;]"/>
<use id="r_32_c_0_39" style="stroke-width:4;" transform="translate(789 3225) rotate(228)" xlink:href="#LFI-Tw1.5&gt;&gt;[len=40]_15::LBO[angle=32,len=30,label=&quot; &quot;]"/>
<use id="r_33_c_0_32" style="stroke-width:4;" transform="translate(814 3211) rotate(260)" xlink:href="#LBO[angle=45,len=250,label=&quot; &quot;]"/>
<use id="r_36_c_0_43" style="stroke-width:4;" transform="translate(1058 3282) rotate(295)" xlink:href="#RFO3&gt;-_0::RFO[angle=40,len=225,label=&quot;RFO3&quot;]"/>
<text style="font-size:30pt;" x="1086" y="3409">
RFO3
</text>
<use id="r_36_c_0_39" style="stroke-width:4;" transform="translate(1213 3437) rotate(335)" xlink:href="#RFO3&gt;-_1::RFO&gt;[len=75,label=&quot; &quot;]"/>
<use id="r_36_c_0_39" style="stroke-width:4;" transform="translate(1207 3507) rotate(260)" xlink:href="#RFO3&gt;-_3::RBI&gt;[len=75,label=&quot; &quot;]"/>
<use id="r_36_c_0_30" style="stroke-width:4;" transform="translate(1274 3530) rotate(320)" xlink:href="#RFO3&gt;-_4::RBI[angle=40,len=225]"/>
<text style="font-size:30pt;" x="1246" y="3657">
RBI
</text>
<use id="r_38_c_0_22" style="stroke-width:4;" transform="translate(1324 3751) rotate(0)" xlink:href="#LFI-[angle=70]"/>
<text style="font-size:30pt;" x="1207" y="3840">
LFI
</text>
<use id="r_40_c_0_13" style="stroke-width:4;" transform="translate(1133 3925) rotate(115)" xlink:href="#RFI---"/>
<text style="font-size:30pt;" x="1063" y="3994">
RFI
</text>
<use id="r_41_c_0_39" style="stroke-width:4;" transform="translate(1037 3899) rotate(95)" xlink:href="#RFI-Tw1.5&gt;&gt;[len=40]_0::RFI[angle=32,len=30,label=&quot; &quot;]"/>
<use id="r_41_c_0_39" style="stroke-width:4;" transform="translate(1008 3904) rotate(63)" xlink:href="#RFI-Tw1.5&gt;&gt;[len=40]_1::RFI[angle=48,len=10,label=&quot; &quot;]"/>
<use id="r_41_c_0_39" style="stroke-width:4;" transform="translate(1002 3910) rotate(175)" xlink:href="#RFI-Tw1.5&gt;&gt;[len=40]_3::RBO[angle=48,len=10,label=&quot; &quot;]"/>
<use id="r_41_c_0_39" style="stroke-width:4;" transform="translate(998 3902) rotate(127)" xlink:href="#RFI-Tw1.5&gt;&gt;[len=40]_4::RBO[angle=32,len=30,label=&quot; &quot;]"/>
<use id="r_41_c_0_39" style="stroke-width:4;" transform="translate(970 3891) rotate(95)" xlink:href="#RFI-Tw1.5&gt;&gt;[len=40]_5::RBO[angle=32,len=30,label=&quot; &quot;]"/>
<use id="r_41_c_0_39" style="stroke-width:4;" transform="translate(941 3896) rotate(63)" xlink:href="#RFI-Tw1.5&gt;&gt;[len=40]_6::RBO[angle=48,len=10,label=&quot; &quot;]"/>
<text style="font-size:30pt;" x="938" y="4006">
RFI-Tw1.5
</text>
<use id="r_41_c_0_39" style="stroke-width:4;" transform="translate(935 3902) rotate(175)" xlink:href="#RFI-Tw1.5&gt;&gt;[len=40]_9::RFI[angle=48,len=10,label=&quot; &quot;]"/>
<use id="r_41_c_0_39" style="stroke-width:4;" transform="translate(931 3894) rotate(127)" xlink:href="#RFI-Tw1.5&gt;&gt;[len=40]_10::RFI[angle=32,len=30,label=&quot; &quot;]"/>
<use id="r_41_c_0_39" style="stroke-width:4;" transform="translate(903 3883) rotate(95)" xlink:href="#RFI-Tw1.5&gt;&gt;[len=40]_11::RFI[angle=32,len=30,label=&quot; &quot;]"/>
<use id="r_41_c_0_39" style="stroke-width:4;" transform="translate(874 3888) rotate(63)" xlink:href="#RFI-Tw1.5&gt;&gt;[len=40]_12::RFI[angle=48,len=10,label=&quot; &quot;]"/>
<use id="r_41_c_0_39" style="stroke-width:4;" transform="translate(868 3894) rotate(175)" xlink:href="#RFI-Tw1.5&gt;&gt;[len=40]_14::RBO[angle=48,len=10,label=&quot; &quot;]"/>
<use id="r_41_c_0_39" style="stroke-width:4;" transform="translate(864 3886) rotate(127)" xlink:href="#RFI-Tw1.5&gt;&gt;[len=40]_15::RBO[angle=32,len=30,label=&quot; &quot;]"/>
<use id="r_42_c_0_32" style="stroke-width:4;" transform="translate(846 3876) rotate(95)" xlink:href="#RBO&gt;[len=250,label=&quot; &quot;]"/>
<text style="font-size:50pt;" x="1650" y="5020">
SIDE 2
</text>
<use id="r_49_c_0_37" style="stroke-width:4;" transform="translate(1800 5000) rotate(270)" xlink:href="#RB+[label=&quot; &quot;,style=&quot;dashed&quot;]"/>
<use id="r_51_c_0_22" style="stroke-width:4;" transform="translate(2400 5000) rotate(225)" xlink:href="#RBO-[angle=85]"/>
<text style="font-size:30pt;" x="2369" y="4862">
RBO
</text>
<use id="r_52_c_0_47" style="stroke-width:4;" transform="translate(2390 4725) rotate(140)" xlink:href="#xb-LBO-[angle=80,transition-label=&quot;CR&quot;]"/>
<text style="font-size:30pt;" x="2428" y="4587">
LBO
</text>
<text style="font-size:30pt;" x="2335" y="4752">
CR
</text>
<use id="r_53_c_0_47" style="stroke-width:4;" transform="translate(2410 4447) rotate(220)" xlink:href="#xb-RBO-[angle=80,transition-label=&quot;CR&quot;]"/>
<text style="font-size:30pt;" x="2371" y="4309">
RBO
</text>
<text style="font-size:30pt;" x="2464" y="4474">
CR
</text>
<use id="r_54_c_0_57" style="stroke-width:4;" transform="translate(2388 4169) rotate(140)" xlink:href="#xb-LBO---[angle=40,label=&quot; &quot;,transition-label=&quot;CR&quot;]"/>
<text style="font-size:30pt;" x="2339" y="4204">
CR
</text>
<use id="r_55_c_0_39" style="stroke-width:4;" transform="translate(2354 4077) rotate(180)" xlink:href="#LBO-Tw1[angle=120,len=40]_0::LBO[angle=48,len=30,label=&quot; &quot;]"/>
<use id="r_55_c_0_39" style="stroke-width:4;" transform="translate(2365 4051) rotate(228)" xlink:href="#LBO-Tw1[angle=120,len=40]_1::LBO[angle=72,len=10,label=&quot; &quot;]"/>
<use id="r_55_c_0_39" style="stroke-width:4;" transform="translate(2373 4050) rotate(60)" xlink:href="#LBO-Tw1[angle=120,len=40]_3::LFI[angle=72,len=10,label=&quot; &quot;]"/>
<use id="r_55_c_0_39" style="stroke-width:4;" transform="translate(2364 4049) rotate(132)" xlink:href="#LBO-Tw1[angle=120,len=40]_4::LFI[angle=48,len=30,label=&quot; &quot;]"/>
<text style="font-size:30pt;" x="2252" y="4023">
LBO-Tw1
</text>
<use id="r_55_c_0_39" style="stroke-width:4;" transform="translate(2352 4023) rotate(180)" xlink:href="#LBO-Tw1[angle=120,len=40]_6::LFI[angle=48,len=30,label=&quot; &quot;]"/>
<use id="r_55_c_0_39" style="stroke-width:4;" transform="translate(2363 3997) rotate(228)" xlink:href="#LBO-Tw1[angle=120,len=40]_7::LFI[angle=72,len=10,label=&quot; &quot;]"/>
<use id="r_55_c_0_39" style="stroke-width:4;" transform="translate(2371 3996) rotate(60)" xlink:href="#LBO-Tw1[angle=120,len=40]_9::LBO[angle=72,len=10,label=&quot; &quot;]"/>
<use id="r_55_c_0_39" style="stroke-width:4;" transform="translate(2362 3995) rotate(132)" xlink:href="#LBO-Tw1[angle=120,len=40]_10::LBO[angle=48,len=30,label=&quot; &quot;]"/>
<use id="r_56_c_0_32" style="stroke-width:4;" transform="translate(2352 3975) rotate(180)" xlink:href="#LBO---[angle=40,label=&quot; &quot;]"/>
<use id="r_58_c_0_47" style="stroke-width:4;" transform="translate(2406 3881) rotate(220)" xlink:href="#xb-RBO-[angle=80,transition-label=&quot;CR&quot;]"/>
<text style="font-size:30pt;" x="2367" y="3743">
RBO
</text>
<text style="font-size:30pt;" x="2460" y="3908">
CR
</text>
<use id="r_59_c_0_47" style="stroke-width:4;" transform="translate(2384 3603) rotate(140)" xlink:href="#xb-LBO-[angle=80,transition-label=&quot;CR&quot;]"/>
<text style="font-size:30pt;" x="2422" y="3465">
LBO
</text>
<text style="font-size:30pt;" x="2329" y="3630">
CR
</text>
<use id="r_60_c_0_57" style="stroke-width:4;" transform="translate(2404 3325) rotate(220)" xlink:href="#xb-RBO---[angle=40,label=&quot; &quot;,transition-label=&quot;CR&quot;]"/>
<text style="font-size:30pt;" x="2452" y="3360">
CR
</text>
<use id="r_61_c_0_39" style="stroke-width:4;" transform="translate(2437 3233) rotate(180)" xlink:href="#RBO-Tw1[angle=120,len=40]_0::RBO[angle=48,len=30,label=&quot; &quot;]"/>
<use id="r_61_c_0_39" style="stroke-width:4;" transform="translate(2426 3207) rotate(132)" xlink:href="#RBO-Tw1[angle=120,len=40]_1::RBO[angle=72,len=10,label=&quot; &quot;]"/>
<use id="r_61_c_0_39" style="stroke-width:4;" transform="translate(2417 3206) rotate(300)" xlink:href="#RBO-Tw1[angle=120,len=40]_3::RFI[angle=72,len=10,label=&quot; &quot;]"/>
<use id="r_61_c_0_39" style="stroke-width:4;" transform="translate(2425 3205) rotate(228)" xlink:href="#RBO-Tw1[angle=120,len=40]_4::RFI[angle=48,len=30,label=&quot; &quot;]"/>
<text style="font-size:30pt;" x="2336" y="3179">
RBO-Tw1
</text>
<use id="r_61_c_0_39" style="stroke-width:4;" transform="translate(2436 3179) rotate(180)" xlink:href="#RBO-Tw1[angle=120,len=40]_6::RFI[angle=48,len=30,label=&quot; &quot;]"/>
<use id="r_61_c_0_39" style="stroke-width:4;" transform="translate(2425 3153) rotate(132)" xlink:href="#RBO-Tw1[angle=120,len=40]_7::RFI[angle=72,len=10,label=&quot; &quot;]"/>
<use id="r_61_c_0_39" style="stroke-width:4;" transform="translate(2416 3152) rotate(300)" xlink:href="#RBO-Tw1[angle=120,len=40]_9::RBO[angle=72,len=10,label=&quot; &quot;]"/>
<use id="r_61_c_0_39" style="stroke-width:4;" transform="translate(2424 3151) rotate(228)" xlink:href="#RBO-Tw1[angle=120,len=40]_10::RBO[angle=48,len=30,label=&quot; &quot;]"/>
<use id="r_62_c_0_32" style="stroke-width:4;" transform="translate(2439 3131) rotate(180)" xlink:href="#RBO---[angle=40,label=&quot; &quot;]"/>
<use id="r_64_c_0_47" style="stroke-width:4;" transform="translate(2384 3037) rotate(140)" xlink:href="#xb-LBO-[angle=80,transition-label=&quot;CR&quot;]"/>
<text style="font-size:30pt;" x="2422" y="2899">
LBO
</text>
<text style="font-size:30pt;" x="2329" y="3064">
CR
</text>
<use id="r_65_c_0_47" style="stroke-width:4;" transform="translate(2404 2759) rotate(220)" xlink:href="#xb-RBO-[angle=80,transition-label=&quot;CR&quot;]"/>
<text style="font-size:30pt;" x="2365" y="2621">
RBO
</text>
<text style="font-size:30pt;" x="2458" y="2786">
CR
</text>
<use id="r_66_c_0_57" style="stroke-width:4;" transform="translate(2382 2481) rotate(140)" xlink:href="#xb-LBO---[angle=40,label=&quot; &quot;,transition-label=&quot;CR&quot;]"/>
<text style="font-size:30pt;" x="2333" y="2516">
CR
</text>
<use id="r_67_c_0_39" style="stroke-width:4;" transform="translate(2348 2389) rotate(180)" xlink:href="#LBO-Tw1[angle=120,len=40]_0::LBO[angle=48,len=30,label=&quot; &quot;]"/>
<use id="r_67_c_0_39" style="stroke-width:4;" transform="translate(2359 2363) rotate(228)" xlink:href="#LBO-Tw1[angle=120,len=40]_1::LBO[angle=72,len=10,label=&quot; &quot;]"/>
<use id="r_67_c_0_39" style="stroke-width:4;" transform="translate(2367 2362) rotate(60)" xlink:href="#LBO-Tw1[angle=120,len=40]_3::LFI[angle=72,len=10,label=&quot; &quot;]"/>
<use id="r_67_c_0_39" style="stroke-width:4;" transform="translate(2358 2361) rotate(132)" xlink:href="#LBO-Tw1[angle=120,len=40]_4::LFI[angle=48,len=30,label=&quot; &quot;]"/>
<text style="font-size:30pt;" x="2246" y="2335">
LBO-Tw1
</text>
<use id="r_67_c_0_39" style="stroke-width:4;" transform="translate(2346 2335) rotate(180)" xlink:href="#LBO-Tw1[angle=120,len=40]_6::LFI[angle=48,len=30,label=&quot; &quot;]"/>
<use id="r_67_c_0_39" style="stroke-width:4;" transform="translate(2357 2309) rotate(228)" xlink:href="#LBO-Tw1[angle=120,len=40]_7::LFI[angle=72,len=10,label=&quot; &quot;]"/>
<use id="r_67_c_0_39" style="stroke-width:4;" transform="translate(2365 2308) rotate(60)" xlink:href="#LBO-Tw1[angle=120,len=40]_9::LBO[angle=72,len=10,label=&quot; &quot;]"/>
<use id="r_67_c_0_39" style="stroke-width:4;" transform="translate(2356 2307) rotate(132)" xlink:href="#LBO-Tw1[angle=120,len=40]_10::LBO[angle=48,len=30,label=&quot; &quot;]"/>
<use id="r_68_c_0_32" style="stroke-width:4;" transform="translate(2346 2287) rotate(180)" xlink:href="#LBO---[angle=40,label=&quot; &quot;]"/>
<use id="r_70_c_0_47" style="stroke-width:4;" transform="translate(2400 2193) rotate(220)" xlink:href="#xb-RBO-[angle=80,transition-label=&quot;CR&quot;]"/>
<text style="font-size:30pt;" x="2361" y="2055">
RBO
</text>
<text style="font-size:30pt;" x="2454" y="2220">
CR
</text>
<use id="r_71_c_0_47" style="stroke-width:4;" transform="translate(2378 1915) rotate(140)" xlink:href="#xb-LBO-[angle=80,transition-label=&quot;CR&quot;]"/>
<text style="font-size:30pt;" x="2416" y="1777">
LBO
</text>
<text style="font-size:30pt;" x="2323" y="1942">
CR
</text>
<use id="r_72_c_0_57" style="stroke-width:4;" transform="translate(2398 1637) rotate(220)" xlink:href="#xb-RBO---[angle=40,label=&quot; &quot;,transition-label=&quot;CR&quot;]"/>
<text style="font-size:30pt;" x="2446" y="1672">
CR
</text>
<use id="r_73_c_0_39" style="stroke-width:4;" transform="translate(2431 1545) rotate(180)" xlink:href="#RBO-Tw1[angle=120,len=40]_0::RBO[angle=48,len=30,label=&quot; &quot;]"/>
<use id="r_73_c_0_39" style="stroke-width:4;" transform="translate(2420 1519) rotate(132)" xlink:href="#RBO-Tw1[angle=120,len=40]_1::RBO[angle=72,len=10,label=&quot; &quot;]"/>
<use id="r_73_c_0_39" style="stroke-width:4;" transform="translate(2411 1518) rotate(300)" xlink:href="#RBO-Tw1[angle=120,len=40]_3::RFI[angle=72,len=10,label=&quot; &quot;]"/>
<use id="r_73_c_0_39" style="stroke-width:4;" transform="translate(2419 1517) rotate(228)" xlink:href="#RBO-Tw1[angle=120,len=40]_4::RFI[angle=48,len=30,label=&quot; &quot;]"/>
<text style="font-size:30pt;" x="2330" y="1491">
RBO-Tw1
</text>
<use id="r_73_c_0_39" style="stroke-width:4;" transform="translate(2430 1491) rotate(180)" xlink:href="#RBO-Tw1[angle=120,len=40]_6::RFI[angle=48,len=30,label=&quot; &quot;]"/>
<use id="r_73_c_0_39" style="stroke-width:4;" transform="translate(2419 1465) rotate(132)" xlink:href="#RBO-Tw1[angle=120,len=40]_7::RFI[angle=72,len=10,label=&quot; &quot;]"/>
<use id="r_73_c_0_39" style="stroke-width:4;" transform="translate(2410 1464) rotate(300)" xlink:href="#RBO-Tw1[angle=120,len=40]_9::RBO[angle=72,len=10,label=&quot; &quot;]"/>
<use id="r_73_c_0_39" style="stroke-width:4;" transform="translate(2418 1463) rotate(228)" xlink:href="#RBO-Tw1[angle=120,len=40]_10::RBO[angle=48,len=30,label=&quot; &quot;]"/>
<use id="r_74_c_0_32" style="stroke-width:4;" transform="translate(2433 1443) rotate(180)" xlink:href="#RBO---[angle=40,label=&quot; &quot;]"/>
<path d="M 0,0 L 0,6100" style="stroke:gray; stroke-width:2;"/>
<path d="M 100,0 L 100,6100" style="stroke:lightgray"/>
<path d="M 200,0 L 200,6100" style="stroke:lightgray"/>
<path d="M 300,0 L 300,6100" style="stroke:lightgray"/>
<path d="M 400,0 L 400,6100" style="stroke:lightgray"/>
<path d="M 500,0 L 500,6100" style="stroke:lightgray"/>
<path d="M 600,0 L 600,6100" style="stroke:lightgray"/>
<path d="M 700,0 L 700,6100" style="stroke:lightgray"/>
<path d="M 800,0 L 800,6100" style="stroke:lightgray"/>
<path d="M 900,0 L 900,6100" style="stroke:lightgray"/>
<path d="M 1000,0 L 1000,6100" style="stroke:lightgray"/>
<path d="M 1100,0 L 1100,6100" style="stroke:lightgray"/>
<path d="M 1200,0 L 1200,6100" style="stroke:lightgray"/>
<path d="M 1300,0 L 1300,6100" style="stroke:lightgray"/>
<path d="M 1400,0 L 1400,6100" style="stroke:lightgray"/>
<path d="M 1500,0 L 1500,6100" style="stroke:lightgray"/>
<path d="M 1600,0 L 1600,6100" style="stroke:lightgray"/>
<path d="M 1700,0 L 1700,6100" style="stroke:lightgray"/>
<path d="M 1800,0 L 1800,6100" style="stroke:lightgray"/>
<path d="M 1900,0 L 1900,6100" style="stroke:lightgray"/>
<path d="M 2000,0 L 2000,6100" style="stroke:lightgray"/>
<path d="M 2100,0 L 2100,6100" style="stroke:lightgray"/>
<path d="M 2200,0 L 2200,6100" style="stroke:lightgray"/>
<path d="M 2300,0 L 2300,6100" style="stroke:lightgray"/>
<path d="M 2400,0 L 2400,6100" style="stroke:lightgray"/>
<path d="M 2500,0 L 2500,6100" style="stroke:lightgray"/>
<path d="M 2600,0 L 2600,6100" style="stroke:lightgray"/>
<path d="M 2700,0 L 2700,6100" style="stroke:lightgray"/>
<path d="M 2800,0 L 2800,6100" style="stroke:lightgray"/>
<path d="M 2900,0 L 2900,6100" style="stroke:lightgray"/>
<path d="M 0,0 L 3000,0" style="stroke:gray; stroke-width:2;"/>
<path d="M 0,100 L 3000,100" style="stroke:lightgray"/>
<path d="M 0,200 L 3000,200" style="stroke:lightgray"/>
<path d="M 0,300 L 3000,300" style="stroke:lightgray"/>
<path d="M 0,400 L 3000,400" style="stroke:lightgray"/>
<path d="M 0,500 L 3000,500" style="stroke:lightgray"/>
<path d="M 0,600 L 3000,600" style="stroke:lightgray"/>
<path d="M 0,700 L 3000,700" style="stroke:lightgray"/>
<path d="M 0,800 L 3000,800" style="stroke:lightgray"/>
<path d="M 0,900 L 3000,900" style="stroke:lightgray"/>
<path d="M 0,1000 L 3000,1000" style="stroke:lightgray"/>
<path d="M 0,1100 L 3000,1100" style="stroke:lightgray"/>
<path d="M 0,1200 L 3000,1200" style="stroke:lightgray"/>
<path d="M 0,1300 L 3000,1300" style="stroke:lightgray"/>
<path d="M 0,1400 L 3000,1400" style="stroke:lightgray"/>
<path d="M 0,1500 L 3000,1500" style="stroke:lightgray"/>
<path d="M 0,1600 L 3000,1600" style="stroke:lightgray"/>
<path d="M 0,1700 L 3000,1700" style="stroke:lightgray"/>
<path d="M 0,1800 L 3000,1800" style="stroke:lightgray"/>
<path d="M 0,1900 L 3000,1900" style="stroke:lightgray"/>
<path d="M 0,2000 L 3000,2000" style="stroke:lightgray"/>
<path d="M 0,2100 L 3000,2100" style="stroke:lightgray"/>
<path d="M 0,2200 L 3000,2200" style="stroke:lightgray"/>
<path d="M 0,2300 L 3000,2300" style="stroke:lightgray"/>
<path d="M 0,2400 L 3000,2400" style="stroke:lightgray"/>
<path d="M 0,2500 L 3000,2500" style="stroke:lightgray"/>
<path d="M 0,2600 L 3000,2600" style="stroke:lightgray"/>
<path d="M 0,2700 L 3000,2700" style="stroke:lightgray"/>
<path d="M 0,2800 L 3000,2800" style="stroke:lightgray"/>
<path d="M 0,2900 L 3000,2900" style="stroke:lightgray"/>
<path d="M 0,3000 L 3000,3000" style="stroke:lightgray"/>
<path d="M 0,3100 L 3000,3100" style="stroke:lightgray"/>
<path d="M 0,3200 L 3000,3200" style="stroke:lightgray"/>
<path d="M 0,3300 L 3000,3300" style="stroke:lightgray"/>
<path d="M 0,3400 L 3000,3400" style="stroke:lightgray"/>
<path d="M 0,3500 L 3000,3500" style="stroke:lightgray"/>
<path d="M 0,3600 L 3000,3600" style="stroke:lightgray"/>
<path d="M 0,3700 L 3000,3700" style="stroke:lightgray"/>
<path d="M 0,3800 L 3000,3800" style="stroke:lightgray"/>
<path d="M 0,3900 L 3000,3900" style="stroke:lightgray"/>
<path d="M 0,4000 L 3000,4000" style="stroke:lightgray"/>
<path d="M 0,4100 L 3000,4100" style="stroke:lightgray"/>
<path d="M 0,4200 L 3000,4200" style="stroke:lightgray"/>
<path d="M 0,4300 L 3000,4300" style="stroke:lightgray"/>
<path d="M 0,4400 L 3000,4400" style="stroke:lightgray"/>
<path d="M 0,4500 L 3000,4500" style="stroke:lightgray"/>
<path d="M 0,4600 L 3000,4600" style="stroke:lightgray"/>
<path d="M 0,4700 L 3000,4700" style="stroke:lightgray"/>
<path d="M 0,4800 L 3000,4800" style="stroke:lightgray"/>
<path d="M 0,4900 L 3000,4900" style="stroke:lightgray"/>
<path d="M 0,5000 L 3000,5000" style="stroke:lightgray"/>
<path d="M 0,5100 L 3000,5100" style="stroke:lightgray"/>
<path d="M 0,5200 L 3000,5200" style="stroke:lightgray"/>
<path d="M 0,5300 L 3000,5300" style="stroke:lightgray"/>
<path d="M 0,5400 L 3000,5400" style="stroke:lightgray"/>
<path d="M 0,5500 L 3000,5500" style="stroke:lightgray"/>
<path d="M 0,5600 L 3000,5600" style="stroke:lightgray"/>
<path d="M 0,5700 L 3000,5700" style="stroke:lightgray"/>
<path d="M 0,5800 L 3000,5800" style="stroke:lightgray"/>
<path d="M 0,5900 L 3000,5900" style="stroke:lightgray"/>
<path d="M 0,6000 L 3000,6000" style="stroke:lightgray"/>
</svg>