<svg height="6200" viewBox="-50 -50 3100 6200" width="3100" xmlns="http://www.w3.org/2000/svg" xmlns:xlink="http://www.w3.org/1999/xlink">
<title>Skills 4 Exercise 3</title>
<desc>
<text>
Skills 4 Exercise 3
</text>
</desc>
<defs>
<style>
text { text-anchor: middle } path,rect,circle { fill:none; }
</style>
<g id="Rink">
<clipPath id="clip-rink">
<rect height="6100" rx="750" ry="750" width="3000" x="0" y="0"/>
</clipPath>
<rect height="6100" rx="750" ry="750" style="text { text-anchor: middle } path,rect,circle { fill:none; } clip-path:url(#clip-rink)" width="3000" x="0" y="0"/>
<path d="M 0,3050 l 3000,0" style="stroke:red;"/>
<circle cx="1500" cy="3050" r="400" style="stroke:red;"/>
<circle cx="1500" cy="3050" r="2" style="fill: black;"/>
<path d="M 0,2250 l 3000,0" style="stroke: blue;"/>
<path d="M 0,3850 l 3000,0" style="stroke: blue;"/>
</g>
<g id="Info"/>
<g id="RF[len=400,label=&quot; &quot;,style=&quot;dashed&quot;]">
<path d="M 0,0 l 0,400" stroke-dasharray="50 30"/>
</g>
<g id="RFI---[label=&quot; &quot;]">
<path d="M 0,0 a 286,286 0 0 0 17,97"/>
</g>
<g id="RFI-Rk[len=500,delta-angle=20]_0::RFI[angle=90,len=425,label=&quot;RFI&quot;]">
<path d="M 0,0 a 270,270 0 0 0 270,270"/>
</g>
<g id="RFI-Rk[len=500,delta-angle=20]_1::RFI[angle=80,len=75,label=&quot; &quot;]">
<path d="M 0,0 a 53,53 0 0 0 44,52"/>
</g>
<g id="RFI-Rk[len=500,delta-angle=20]_4::RBO[angle=80,len=105,label=&quot; &quot;]">
<path d="M 0,0 a 75,75 0 0 0 62,74"/>
</g>
<g id="RFI-Rk[len=500,delta-angle=20]_5::RB[len=20,label=&quot; &quot;]">
<path d="M 0,0 l 0,20"/>
</g>
<g id="RFI-Rk[len=500,delta-angle=20]_6::RBI&gt;&gt;[len=375]">
<path d="M 0,0 a 195,195 0 0 1 -262,183"/>
</g>
<g id="LBI-Rk[len=500,delta-angle=20]_0::LBI[angle=90,len=425,label=&quot;LBI&quot;]">
<path d="M 0,0 a 270,270 0 0 0 270,270"/>
</g>
<g id="LBI-Rk[len=500,delta-angle=20]_1::LBI[angle=80,len=75,label=&quot; &quot;]">
<path d="M 0,0 a 53,53 0 0 0 44,52"/>
</g>
<g id="LBI-Rk[len=500,delta-angle=20]_4::LFO[angle=80,len=105,label=&quot; &quot;]">
<path d="M 0,0 a 75,75 0 0 0 62,74"/>
</g>
<g id="LBI-Rk[len=500,delta-angle=20]_5::LF[len=20,label=&quot; &quot;]">
<path d="M 0,0 l 0,20"/>
</g>
<g id="LBI-Rk[len=500,delta-angle=20]_6::LFI&gt;&gt;[len=375]">
<path d="M 0,0 a 195,195 0 0 1 -262,183"/>
</g>
<g id="LBI-Rk&lt;[len=500,delta-angle=20]_0::LBI[angle=80,len=425,label=&quot;LBI&quot;]">
<path d="M 0,0 a 304,304 0 0 0 251,299"/>
</g>
<g id="LBI-Rk&lt;[len=500,delta-angle=20]_1::LBI[angle=80,len=75,label=&quot; &quot;]">
<path d="M 0,0 a 53,53 0 0 0 44,52"/>
</g>
<g id="LBI-Rk&lt;[len=500,delta-angle=20]_4::LFO[angle=80,len=105,label=&quot; &quot;]">
<path d="M 0,0 a 75,75 0 0 0 62,74"/>
</g>
<g id="LBI-Rk&lt;[len=500,delta-angle=20]_5::LF[len=20,label=&quot; &quot;]">
<path d="M 0,0 l 0,20"/>
</g>
<g id="LBI-Rk&lt;[len=500,delta-angle=20]_6::LFI[angle=100,len=375]">
<path d="M 0,0 a 214,214 0 0 1 -252,211"/>
</g>
<g id="LF+[label=&quot; &quot;,style=&quot;dashed&quot;]">
<path d="M 0,0 l 0,600" stroke-dasharray="50 30"/>
</g>
<g id="LFO&gt;&gt;&gt;[label=&quot; &quot;,style=&quot;dashed&quot;]">
<path d="M 0,0 a 143,143 0 1 0 286,0" stroke-dasharray="50 30"/>
</g>
<g id="LFI---[label=&quot; &quot;]">
<path d="M 0,0 a 286,286 0 0 1 -17,97"/>
</g>
<g id="LFI-Rk[len=500,delta-angle=20]_0::LFI[angle=90,len=425,label=&quot;LFI&quot;]">
<path d="M 0,0 a 270,270 0 0 1 -270,270"/>
</g>
<g id="LFI-Rk[len=500,delta-angle=20]_1::LFI[angle=80,len=75,label=&quot; &quot;]">
<path d="M 0,0 a 53,53 0 0 1 -44,52"/>
</g>
<g id="LFI-Rk[len=500,delta-angle=20]_4::LBO[angle=80,len=105,label=&quot; &quot;]">
<path d="M 0,0 a 75,75 0 0 1 -62,74"/>
</g>
<g id="LFI-Rk[len=500,delta-angle=20]_5::LB[len=20,label=&quot; &quot;]">
<path d="M 0,0 l 0,20"/>
</g>
<g id="LFI-Rk[len=500,delta-angle=20]_6::LBI&gt;&gt;[len=375]">
<path d="M 0,0 a 195,195 0 0 0 262,183"/>
</g>
<g id="RBI-Rk[len=500,delta-angle=20]_0::RBI[angle=90,len=425,label=&quot;RBI&quot;]">
<path d="M 0,0 a 270,270 0 0 1 -270,270"/>
</g>
<g id="RBI-Rk[len=500,delta-angle=20]_1::RBI[angle=80,len=75,label=&quot; &quot;]">
<path d="M 0,0 a 53,53 0 0 1 -44,52"/>
</g>
<g id="RBI-Rk[len=500,delta-angle=20]_4::RFO[angle=80,len=105,label=&quot; &quot;]">
<path d="M 0,0 a 75,75 0 0 1 -62,74"/>
</g>
<g id="RBI-Rk[len=500,delta-angle=20]_5::RF[len=20,label=&quot; &quot;]">
<path d="M 0,0 l 0,20"/>
</g>
<g id="RBI-Rk[len=500,delta-angle=20]_6::RFI&gt;&gt;[len=375]">
<path d="M 0,0 a 195,195 0 0 0 262,183"/>
</g>
<g id="RBI-Rk&lt;[len=500,delta-angle=20]_0::RBI[angle=80,len=425,label=&quot;RBI&quot;]">
<path d="M 0,0 a 304,304 0 0 1 -251,299"/>
</g>
<g id="RBI-Rk&lt;[len=500,delta-angle=20]_1::RBI[angle=80,len=75,label=&quot; &quot;]">
<path d="M 0,0 a 53,53 0 0 1 -44,52"/>
</g>
<g id="RBI-Rk&lt;[len=500,delta-angle=20]_4::RFO[angle=80,len=105,label=&quot; &quot;]">
<path d="M 0,0 a 75,75 0 0 1 -62,74"/>
</g>
<g id="RBI-Rk&lt;[len=500,delta-angle=20]_5::RF[len=20,label=&quot; &quot;]">
<path d="M 0,0 l 0,20"/>
</g>
<g id="RBI-Rk&lt;[len=500,delta-angle=20]_6::RFI[angle=100,len=375]">
<path d="M 0,0 a 214,214 0 0 0 252,211"/>
</g>
</defs>
<use id="r_0_c_0_4" style="stroke:black; stroke-width:4;" transform="translate(0 0) rotate(0)" xlink:href="#Rink"/>
<text id="r_1_c_0_53" style="stroke:black; fill:black; font-size: 90pt;" x="1500" y="200">
Skills 4 Exercise 3
</text>
<text id="r_4_c_0_46" style="stroke:black; fill:black; font-size:50pt;" x="1350" y="625">
SIDE 1
</text>
<use id="r_6_c_0_37" style="stroke:black; stroke-width:4;" transform="translate(1200 600) rotate(90)" xlink:href="#RF[len=400,label=&quot; &quot;,style=&quot;dashed&quot;]"/>
<use id="r_8_c_0_24" style="stroke:black; stroke-width:4;" transform="translate(800 600) rotate(90)" xlink:href="#RFI---[label=&quot; &quot;]"/>
<use id="r_9_c_0_40" style="stroke:black; stroke-width:4;" transform="translate(703 617) rotate(70)" xlink:href="#RFI-Rk[len=500,delta-angle=20]_0::RFI[angle=90,len=425,label=&quot;RFI&quot;]"/>
<text id="r_9_c_0_40_n2" style="stroke:black; fill:black; font-size:24pt;" x="614" y="786">
RFI
</text>
<use id="r_9_c_0_40_n3" style="stroke:black; stroke-width:4;" transform="translate(541 963) rotate(340)" xlink:href="#RFI-Rk[len=500,delta-angle=20]_1::RFI[angle=80,len=75,label=&quot; &quot;]"/>
<text id="r_9_c_0_40_n4" style="stroke:black; fill:black; font-size:24pt;" x="639" y="989">
Rk
</text>
<use id="r_9_c_0_40_n5" style="stroke:black; stroke-width:4;" transform="translate(600 996) rotate(35)" xlink:href="#RFI-Rk[len=500,delta-angle=20]_4::RBO[angle=80,len=105,label=&quot; &quot;]"/>
<use id="r_9_c_0_40_n6" style="stroke:black; stroke-width:4;" transform="translate(608 1092) rotate(315)" xlink:href="#RFI-Rk[len=500,delta-angle=20]_5::RB[len=20,label=&quot; &quot;]"/>
<use id="r_9_c_0_40_n7" style="stroke:black; stroke-width:4;" transform="translate(622 1106) rotate(315)" xlink:href="#RFI-Rk[len=500,delta-angle=20]_6::RBI&gt;&gt;[len=375]"/>
<text id="r_9_c_0_40_n8" style="stroke:black; fill:black; font-size:24pt;" x="606" y="1265">
RBI
</text>
<use id="r_10_c_0_40" style="stroke:black; stroke-width:4;" transform="translate(554 1392) rotate(65)" xlink:href="#LBI-Rk[len=500,delta-angle=20]_0::LBI[angle=90,len=425,label=&quot;LBI&quot;]"/>
<text id="r_10_c_0_40_n2" style="stroke:black; fill:black; font-size:24pt;" x="480" y="1568">
LBI
</text>
<use id="r_10_c_0_40_n3" style="stroke:black; stroke-width:4;" transform="translate(423 1750) rotate(335)" xlink:href="#LBI-Rk[len=500,delta-angle=20]_1::LBI[angle=80,len=75,label=&quot; &quot;]"/>
<text id="r_10_c_0_40_n4" style="stroke:black; fill:black; font-size:24pt;" x="522" y="1767">
Rk
</text>
<use id="r_10_c_0_40_n5" style="stroke:black; stroke-width:4;" transform="translate(484 1778) rotate(30)" xlink:href="#LBI-Rk[len=500,delta-angle=20]_4::LFO[angle=80,len=105,label=&quot; &quot;]"/>
<use id="r_10_c_0_40_n6" style="stroke:black; stroke-width:4;" transform="translate(500 1873) rotate(310)" xlink:href="#LBI-Rk[len=500,delta-angle=20]_5::LF[len=20,label=&quot; &quot;]"/>
<use id="r_10_c_0_40_n7" style="stroke:black; stroke-width:4;" transform="translate(515 1885) rotate(310)" xlink:href="#LBI-Rk[len=500,delta-angle=20]_6::LFI&gt;&gt;[len=375]"/>
<text id="r_10_c_0_40_n8" style="stroke:black; fill:black; font-size:24pt;" x="513" y="2045">
LFI
</text>
<use id="r_11_c_0_40" style="stroke:black; stroke-width:4;" transform="translate(474 2178) rotate(60)" xlink:href="#RFI-Rk[len=500,delta-angle=20]_0::RFI[angle=90,len=425,label=&quot;RFI&quot;]"/>
<text id="r_11_c_0_40_n2" style="stroke:black; fill:black; font-size:24pt;" x="416" y="2360">
RFI
</text>
<use id="r_11_c_0_40_n3" style="stroke:black; stroke-width:4;" transform="translate(375 2546) rotate(330)" xlink:href="#RFI-Rk[len=500,delta-angle=20]_1::RFI[angle=80,len=75,label=&quot; &quot;]"/>
<text id="r_11_c_0_40_n4" style="stroke:black; fill:black; font-size:24pt;" x="476" y="2555">
Rk
</text>
<use id="r_11_c_0_40_n5" style="stroke:black; stroke-width:4;" transform="translate(439 2569) rotate(25)" xlink:href="#RFI-Rk[len=500,delta-angle=20]_4::RBO[angle=80,len=105,label=&quot; &quot;]"/>
<use id="r_11_c_0_40_n6" style="stroke:black; stroke-width:4;" transform="translate(463 2662) rotate(305)" xlink:href="#RFI-Rk[len=500,delta-angle=20]_5::RB[len=20,label=&quot; &quot;]"/>
<use id="r_11_c_0_40_n7" style="stroke:black; stroke-width:4;" transform="translate(479 2673) rotate(305)" xlink:href="#RFI-Rk[len=500,delta-angle=20]_6::RBI&gt;&gt;[len=375]"/>
<text id="r_11_c_0_40_n8" style="stroke:black; fill:black; font-size:24pt;" x="491" y="2833">
RBI
</text>
<use id="r_12_c_0_40" style="stroke:black; stroke-width:4;" transform="translate(462 2968) rotate(55)" xlink:href="#LBI-Rk[len=500,delta-angle=20]_0::LBI[angle=90,len=425,label=&quot;LBI&quot;]"/>
<text id="r_12_c_0_40_n2" style="stroke:black; fill:black; font-size:24pt;" x="420" y="3154">
LBI
</text>
<use id="r_12_c_0_40_n3" style="stroke:black; stroke-width:4;" transform="translate(395 3344) rotate(325)" xlink:href="#LBI-Rk[len=500,delta-angle=20]_1::LBI[angle=80,len=75,label=&quot; &quot;]"/>
<text id="r_12_c_0_40_n4" style="stroke:black; fill:black; font-size:24pt;" x="496" y="3344">
Rk
</text>
<use id="r_12_c_0_40_n5" style="stroke:black; stroke-width:4;" transform="translate(460 3361) rotate(20)" xlink:href="#LBI-Rk[len=500,delta-angle=20]_4::LFO[angle=80,len=105,label=&quot; &quot;]"/>
<use id="r_12_c_0_40_n6" style="stroke:black; stroke-width:4;" transform="translate(492 3451) rotate(300)" xlink:href="#LBI-Rk[len=500,delta-angle=20]_5::LF[len=20,label=&quot; &quot;]"/>
<use id="r_12_c_0_40_n7" style="stroke:black; stroke-width:4;" transform="translate(509 3461) rotate(300)" xlink:href="#LBI-Rk[len=500,delta-angle=20]_6::LFI&gt;&gt;[len=375]"/>
<text id="r_12_c_0_40_n8" style="stroke:black; fill:black; font-size:24pt;" x="535" y="3619">
LFI
</text>
<use id="r_13_c_0_40" style="stroke:black; stroke-width:4;" transform="translate(519 3756) rotate(50)" xlink:href="#RFI-Rk[len=500,delta-angle=20]_0::RFI[angle=90,len=425,label=&quot;RFI&quot;]"/>
<text id="r_13_c_0_40_n2" style="stroke:black; fill:black; font-size:24pt;" x="493" y="3945">
RFI
</text>
<use id="r_13_c_0_40_n3" style="stroke:black; stroke-width:4;" transform="translate(485 4136) rotate(320)" xlink:href="#RFI-Rk[len=500,delta-angle=20]_1::RFI[angle=80,len=75,label=&quot; &quot;]"/>
<text id="r_13_c_0_40_n4" style="stroke:black; fill:black; font-size:24pt;" x="586" y="4127">
Rk
</text>
<use id="r_13_c_0_40_n5" style="stroke:black; stroke-width:4;" transform="translate(552 4147) rotate(15)" xlink:href="#RFI-Rk[len=500,delta-angle=20]_4::RBO[angle=80,len=105,label=&quot; &quot;]"/>
<use id="r_13_c_0_40_n6" style="stroke:black; stroke-width:4;" transform="translate(592 4234) rotate(295)" xlink:href="#RFI-Rk[len=500,delta-angle=20]_5::RB[len=20,label=&quot; &quot;]"/>
<use id="r_13_c_0_40_n7" style="stroke:black; stroke-width:4;" transform="translate(610 4242) rotate(295)" xlink:href="#RFI-Rk[len=500,delta-angle=20]_6::RBI&gt;&gt;[len=375]"/>
<text id="r_13_c_0_40_n8" style="stroke:black; fill:black; font-size:24pt;" x="650" y="4397">
RBI
</text>
<use id="r_14_c_0_40" style="stroke:black; stroke-width:4;" transform="translate(644 4535) rotate(45)" xlink:href="#LBI-Rk&lt;[len=500,delta-angle=20]_0::LBI[angle=80,len=425,label=&quot;LBI&quot;]"/>
<text id="r_14_c_0_40_n2" style="stroke:black; fill:black; font-size:24pt;" x="627" y="4729">
LBI
</text>
<use id="r_14_c_0_40_n3" style="stroke:black; stroke-width:4;" transform="translate(610 4923) rotate(325)" xlink:href="#LBI-Rk&lt;[len=500,delta-angle=20]_1::LBI[angle=80,len=75,label=&quot; &quot;]"/>
<text id="r_14_c_0_40_n4" style="stroke:black; fill:black; font-size:24pt;" x="711" y="4923">
Rk
</text>
<use id="r_14_c_0_40_n5" style="stroke:black; stroke-width:4;" transform="translate(675 4940) rotate(20)" xlink:href="#LBI-Rk&lt;[len=500,delta-angle=20]_4::LFO[angle=80,len=105,label=&quot; &quot;]"/>
<use id="r_14_c_0_40_n6" style="stroke:black; stroke-width:4;" transform="translate(707 5030) rotate(300)" xlink:href="#LBI-Rk&lt;[len=500,delta-angle=20]_5::LF[len=20,label=&quot; &quot;]"/>
<use id="r_14_c_0_40_n7" style="stroke:black; stroke-width:4;" transform="translate(724 5040) rotate(300)" xlink:href="#LBI-Rk&lt;[len=500,delta-angle=20]_6::LFI[angle=100,len=375]"/>
<text id="r_14_c_0_40_n8" style="stroke:black; fill:black; font-size:24pt;" x="757" y="5200">
LFI
</text>
<text id="r_17_c_0_47" style="stroke:black; fill:black; font-size:50pt;" x="1750" y="5890">
SIDE 2
</text>
<use id="r_19_c_0_37" style="stroke:black; stroke-width:4;" transform="translate(1900 5870) rotate(270)" xlink:href="#LF+[label=&quot; &quot;,style=&quot;dashed&quot;]"/>
<use id="r_20_c_0_40" style="stroke:black; stroke-width:4;" transform="translate(2500 5870) rotate(270)" xlink:href="#LFO&gt;&gt;&gt;[label=&quot; &quot;,style=&quot;dashed&quot;]"/>
<use id="r_22_c_0_24" style="stroke:black; stroke-width:4;" transform="translate(2500 5584) rotate(90)" xlink:href="#LFI---[label=&quot; &quot;]"/>
<use id="r_23_c_0_40" style="stroke:black; stroke-width:4;" transform="translate(2403 5567) rotate(110)" xlink:href="#LFI-Rk[len=500,delta-angle=20]_0::LFI[angle=90,len=425,label=&quot;LFI&quot;]"/>
<text id="r_23_c_0_40_n2" style="stroke:black; fill:black; font-size:24pt;" x="2314" y="5397">
LFI
</text>
<use id="r_23_c_0_40_n3" style="stroke:black; stroke-width:4;" transform="translate(2241 5220) rotate(200)" xlink:href="#LFI-Rk[len=500,delta-angle=20]_1::LFI[angle=80,len=75,label=&quot; &quot;]"/>
<text id="r_23_c_0_40_n4" style="stroke:black; fill:black; font-size:24pt;" x="2339" y="5192">
Rk
</text>
<use id="r_23_c_0_40_n5" style="stroke:black; stroke-width:4;" transform="translate(2300 5186) rotate(145)" xlink:href="#LFI-Rk[len=500,delta-angle=20]_4::LBO[angle=80,len=105,label=&quot; &quot;]"/>
<use id="r_23_c_0_40_n6" style="stroke:black; stroke-width:4;" transform="translate(2308 5089) rotate(225)" xlink:href="#LFI-Rk[len=500,delta-angle=20]_5::LB[len=20,label=&quot; &quot;]"/>
<use id="r_23_c_0_40_n7" style="stroke:black; stroke-width:4;" transform="translate(2322 5074) rotate(225)" xlink:href="#LFI-Rk[len=500,delta-angle=20]_6::LBI&gt;&gt;[len=375]"/>
<text id="r_23_c_0_40_n8" style="stroke:black; fill:black; font-size:24pt;" x="2306" y="4914">
LBI
</text>
<use id="r_24_c_0_40" style="stroke:black; stroke-width:4;" transform="translate(2254 4790) rotate(115)" xlink:href="#RBI-Rk[len=500,delta-angle=20]_0::RBI[angle=90,len=425,label=&quot;RBI&quot;]"/>
<text id="r_24_c_0_40_n2" style="stroke:black; fill:black; font-size:24pt;" x="2180" y="4613">
RBI
</text>
<use id="r_24_c_0_40_n3" style="stroke:black; stroke-width:4;" transform="translate(2123 4431) rotate(205)" xlink:href="#RBI-Rk[len=500,delta-angle=20]_1::RBI[angle=80,len=75,label=&quot; &quot;]"/>
<text id="r_24_c_0_40_n4" style="stroke:black; fill:black; font-size:24pt;" x="2222" y="4412">
Rk
</text>
<use id="r_24_c_0_40_n5" style="stroke:black; stroke-width:4;" transform="translate(2184 4402) rotate(150)" xlink:href="#RBI-Rk[len=500,delta-angle=20]_4::RFO[angle=80,len=105,label=&quot; &quot;]"/>
<use id="r_24_c_0_40_n6" style="stroke:black; stroke-width:4;" transform="translate(2200 4306) rotate(230)" xlink:href="#RBI-Rk[len=500,delta-angle=20]_5::RF[len=20,label=&quot; &quot;]"/>
<use id="r_24_c_0_40_n7" style="stroke:black; stroke-width:4;" transform="translate(2215 4293) rotate(230)" xlink:href="#RBI-Rk[len=500,delta-angle=20]_6::RFI&gt;&gt;[len=375]"/>
<text id="r_24_c_0_40_n8" style="stroke:black; fill:black; font-size:24pt;" x="2213" y="4132">
RFI
</text>
<use id="r_25_c_0_40" style="stroke:black; stroke-width:4;" transform="translate(2174 4002) rotate(120)" xlink:href="#LFI-Rk[len=500,delta-angle=20]_0::LFI[angle=90,len=425,label=&quot;LFI&quot;]"/>
<text id="r_25_c_0_40_n2" style="stroke:black; fill:black; font-size:24pt;" x="2116" y="3819">
LFI
</text>
<use id="r_25_c_0_40_n3" style="stroke:black; stroke-width:4;" transform="translate(2075 3633) rotate(210)" xlink:href="#LFI-Rk[len=500,delta-angle=20]_1::LFI[angle=80,len=75,label=&quot; &quot;]"/>
<text id="r_25_c_0_40_n4" style="stroke:black; fill:black; font-size:24pt;" x="2176" y="3622">
Rk
</text>
<use id="r_25_c_0_40_n5" style="stroke:black; stroke-width:4;" transform="translate(2139 3609) rotate(155)" xlink:href="#LFI-Rk[len=500,delta-angle=20]_4::LBO[angle=80,len=105,label=&quot; &quot;]"/>
<use id="r_25_c_0_40_n6" style="stroke:black; stroke-width:4;" transform="translate(2163 3515) rotate(235)" xlink:href="#LFI-Rk[len=500,delta-angle=20]_5::LB[len=20,label=&quot; &quot;]"/>
<use id="r_25_c_0_40_n7" style="stroke:black; stroke-width:4;" transform="translate(2179 3503) rotate(235)" xlink:href="#LFI-Rk[len=500,delta-angle=20]_6::LBI&gt;&gt;[len=375]"/>
<text id="r_25_c_0_40_n8" style="stroke:black; fill:black; font-size:24pt;" x="2191" y="3342">
LBI
</text>
<use id="r_26_c_0_40" style="stroke:black; stroke-width:4;" transform="translate(2162 3210) rotate(125)" xlink:href="#RBI-Rk[len=500,delta-angle=20]_0::RBI[angle=90,len=425,label=&quot;RBI&quot;]"/>
<text id="r_26_c_0_40_n2" style="stroke:black; fill:black; font-size:24pt;" x="2120" y="3023">
RBI
</text>
<use id="r_26_c_0_40_n3" style="stroke:black; stroke-width:4;" transform="translate(2095 2833) rotate(215)" xlink:href="#RBI-Rk[len=500,delta-angle=20]_1::RBI[angle=80,len=75,label=&quot; &quot;]"/>
<text id="r_26_c_0_40_n4" style="stroke:black; fill:black; font-size:24pt;" x="2196" y="2831">
Rk
</text>
<use id="r_26_c_0_40_n5" style="stroke:black; stroke-width:4;" transform="translate(2160 2815) rotate(160)" xlink:href="#RBI-Rk[len=500,delta-angle=20]_4::RFO[angle=80,len=105,label=&quot; &quot;]"/>
<use id="r_26_c_0_40_n6" style="stroke:black; stroke-width:4;" transform="translate(2192 2724) rotate(240)" xlink:href="#RBI-Rk[len=500,delta-angle=20]_5::RF[len=20,label=&quot; &quot;]"/>
<use id="r_26_c_0_40_n7" style="stroke:black; stroke-width:4;" transform="translate(2209 2714) rotate(240)" xlink:href="#RBI-Rk[len=500,delta-angle=20]_6::RFI&gt;&gt;[len=375]"/>
<text id="r_26_c_0_40_n8" style="stroke:black; fill:black; font-size:24pt;" x="2235" y="2555">
RFI
</text>
<use id="r_27_c_0_40" style="stroke:black; stroke-width:4;" transform="translate(2219 2420) rotate(130)" xlink:href="#LFI-Rk[len=500,delta-angle=20]_0::LFI[angle=90,len=425,label=&quot;LFI&quot;]"/>
<text id="r_27_c_0_40_n2" style="stroke:black; fill:black; font-size:24pt;" x="2193" y="2230">
LFI
</text>
<use id="r_27_c_0_40_n3" style="stroke:black; stroke-width:4;" transform="translate(2185 2039) rotate(220)" xlink:href="#LFI-Rk[len=500,delta-angle=20]_1::LFI[angle=80,len=75,label=&quot; &quot;]"/>
<text id="r_27_c_0_40_n4" style="stroke:black; fill:black; font-size:24pt;" x="2286" y="2047">
Rk
</text>
<use id="r_27_c_0_40_n5" style="stroke:black; stroke-width:4;" transform="translate(2252 2027) rotate(165)" xlink:href="#LFI-Rk[len=500,delta-angle=20]_4::LBO[angle=80,len=105,label=&quot; &quot;]"/>
<use id="r_27_c_0_40_n6" style="stroke:black; stroke-width:4;" transform="translate(2292 1939) rotate(245)" xlink:href="#LFI-Rk[len=500,delta-angle=20]_5::LB[len=20,label=&quot; &quot;]"/>
<use id="r_27_c_0_40_n7" style="stroke:black; stroke-width:4;" transform="translate(2310 1930) rotate(245)" xlink:href="#LFI-Rk[len=500,delta-angle=20]_6::LBI&gt;&gt;[len=375]"/>
<text id="r_27_c_0_40_n8" style="stroke:black; fill:black; font-size:24pt;" x="2350" y="1774">
LBI
</text>
<use id="r_28_c_0_40" style="stroke:black; stroke-width:4;" transform="translate(2344 1639) rotate(135)" xlink:href="#RBI-Rk&lt;[len=500,delta-angle=20]_0::RBI[angle=80,len=425,label=&quot;RBI&quot;]"/>
<text id="r_28_c_0_40_n2" style="stroke:black; fill:black; font-size:24pt;" x="2327" y="1444">
RBI
</text>
<use id="r_28_c_0_40_n3" style="stroke:black; stroke-width:4;" transform="translate(2310 1250) rotate(215)" xlink:href="#RBI-Rk&lt;[len=500,delta-angle=20]_1::RBI[angle=80,len=75,label=&quot; &quot;]"/>
<text id="r_28_c_0_40_n4" style="stroke:black; fill:black; font-size:24pt;" x="2411" y="1248">
Rk
</text>
<use id="r_28_c_0_40_n5" style="stroke:black; stroke-width:4;" transform="translate(2375 1232) rotate(160)" xlink:href="#RBI-Rk&lt;[len=500,delta-angle=20]_4::RFO[angle=80,len=105,label=&quot; &quot;]"/>
<use id="r_28_c_0_40_n6" style="stroke:black; stroke-width:4;" transform="translate(2407 1141) rotate(240)" xlink:href="#RBI-Rk&lt;[len=500,delta-angle=20]_5::RF[len=20,label=&quot; &quot;]"/>
<use id="r_28_c_0_40_n7" style="stroke:black; stroke-width:4;" transform="translate(2424 1131) rotate(240)" xlink:href="#RBI-Rk&lt;[len=500,delta-angle=20]_6::RFI[angle=100,len=375]"/>
<text id="r_28_c_0_40_n8" style="stroke:black; fill:black; font-size:24pt;" x="2457" y="970">
RFI
</text>
</svg>