<svg height="6200" viewBox="-50 -50 3100 6200" width="3100" xmlns="http://www.w3.org/2000/svg" xmlns:xlink="http://www.w3.org/1999/xlink">
<title>Skills 3 Exercise 2</title>
<desc>
<text>
Skills 3 Exercise 2
</text>
</desc>
<defs>
<style>
text { text-anchor: middle } path,rect,circle { fill:none; stroke: black; }
</style>
<g id="Rink">
<clipPath id="clip-rink">
<rect height="6100" rx="750" ry="750" width="3000" x="0" y="0"/>
</clipPath>
<rect height="6100" rx="750" ry="750" style="text { text-anchor: middle } path,rect,circle { fill:none; stroke: black; } clip-path:url(#clip-rink)" width="3000" x="0" y="0"/>
<path d="M 0,3050 l 3000,0" style="stroke:red;"/>
<circle cx="1500" cy="3050" r="400" style="stroke:red;"/>
<circle cx="1500" cy="3050" r="2" style="fill: black;"/>
<path d="M 0,2250 l 3000,0" style="stroke: blue;"/>
<path d="M 0,3850 l 3000,0" style="stroke: blue;"/>
</g>
<g id="Info"/>
<g id="LF-[label=&quot; &quot;,style=&quot;dashed&quot;]">
<path d="M 0,0 l 0,300" stroke-dasharray="50 30"/>
</g>
<g id="LFO3-_0::LFO[angle=36,len=225,label=&quot;LFO3&quot;]">
<path d="M 0,0 a 358,358 0 0 0 68,210"/>
</g>
<g id="LFO3-_1::LFO[angle=54,len=75,label=&quot; &quot;]">
<path d="M 0,0 a 79,79 0 0 0 32,64"/>
</g>
<g id="LFO3-_3::LBI[angle=54,len=75,label=&quot; &quot;]">
<path d="M 0,0 a 79,79 0 0 0 32,64"/>
</g>
<g id="LFO3-_4::LBI[angle=36,len=225]">
<path d="M 0,0 a 358,358 0 0 0 68,210"/>
</g>
<g id="RBO[angle=160]">
<path d="M 0,0 a 161,161 0 0 0 312,55"/>
</g>
<g id="xb-LBO[angle=100,transition-label=&quot;CR&quot;]">
<path d="M 0,0 a 257,257 0 0 1 -302,253"/>
</g>
<g id="xb-RBO[angle=100,transition-label=&quot;CR&quot;]">
<path d="M 0,0 a 257,257 0 0 0 302,253"/>
</g>
<g id="RFO3-_0::RFO[angle=36,len=225,label=&quot;RFO3&quot;]">
<path d="M 0,0 a 358,358 0 0 1 -68,210"/>
</g>
<g id="RFO3-_1::RFO[angle=54,len=75,label=&quot; &quot;]">
<path d="M 0,0 a 79,79 0 0 1 -32,64"/>
</g>
<g id="RFO3-_3::RBI[angle=54,len=75,label=&quot; &quot;]">
<path d="M 0,0 a 79,79 0 0 1 -32,64"/>
</g>
<g id="RFO3-_4::RBI[angle=36,len=225]">
<path d="M 0,0 a 358,358 0 0 1 -68,210"/>
</g>
<g id="LBO+[angle=170]">
<path d="M 0,0 a 202,202 0 0 1 -401,35"/>
</g>
<g id="xb-RBO[angle=100,len=550,transition-label=&quot;CR&quot;]">
<path d="M 0,0 a 315,315 0 0 0 369,310"/>
</g>
<g id="xb-LBO[angle=100,len=550,transition-label=&quot;CR&quot;]">
<path d="M 0,0 a 315,315 0 0 1 -369,310"/>
</g>
<g id="RBO+[angle=170]">
<path d="M 0,0 a 202,202 0 0 0 401,35"/>
</g>
<g id="xb-LBO[angle=120,len=550,transition-label=&quot;CR&quot;]">
<path d="M 0,0 a 262,262 0 0 1 -393,227"/>
</g>
<g id="xb-RBO[angle=120,len=550,transition-label=&quot;CR&quot;]">
<path d="M 0,0 a 262,262 0 0 0 393,227"/>
</g>
<g id="LBO&gt;&gt;&gt;">
<path d="M 0,0 a 143,143 0 1 1 -286,0"/>
</g>
</defs>
<use id="r_0_c_0_4" style="stroke-width:4;" transform="translate(0 0) rotate(0)" xlink:href="#Rink"/>
<text style="font-size: 90pt;" x="1500" y="200">
Skills 3 Exercise 2
</text>
<text style="font-size:50pt;" x="1650" y="725">
START
</text>
<use id="r_6_c_0_37" style="stroke-width:4;" transform="translate(1500 700) rotate(90)" xlink:href="#LF-[label=&quot; &quot;,style=&quot;dashed&quot;]"/>
<use id="r_8_c_0_14" style="stroke-width:4;" transform="translate(1200 700) rotate(90)" xlink:href="#LFO3-_0::LFO[angle=36,len=225,label=&quot;LFO3&quot;]"/>
<text style="font-size:24pt;" x="1112" y="785">
LFO3
</text>
<use id="r_8_c_0_14" style="stroke-width:4;" transform="translate(990 768) rotate(54)" xlink:href="#LFO3-_1::LFO[angle=54,len=75,label=&quot; &quot;]"/>
<use id="r_8_c_0_14" style="stroke-width:4;" transform="translate(957 831) rotate(135)" xlink:href="#LFO3-_3::LBI[angle=54,len=75,label=&quot; &quot;]"/>
<use id="r_8_c_0_14" style="stroke-width:4;" transform="translate(889 808) rotate(81)" xlink:href="#LFO3-_4::LBI[angle=36,len=225]"/>
<text style="font-size:24pt;" x="815" y="905">
LBI
</text>
<use id="r_9_c_0_15" style="stroke-width:4;" transform="translate(716 929) rotate(45)" xlink:href="#RBO[angle=160]"/>
<text style="font-size:24pt;" x="756" y="1093">
RBO
</text>
<use id="r_11_c_0_40" style="stroke-width:4;" transform="translate(904 1168) rotate(245)" xlink:href="#xb-LBO[angle=100,transition-label=&quot;CR&quot;]"/>
<text style="font-size:24pt;" x="1091" y="1233">
LBO
</text>
<text style="font-size:24pt;" x="903" y="1115">
CR
</text>
<use id="r_12_c_0_40" style="stroke-width:4;" transform="translate(1249 1352) rotate(345)" xlink:href="#xb-RBO[angle=100,transition-label=&quot;CR&quot;]"/>
<text style="font-size:24pt;" x="1419" y="1453">
RBO
</text>
<text style="font-size:24pt;" x="1208" y="1385">
CR
</text>
<use id="r_13_c_0_40" style="stroke-width:4;" transform="translate(1613 1498) rotate(245)" xlink:href="#xb-LBO[angle=100,transition-label=&quot;CR&quot;]"/>
<text style="font-size:24pt;" x="1800" y="1563">
LBO
</text>
<text style="font-size:24pt;" x="1612" y="1445">
CR
</text>
<use id="r_15_c_0_14" style="stroke-width:4;" transform="translate(1987 1674) rotate(255)" xlink:href="#RFO3-_0::RFO[angle=36,len=225,label=&quot;RFO3&quot;]"/>
<text style="font-size:24pt;" x="2094" y="1733">
RFO3
</text>
<use id="r_15_c_0_14" style="stroke-width:4;" transform="translate(2207 1685) rotate(291)" xlink:href="#RFO3-_1::RFO[angle=54,len=75,label=&quot; &quot;]"/>
<use id="r_15_c_0_14" style="stroke-width:4;" transform="translate(2255 1737) rotate(210)" xlink:href="#RFO3-_3::RBI[angle=54,len=75,label=&quot; &quot;]"/>
<use id="r_15_c_0_14" style="stroke-width:4;" transform="translate(2314 1697) rotate(264)" xlink:href="#RFO3-_4::RBI[angle=36,len=225]"/>
<text style="font-size:24pt;" x="2410" y="1772">
RBI
</text>
<use id="r_16_c_0_23" style="stroke-width:4;" transform="translate(2513 1769) rotate(300)" xlink:href="#LBO+[angle=170]"/>
<text style="font-size:24pt;" x="2530" y="1998">
LBO
</text>
<use id="r_18_c_0_48" style="stroke-width:4;" transform="translate(2333 2113) rotate(110)" xlink:href="#xb-RBO[angle=100,len=550,transition-label=&quot;CR&quot;]"/>
<text style="font-size:24pt;" x="2104" y="2197">
RBO
</text>
<text style="font-size:24pt;" x="2323" y="2059">
CR
</text>
<use id="r_19_c_0_48" style="stroke-width:4;" transform="translate(1927 2370) rotate(10)" xlink:href="#xb-LBO[angle=100,len=550,transition-label=&quot;CR&quot;]"/>
<text style="font-size:24pt;" x="1739" y="2525">
LBO
</text>
<text style="font-size:24pt;" x="1968" y="2404">
CR
</text>
<use id="r_20_c_0_48" style="stroke-width:4;" transform="translate(1500 2591) rotate(110)" xlink:href="#xb-RBO[angle=100,len=550,transition-label=&quot;CR&quot;]"/>
<text style="font-size:24pt;" x="1271" y="2675">
RBO
</text>
<text style="font-size:24pt;" x="1490" y="2537">
CR
</text>
<use id="r_22_c_0_14" style="stroke-width:4;" transform="translate(1064 2843) rotate(100)" xlink:href="#LFO3-_0::LFO[angle=36,len=225,label=&quot;LFO3&quot;]"/>
<text style="font-size:24pt;" x="962" y="2911">
LFO3
</text>
<use id="r_22_c_0_14" style="stroke-width:4;" transform="translate(845 2873) rotate(64)" xlink:href="#LFO3-_1::LFO[angle=54,len=75,label=&quot; &quot;]"/>
<use id="r_22_c_0_14" style="stroke-width:4;" transform="translate(801 2929) rotate(145)" xlink:href="#LFO3-_3::LBI[angle=54,len=75,label=&quot; &quot;]"/>
<use id="r_22_c_0_14" style="stroke-width:4;" transform="translate(738 2894) rotate(91)" xlink:href="#LFO3-_4::LBI[angle=36,len=225]"/>
<text style="font-size:24pt;" x="648" y="2977">
LBI
</text>
<use id="r_23_c_0_23" style="stroke-width:4;" transform="translate(547 2984) rotate(55)" xlink:href="#RBO+[angle=170]"/>
<text style="font-size:24pt;" x="549" y="3214">
RBO
</text>
<use id="r_25_c_0_48" style="stroke-width:4;" transform="translate(755 3312) rotate(245)" xlink:href="#xb-LBO[angle=120,len=550,transition-label=&quot;CR&quot;]"/>
<text style="font-size:24pt;" x="975" y="3393">
LBO
</text>
<text style="font-size:24pt;" x="759" y="3257">
CR
</text>
<use id="r_26_c_0_48" style="stroke-width:4;" transform="translate(1109 3585) rotate(5)" xlink:href="#xb-RBO[angle=120,len=550,transition-label=&quot;CR&quot;]"/>
<text style="font-size:24pt;" x="1260" y="3763">
RBO
</text>
<text style="font-size:24pt;" x="1059" y="3607">
CR
</text>
<use id="r_27_c_0_48" style="stroke-width:4;" transform="translate(1487 3825) rotate(245)" xlink:href="#xb-LBO[angle=120,len=550,transition-label=&quot;CR&quot;]"/>
<text style="font-size:24pt;" x="1707" y="3906">
LBO
</text>
<text style="font-size:24pt;" x="1491" y="3770">
CR
</text>
<use id="r_29_c_0_14" style="stroke-width:4;" transform="translate(1871 4101) rotate(275)" xlink:href="#RFO3-_0::RFO[angle=36,len=225,label=&quot;RFO3&quot;]"/>
<text style="font-size:24pt;" x="1951" y="4193">
RFO3
</text>
<use id="r_29_c_0_14" style="stroke-width:4;" transform="translate(2074 4187) rotate(311)" xlink:href="#RFO3-_1::RFO[angle=54,len=75,label=&quot; &quot;]"/>
<use id="r_29_c_0_14" style="stroke-width:4;" transform="translate(2101 4253) rotate(230)" xlink:href="#RFO3-_3::RBI[angle=54,len=75,label=&quot; &quot;]"/>
<use id="r_29_c_0_14" style="stroke-width:4;" transform="translate(2170 4236) rotate(284)" xlink:href="#RFO3-_4::RBI[angle=36,len=225]"/>
<text style="font-size:24pt;" x="2234" y="4339">
RBI
</text>
<use id="r_30_c_0_15" style="stroke-width:4;" transform="translate(2332 4371) rotate(320)" xlink:href="#LBO&gt;&gt;&gt;"/>
<text style="font-size:24pt;" x="2268" y="4517">
LBO
</text>
<use id="r_32_c_0_48" style="stroke-width:4;" transform="translate(2113 4532) rotate(140)" xlink:href="#xb-RBO[angle=120,len=550,transition-label=&quot;CR&quot;]"/>
<text style="font-size:24pt;" x="1879" y="4512">
RBO
</text>
<text style="font-size:24pt;" x="2131" y="4481">
CR
</text>
<use id="r_33_c_0_48" style="stroke-width:4;" transform="translate(1674 4629) rotate(20)" xlink:href="#xb-LBO[angle=120,len=550,transition-label=&quot;CR&quot;]"/>
<text style="font-size:24pt;" x="1460" y="4726">
LBO
</text>
<text style="font-size:24pt;" x="1708" y="4670">
CR
</text>
<use id="r_34_c_0_48" style="stroke-width:4;" transform="translate(1228 4685) rotate(140)" xlink:href="#xb-RBO[angle=120,len=550,transition-label=&quot;CR&quot;]"/>
<text style="font-size:24pt;" x="994" y="4665">
RBO
</text>
<text style="font-size:24pt;" x="1246" y="4634">
CR
</text>
</svg>