<svg height="6200" viewBox="-50 -50 3100 6200" width="3100" xmlns="http://www.w3.org/2000/svg" xmlns:xlink="http://www.w3.org/1999/xlink">
<title>Skills 2 Exercise 5</title>
<desc>
<text>
Skills 2 Exercise 5
</text>
</desc>
<defs>
<style>
text { text-anchor: middle } path,rect,circle { fill:none; stroke: black; }
</style>
<g id="Rink">
<clipPath id="clip-rink">
<rect height="6100" rx="750" ry="750" width="3000" x="0" y="0"/>
</clipPath>
<rect height="6100" rx="750" ry="750" style="text { text-anchor: middle } path,rect,circle { fill:none; stroke: black; } clip-path:url(#clip-rink)" width="3000" x="0" y="0"/>
<path d="M 0,3050 l 3000,0" style="stroke:red;"/>
<circle cx="1500" cy="3050" r="400" style="stroke:red;"/>
<circle cx="1500" cy="3050" r="2" style="fill: black;"/>
<path d="M 0,2250 l 3000,0" style="stroke: blue;"/>
<path d="M 0,3850 l 3000,0" style="stroke: blue;"/>
</g>
<g id="Info"/>
<g id="LF[len=900,label=&quot; &quot;,style=&quot;dashed&quot;]">
<path d="M 0,0 l 0,900" stroke-dasharray="50 30"/>
</g>
<g id="LFO+[angle=70]">
<path d="M 0,0 a 491,491 0 0 0 323,461"/>
</g>
<g id="RFI-OpMo&lt;&lt;+[delta-angle=10]_0::RFI+[angle=70]">
<path d="M 0,0 a 491,491 0 0 0 323,461"/>
</g>
<g id="RFI-OpMo&lt;&lt;+[delta-angle=10]_3::LBI+[angle=80]">
<path d="M 0,0 a 429,429 0 0 0 355,423"/>
</g>
<g id="wd-RBI&gt;">
<path d="M 0,0 a 429,429 0 0 1 -214,372"/>
</g>
<g id="LBO[angle=40,len=500]">
<path d="M 0,0 a 716,716 0 0 1 -167,460"/>
</g>
<g id="xf-RBI-[angle=30]">
<path d="M 0,0 a 572,572 0 0 1 -76,286"/>
</g>
<g id="LFO[angle=95,len=650]">
<path d="M 0,0 a 392,392 0 0 0 426,390"/>
</g>
<g id="RFI-OpMo[angle=50,len=500,delta-angle=30]_0::RFI[angle=50,len=500]">
<path d="M 0,0 a 572,572 0 0 0 204,438"/>
</g>
<g id="RFI-OpMo[angle=50,len=500,delta-angle=30]_3::LBI[angle=80,len=500]">
<path d="M 0,0 a 358,358 0 0 0 295,352"/>
</g>
<g id="LBO-[angle=40]">
<path d="M 0,0 a 429,429 0 0 1 -100,276"/>
</g>
<g id="xf-RBI-[angle=40]">
<path d="M 0,0 a 429,429 0 0 1 -100,276"/>
</g>
<g id="LFO+[angle=90]">
<path d="M 0,0 a 381,381 0 0 0 381,381"/>
</g>
<g id="RF+[label=&quot; &quot;,style=&quot;dashed&quot;]">
<path d="M 0,0 l 0,600" stroke-dasharray="50 30"/>
</g>
<g id="RFI[angle=120,len=700,label=&quot; &quot;,style=&quot;dashed&quot;]">
<path d="M 0,0 a 334,334 0 0 0 501,289" stroke-dasharray="50 30"/>
</g>
<g id="RFO[angle=30]">
<path d="M 0,0 a 859,859 0 0 1 -115,429"/>
</g>
<g id="LFI-OpMo&lt;[len=550,delta-angle=-10]_0::LFI[angle=80,len=550]">
<path d="M 0,0 a 393,393 0 0 1 -325,387"/>
</g>
<g id="LFI-OpMo&lt;[len=550,delta-angle=-10]_3::RBI[angle=70,len=550]">
<path d="M 0,0 a 450,450 0 0 1 -296,423"/>
</g>
<g id="wd-LBI&gt;">
<path d="M 0,0 a 429,429 0 0 0 214,372"/>
</g>
<g id="RBO[angle=40,len=500]">
<path d="M 0,0 a 716,716 0 0 0 167,460"/>
</g>
<g id="xf-LBI-[angle=40]">
<path d="M 0,0 a 429,429 0 0 0 100,276"/>
</g>
<g id="RFO[angle=100,len=650]">
<path d="M 0,0 a 372,372 0 0 1 -437,366"/>
</g>
<g id="LFI-OpMo&lt;+[delta-angle=-10]_0::LFI+[angle=80]">
<path d="M 0,0 a 429,429 0 0 1 -355,423"/>
</g>
<g id="LFI-OpMo&lt;+[delta-angle=-10]_3::RBI+[angle=70]">
<path d="M 0,0 a 491,491 0 0 1 -323,461"/>
</g>
<g id="xf-LBI-[angle=30]">
<path d="M 0,0 a 572,572 0 0 0 76,286"/>
</g>
<g id="RFO+[angle=90]">
<path d="M 0,0 a 381,381 0 0 1 -381,381"/>
</g>
</defs>
<use id="r_0_c_0_4" style="stroke-width:4;" transform="translate(0 0) rotate(0)" xlink:href="#Rink"/>
<text style="font-size: 90pt;" x="1500" y="200">
Skills 2 Exercise 5
</text>
<text style="font-size:50pt;" x="1700" y="325">
SIDE 1
</text>
<use id="r_7_c_0_37" style="stroke-width:4;" transform="translate(1500 300) rotate(90)" xlink:href="#LF[len=900,label=&quot; &quot;,style=&quot;dashed&quot;]"/>
<use id="r_9_c_0_22" style="stroke-width:4;" transform="translate(600 300) rotate(60)" xlink:href="#LFO+[angle=70]"/>
<text style="font-size:24pt;" x="465" y="546">
LFO
</text>
<use id="r_11_c_0_30" style="stroke-width:4;" transform="translate(332 815) rotate(350)" xlink:href="#RFI-OpMo&lt;&lt;+[delta-angle=10]_0::RFI+[angle=70]"/>
<text style="font-size:24pt;" x="517" y="1026">
RFI
</text>
<text style="font-size:24pt;" x="771" y="1148">
OpMo
</text>
<use id="r_11_c_0_30" style="stroke-width:4;" transform="translate(679 1121) rotate(10)" xlink:href="#RFI-OpMo&lt;&lt;+[delta-angle=10]_3::LBI+[angle=80]"/>
<text style="font-size:24pt;" x="791" y="1374">
LBI
</text>
<use id="r_13_c_0_7" style="stroke-width:4;" transform="translate(974 1542) rotate(290)" xlink:href="#wd-RBI&gt;"/>
<text style="font-size:24pt;" x="1101" y="1715">
RBI
</text>
<text style="font-size:24pt;" x="1011" y="1504">
Wd
</text>
<use id="r_14_c_0_22" style="stroke-width:4;" transform="translate(1220 1875) rotate(350)" xlink:href="#LBO[angle=40,len=500]"/>
<text style="font-size:24pt;" x="1149" y="2110">
LBO
</text>
<use id="r_15_c_0_25" style="stroke-width:4;" transform="translate(1114 2362) rotate(30)" xlink:href="#xf-RBI-[angle=30]"/>
<text style="font-size:24pt;" x="972" y="2430">
RBI
</text>
<text style="font-size:24pt;" x="1148" y="2398">
XF
</text>
<use id="r_17_c_0_22" style="stroke-width:4;" transform="translate(892 2588) rotate(80)" xlink:href="#LFO[angle=95,len=650]"/>
<text style="font-size:24pt;" x="689" y="2801">
LFO
</text>
<use id="r_19_c_0_30" style="stroke-width:4;" transform="translate(552 3082) rotate(345)" xlink:href="#RFI-OpMo[angle=50,len=500,delta-angle=30]_0::RFI[angle=50,len=500]"/>
<text style="font-size:24pt;" x="720" y="3256">
RFI
</text>
<text style="font-size:24pt;" x="918" y="3401">
OpMo
</text>
<use id="r_19_c_0_30" style="stroke-width:4;" transform="translate(836 3352) rotate(25)" xlink:href="#RFI-OpMo[angle=50,len=500,delta-angle=30]_3::LBI[angle=80,len=500]"/>
<text style="font-size:24pt;" x="883" y="3577">
LBI
</text>
<use id="r_21_c_0_7" style="stroke-width:4;" transform="translate(988 3745) rotate(305)" xlink:href="#wd-RBI&gt;"/>
<text style="font-size:24pt;" x="1066" y="3945">
RBI
</text>
<text style="font-size:24pt;" x="1033" y="3718">
Wd
</text>
<use id="r_22_c_0_22" style="stroke-width:4;" transform="translate(1139 4130) rotate(5)" xlink:href="#LBO-[angle=40]"/>
<text style="font-size:24pt;" x="1036" y="4243">
LBO
</text>
<use id="r_23_c_0_25" style="stroke-width:4;" transform="translate(993 4396) rotate(45)" xlink:href="#xf-RBI-[angle=40]"/>
<text style="font-size:24pt;" x="841" y="4417">
RBI
</text>
<text style="font-size:24pt;" x="1017" y="4439">
XF
</text>
<use id="r_25_c_0_22" style="stroke-width:4;" transform="translate(713 4536) rotate(85)" xlink:href="#LFO+[angle=90]"/>
<text style="font-size:24pt;" x="507" y="4715">
LFO
</text>
<text style="font-size:50pt;" x="1000" y="5900">
SIDE 2
</text>
<use id="r_30_c_0_37" style="stroke-width:4;" transform="translate(1200 5900) rotate(270)" xlink:href="#RF+[label=&quot; &quot;,style=&quot;dashed&quot;]"/>
<use id="r_31_c_0_48" style="stroke-width:4;" transform="translate(1800 5900) rotate(270)" xlink:href="#RFI[angle=120,len=700,label=&quot; &quot;,style=&quot;dashed&quot;]"/>
<use id="r_32_c_0_22" style="stroke-width:4;" transform="translate(2089 5399) rotate(150)" xlink:href="#RFO[angle=30]"/>
<text style="font-size:24pt;" x="2071" y="5173">
RFO
</text>
<use id="r_34_c_0_30" style="stroke-width:4;" transform="translate(1944 4969) rotate(180)" xlink:href="#LFI-OpMo&lt;[len=550,delta-angle=-10]_0::LFI[angle=80,len=550]"/>
<text style="font-size:24pt;" x="2091" y="4762">
LFI
</text>
<text style="font-size:24pt;" x="2310" y="4645">
OpMo
</text>
<use id="r_34_c_0_30" style="stroke-width:4;" transform="translate(2218 4672) rotate(170)" xlink:href="#LFI-OpMo&lt;[len=550,delta-angle=-10]_3::RBI[angle=70,len=550]"/>
<text style="font-size:24pt;" x="2317" y="4434">
RBI
</text>
<use id="r_36_c_0_7" style="stroke-width:4;" transform="translate(2466 4257) rotate(240)" xlink:href="#wd-LBI&gt;"/>
<text style="font-size:24pt;" x="2561" y="4064">
LBI
</text>
<text style="font-size:24pt;" x="2509" y="4287">
Wd
</text>
<use id="r_37_c_0_22" style="stroke-width:4;" transform="translate(2651 3885) rotate(180)" xlink:href="#RBO[angle=40,len=500]"/>
<text style="font-size:24pt;" x="2541" y="3665">
RBO
</text>
<use id="r_38_c_0_25" style="stroke-width:4;" transform="translate(2462 3423) rotate(140)" xlink:href="#xf-LBI-[angle=40]"/>
<text style="font-size:24pt;" x="2313" y="3388">
LBI
</text>
<text style="font-size:24pt;" x="2489" y="3381">
XF
</text>
<use id="r_40_c_0_23" style="stroke-width:4;" transform="translate(2189 3262) rotate(80)" xlink:href="#RFO[angle=100,len=650]"/>
<text style="font-size:24pt;" x="1931" y="3125">
RFO
</text>
<use id="r_42_c_0_30" style="stroke-width:4;" transform="translate(1722 2895) rotate(180)" xlink:href="#LFI-OpMo&lt;+[delta-angle=-10]_0::LFI+[angle=80]"/>
<text style="font-size:24pt;" x="1877" y="2665">
LFI
</text>
<text style="font-size:24pt;" x="2118" y="2535">
OpMo
</text>
<use id="r_42_c_0_30" style="stroke-width:4;" transform="translate(2026 2562) rotate(170)" xlink:href="#LFI-OpMo&lt;+[delta-angle=-10]_3::RBI+[angle=70]"/>
<text style="font-size:24pt;" x="2128" y="2300">
RBI
</text>
<use id="r_44_c_0_7" style="stroke-width:4;" transform="translate(2294 2104) rotate(240)" xlink:href="#wd-LBI&gt;"/>
<text style="font-size:24pt;" x="2389" y="1911">
LBI
</text>
<text style="font-size:24pt;" x="2337" y="2134">
Wd
</text>
<use id="r_45_c_0_22" style="stroke-width:4;" transform="translate(2479 1732) rotate(180)" xlink:href="#RBO[angle=40,len=500]"/>
<text style="font-size:24pt;" x="2369" y="1512">
RBO
</text>
<use id="r_46_c_0_25" style="stroke-width:4;" transform="translate(2290 1270) rotate(140)" xlink:href="#xf-LBI-[angle=30]"/>
<text style="font-size:24pt;" x="2139" y="1226">
LBI
</text>
<text style="font-size:24pt;" x="2317" y="1228">
XF
</text>
<use id="r_48_c_0_22" style="stroke-width:4;" transform="translate(2034 1081) rotate(100)" xlink:href="#RFO+[angle=90]"/>
<text style="font-size:24pt;" x="1845" y="884">
RFO
</text>
</svg>