<svg height="6200" viewBox="-50 -50 3100 6200" width="3100" xmlns="http://www.w3.org/2000/svg" xmlns:xlink="http://www.w3.org/1999/xlink">
<!-- Rink
Title [text="Skills 2 Exercise 4",y=200,font-size=90]
Info [grid=0,markers=false]

Text [x=1950,y=525,text="START",font-size=50]
Warp [x=1800,y=500,dir=90,code="LFO"]

LF [len=500,label=" ",style="dashed"]
LFO [angle=140,len=600]

xf-RFO>>+
|:
  xf-LFO [angle=140,len=600]
  xf-RFI->
  wd-LFI+>>
  RFO>>+
  xf-LFO [angle=140,len=600]
!|x3

xf-RFO [angle=140,len=600]
xf-LFI>-
wd-RFI+>>
 -->
<title>Skills 2 Exercise 4</title>
<desc>
<text>
Skills 2 Exercise 4
</text>
</desc>
<defs>
<style>
text { text-anchor: middle } path,rect,circle { fill:none; }
</style>
<g id="Rink">
<clipPath id="clip-rink">
<rect height="6100" rx="750" ry="750" width="3000" x="0" y="0"/>
</clipPath>
<rect height="6100" rx="750" ry="750" style="text { text-anchor: middle } path,rect,circle { fill:none; } clip-path:url(#clip-rink)" width="3000" x="0" y="0"/>
<path d="M 0,3050 l 3000,0" style="stroke:red;"/>
<circle cx="1500" cy="3050" r="400" style="stroke:red;"/>
<circle cx="1500" cy="3050" r="2" style="fill: black;"/>
<path d="M 0,2250 l 3000,0" style="stroke: blue;"/>
<path d="M 0,3850 l 3000,0" style="stroke: blue;"/>
</g>
<g id="Info"/>
<g id="LF[len=500,label=&quot; &quot;,style=&quot;dashed&quot;]">
<path d="M 0,0 l 0,500" stroke-dasharray="50 30"/>
</g>
<g id="LFO+[angle=140]">
<path d="M 0,0 a 245,245 0 0 0 433,157"/>
</g>
<g id="xf-RFO&gt;&gt;+">
<path d="M 0,0 a 312,312 0 0 1 -419,293"/>
</g>
<g id="xf-LFO+[angle=140]">
<path d="M 0,0 a 245,245 0 0 0 433,157"/>
</g>
<g id="xf-RFI&gt;-">
<path d="M 0,0 a 286,286 0 0 0 143,248"/>
</g>
<g id="wd-LFI&gt;&gt;+">
<path d="M 0,0 a 312,312 0 0 1 -419,293"/>
</g>
<g id="RFO&gt;&gt;+">
<path d="M 0,0 a 312,312 0 0 1 -419,293"/>
</g>
<g id="xf-RFO+[angle=140]">
<path d="M 0,0 a 245,245 0 0 1 -433,157"/>
</g>
<g id="xf-LFI&gt;-">
<path d="M 0,0 a 286,286 0 0 1 -143,248"/>
</g>
<g id="wd-RFI&gt;&gt;+">
<path d="M 0,0 a 312,312 0 0 0 419,293"/>
</g>
<g id="LFO&gt;&gt;+">
<path d="M 0,0 a 312,312 0 0 0 419,293"/>
</g>
</defs>
<use id="r_0_c_0_4" style="stroke:black; stroke-width:4;" transform="translate(0 0) rotate(0)" xlink:href="#Rink"/>
<text id="r_1_c_0_53" style="stroke:black; fill:black; font-size: 90pt;" x="1500" y="200">
Skills 2 Exercise 4
</text>
<text id="r_4_c_0_45" style="stroke:black; fill:black; font-size:50pt;" x="1950" y="525">
START
</text>
<use id="r_7_c_0_37" style="stroke:black; stroke-width:4;" transform="translate(1800 500) rotate(90)" xlink:href="#LF[len=500,label=&quot; &quot;,style=&quot;dashed&quot;]"/>
<use id="r_8_c_0_23" style="stroke:black; stroke-width:4;" transform="translate(1300 500) rotate(90)" xlink:href="#LFO+[angle=140]"/>
<text id="r_8_c_0_23_n2" style="stroke:black; fill:black; font-size:24pt;" x="1137" y="685">
LFO
</text>
<use id="r_10_c_0_9" style="stroke:black; stroke-width:4;" transform="translate(1164 931) rotate(310)" xlink:href="#xf-RFO&gt;&gt;+"/>
<text id="r_10_c_0_9_n2" style="stroke:black; fill:black; font-size:24pt;" x="1203" y="1191">
RFO
</text>
<text id="r_10_c_0_9_n3" style="stroke:black; fill:black; font-size:24pt;" x="1216" y="913">
XF
</text>
<use id="r_12_c_2_28" style="stroke:black; stroke-width:4;" transform="translate(1098 1434) rotate(60)" xlink:href="#xf-LFO+[angle=140]"/>
<text id="r_12_c_2_28_n2" style="stroke:black; fill:black; font-size:24pt;" x="1049" y="1675">
LFO
</text>
<text id="r_12_c_2_28_n3" style="stroke:black; fill:black; font-size:24pt;" x="1049" y="1407">
XF
</text>
<use id="r_13_c_2_10" style="stroke:black; stroke-width:4;" transform="translate(1195 1874) rotate(280)" xlink:href="#xf-RFI&gt;-"/>
<text id="r_13_c_2_10_n2" style="stroke:black; fill:black; font-size:24pt;" x="1318" y="1794">
RFI
</text>
<text id="r_13_c_2_10_n3" style="stroke:black; fill:black; font-size:24pt;" x="1200" y="1923">
XF
</text>
<use id="r_14_c_2_11" style="stroke:black; stroke-width:4;" transform="translate(1418 1737) rotate(220)" xlink:href="#wd-LFI&gt;&gt;+"/>
<text id="r_14_c_2_11_n2" style="stroke:black; fill:black; font-size:24pt;" x="1678" y="1697">
LFI
</text>
<text id="r_14_c_2_11_n3" style="stroke:black; fill:black; font-size:24pt;" x="1400" y="1684">
Wd
</text>
<use id="r_15_c_2_8" style="stroke:black; stroke-width:4;" transform="translate(1901 1796) rotate(330)" xlink:href="#RFO&gt;&gt;+"/>
<text id="r_15_c_2_8_n2" style="stroke:black; fill:black; font-size:24pt;" x="1849" y="2054">
RFO
</text>
<use id="r_16_c_2_28" style="stroke:black; stroke-width:4;" transform="translate(1666 2246) rotate(80)" xlink:href="#xf-LFO+[angle=140]"/>
<text id="r_16_c_2_28_n2" style="stroke:black; fill:black; font-size:24pt;" x="1537" y="2456">
LFO
</text>
<text id="r_16_c_2_28_n3" style="stroke:black; fill:black; font-size:24pt;" x="1629" y="2204">
XF
</text>
<use id="r_12_c_2_28_rep_2" style="stroke:black; stroke-width:4;" transform="translate(1606 2693) rotate(300)" xlink:href="#xf-RFO+[angle=140]"/>
<text id="r_12_c_2_28_rep_2_n2" style="stroke:black; fill:black; font-size:24pt;" x="1654" y="2934">
RFO
</text>
<text id="r_12_c_2_28_rep_2_n3" style="stroke:black; fill:black; font-size:24pt;" x="1654" y="2666">
XF
</text>
<use id="r_13_c_2_10_rep_2" style="stroke:black; stroke-width:4;" transform="translate(1507 3133) rotate(80)" xlink:href="#xf-LFI&gt;-"/>
<text id="r_13_c_2_10_rep_2_n2" style="stroke:black; fill:black; font-size:24pt;" x="1383" y="3053">
LFI
</text>
<text id="r_13_c_2_10_rep_2_n3" style="stroke:black; fill:black; font-size:24pt;" x="1501" y="3182">
XF
</text>
<use id="r_14_c_2_11_rep_2" style="stroke:black; stroke-width:4;" transform="translate(1282 2996) rotate(140)" xlink:href="#wd-RFI&gt;&gt;+"/>
<text id="r_14_c_2_11_rep_2_n2" style="stroke:black; fill:black; font-size:24pt;" x="1021" y="2956">
RFI
</text>
<text id="r_14_c_2_11_rep_2_n3" style="stroke:black; fill:black; font-size:24pt;" x="1299" y="2943">
Wd
</text>
<use id="r_15_c_2_8_rep_2" style="stroke:black; stroke-width:4;" transform="translate(797 3055) rotate(30)" xlink:href="#LFO&gt;&gt;+"/>
<text id="r_15_c_2_8_rep_2_n2" style="stroke:black; fill:black; font-size:24pt;" x="848" y="3313">
LFO
</text>
<use id="r_16_c_2_28_rep_2" style="stroke:black; stroke-width:4;" transform="translate(1030 3505) rotate(280)" xlink:href="#xf-RFO+[angle=140]"/>
<text id="r_16_c_2_28_rep_2_n2" style="stroke:black; fill:black; font-size:24pt;" x="1158" y="3715">
RFO
</text>
<text id="r_16_c_2_28_rep_2_n3" style="stroke:black; fill:black; font-size:24pt;" x="1066" y="3463">
XF
</text>
<use id="r_12_c_2_28_rep_3" style="stroke:black; stroke-width:4;" transform="translate(1088 3952) rotate(60)" xlink:href="#xf-LFO+[angle=140]"/>
<text id="r_12_c_2_28_rep_3_n2" style="stroke:black; fill:black; font-size:24pt;" x="1039" y="4193">
LFO
</text>
<text id="r_12_c_2_28_rep_3_n3" style="stroke:black; fill:black; font-size:24pt;" x="1039" y="3925">
XF
</text>
<use id="r_13_c_2_10_rep_3" style="stroke:black; stroke-width:4;" transform="translate(1185 4392) rotate(280)" xlink:href="#xf-RFI&gt;-"/>
<text id="r_13_c_2_10_rep_3_n2" style="stroke:black; fill:black; font-size:24pt;" x="1308" y="4312">
RFI
</text>
<text id="r_13_c_2_10_rep_3_n3" style="stroke:black; fill:black; font-size:24pt;" x="1190" y="4441">
XF
</text>
<use id="r_14_c_2_11_rep_3" style="stroke:black; stroke-width:4;" transform="translate(1408 4255) rotate(220)" xlink:href="#wd-LFI&gt;&gt;+"/>
<text id="r_14_c_2_11_rep_3_n2" style="stroke:black; fill:black; font-size:24pt;" x="1668" y="4215">
LFI
</text>
<text id="r_14_c_2_11_rep_3_n3" style="stroke:black; fill:black; font-size:24pt;" x="1390" y="4202">
Wd
</text>
<use id="r_15_c_2_8_rep_3" style="stroke:black; stroke-width:4;" transform="translate(1891 4314) rotate(330)" xlink:href="#RFO&gt;&gt;+"/>
<text id="r_15_c_2_8_rep_3_n2" style="stroke:black; fill:black; font-size:24pt;" x="1839" y="4572">
RFO
</text>
<use id="r_16_c_2_28_rep_3" style="stroke:black; stroke-width:4;" transform="translate(1656 4764) rotate(80)" xlink:href="#xf-LFO+[angle=140]"/>
<text id="r_16_c_2_28_rep_3_n2" style="stroke:black; fill:black; font-size:24pt;" x="1527" y="4974">
LFO
</text>
<text id="r_16_c_2_28_rep_3_n3" style="stroke:black; fill:black; font-size:24pt;" x="1619" y="4722">
XF
</text>
<use id="r_19_c_0_26" style="stroke:black; stroke-width:4;" transform="translate(1596 5211) rotate(300)" xlink:href="#xf-RFO+[angle=140]"/>
<text id="r_19_c_0_26_n2" style="stroke:black; fill:black; font-size:24pt;" x="1644" y="5452">
RFO
</text>
<text id="r_19_c_0_26_n3" style="stroke:black; fill:black; font-size:24pt;" x="1644" y="5184">
XF
</text>
<use id="r_20_c_0_8" style="stroke:black; stroke-width:4;" transform="translate(1497 5651) rotate(80)" xlink:href="#xf-LFI&gt;-"/>
<text id="r_20_c_0_8_n2" style="stroke:black; fill:black; font-size:24pt;" x="1373" y="5571">
LFI
</text>
<text id="r_20_c_0_8_n3" style="stroke:black; fill:black; font-size:24pt;" x="1491" y="5700">
XF
</text>
<use id="r_21_c_0_9" style="stroke:black; stroke-width:4;" transform="translate(1272 5514) rotate(140)" xlink:href="#wd-RFI&gt;&gt;+"/>
<text id="r_21_c_0_9_n2" style="stroke:black; fill:black; font-size:24pt;" x="1011" y="5474">
RFI
</text>
<text id="r_21_c_0_9_n3" style="stroke:black; fill:black; font-size:24pt;" x="1289" y="5461">
Wd
</text>
</svg>