<svg height="6200" viewBox="-50 -50 3100 6200" width="3100" xmlns="http://www.w3.org/2000/svg" xmlns:xlink="http://www.w3.org/1999/xlink">
<title>Skills 1 Exercise 1</title>
<desc>
<text>
Skills 1 Exercise 1
</text>
</desc>
<defs>
<style>
text { text-anchor: middle } path,rect,circle { fill:none; }
</style>
<g id="Rink">
<clipPath id="clip-rink">
<rect height="6100" rx="750" ry="750" width="3000" x="0" y="0"/>
</clipPath>
<rect height="6100" rx="750" ry="750" style="text { text-anchor: middle } path,rect,circle { fill:none; } clip-path:url(#clip-rink)" width="3000" x="0" y="0"/>
<path d="M 0,3050 l 3000,0" style="stroke:red;"/>
<circle cx="1500" cy="3050" r="400" style="stroke:red;"/>
<circle cx="1500" cy="3050" r="2" style="fill: black;"/>
<path d="M 0,2250 l 3000,0" style="stroke: blue;"/>
<path d="M 0,3850 l 3000,0" style="stroke: blue;"/>
</g>
<g id="Info"/>
<g id="LF[len=500,label=&quot; &quot;,style=&quot;dashed&quot;]">
<path d="M 0,0 l 0,500" stroke-dasharray="50 30"/>
</g>
<g id="LFO--">
<path d="M 0,0 a 687,687 0 0 0 41,235"/>
</g>
<g id="RFI--[transition-label=&quot;Open Chasse&quot;]">
<path d="M 0,0 a 687,687 0 0 0 41,235"/>
</g>
<g id="LFO[angle=140,len=900]">
<path d="M 0,0 a 368,368 0 0 0 650,236"/>
</g>
<g id="RFO--">
<path d="M 0,0 a 687,687 0 0 1 -41,235"/>
</g>
<g id="LFI--[transition-label=&quot;Open Chasse&quot;]">
<path d="M 0,0 a 687,687 0 0 1 -41,235"/>
</g>
<g id="RFO[angle=140,len=900]">
<path d="M 0,0 a 368,368 0 0 1 -650,236"/>
</g>
<g id="LFO[angle=40,len=60,label=&quot; &quot;]">
<path d="M 0,0 a 85,85 0 0 0 20,55"/>
</g>
<g id="xf-RFI&gt;&gt;++">
<path d="M 0,0 a 442,442 0 0 0 594,416"/>
</g>
<g id="wd-LFI--">
<path d="M 0,0 a 687,687 0 0 1 -41,235"/>
</g>
<g id="xf-LFI&gt;&gt;++">
<path d="M 0,0 a 442,442 0 0 1 -594,416"/>
</g>
<g id="wd-RFI--">
<path d="M 0,0 a 687,687 0 0 0 41,235"/>
</g>
</defs>
<use id="r_0_c_0_4" style="stroke:black; stroke-width:4;" transform="translate(0 0) rotate(0)" xlink:href="#Rink"/>
<text id="r_1_c_0_53" style="stroke:black; fill:black; font-size: 90pt;" x="1500" y="200">
Skills 1 Exercise 1
</text>
<text id="r_4_c_0_46" style="stroke:black; fill:black; font-size:50pt;" x="1400" y="540">
SIDE 1
</text>
<use id="r_6_c_0_37" style="stroke:black; stroke-width:4;" transform="translate(1200 515) rotate(90)" xlink:href="#LF[len=500,label=&quot; &quot;,style=&quot;dashed&quot;]"/>
<use id="r_9_c_2_7" style="stroke:black; stroke-width:4;" transform="translate(700 515) rotate(90)" xlink:href="#LFO--"/>
<text id="r_9_c_2_7_n2" style="stroke:black; fill:black; font-size:24pt;" x="593" y="595">
LFO
</text>
<use id="r_10_c_2_40" style="stroke:black; stroke-width:4;" transform="translate(454 527) rotate(70)" xlink:href="#RFI--[transition-label=&quot;Open Chasse&quot;]"/>
<text id="r_10_c_2_40_n2" style="stroke:black; fill:black; font-size:24pt;" x="380" y="638">
RFI
</text>
<text id="r_10_c_2_40_n3" style="stroke:black; fill:black; font-size:24pt;" x="427" y="485">
Open Chasse
</text>
<use id="r_11_c_2_24" style="stroke:black; stroke-width:4;" transform="translate(266 667) rotate(50)" xlink:href="#LFO[angle=140,len=900]"/>
<text id="r_11_c_2_24_n2" style="stroke:black; fill:black; font-size:24pt;" x="223" y="1050">
LFO
</text>
<use id="r_9_c_2_7_rep_2" style="stroke:black; stroke-width:4;" transform="translate(503 1346) rotate(270)" xlink:href="#RFO--"/>
<text id="r_9_c_2_7_rep_2_n2" style="stroke:black; fill:black; font-size:24pt;" x="610" y="1426">
RFO
</text>
<use id="r_10_c_2_40_rep_2" style="stroke:black; stroke-width:4;" transform="translate(748 1358) rotate(290)" xlink:href="#LFI--[transition-label=&quot;Open Chasse&quot;]"/>
<text id="r_10_c_2_40_rep_2_n2" style="stroke:black; fill:black; font-size:24pt;" x="821" y="1469">
LFI
</text>
<text id="r_10_c_2_40_rep_2_n3" style="stroke:black; fill:black; font-size:24pt;" x="774" y="1316">
Open Chasse
</text>
<use id="r_11_c_2_24_rep_2" style="stroke:black; stroke-width:4;" transform="translate(934 1498) rotate(310)" xlink:href="#RFO[angle=140,len=900]"/>
<text id="r_11_c_2_24_rep_2_n2" style="stroke:black; fill:black; font-size:24pt;" x="976" y="1881">
RFO
</text>
<use id="r_9_c_2_7_rep_3" style="stroke:black; stroke-width:4;" transform="translate(696 2177) rotate(90)" xlink:href="#LFO--"/>
<text id="r_9_c_2_7_rep_3_n2" style="stroke:black; fill:black; font-size:24pt;" x="589" y="2257">
LFO
</text>
<use id="r_10_c_2_40_rep_3" style="stroke:black; stroke-width:4;" transform="translate(450 2189) rotate(70)" xlink:href="#RFI--[transition-label=&quot;Open Chasse&quot;]"/>
<text id="r_10_c_2_40_rep_3_n2" style="stroke:black; fill:black; font-size:24pt;" x="376" y="2300">
RFI
</text>
<text id="r_10_c_2_40_rep_3_n3" style="stroke:black; fill:black; font-size:24pt;" x="423" y="2147">
Open Chasse
</text>
<use id="r_11_c_2_24_rep_3" style="stroke:black; stroke-width:4;" transform="translate(262 2329) rotate(50)" xlink:href="#LFO[angle=140,len=900]"/>
<text id="r_11_c_2_24_rep_3_n2" style="stroke:black; fill:black; font-size:24pt;" x="219" y="2712">
LFO
</text>
<use id="r_9_c_2_7_rep_4" style="stroke:black; stroke-width:4;" transform="translate(499 3008) rotate(270)" xlink:href="#RFO--"/>
<text id="r_9_c_2_7_rep_4_n2" style="stroke:black; fill:black; font-size:24pt;" x="606" y="3088">
RFO
</text>
<use id="r_10_c_2_40_rep_4" style="stroke:black; stroke-width:4;" transform="translate(744 3020) rotate(290)" xlink:href="#LFI--[transition-label=&quot;Open Chasse&quot;]"/>
<text id="r_10_c_2_40_rep_4_n2" style="stroke:black; fill:black; font-size:24pt;" x="817" y="3131">
LFI
</text>
<text id="r_10_c_2_40_rep_4_n3" style="stroke:black; fill:black; font-size:24pt;" x="770" y="2978">
Open Chasse
</text>
<use id="r_11_c_2_24_rep_4" style="stroke:black; stroke-width:4;" transform="translate(930 3160) rotate(310)" xlink:href="#RFO[angle=140,len=900]"/>
<text id="r_11_c_2_24_rep_4_n2" style="stroke:black; fill:black; font-size:24pt;" x="972" y="3543">
RFO
</text>
<text id="r_14_c_0_47" style="stroke:black; fill:black; font-size:50pt;" x="1500" y="5500">
SIDE 2
</text>
<use id="r_16_c_0_37" style="stroke:black; stroke-width:4;" transform="translate(1700 5470) rotate(270)" xlink:href="#LF[len=500,label=&quot; &quot;,style=&quot;dashed&quot;]"/>
<use id="r_17_c_0_32" style="stroke:black; stroke-width:4;" transform="translate(2200 5470) rotate(270)" xlink:href="#LFO[angle=40,len=60,label=&quot; &quot;]"/>
<use id="r_20_c_2_7" style="stroke:black; stroke-width:4;" transform="translate(2255 5450) rotate(230)" xlink:href="#LFO--"/>
<text id="r_20_c_2_7_n2" style="stroke:black; fill:black; font-size:24pt;" x="2285" y="5319">
LFO
</text>
<use id="r_21_c_2_12" style="stroke:black; stroke-width:4;" transform="translate(2402 5246) rotate(210)" xlink:href="#xf-RFI&gt;&gt;++"/>
<text id="r_21_c_2_12_n2" style="stroke:black; fill:black; font-size:24pt;" x="2355" y="4868">
RFI
</text>
<text id="r_21_c_2_12_n3" style="stroke:black; fill:black; font-size:24pt;" x="2462" y="5232">
XF
</text>
<use id="r_22_c_2_10" style="stroke:black; stroke-width:4;" transform="translate(2084 4647) rotate(100)" xlink:href="#wd-LFI--"/>
<text id="r_22_c_2_10_n2" style="stroke:black; fill:black; font-size:24pt;" x="1992" y="4549">
LFI
</text>
<text id="r_22_c_2_10_n3" style="stroke:black; fill:black; font-size:24pt;" x="2064" y="4692">
Wd
</text>
<use id="r_20_c_2_7_rep_2" style="stroke:black; stroke-width:4;" transform="translate(1874 4539) rotate(120)" xlink:href="#RFO--"/>
<text id="r_20_c_2_7_rep_2_n2" style="stroke:black; fill:black; font-size:24pt;" x="1821" y="4416">
RFO
</text>
<use id="r_21_c_2_12_rep_2" style="stroke:black; stroke-width:4;" transform="translate(1691 4363) rotate(140)" xlink:href="#xf-LFI&gt;&gt;++"/>
<text id="r_21_c_2_12_rep_2_n2" style="stroke:black; fill:black; font-size:24pt;" x="1671" y="3982">
LFI
</text>
<text id="r_21_c_2_12_rep_2_n3" style="stroke:black; fill:black; font-size:24pt;" x="1628" y="4360">
XF
</text>
<use id="r_22_c_2_10_rep_2" style="stroke:black; stroke-width:4;" transform="translate(1898 3718) rotate(250)" xlink:href="#wd-RFI--"/>
<text id="r_22_c_2_10_rep_2_n2" style="stroke:black; fill:black; font-size:24pt;" x="1971" y="3606">
RFI
</text>
<text id="r_22_c_2_10_rep_2_n3" style="stroke:black; fill:black; font-size:24pt;" x="1924" y="3759">
Wd
</text>
<use id="r_20_c_2_7_rep_3" style="stroke:black; stroke-width:4;" transform="translate(2084 3576) rotate(230)" xlink:href="#LFO--"/>
<text id="r_20_c_2_7_rep_3_n2" style="stroke:black; fill:black; font-size:24pt;" x="2114" y="3445">
LFO
</text>
<use id="r_21_c_2_12_rep_3" style="stroke:black; stroke-width:4;" transform="translate(2231 3372) rotate(210)" xlink:href="#xf-RFI&gt;&gt;++"/>
<text id="r_21_c_2_12_rep_3_n2" style="stroke:black; fill:black; font-size:24pt;" x="2184" y="2994">
RFI
</text>
<text id="r_21_c_2_12_rep_3_n3" style="stroke:black; fill:black; font-size:24pt;" x="2291" y="3358">
XF
</text>
<use id="r_22_c_2_10_rep_3" style="stroke:black; stroke-width:4;" transform="translate(1913 2773) rotate(100)" xlink:href="#wd-LFI--"/>
<text id="r_22_c_2_10_rep_3_n2" style="stroke:black; fill:black; font-size:24pt;" x="1821" y="2675">
LFI
</text>
<text id="r_22_c_2_10_rep_3_n3" style="stroke:black; fill:black; font-size:24pt;" x="1893" y="2818">
Wd
</text>
<use id="r_20_c_2_7_rep_4" style="stroke:black; stroke-width:4;" transform="translate(1703 2665) rotate(120)" xlink:href="#RFO--"/>
<text id="r_20_c_2_7_rep_4_n2" style="stroke:black; fill:black; font-size:24pt;" x="1650" y="2542">
RFO
</text>
<use id="r_21_c_2_12_rep_4" style="stroke:black; stroke-width:4;" transform="translate(1520 2489) rotate(140)" xlink:href="#xf-LFI&gt;&gt;++"/>
<text id="r_21_c_2_12_rep_4_n2" style="stroke:black; fill:black; font-size:24pt;" x="1500" y="2108">
LFI
</text>
<text id="r_21_c_2_12_rep_4_n3" style="stroke:black; fill:black; font-size:24pt;" x="1457" y="2486">
XF
</text>
<use id="r_22_c_2_10_rep_4" style="stroke:black; stroke-width:4;" transform="translate(1727 1844) rotate(250)" xlink:href="#wd-RFI--"/>
<text id="r_22_c_2_10_rep_4_n2" style="stroke:black; fill:black; font-size:24pt;" x="1800" y="1732">
RFI
</text>
<text id="r_22_c_2_10_rep_4_n3" style="stroke:black; fill:black; font-size:24pt;" x="1753" y="1885">
Wd
</text>
</svg>