<svg height="6200" viewBox="-50 -50 3100 6200" width="3100" xmlns="http://www.w3.org/2000/svg" xmlns:xlink="http://www.w3.org/1999/xlink">
<!-- Rink
Title [text="Skills 6 Exercise 5",y=200,font-size=90]
Info [grid=0,markers=false,font-size=36,stroke-width=7,label-offset=-100]

Text [x=1350,y=525,text="START",font-size=50]
Warp [x=1200,y=500,dir=90,code="RFI"]
RF [len=600,label=" ",style="dashed"]

RFI [angle=180,len=900,style="dashed",label=" "]
RF [len=200,style="dashed",label=" "]

RFO3 [angle=110,len=300]
RBI-CoE [angle=60,len=400,delta-len=100,label1=" "]
RBO-ClCho [angle=80,len=380,delta-len=100,label1=" "]
RFI3 [angle=120,len=250]
xf-LBO [angle=70,len=200,transition-label="CR"]
xf-RBI [angle=60,len=350]
Shift [rotate=-65]
LFO3 [angle=120,len=400]
LBI-CoE [angle=40,len=250,delta-len=100,delta-angle=50,label1=" "]
LBO-ClCho [len=300,delta-len=400,delta-angle=50]

LFI3 [angle=140,delta-angle=20,len=300,delta-len=400] -->
<title>Skills 6 Exercise 5</title>
<desc>
<text>
Skills 6 Exercise 5
</text>
</desc>
<defs>
<style>
text { text-anchor: middle } path,rect,circle { fill:none; }
</style>
<g id="Rink">
<clipPath id="clip-rink">
<rect height="6100" rx="750" ry="750" width="3000" x="0" y="0"/>
</clipPath>
<rect height="6100" rx="750" ry="750" style="text { text-anchor: middle } path,rect,circle { fill:none; } clip-path:url(#clip-rink)" width="3000" x="0" y="0"/>
<path d="M 0,3050 l 3000,0" style="stroke:red;"/>
<circle cx="1500" cy="3050" r="400" style="stroke:red;"/>
<circle cx="1500" cy="3050" r="2" style="fill: black;"/>
<path d="M 0,2250 l 3000,0" style="stroke: blue;"/>
<path d="M 0,3850 l 3000,0" style="stroke: blue;"/>
</g>
<g id="Info[font-size=36,stroke-width=7,label-offset=-100]"/>
<g id="RF+[label=&quot; &quot;,style=&quot;dashed&quot;]">
<path d="M 0,0 l 0,600" stroke-dasharray="50 30"/>
</g>
<g id="RFI&gt;&gt;&gt;[len=900,label=&quot; &quot;,style=&quot;dashed&quot;]">
<path d="M 0,0 a 286,286 0 1 0 572,0" stroke-dasharray="50 30"/>
</g>
<g id="RF[len=200,label=&quot; &quot;,style=&quot;dashed&quot;]">
<path d="M 0,0 l 0,200" stroke-dasharray="50 30"/>
</g>
<g id="RFO3-[angle=110]_0::RFO[angle=44,len=225,label=&quot;RFO3&quot;]">
<path d="M 0,0 a 292,292 0 0 1 -82,203"/>
</g>
<g id="RFO3-[angle=110]_1::RFO[angle=66,len=75,label=&quot; &quot;]">
<path d="M 0,0 a 65,65 0 0 1 -38,59"/>
</g>
<g id="RFO3-[angle=110]_3::RBI[angle=66,len=75,label=&quot; &quot;]">
<path d="M 0,0 a 65,65 0 0 1 -38,59"/>
</g>
<g id="RFO3-[angle=110]_4::RBI[angle=44,len=225]">
<path d="M 0,0 a 292,292 0 0 1 -82,203"/>
</g>
<g id="RBI-CoE&lt;[len=400,delta-len=100,label1=&quot; &quot;]_0::RBI&gt;[len=400,label=&quot; &quot;]">
<path d="M 0,0 a 381,381 0 0 1 -190,330"/>
</g>
<g id="RBI-CoE&lt;[len=400,delta-len=100,label1=&quot; &quot;]_1::RB[len=50,label=&quot;COE&quot;]">
<path d="M 0,0 l 0,50"/>
</g>
<g id="RBI-CoE&lt;[len=400,delta-len=100,label1=&quot; &quot;]_2::RBO&gt;[len=500]">
<path d="M 0,0 a 477,477 0 0 0 238,413"/>
</g>
<g id="RBO-ClCho&lt;[len=380,delta-len=100,label1=&quot; &quot;]_0::RBO[angle=80,len=380,label=&quot; &quot;]">
<path d="M 0,0 a 272,272 0 0 0 224,268"/>
</g>
<g id="RBO-ClCho&lt;[len=380,delta-len=100,label1=&quot; &quot;]_3::LFI[angle=80,len=480]">
<path d="M 0,0 a 343,343 0 0 1 -284,338"/>
</g>
<g id="RFI3&gt;&gt;[len=250]_0::RFI[angle=48,len=187,label=&quot;RFI3&quot;]">
<path d="M 0,0 a 223,223 0 0 0 73,165"/>
</g>
<g id="RFI3&gt;&gt;[len=250]_1::RFI[angle=72,len=63,label=&quot; &quot;]">
<path d="M 0,0 a 50,50 0 0 0 34,47"/>
</g>
<g id="RFI3&gt;&gt;[len=250]_3::RBO[angle=72,len=63,label=&quot; &quot;]">
<path d="M 0,0 a 50,50 0 0 0 34,47"/>
</g>
<g id="RFI3&gt;&gt;[len=250]_4::RBO[angle=48,len=187]">
<path d="M 0,0 a 223,223 0 0 0 73,165"/>
</g>
<g id="xf-LBO[angle=70,len=200,transition-label=&quot;CR&quot;]">
<path d="M 0,0 a 163,163 0 0 1 -107,153"/>
</g>
<g id="xf-RBI&gt;[len=350]">
<path d="M 0,0 a 334,334 0 0 1 -167,289"/>
</g>
<g id="LFO3&gt;&gt;[len=400]_0::LFO-[angle=48,label=&quot;LFO3&quot;]">
<path d="M 0,0 a 358,358 0 0 0 118,266"/>
</g>
<g id="LFO3&gt;&gt;[len=400]_1::LFO---[angle=72,label=&quot; &quot;]">
<path d="M 0,0 a 79,79 0 0 0 54,75"/>
</g>
<g id="LFO3&gt;&gt;[len=400]_3::LBI---[angle=72,label=&quot; &quot;]">
<path d="M 0,0 a 79,79 0 0 0 54,75"/>
</g>
<g id="LFO3&gt;&gt;[len=400]_4::LBI-[angle=48]">
<path d="M 0,0 a 358,358 0 0 0 118,266"/>
</g>
<g id="LBI-CoE[angle=40,len=250,delta-angle=50,delta-len=100,label1=&quot; &quot;]_0::LBI[angle=40,len=250,label=&quot; &quot;]">
<path d="M 0,0 a 358,358 0 0 0 83,230"/>
</g>
<g id="LBI-CoE[angle=40,len=250,delta-angle=50,delta-len=100,label1=&quot; &quot;]_1::LB[len=50,label=&quot;COE&quot;]">
<path d="M 0,0 l 0,50"/>
</g>
<g id="LBI-CoE[angle=40,len=250,delta-angle=50,delta-len=100,label1=&quot; &quot;]_2::LBO[angle=90,len=350]">
<path d="M 0,0 a 222,222 0 0 1 -222,222"/>
</g>
<g id="LBO-ClCho-[delta-angle=50,delta-len=400]_0::LBO-[angle=90]">
<path d="M 0,0 a 190,190 0 0 1 -190,190"/>
</g>
<g id="LBO-ClCho-[delta-angle=50,delta-len=400]_3::RFI[angle=140,len=700]">
<path d="M 0,0 a 286,286 0 0 0 505,184"/>
</g>
<g id="LFI3&gt;&gt;&gt;-[delta-angle=20,delta-len=400]_0::LFI[angle=56,len=225,label=&quot;LFI3&quot;]">
<path d="M 0,0 a 230,230 0 0 1 -101,190"/>
</g>
<g id="LFI3&gt;&gt;&gt;-[delta-angle=20,delta-len=400]_1::LFI[angle=84,len=75,label=&quot; &quot;]">
<path d="M 0,0 a 51,51 0 0 1 -45,50"/>
</g>
<g id="LFI3&gt;&gt;&gt;-[delta-angle=20,delta-len=400]_3::LBO[angle=96,len=175,label=&quot; &quot;]">
<path d="M 0,0 a 104,104 0 0 1 -115,103"/>
</g>
<g id="LFI3&gt;&gt;&gt;-[delta-angle=20,delta-len=400]_4::LBO[angle=64,len=525]">
<path d="M 0,0 a 470,470 0 0 1 -263,422"/>
</g>
</defs>
<use id="r_0_c_0_4" style="stroke:black; stroke-width:4;" transform="translate(0 0) rotate(0)" xlink:href="#Rink"/>
<text id="r_1_c_0_53" style="stroke:black; fill:black; font-size: 90pt;" x="1500" y="200">
Skills 6 Exercise 5
</text>
<text id="r_4_c_0_45" style="stroke:black; fill:black; font-size:50pt;" x="1350" y="525">
START
</text>
<use id="r_6_c_0_37" style="stroke:black; stroke-width:7;" transform="translate(1200 500) rotate(90)" xlink:href="#RF+[label=&quot; &quot;,style=&quot;dashed&quot;]"/>
<use id="r_8_c_0_48" style="stroke:black; stroke-width:7;" transform="translate(600 500) rotate(90)" xlink:href="#RFI&gt;&gt;&gt;[len=900,label=&quot; &quot;,style=&quot;dashed&quot;]"/>
<use id="r_9_c_0_37" style="stroke:black; stroke-width:7;" transform="translate(600 1072) rotate(270)" xlink:href="#RF[len=200,label=&quot; &quot;,style=&quot;dashed&quot;]"/>
<use id="r_11_c_0_24" style="stroke:black; stroke-width:7;" transform="translate(800 1072) rotate(270)" xlink:href="#RFO3-[angle=110]_0::RFO[angle=44,len=225,label=&quot;RFO3&quot;]"/>
<text id="r_11_c_0_24_n2" style="stroke:black; fill:black; font-size:36pt;" x="949" y="993">
RFO3
</text>
<use id="r_11_c_0_24_n3" style="stroke:black; stroke-width:7;" transform="translate(1003 1154) rotate(314)" xlink:href="#RFO3-[angle=110]_1::RFO[angle=66,len=75,label=&quot; &quot;]"/>
<use id="r_11_c_0_24_n4" style="stroke:black; stroke-width:7;" transform="translate(1019 1222) rotate(245)" xlink:href="#RFO3-[angle=110]_3::RBI[angle=66,len=75,label=&quot; &quot;]"/>
<use id="r_11_c_0_24_n5" style="stroke:black; stroke-width:7;" transform="translate(1088 1231) rotate(311)" xlink:href="#RFO3-[angle=110]_4::RBI[angle=44,len=225]"/>
<text id="r_11_c_0_24_n6" style="stroke:black; fill:black; font-size:36pt;" x="1252" y="1269">
RBI
</text>
<use id="r_12_c_0_51" style="stroke:black; stroke-width:7;" transform="translate(1187 1426) rotate(355)" xlink:href="#RBI-CoE&lt;[len=400,delta-len=100,label1=&quot; &quot;]_0::RBI&gt;[len=400,label=&quot; &quot;]"/>
<use id="r_12_c_0_51_n2" style="stroke:black; stroke-width:7;" transform="translate(1026 1771) rotate(55)" xlink:href="#RBI-CoE&lt;[len=400,delta-len=100,label1=&quot; &quot;]_1::RB[len=50,label=&quot;COE&quot;]"/>
<text id="r_12_c_0_51_n3" style="stroke:black; fill:black; font-size:36pt;" x="1022" y="1809">
COE
</text>
<use id="r_12_c_0_51_n4" style="stroke:black; stroke-width:7;" transform="translate(985 1799) rotate(55)" xlink:href="#RBI-CoE&lt;[len=400,delta-len=100,label1=&quot; &quot;]_2::RBO&gt;[len=500]"/>
<text id="r_12_c_0_51_n5" style="stroke:black; fill:black; font-size:36pt;" x="729" y="1941">
RBO
</text>
<use id="r_13_c_0_53" style="stroke:black; stroke-width:7;" transform="translate(784 2231) rotate(355)" xlink:href="#RBO-ClCho&lt;[len=380,delta-len=100,label1=&quot; &quot;]_0::RBO[angle=80,len=380,label=&quot; &quot;]"/>
<text id="r_13_c_0_53_n2" style="stroke:black; fill:black; font-size:36pt;" x="1035" y="2418">
ClCho
</text>
<use id="r_13_c_0_53_n3" style="stroke:black; stroke-width:7;" transform="translate(1002 2445) rotate(275)" xlink:href="#RBO-ClCho&lt;[len=380,delta-len=100,label1=&quot; &quot;]_3::LFI[angle=80,len=480]"/>
<text id="r_13_c_0_53_n4" style="stroke:black; fill:black; font-size:36pt;" x="1290" y="2468">
LFI
</text>
<use id="r_14_c_0_24" style="stroke:black; stroke-width:7;" transform="translate(1283 2759) rotate(355)" xlink:href="#RFI3&gt;&gt;[len=250]_0::RFI[angle=48,len=187,label=&quot;RFI3&quot;]"/>
<text id="r_14_c_0_24_n2" style="stroke:black; fill:black; font-size:36pt;" x="1215" y="2898">
RFI3
</text>
<use id="r_14_c_0_24_n3" style="stroke:black; stroke-width:7;" transform="translate(1370 2917) rotate(307)" xlink:href="#RFI3&gt;&gt;[len=250]_1::RFI[angle=72,len=63,label=&quot; &quot;]"/>
<use id="r_14_c_0_24_n4" style="stroke:black; stroke-width:7;" transform="translate(1427 2918) rotate(10)" xlink:href="#RFI3&gt;&gt;[len=250]_3::RBO[angle=72,len=63,label=&quot; &quot;]"/>
<use id="r_14_c_0_24_n5" style="stroke:black; stroke-width:7;" transform="translate(1452 2970) rotate(298)" xlink:href="#RFI3&gt;&gt;[len=250]_4::RBO[angle=48,len=187]"/>
<text id="r_14_c_0_24_n6" style="stroke:black; fill:black; font-size:36pt;" x="1532" y="3102">
RBO
</text>
<use id="r_15_c_0_47" style="stroke:black; stroke-width:7;" transform="translate(1639 2962) rotate(250)" xlink:href="#xf-LBO[angle=70,len=200,transition-label=&quot;CR&quot;]"/>
<text id="r_15_c_0_47_n2" style="stroke:black; fill:black; font-size:36pt;" x="1763" y="2853">
LBO
</text>
<text id="r_15_c_0_47_n3" style="stroke:black; fill:black; font-size:36pt;" x="1622" y="2891">
CR
</text>
<use id="r_16_c_0_25" style="stroke:black; stroke-width:7;" transform="translate(1817 3031) rotate(320)" xlink:href="#xf-RBI&gt;[len=350]"/>
<text id="r_16_c_0_25_n2" style="stroke:black; fill:black; font-size:36pt;" x="1995" y="3168">
RBI
</text>
<text id="r_16_c_0_25_n3" style="stroke:black; fill:black; font-size:36pt;" x="1883" y="2997">
XF
</text>
<use id="r_18_c_0_24" style="stroke:black; stroke-width:7;" transform="translate(1874 3380) rotate(45)" xlink:href="#LFO3&gt;&gt;[len=400]_0::LFO-[angle=48,label=&quot;LFO3&quot;]"/>
<text id="r_18_c_0_24_n2" style="stroke:black; fill:black; font-size:36pt;" x="1692" y="3464">
LFO3
</text>
<use id="r_18_c_0_24_n3" style="stroke:black; stroke-width:7;" transform="translate(1769 3651) rotate(357)" xlink:href="#LFO3&gt;&gt;[len=400]_1::LFO---[angle=72,label=&quot; &quot;]"/>
<use id="r_18_c_0_24_n4" style="stroke:black; stroke-width:7;" transform="translate(1826 3723) rotate(60)" xlink:href="#LFO3&gt;&gt;[len=400]_3::LBI---[angle=72,label=&quot; &quot;]"/>
<use id="r_18_c_0_24_n5" style="stroke:black; stroke-width:7;" transform="translate(1788 3807) rotate(348)" xlink:href="#LFO3&gt;&gt;[len=400]_4::LBI-[angle=48]"/>
<text id="r_18_c_0_24_n6" style="stroke:black; fill:black; font-size:36pt;" x="1760" y="4005">
LBI
</text>
<use id="r_19_c_0_66" style="stroke:black; stroke-width:7;" transform="translate(1959 4041) rotate(300)" xlink:href="#LBI-CoE[angle=40,len=250,delta-angle=50,delta-len=100,label1=&quot; &quot;]_0::LBI[angle=40,len=250,label=&quot; &quot;]"/>
<use id="r_19_c_0_66_n2" style="stroke:black; stroke-width:7;" transform="translate(2199 4084) rotate(260)" xlink:href="#LBI-CoE[angle=40,len=250,delta-angle=50,delta-len=100,label1=&quot; &quot;]_1::LB[len=50,label=&quot;COE&quot;]"/>
<text id="r_19_c_0_66_n3" style="stroke:black; fill:black; font-size:36pt;" x="2218" y="4050">
COE
</text>
<use id="r_19_c_0_66_n4" style="stroke:black; stroke-width:7;" transform="translate(2248 4075) rotate(260)" xlink:href="#LBI-CoE[angle=40,len=250,delta-angle=50,delta-len=100,label1=&quot; &quot;]_2::LBO[angle=90,len=350]"/>
<text id="r_19_c_0_66_n5" style="stroke:black; fill:black; font-size:36pt;" x="2475" y="4023">
LBO
</text>
<use id="r_20_c_0_48" style="stroke:black; stroke-width:7;" transform="translate(2504 4255) rotate(350)" xlink:href="#LBO-ClCho-[delta-angle=50,delta-len=400]_0::LBO-[angle=90]"/>
<text id="r_20_c_0_48_n2" style="stroke:black; fill:black; font-size:36pt;" x="2561" y="4459">
LBO
</text>
<text id="r_20_c_0_48_n3" style="stroke:black; fill:black; font-size:36pt;" x="2338" y="4415">
ClCho
</text>
<use id="r_20_c_0_48_n4" style="stroke:black; stroke-width:7;" transform="translate(2373 4440) rotate(80)" xlink:href="#LBO-ClCho-[delta-angle=50,delta-len=400]_3::RFI[angle=140,len=700]"/>
<text id="r_20_c_0_48_n5" style="stroke:black; fill:black; font-size:36pt;" x="2035" y="4653">
RFI
</text>
<use id="r_22_c_0_53" style="stroke:black; stroke-width:7;" transform="translate(2295 4943) rotate(300)" xlink:href="#LFI3&gt;&gt;&gt;-[delta-angle=20,delta-len=400]_0::LFI[angle=56,len=225,label=&quot;LFI3&quot;]"/>
<text id="r_22_c_0_53_n2" style="stroke:black; fill:black; font-size:36pt;" x="2466" y="4962">
LFI3
</text>
<use id="r_22_c_0_53_n3" style="stroke:black; stroke-width:7;" transform="translate(2409 5125) rotate(356)" xlink:href="#LFI3&gt;&gt;&gt;-[delta-angle=20,delta-len=400]_1::LFI[angle=84,len=75,label=&quot; &quot;]"/>
<use id="r_22_c_0_53_n4" style="stroke:black; stroke-width:7;" transform="translate(2367 5178) rotate(305)" xlink:href="#LFI3&gt;&gt;&gt;-[delta-angle=20,delta-len=400]_3::LBO[angle=96,len=175,label=&quot; &quot;]"/>
<use id="r_22_c_0_53_n5" style="stroke:black; stroke-width:7;" transform="translate(2385 5331) rotate(41)" xlink:href="#LFI3&gt;&gt;&gt;-[delta-angle=20,delta-len=400]_4::LBO[angle=64,len=525]"/>
<text id="r_22_c_0_53_n6" style="stroke:black; fill:black; font-size:36pt;" x="2199" y="5575">
LBO
</text>
</svg>