<svg height="6200" viewBox="-50 -50 3100 6200" width="3100" xmlns="http://www.w3.org/2000/svg" xmlns:xlink="http://www.w3.org/1999/xlink">
<title>Skills 5 Exercise 3</title>
<desc>
<text>
Skills 5 Exercise 3
</text>
</desc>
<defs>
<style>
text { text-anchor: middle } path,rect,circle { fill:none; stroke: black; }
</style>
<g id="Rink">
<clipPath id="clip-rink">
<rect height="6100" rx="750" ry="750" width="3000" x="0" y="0"/>
</clipPath>
<rect height="6100" rx="750" ry="750" style="text { text-anchor: middle } path,rect,circle { fill:none; stroke: black; } clip-path:url(#clip-rink)" width="3000" x="0" y="0"/>
<path d="M 0,3050 l 3000,0" style="stroke:red;"/>
<circle cx="1500" cy="3050" r="400" style="stroke:red;"/>
<circle cx="1500" cy="3050" r="2" style="fill: black;"/>
<path d="M 0,2250 l 3000,0" style="stroke: blue;"/>
<path d="M 0,3850 l 3000,0" style="stroke: blue;"/>
</g>
<g id="Info"/>
<g id="RB[len=500,label=&quot; &quot;,style=&quot;dashed&quot;]">
<path d="M 0,0 l 0,500" stroke-dasharray="50 30"/>
</g>
<g id="RBO-[angle=30]">
<path d="M 0,0 a 572,572 0 0 0 76,286"/>
</g>
<g id="xf-LBI[angle=30,len=250]">
<path d="M 0,0 a 477,477 0 0 0 63,238"/>
</g>
<g id="RBO-ClMo[angle=50,len=250,delta-angle=10]_0::RBO[angle=50,len=250]">
<path d="M 0,0 a 286,286 0 0 0 102,219"/>
</g>
<g id="RBO-ClMo[angle=50,len=250,delta-angle=10]_3::LFO&gt;[len=250]">
<path d="M 0,0 a 238,238 0 0 0 119,206"/>
</g>
<g id="RFO3[len=250]_0::RFO[angle=36,len=187,label=&quot;RFO3&quot;]">
<path d="M 0,0 a 297,297 0 0 1 -56,174"/>
</g>
<g id="RFO3[len=250]_1::RFO[angle=54,len=63,label=&quot; &quot;]">
<path d="M 0,0 a 66,66 0 0 1 -27,54"/>
</g>
<g id="RFO3[len=250]_3::RBI[angle=54,len=63,label=&quot; &quot;]">
<path d="M 0,0 a 66,66 0 0 1 -27,54"/>
</g>
<g id="RFO3[len=250]_4::RBI[angle=36,len=187]">
<path d="M 0,0 a 297,297 0 0 1 -56,174"/>
</g>
<g id="LBO-[angle=30]">
<path d="M 0,0 a 572,572 0 0 1 -76,286"/>
</g>
<g id="xf-RBI[angle=30,len=250]">
<path d="M 0,0 a 477,477 0 0 1 -63,238"/>
</g>
<g id="LBO-ClMo[angle=50,len=250]_0::LBO[angle=50,len=250]">
<path d="M 0,0 a 286,286 0 0 1 -102,219"/>
</g>
<g id="LBO-ClMo[angle=50,len=250]_3::RFO[angle=50,len=250]">
<path d="M 0,0 a 286,286 0 0 1 -102,219"/>
</g>
<g id="LFO3[len=200]_0::LFO[angle=36,len=150,label=&quot;LFO3&quot;]">
<path d="M 0,0 a 238,238 0 0 0 45,140"/>
</g>
<g id="LFO3[len=200]_1::LFO[angle=54,len=50,label=&quot; &quot;]">
<path d="M 0,0 a 53,53 0 0 0 21,42"/>
</g>
<g id="LFO3[len=200]_3::LBI[angle=54,len=50,label=&quot; &quot;]">
<path d="M 0,0 a 53,53 0 0 0 21,42"/>
</g>
<g id="LFO3[len=200]_4::LBI[angle=36,len=150]">
<path d="M 0,0 a 238,238 0 0 0 45,140"/>
</g>
<g id="RBO-ClMo[angle=45,len=350,delta-len=50]_0::RBO[angle=45,len=350]">
<path d="M 0,0 a 445,445 0 0 0 130,315"/>
</g>
<g id="RBO-ClMo[angle=45,len=350,delta-len=50]_3::LFO[angle=45,len=400]">
<path d="M 0,0 a 509,509 0 0 0 149,360"/>
</g>
<g id="RFO3&gt;-_0::RFO[angle=40,len=225,label=&quot;RFO3&quot;]">
<path d="M 0,0 a 322,322 0 0 1 -75,207"/>
</g>
<g id="RFO3&gt;-_1::RFO&gt;[len=75,label=&quot; &quot;]">
<path d="M 0,0 a 71,71 0 0 1 -35,62"/>
</g>
<g id="RFO3&gt;-_3::RBI&gt;[len=75,label=&quot; &quot;]">
<path d="M 0,0 a 71,71 0 0 1 -35,62"/>
</g>
<g id="RFO3&gt;-_4::RBI[angle=40,len=225]">
<path d="M 0,0 a 322,322 0 0 1 -75,207"/>
</g>
<g id="LBO-[angle=40]">
<path d="M 0,0 a 429,429 0 0 1 -100,276"/>
</g>
<g id="xf-RBI[angle=30,len=350]">
<path d="M 0,0 a 668,668 0 0 1 -89,334"/>
</g>
<g id="LBO-ClMo&lt;&lt;&lt;-[delta-angle=-20]_0::LBO&gt;-">
<path d="M 0,0 a 286,286 0 0 1 -143,248"/>
</g>
<g id="LBO-ClMo&lt;&lt;&lt;-[delta-angle=-20]_3::RFO-[angle=40]">
<path d="M 0,0 a 429,429 0 0 1 -100,276"/>
</g>
<g id="LFO3[len=250]_0::LFO[angle=36,len=187,label=&quot;LFO3&quot;]">
<path d="M 0,0 a 297,297 0 0 0 56,174"/>
</g>
<g id="LFO3[len=250]_1::LFO[angle=54,len=63,label=&quot; &quot;]">
<path d="M 0,0 a 66,66 0 0 0 27,54"/>
</g>
<g id="LFO3[len=250]_3::LBI[angle=54,len=63,label=&quot; &quot;]">
<path d="M 0,0 a 66,66 0 0 0 27,54"/>
</g>
<g id="LFO3[len=250]_4::LBI[angle=36,len=187]">
<path d="M 0,0 a 297,297 0 0 0 56,174"/>
</g>
<g id="RF[label=&quot; &quot;,style=&quot;dashed&quot;]">
<path d="M 0,0 l 0,450" stroke-dasharray="50 30"/>
</g>
<g id="RFI[angle=90,label=&quot; &quot;,style=&quot;dashed&quot;]">
<path d="M 0,0 a 286,286 0 0 0 286,286" stroke-dasharray="50 30"/>
</g>
<g id="RFI[angle=90]">
<path d="M 0,0 a 286,286 0 0 0 286,286"/>
</g>
<g id="LBO-">
<path d="M 0,0 a 859,859 0 0 1 -51,293"/>
</g>
<g id="xf-RBI[angle=30,len=200]">
<path d="M 0,0 a 381,381 0 0 1 -51,190"/>
</g>
<g id="LBO-ClMo[angle=30,len=350]_0::LBO[angle=30,len=350]">
<path d="M 0,0 a 668,668 0 0 1 -89,334"/>
</g>
<g id="LBO-ClMo[angle=30,len=350]_3::RFO[angle=30,len=350]">
<path d="M 0,0 a 668,668 0 0 1 -89,334"/>
</g>
<g id="LFI[angle=65,len=350,transition-label=&quot;Slip Chasse&quot;]">
<path d="M 0,0 a 308,308 0 0 1 -178,279"/>
</g>
<g id="RBO-">
<path d="M 0,0 a 859,859 0 0 0 51,293"/>
</g>
<g id="xf-LBI-[angle=30]">
<path d="M 0,0 a 572,572 0 0 0 76,286"/>
</g>
<g id="RBO-ClMo[angle=30,len=350]_0::RBO[angle=30,len=350]">
<path d="M 0,0 a 668,668 0 0 0 89,334"/>
</g>
<g id="RBO-ClMo[angle=30,len=350]_3::LFO[angle=30,len=350]">
<path d="M 0,0 a 668,668 0 0 0 89,334"/>
</g>
<g id="RFI[angle=70,transition-label=&quot;Slip Chasse&quot;]">
<path d="M 0,0 a 368,368 0 0 0 242,346"/>
</g>
<g id="LBO[len=200]">
<path d="M 0,0 a 572,572 0 0 1 -34,195"/>
</g>
<g id="LBO-ClMo[angle=30,len=350,delta-len=-50]_0::LBO[angle=30,len=350]">
<path d="M 0,0 a 668,668 0 0 1 -89,334"/>
</g>
<g id="LBO-ClMo[angle=30,len=350,delta-len=-50]_3::RFO-[angle=30]">
<path d="M 0,0 a 572,572 0 0 1 -76,286"/>
</g>
<g id="xf-LBI[angle=25,len=250]">
<path d="M 0,0 a 572,572 0 0 0 53,242"/>
</g>
<g id="RBO-ClMo-[angle=25]_0::RBO-[angle=25]">
<path d="M 0,0 a 687,687 0 0 0 64,290"/>
</g>
<g id="RBO-ClMo-[angle=25]_3::LFO-[angle=25]">
<path d="M 0,0 a 687,687 0 0 0 64,290"/>
</g>
</defs>
<use id="r_0_c_0_4" style="stroke-width:4;" transform="translate(0 0) rotate(0)" xlink:href="#Rink"/>
<text style="font-size: 90pt;" x="1500" y="200">
Skills 5 Exercise 3
</text>
<text style="font-size:50pt;" x="1350" y="725">
SIDE 1
</text>
<use id="r_7_c_0_37" style="stroke-width:4;" transform="translate(1200 700) rotate(90)" xlink:href="#RB[len=500,label=&quot; &quot;,style=&quot;dashed&quot;]"/>
<use id="r_8_c_0_22" style="stroke-width:4;" transform="translate(700 700) rotate(90)" xlink:href="#RBO-[angle=30]"/>
<text style="font-size:24pt;" x="570" y="788">
RBO
</text>
<use id="r_9_c_0_25" style="stroke-width:4;" transform="translate(408 796) rotate(60)" xlink:href="#xf-LBI[angle=30,len=250]"/>
<text style="font-size:24pt;" x="359" y="922">
LBI
</text>
<text style="font-size:24pt;" x="373" y="760">
XF
</text>
<use id="r_10_c_0_42" style="stroke-width:4;" transform="translate(258 984) rotate(30)" xlink:href="#RBO-ClMo[angle=50,len=250,delta-angle=10]_0::RBO[angle=50,len=250]"/>
<text style="font-size:24pt;" x="291" y="1108">
RBO
</text>
<text style="font-size:24pt;" x="292" y="1203">
ClMo
</text>
<use id="r_10_c_0_42" style="stroke-width:4;" transform="translate(253 1185) rotate(340)" xlink:href="#RBO-ClMo[angle=50,len=250,delta-angle=10]_3::LFO&gt;[len=250]"/>
<text style="font-size:24pt;" x="369" y="1232">
LFO
</text>
<use id="r_13_c_0_14" style="stroke-width:4;" transform="translate(442 1366) rotate(260)" xlink:href="#RFO3[len=250]_0::RFO[angle=36,len=187,label=&quot;RFO3&quot;]"/>
<text style="font-size:24pt;" x="524" y="1434">
RFO3
</text>
<use id="r_13_c_0_14" style="stroke-width:4;" transform="translate(623 1390) rotate(296)" xlink:href="#RFO3[len=250]_1::RFO[angle=54,len=63,label=&quot; &quot;]"/>
<use id="r_13_c_0_14" style="stroke-width:4;" transform="translate(659 1437) rotate(215)" xlink:href="#RFO3[len=250]_3::RBI[angle=54,len=63,label=&quot; &quot;]"/>
<use id="r_13_c_0_14" style="stroke-width:4;" transform="translate(712 1408) rotate(269)" xlink:href="#RFO3[len=250]_4::RBI[angle=36,len=187]"/>
<text style="font-size:24pt;" x="782" y="1488">
RBI
</text>
<use id="r_15_c_0_22" style="stroke-width:4;" transform="translate(868 1485) rotate(305)" xlink:href="#LBO-[angle=30]"/>
<text style="font-size:24pt;" x="924" y="1631">
LBO
</text>
<use id="r_16_c_0_25" style="stroke-width:4;" transform="translate(1050 1730) rotate(335)" xlink:href="#xf-RBI[angle=30,len=250]"/>
<text style="font-size:24pt;" x="1017" y="1861">
RBI
</text>
<text style="font-size:24pt;" x="1098" y="1720">
XF
</text>
<use id="r_17_c_0_27" style="stroke-width:4;" transform="translate(1063 1969) rotate(5)" xlink:href="#LBO-ClMo[angle=50,len=250]_0::LBO[angle=50,len=250]"/>
<text style="font-size:24pt;" x="964" y="2051">
LBO
</text>
<text style="font-size:24pt;" x="907" y="2128">
ClMo
</text>
<use id="r_17_c_0_27" style="stroke-width:4;" transform="translate(949 2136) rotate(55)" xlink:href="#LBO-ClMo[angle=50,len=250]_3::RFO[angle=50,len=250]"/>
<text style="font-size:24pt;" x="822" y="2113">
RFO
</text>
<use id="r_20_c_0_14" style="stroke-width:4;" transform="translate(709 2206) rotate(95)" xlink:href="#LFO3[len=200]_0::LFO[angle=36,len=150,label=&quot;LFO3&quot;]"/>
<text style="font-size:24pt;" x="651" y="2280">
LFO3
</text>
<use id="r_20_c_0_14" style="stroke-width:4;" transform="translate(565 2238) rotate(59)" xlink:href="#LFO3[len=200]_1::LFO[angle=54,len=50,label=&quot; &quot;]"/>
<use id="r_20_c_0_14" style="stroke-width:4;" transform="translate(539 2277) rotate(140)" xlink:href="#LFO3[len=200]_3::LBI[angle=54,len=50,label=&quot; &quot;]"/>
<use id="r_20_c_0_14" style="stroke-width:4;" transform="translate(495 2258) rotate(86)" xlink:href="#LFO3[len=200]_4::LBI[angle=36,len=150]"/>
<text style="font-size:24pt;" x="449" y="2340">
LBI
</text>
<use id="r_22_c_0_22" style="stroke-width:4;" transform="translate(381 2335) rotate(50)" xlink:href="#RBO-[angle=30]"/>
<text style="font-size:24pt;" x="337" y="2485">
RBO
</text>
<use id="r_23_c_0_25" style="stroke-width:4;" transform="translate(218 2596) rotate(20)" xlink:href="#xf-LBI[angle=30,len=250]"/>
<text style="font-size:24pt;" x="261" y="2723">
LBI
</text>
<text style="font-size:24pt;" x="168" y="2590">
XF
</text>
<use id="r_24_c_0_40" style="stroke-width:4;" transform="translate(224 2835) rotate(350)" xlink:href="#RBO-ClMo[angle=45,len=350,delta-len=50]_0::RBO[angle=45,len=350]"/>
<text style="font-size:24pt;" x="346" y="2958">
RBO
</text>
<text style="font-size:24pt;" x="440" y="3072">
ClMo
</text>
<use id="r_24_c_0_40" style="stroke-width:4;" transform="translate(398 3080) rotate(305)" xlink:href="#RBO-ClMo[angle=45,len=350,delta-len=50]_3::LFO[angle=45,len=400]"/>
<text style="font-size:24pt;" x="594" y="3090">
LFO
</text>
<use id="r_27_c_0_24" style="stroke-width:4;" transform="translate(793 3189) rotate(240)" xlink:href="#RFO3&gt;-_0::RFO[angle=40,len=225,label=&quot;RFO3&quot;]"/>
<text style="font-size:24pt;" x="910" y="3220">
RFO3
</text>
<use id="r_27_c_0_24" style="stroke-width:4;" transform="translate(1009 3150) rotate(280)" xlink:href="#RFO3&gt;-_1::RFO&gt;[len=75,label=&quot; &quot;]"/>
<use id="r_27_c_0_24" style="stroke-width:4;" transform="translate(1063 3195) rotate(205)" xlink:href="#RFO3&gt;-_3::RBI&gt;[len=75,label=&quot; &quot;]"/>
<use id="r_27_c_0_24" style="stroke-width:4;" transform="translate(1120 3153) rotate(265)" xlink:href="#RFO3&gt;-_4::RBI[angle=40,len=225]"/>
<text style="font-size:24pt;" x="1213" y="3231">
RBI
</text>
<use id="r_29_c_0_22" style="stroke-width:4;" transform="translate(1314 3235) rotate(305)" xlink:href="#LBO-[angle=40]"/>
<text style="font-size:24pt;" x="1361" y="3380">
LBO
</text>
<use id="r_30_c_0_25" style="stroke-width:4;" transform="translate(1471 3493) rotate(345)" xlink:href="#xf-RBI[angle=30,len=350]"/>
<text style="font-size:24pt;" x="1423" y="3666">
RBI
</text>
<text style="font-size:24pt;" x="1521" y="3496">
XF
</text>
<use id="r_31_c_0_43" style="stroke-width:4;" transform="translate(1442 3830) rotate(15)" xlink:href="#LBO-ClMo&lt;&lt;&lt;-[delta-angle=-20]_0::LBO&gt;-"/>
<text style="font-size:24pt;" x="1317" y="3908">
LBO
</text>
<text style="font-size:24pt;" x="1223" y="3974">
ClMo
</text>
<use id="r_31_c_0_43" style="stroke-width:4;" transform="translate(1260 3995) rotate(75)" xlink:href="#LBO-ClMo&lt;&lt;&lt;-[delta-angle=-20]_3::RFO-[angle=40]"/>
<text style="font-size:24pt;" x="1118" y="3937">
RFO
</text>
<use id="r_34_c_0_14" style="stroke-width:4;" transform="translate(960 3998) rotate(105)" xlink:href="#LFO3[len=250]_0::LFO[angle=36,len=187,label=&quot;LFO3&quot;]"/>
<text style="font-size:24pt;" x="872" y="4059">
LFO3
</text>
<use id="r_34_c_0_14" style="stroke-width:4;" transform="translate(777 4007) rotate(69)" xlink:href="#LFO3[len=250]_1::LFO[angle=54,len=63,label=&quot; &quot;]"/>
<use id="r_34_c_0_14" style="stroke-width:4;" transform="translate(736 4051) rotate(150)" xlink:href="#LFO3[len=250]_3::LBI[angle=54,len=63,label=&quot; &quot;]"/>
<use id="r_34_c_0_14" style="stroke-width:4;" transform="translate(685 4017) rotate(96)" xlink:href="#LFO3[len=250]_4::LBI[angle=36,len=187]"/>
<text style="font-size:24pt;" x="607" y="4091">
LBI
</text>
<text style="font-size:50pt;" x="1750" y="5625">
SIDE 2
</text>
<use id="r_41_c_0_29" style="stroke-width:4;" transform="translate(1900 5630) rotate(270)" xlink:href="#RF[label=&quot; &quot;,style=&quot;dashed&quot;]"/>
<use id="r_42_c_0_39" style="stroke-width:4;" transform="translate(2350 5630) rotate(270)" xlink:href="#RFI[angle=90,label=&quot; &quot;,style=&quot;dashed&quot;]"/>
<use id="r_45_c_0_14" style="stroke-width:4;" transform="translate(2636 5344) rotate(180)" xlink:href="#RFI[angle=90]"/>
<text style="font-size:24pt;" x="2503" y="5192">
RFI
</text>
<text style="font-size:24pt;" x="2350" y="5008">
OpCho
</text>
<use id="r_48_c_0_13" style="stroke-width:4;" transform="translate(2350 5098) rotate(90)" xlink:href="#LBO-"/>
<text style="font-size:24pt;" x="2213" y="5015">
LBO
</text>
<use id="r_50_c_0_25" style="stroke-width:4;" transform="translate(2048 5027) rotate(110)" xlink:href="#xf-RBI[angle=30,len=200]"/>
<text style="font-size:24pt;" x="2000" y="4922">
RBI
</text>
<text style="font-size:24pt;" x="2023" y="5069">
XF
</text>
<use id="r_51_c_0_27" style="stroke-width:4;" transform="translate(1908 4894) rotate(140)" xlink:href="#LBO-ClMo[angle=30,len=350]_0::LBO[angle=30,len=350]"/>
<text style="font-size:24pt;" x="1878" y="4716">
LBO
</text>
<text style="font-size:24pt;" x="1820" y="4569">
ClMo
</text>
<use id="r_51_c_0_27" style="stroke-width:4;" transform="translate(1795 4604) rotate(170)" xlink:href="#LBO-ClMo[angle=30,len=350]_3::RFO[angle=30,len=350]"/>
<text style="font-size:24pt;" x="1857" y="4435">
RFO
</text>
<use id="r_54_c_0_53" style="stroke-width:4;" transform="translate(1796 4251) rotate(200)" xlink:href="#LFI[angle=65,len=350,transition-label=&quot;Slip Chasse&quot;]"/>
<text style="font-size:24pt;" x="1940" y="4168">
LFI
</text>
<text style="font-size:24pt;" x="1756" y="4218">
Slip Chasse
</text>
<text style="font-size:24pt;" x="2053" y="3999">
OpCho
</text>
<use id="r_57_c_0_13" style="stroke-width:4;" transform="translate(2061 4098) rotate(265)" xlink:href="#RBO-"/>
<text style="font-size:24pt;" x="2190" y="4003">
RBO
</text>
<use id="r_59_c_0_25" style="stroke-width:4;" transform="translate(2355 4001) rotate(245)" xlink:href="#xf-LBI-[angle=30]"/>
<text style="font-size:24pt;" x="2435" y="3866">
LBI
</text>
<text style="font-size:24pt;" x="2387" y="4038">
XF
</text>
<use id="r_60_c_0_27" style="stroke-width:4;" transform="translate(2557 3793) rotate(215)" xlink:href="#RBO-ClMo[angle=30,len=350]_0::RBO[angle=30,len=350]"/>
<text style="font-size:24pt;" x="2571" y="3613">
RBO
</text>
<text style="font-size:24pt;" x="2615" y="3462">
ClMo
</text>
<use id="r_60_c_0_27" style="stroke-width:4;" transform="translate(2642 3495) rotate(185)" xlink:href="#RBO-ClMo[angle=30,len=350]_3::LFO[angle=30,len=350]"/>
<text style="font-size:24pt;" x="2564" y="3332">
LFO
</text>
<use id="r_63_c_0_45" style="stroke-width:4;" transform="translate(2611 3143) rotate(155)" xlink:href="#RFI[angle=70,transition-label=&quot;Slip Chasse&quot;]"/>
<text style="font-size:24pt;" x="2426" y="3041">
RFI
</text>
<text style="font-size:24pt;" x="2645" y="3102">
Slip Chasse
</text>
<text style="font-size:24pt;" x="2240" y="2881">
OpCho
</text>
<use id="r_66_c_0_13" style="stroke-width:4;" transform="translate(2248 2970) rotate(85)" xlink:href="#LBO[len=200]"/>
<text style="font-size:24pt;" x="2154" y="2899">
LBO
</text>
<use id="r_68_c_0_25" style="stroke-width:4;" transform="translate(2039 2934) rotate(105)" xlink:href="#xf-RBI[angle=30,len=200]"/>
<text style="font-size:24pt;" x="1982" y="2834">
RBI
</text>
<text style="font-size:24pt;" x="2017" y="2978">
XF
</text>
<use id="r_69_c_0_41" style="stroke-width:4;" transform="translate(1889 2813) rotate(135)" xlink:href="#LBO-ClMo[angle=30,len=350,delta-len=-50]_0::LBO[angle=30,len=350]"/>
<text style="font-size:24pt;" x="1843" y="2639">
LBO
</text>
<text style="font-size:24pt;" x="1772" y="2497">
ClMo
</text>
<use id="r_69_c_0_41" style="stroke-width:4;" transform="translate(1751 2534) rotate(165)" xlink:href="#LBO-ClMo[angle=30,len=350,delta-len=-50]_3::RFO-[angle=30]"/>
<text style="font-size:24pt;" x="1802" y="2385">
RFO
</text>
<use id="r_72_c_0_53" style="stroke-width:4;" transform="translate(1722 2232) rotate(195)" xlink:href="#LFI[angle=65,len=350,transition-label=&quot;Slip Chasse&quot;]"/>
<text style="font-size:24pt;" x="1859" y="2137">
LFI
</text>
<text style="font-size:24pt;" x="1680" y="2203">
Slip Chasse
</text>
<text style="font-size:24pt;" x="1957" y="1958">
OpCho
</text>
<use id="r_75_c_0_13" style="stroke-width:4;" transform="translate(1973 2056) rotate(260)" xlink:href="#RBO-"/>
<text style="font-size:24pt;" x="2093" y="1950">
RBO
</text>
<use id="r_77_c_0_25" style="stroke-width:4;" transform="translate(2257 1933) rotate(240)" xlink:href="#xf-LBI[angle=25,len=250]"/>
<text style="font-size:24pt;" x="2309" y="1806">
LBI
</text>
<text style="font-size:24pt;" x="2291" y="1968">
XF
</text>
<use id="r_78_c_0_27" style="stroke-width:4;" transform="translate(2415 1748) rotate(215)" xlink:href="#RBO-ClMo-[angle=25]_0::RBO-[angle=25]"/>
<text style="font-size:24pt;" x="2420" y="1589">
RBO
</text>
<text style="font-size:24pt;" x="2468" y="1462">
ClMo
</text>
<use id="r_78_c_0_27" style="stroke-width:4;" transform="translate(2493 1497) rotate(190)" xlink:href="#RBO-ClMo-[angle=25]_3::LFO-[angle=25]"/>
<text style="font-size:24pt;" x="2431" y="1351">
LFO
</text>
</svg>