<svg height="6200" viewBox="-50 -50 3100 6200" width="3100" xmlns="http://www.w3.org/2000/svg" xmlns:xlink="http://www.w3.org/1999/xlink">
<title>Skills 3 Exercise 4</title>
<desc>
<text>
Skills 3 Exercise 4
</text>
</desc>
<defs>
<style>
text { text-anchor: middle } path,rect,circle { fill:none; stroke: black; }
</style>
<g id="Rink">
<clipPath id="clip-rink">
<rect height="6100" rx="750" ry="750" width="3000" x="0" y="0"/>
</clipPath>
<rect height="6100" rx="750" ry="750" style="text { text-anchor: middle } path,rect,circle { fill:none; stroke: black; } clip-path:url(#clip-rink)" width="3000" x="0" y="0"/>
<path d="M 0,3050 l 3000,0" style="stroke:red;"/>
<circle cx="1500" cy="3050" r="400" style="stroke:red;"/>
<circle cx="1500" cy="3050" r="2" style="fill: black;"/>
<path d="M 0,2250 l 3000,0" style="stroke: blue;"/>
<path d="M 0,3850 l 3000,0" style="stroke: blue;"/>
</g>
<g id="Info"/>
<g id="RFI-[angle=90]">
<path d="M 0,0 a 190,190 0 0 0 190,190"/>
</g>
<g id="LFI-[angle=90]">
<path d="M 0,0 a 190,190 0 0 1 -190,190"/>
</g>
<g id="RFI---[angle=45,label=&quot; &quot;]">
<path d="M 0,0 a 127,127 0 0 0 37,90"/>
</g>
<g id="RFI-Tw1[angle=110,len=40]_0::RFI[angle=44,len=30,label=&quot; &quot;]">
<path d="M 0,0 a 39,39 0 0 0 10,27"/>
</g>
<g id="RFI-Tw1[angle=110,len=40]_1::RFI[angle=66,len=10,label=&quot; &quot;]">
<path d="M 0,0 a 8,8 0 0 0 5,7"/>
</g>
<g id="RFI-Tw1[angle=110,len=40]_3::RBO[angle=66,len=10,label=&quot; &quot;]">
<path d="M 0,0 a 8,8 0 0 0 5,7"/>
</g>
<g id="RFI-Tw1[angle=110,len=40]_4::RBO[angle=44,len=30,label=&quot; &quot;]">
<path d="M 0,0 a 39,39 0 0 0 10,27"/>
</g>
<g id="RFI-Tw1[angle=110,len=40]_6::RBO[angle=44,len=30,label=&quot; &quot;]">
<path d="M 0,0 a 39,39 0 0 0 10,27"/>
</g>
<g id="RFI-Tw1[angle=110,len=40]_7::RBO[angle=66,len=10,label=&quot; &quot;]">
<path d="M 0,0 a 8,8 0 0 0 5,7"/>
</g>
<g id="RFI-Tw1[angle=110,len=40]_9::RFI[angle=66,len=10,label=&quot; &quot;]">
<path d="M 0,0 a 8,8 0 0 0 5,7"/>
</g>
<g id="RFI-Tw1[angle=110,len=40]_10::RFI[angle=44,len=30,label=&quot; &quot;]">
<path d="M 0,0 a 39,39 0 0 0 10,27"/>
</g>
<g id="LFI---[angle=45,label=&quot; &quot;]">
<path d="M 0,0 a 127,127 0 0 1 -37,90"/>
</g>
<g id="LFI-Tw1[angle=110,len=40]_0::LFI[angle=44,len=30,label=&quot; &quot;]">
<path d="M 0,0 a 39,39 0 0 1 -10,27"/>
</g>
<g id="LFI-Tw1[angle=110,len=40]_1::LFI[angle=66,len=10,label=&quot; &quot;]">
<path d="M 0,0 a 8,8 0 0 1 -5,7"/>
</g>
<g id="LFI-Tw1[angle=110,len=40]_3::LBO[angle=66,len=10,label=&quot; &quot;]">
<path d="M 0,0 a 8,8 0 0 1 -5,7"/>
</g>
<g id="LFI-Tw1[angle=110,len=40]_4::LBO[angle=44,len=30,label=&quot; &quot;]">
<path d="M 0,0 a 39,39 0 0 1 -10,27"/>
</g>
<g id="LFI-Tw1[angle=110,len=40]_6::LBO[angle=44,len=30,label=&quot; &quot;]">
<path d="M 0,0 a 39,39 0 0 1 -10,27"/>
</g>
<g id="LFI-Tw1[angle=110,len=40]_7::LBO[angle=66,len=10,label=&quot; &quot;]">
<path d="M 0,0 a 8,8 0 0 1 -5,7"/>
</g>
<g id="LFI-Tw1[angle=110,len=40]_9::LFI[angle=66,len=10,label=&quot; &quot;]">
<path d="M 0,0 a 8,8 0 0 1 -5,7"/>
</g>
<g id="LFI-Tw1[angle=110,len=40]_10::LFI[angle=44,len=30,label=&quot; &quot;]">
<path d="M 0,0 a 39,39 0 0 1 -10,27"/>
</g>
</defs>
<use id="r_0_c_0_4" style="stroke-width:4;" transform="translate(0 0) rotate(0)" xlink:href="#Rink"/>
<text style="font-size: 90pt;" x="1500" y="200">
Skills 3 Exercise 4
</text>
<text style="font-size:50pt;" x="1450" y="1200">
START
</text>
<use id="r_7_c_0_22" style="stroke-width:4;" transform="translate(1450 1400) rotate(45)" xlink:href="#RFI-[angle=90]"/>
<text style="font-size:24pt;" x="1464" y="1534">
RFI
</text>
<use id="r_8_c_0_22" style="stroke-width:4;" transform="translate(1471 1646) rotate(315)" xlink:href="#LFI-[angle=90]"/>
<text style="font-size:24pt;" x="1456" y="1780">
LFI
</text>
<use id="r_10_c_0_32" style="stroke-width:4;" transform="translate(1449 1892) rotate(45)" xlink:href="#RFI---[angle=45,label=&quot; &quot;]"/>
<use id="r_11_c_0_39" style="stroke-width:4;" transform="translate(1411 1981) rotate(0)" xlink:href="#RFI-Tw1[angle=110,len=40]_0::RFI[angle=44,len=30,label=&quot; &quot;]"/>
<use id="r_11_c_0_39" style="stroke-width:4;" transform="translate(1421 2008) rotate(316)" xlink:href="#RFI-Tw1[angle=110,len=40]_1::RFI[angle=66,len=10,label=&quot; &quot;]"/>
<use id="r_11_c_0_39" style="stroke-width:4;" transform="translate(1429 2009) rotate(110)" xlink:href="#RFI-Tw1[angle=110,len=40]_3::RBO[angle=66,len=10,label=&quot; &quot;]"/>
<use id="r_11_c_0_39" style="stroke-width:4;" transform="translate(1420 2011) rotate(44)" xlink:href="#RFI-Tw1[angle=110,len=40]_4::RBO[angle=44,len=30,label=&quot; &quot;]"/>
<text style="font-size:24pt;" x="1508" y="2037">
RFI-Tw1
</text>
<use id="r_11_c_0_39" style="stroke-width:4;" transform="translate(1408 2037) rotate(0)" xlink:href="#RFI-Tw1[angle=110,len=40]_6::RBO[angle=44,len=30,label=&quot; &quot;]"/>
<use id="r_11_c_0_39" style="stroke-width:4;" transform="translate(1418 2064) rotate(316)" xlink:href="#RFI-Tw1[angle=110,len=40]_7::RBO[angle=66,len=10,label=&quot; &quot;]"/>
<use id="r_11_c_0_39" style="stroke-width:4;" transform="translate(1426 2065) rotate(110)" xlink:href="#RFI-Tw1[angle=110,len=40]_9::RFI[angle=66,len=10,label=&quot; &quot;]"/>
<use id="r_11_c_0_39" style="stroke-width:4;" transform="translate(1417 2067) rotate(44)" xlink:href="#RFI-Tw1[angle=110,len=40]_10::RFI[angle=44,len=30,label=&quot; &quot;]"/>
<use id="r_12_c_0_32" style="stroke-width:4;" transform="translate(1407 2093) rotate(0)" xlink:href="#RFI---[angle=45,label=&quot; &quot;]"/>
<use id="r_14_c_0_22" style="stroke-width:4;" transform="translate(1465 2161) rotate(315)" xlink:href="#LFI-[angle=90]"/>
<text style="font-size:24pt;" x="1450" y="2295">
LFI
</text>
<use id="r_15_c_0_22" style="stroke-width:4;" transform="translate(1443 2407) rotate(45)" xlink:href="#RFI-[angle=90]"/>
<text style="font-size:24pt;" x="1457" y="2541">
RFI
</text>
<use id="r_17_c_0_32" style="stroke-width:4;" transform="translate(1464 2653) rotate(315)" xlink:href="#LFI---[angle=45,label=&quot; &quot;]"/>
<use id="r_18_c_0_39" style="stroke-width:4;" transform="translate(1501 2742) rotate(0)" xlink:href="#LFI-Tw1[angle=110,len=40]_0::LFI[angle=44,len=30,label=&quot; &quot;]"/>
<use id="r_18_c_0_39" style="stroke-width:4;" transform="translate(1491 2769) rotate(44)" xlink:href="#LFI-Tw1[angle=110,len=40]_1::LFI[angle=66,len=10,label=&quot; &quot;]"/>
<use id="r_18_c_0_39" style="stroke-width:4;" transform="translate(1482 2770) rotate(250)" xlink:href="#LFI-Tw1[angle=110,len=40]_3::LBO[angle=66,len=10,label=&quot; &quot;]"/>
<use id="r_18_c_0_39" style="stroke-width:4;" transform="translate(1490 2772) rotate(316)" xlink:href="#LFI-Tw1[angle=110,len=40]_4::LBO[angle=44,len=30,label=&quot; &quot;]"/>
<text style="font-size:24pt;" x="1601" y="2798">
LFI-Tw1
</text>
<use id="r_18_c_0_39" style="stroke-width:4;" transform="translate(1501 2798) rotate(0)" xlink:href="#LFI-Tw1[angle=110,len=40]_6::LBO[angle=44,len=30,label=&quot; &quot;]"/>
<use id="r_18_c_0_39" style="stroke-width:4;" transform="translate(1491 2825) rotate(44)" xlink:href="#LFI-Tw1[angle=110,len=40]_7::LBO[angle=66,len=10,label=&quot; &quot;]"/>
<use id="r_18_c_0_39" style="stroke-width:4;" transform="translate(1482 2826) rotate(250)" xlink:href="#LFI-Tw1[angle=110,len=40]_9::LFI[angle=66,len=10,label=&quot; &quot;]"/>
<use id="r_18_c_0_39" style="stroke-width:4;" transform="translate(1490 2828) rotate(316)" xlink:href="#LFI-Tw1[angle=110,len=40]_10::LFI[angle=44,len=30,label=&quot; &quot;]"/>
<use id="r_19_c_0_32" style="stroke-width:4;" transform="translate(1505 2854) rotate(0)" xlink:href="#LFI---[angle=45,label=&quot; &quot;]"/>
<use id="r_21_c_0_22" style="stroke-width:4;" transform="translate(1446 2922) rotate(45)" xlink:href="#RFI-[angle=90]"/>
<text style="font-size:24pt;" x="1460" y="3056">
RFI
</text>
<use id="r_22_c_0_22" style="stroke-width:4;" transform="translate(1467 3168) rotate(315)" xlink:href="#LFI-[angle=90]"/>
<text style="font-size:24pt;" x="1452" y="3302">
LFI
</text>
<use id="r_24_c_0_32" style="stroke-width:4;" transform="translate(1445 3414) rotate(45)" xlink:href="#RFI---[angle=45,label=&quot; &quot;]"/>
<use id="r_25_c_0_39" style="stroke-width:4;" transform="translate(1407 3503) rotate(0)" xlink:href="#RFI-Tw1[angle=110,len=40]_0::RFI[angle=44,len=30,label=&quot; &quot;]"/>
<use id="r_25_c_0_39" style="stroke-width:4;" transform="translate(1417 3530) rotate(316)" xlink:href="#RFI-Tw1[angle=110,len=40]_1::RFI[angle=66,len=10,label=&quot; &quot;]"/>
<use id="r_25_c_0_39" style="stroke-width:4;" transform="translate(1425 3531) rotate(110)" xlink:href="#RFI-Tw1[angle=110,len=40]_3::RBO[angle=66,len=10,label=&quot; &quot;]"/>
<use id="r_25_c_0_39" style="stroke-width:4;" transform="translate(1416 3533) rotate(44)" xlink:href="#RFI-Tw1[angle=110,len=40]_4::RBO[angle=44,len=30,label=&quot; &quot;]"/>
<text style="font-size:24pt;" x="1504" y="3559">
RFI-Tw1
</text>
<use id="r_25_c_0_39" style="stroke-width:4;" transform="translate(1404 3559) rotate(0)" xlink:href="#RFI-Tw1[angle=110,len=40]_6::RBO[angle=44,len=30,label=&quot; &quot;]"/>
<use id="r_25_c_0_39" style="stroke-width:4;" transform="translate(1414 3586) rotate(316)" xlink:href="#RFI-Tw1[angle=110,len=40]_7::RBO[angle=66,len=10,label=&quot; &quot;]"/>
<use id="r_25_c_0_39" style="stroke-width:4;" transform="translate(1422 3587) rotate(110)" xlink:href="#RFI-Tw1[angle=110,len=40]_9::RFI[angle=66,len=10,label=&quot; &quot;]"/>
<use id="r_25_c_0_39" style="stroke-width:4;" transform="translate(1413 3589) rotate(44)" xlink:href="#RFI-Tw1[angle=110,len=40]_10::RFI[angle=44,len=30,label=&quot; &quot;]"/>
<use id="r_26_c_0_32" style="stroke-width:4;" transform="translate(1403 3615) rotate(0)" xlink:href="#RFI---[angle=45,label=&quot; &quot;]"/>
<use id="r_28_c_0_22" style="stroke-width:4;" transform="translate(1461 3683) rotate(315)" xlink:href="#LFI-[angle=90]"/>
<text style="font-size:24pt;" x="1446" y="3817">
LFI
</text>
<use id="r_29_c_0_22" style="stroke-width:4;" transform="translate(1439 3929) rotate(45)" xlink:href="#RFI-[angle=90]"/>
<text style="font-size:24pt;" x="1453" y="4063">
RFI
</text>
<use id="r_31_c_0_32" style="stroke-width:4;" transform="translate(1460 4175) rotate(315)" xlink:href="#LFI---[angle=45,label=&quot; &quot;]"/>
<use id="r_32_c_0_39" style="stroke-width:4;" transform="translate(1497 4264) rotate(0)" xlink:href="#LFI-Tw1[angle=110,len=40]_0::LFI[angle=44,len=30,label=&quot; &quot;]"/>
<use id="r_32_c_0_39" style="stroke-width:4;" transform="translate(1487 4291) rotate(44)" xlink:href="#LFI-Tw1[angle=110,len=40]_1::LFI[angle=66,len=10,label=&quot; &quot;]"/>
<use id="r_32_c_0_39" style="stroke-width:4;" transform="translate(1478 4292) rotate(250)" xlink:href="#LFI-Tw1[angle=110,len=40]_3::LBO[angle=66,len=10,label=&quot; &quot;]"/>
<use id="r_32_c_0_39" style="stroke-width:4;" transform="translate(1486 4294) rotate(316)" xlink:href="#LFI-Tw1[angle=110,len=40]_4::LBO[angle=44,len=30,label=&quot; &quot;]"/>
<text style="font-size:24pt;" x="1597" y="4320">
LFI-Tw1
</text>
<use id="r_32_c_0_39" style="stroke-width:4;" transform="translate(1497 4320) rotate(0)" xlink:href="#LFI-Tw1[angle=110,len=40]_6::LBO[angle=44,len=30,label=&quot; &quot;]"/>
<use id="r_32_c_0_39" style="stroke-width:4;" transform="translate(1487 4347) rotate(44)" xlink:href="#LFI-Tw1[angle=110,len=40]_7::LBO[angle=66,len=10,label=&quot; &quot;]"/>
<use id="r_32_c_0_39" style="stroke-width:4;" transform="translate(1478 4348) rotate(250)" xlink:href="#LFI-Tw1[angle=110,len=40]_9::LFI[angle=66,len=10,label=&quot; &quot;]"/>
<use id="r_32_c_0_39" style="stroke-width:4;" transform="translate(1486 4350) rotate(316)" xlink:href="#LFI-Tw1[angle=110,len=40]_10::LFI[angle=44,len=30,label=&quot; &quot;]"/>
<use id="r_33_c_0_32" style="stroke-width:4;" transform="translate(1501 4376) rotate(0)" xlink:href="#LFI---[angle=45,label=&quot; &quot;]"/>
</svg>