<svg height="6200" viewBox="-50 -50 3100 6200" width="3100" xmlns="http://www.w3.org/2000/svg" xmlns:xlink="http://www.w3.org/1999/xlink">
<!-- Rink
Title [text="Skills 1 Exercise 1",y=200,font-size=90]
Info [grid=0,markers=false]

Text [x=1400,y=540,text="SIDE 1",font-size=50]
Warp [x=1200,y=500,dir=90]
LF [len=500,label=" ",style="dashed"]

|:
  BFL [angle=180,len=420]
  BFR [angle=180,len=420]
  RFI [angle=180,len=420]
  RFO [angle=180,len=420]
  RFI [angle=180,len=420]
!|x4

Text [x=1500,y=5500,text="SIDE 2",font-size=50]
Warp [x=1700,y=5500,dir=90]
LB [len=500,label=" ",style="dashed"]

|:
  BBL [angle=180,len=500]
  BBR [angle=180,len=500]
:| x7
 -->
<title>Skills 1 Exercise 1</title>
<desc>
<text>
Skills 1 Exercise 1
</text>
</desc>
<defs>
<style>
text { text-anchor: middle } path { fill:none; } rect { fill:none; } circle { fill:none; }
</style>
<g id="Rink">
<clipPath id="clip-rink">
<rect height="6100" rx="750" ry="750" width="3000" x="0" y="0"/>
</clipPath>
<rect height="6100" rx="750" ry="750" style="text { text-anchor: middle } path { fill:none; } rect { fill:none; } circle { fill:none; } clip-path:url(#clip-rink)" width="3000" x="0" y="0"/>
<path d="M 0,3050 l 3000,0" style="stroke:red;"/>
<circle cx="1500" cy="3050" r="400" style="stroke:red;"/>
<circle cx="1500" cy="3050" r="2" style="fill: black;"/>
<path d="M 0,2250 l 3000,0" style="stroke: blue;"/>
<path d="M 0,3850 l 3000,0" style="stroke: blue;"/>
</g>
<g id="Info"/>
<g id="LF[len=500,label=&quot; &quot;,style=&quot;dashed&quot;]">
<path d="M 0,0 l 0,500" stroke-dasharray="50 30"/>
</g>
<g id="BFL&gt;&gt;&gt;[len=420]">
<path d="M -15,0 A 148,148 0 1 0 282,0 M 15,0 A 118,118 0 1 0 252,0"/>
</g>
<g id="BFR&gt;&gt;&gt;[len=420]">
<path d="M -15,0 A 118,118 0 1 1 -252,0 M 15,0 A 148,148 0 1 1 -282,0"/>
</g>
<g id="RFI&gt;&gt;&gt;[len=420]">
<path d="M 0,0 a 133,133 0 1 0 267,0"/>
</g>
<g id="RFO&gt;&gt;&gt;[len=420]">
<path d="M 0,0 a 133,133 0 1 1 -267,0"/>
</g>
<g id="LFI&gt;&gt;&gt;[len=420]">
<path d="M 0,0 a 133,133 0 1 1 -267,0"/>
</g>
<g id="LFO&gt;&gt;&gt;[len=420]">
<path d="M 0,0 a 133,133 0 1 0 267,0"/>
</g>
<g id="LB[len=500,label=&quot; &quot;,style=&quot;dashed&quot;]">
<path d="M 0,0 l 0,500" stroke-dasharray="50 30"/>
</g>
<g id="BBL&gt;&gt;&gt;[len=500]">
<path d="M -15,0 A 174,174 0 1 0 333,0 M 15,0 A 144,144 0 1 0 303,0"/>
</g>
<g id="BBR&gt;&gt;&gt;[len=500]">
<path d="M -15,0 A 144,144 0 1 1 -303,0 M 15,0 A 174,174 0 1 1 -333,0"/>
</g>
</defs>
<use id="r_0_c_0_4" style="stroke:black; stroke-width:4;" transform="translate(0 0) rotate(0)" xlink:href="#Rink"/>
<text id="r_1_c_0_53" style="stroke:black; fill:black; font-size: 90pt;" x="1500" y="200">
Skills 1 Exercise 1
</text>
<text id="r_4_c_0_46" style="stroke:black; fill:black; font-size:50pt;" x="1400" y="540">
SIDE 1
</text>
<use id="r_6_c_0_37" style="stroke:black; stroke-width:4;" transform="translate(1200 515) rotate(90)" xlink:href="#LF[len=500,label=&quot; &quot;,style=&quot;dashed&quot;]"/>
<use id="r_9_c_2_25" style="stroke:black; stroke-width:4;" transform="translate(700 500) rotate(90)" xlink:href="#BFL&gt;&gt;&gt;[len=420]"/>
<text id="r_9_c_2_25_n2" style="stroke:black; fill:black; font-size:24pt;" x="663" y="633">
LFO
</text>
<text id="r_9_c_2_25_n3" style="stroke:black; fill:black; font-size:24pt;" x="471" y="633">
RFI
</text>
<use id="r_10_c_2_25" style="stroke:black; stroke-width:4;" transform="translate(700 767) rotate(270)" xlink:href="#BFR&gt;&gt;&gt;[len=420]"/>
<text id="r_10_c_2_25_n2" style="stroke:black; fill:black; font-size:24pt;" x="929" y="900">
LFI
</text>
<text id="r_10_c_2_25_n3" style="stroke:black; fill:black; font-size:24pt;" x="737" y="900">
RFO
</text>
<use id="r_11_c_2_25" style="stroke:black; stroke-width:4;" transform="translate(700 1019) rotate(90)" xlink:href="#RFI&gt;&gt;&gt;[len=420]"/>
<text id="r_11_c_2_25_n2" style="stroke:black; fill:black; font-size:24pt;" x="639" y="1152">
RFI
</text>
<use id="r_12_c_2_25" style="stroke:black; stroke-width:4;" transform="translate(700 1286) rotate(270)" xlink:href="#RFO&gt;&gt;&gt;[len=420]"/>
<text id="r_12_c_2_25_n2" style="stroke:black; fill:black; font-size:24pt;" x="761" y="1419">
RFO
</text>
<use id="r_13_c_2_25" style="stroke:black; stroke-width:4;" transform="translate(700 1553) rotate(90)" xlink:href="#RFI&gt;&gt;&gt;[len=420]"/>
<text id="r_13_c_2_25_n2" style="stroke:black; fill:black; font-size:24pt;" x="639" y="1686">
RFI
</text>
<use id="r_9_c_2_25_rep_2" style="stroke:black; stroke-width:4;" transform="translate(700 1805) rotate(270)" xlink:href="#BFR&gt;&gt;&gt;[len=420]"/>
<text id="r_9_c_2_25_rep_2_n2" style="stroke:black; fill:black; font-size:24pt;" x="929" y="1938">
LFI
</text>
<text id="r_9_c_2_25_rep_2_n3" style="stroke:black; fill:black; font-size:24pt;" x="737" y="1938">
RFO
</text>
<use id="r_10_c_2_25_rep_2" style="stroke:black; stroke-width:4;" transform="translate(700 2072) rotate(90)" xlink:href="#BFL&gt;&gt;&gt;[len=420]"/>
<text id="r_10_c_2_25_rep_2_n2" style="stroke:black; fill:black; font-size:24pt;" x="663" y="2205">
LFO
</text>
<text id="r_10_c_2_25_rep_2_n3" style="stroke:black; fill:black; font-size:24pt;" x="471" y="2205">
RFI
</text>
<use id="r_11_c_2_25_rep_2" style="stroke:black; stroke-width:4;" transform="translate(700 2324) rotate(270)" xlink:href="#LFI&gt;&gt;&gt;[len=420]"/>
<text id="r_11_c_2_25_rep_2_n2" style="stroke:black; fill:black; font-size:24pt;" x="761" y="2457">
LFI
</text>
<use id="r_12_c_2_25_rep_2" style="stroke:black; stroke-width:4;" transform="translate(700 2591) rotate(90)" xlink:href="#LFO&gt;&gt;&gt;[len=420]"/>
<text id="r_12_c_2_25_rep_2_n2" style="stroke:black; fill:black; font-size:24pt;" x="639" y="2724">
LFO
</text>
<use id="r_13_c_2_25_rep_2" style="stroke:black; stroke-width:4;" transform="translate(700 2858) rotate(270)" xlink:href="#LFI&gt;&gt;&gt;[len=420]"/>
<text id="r_13_c_2_25_rep_2_n2" style="stroke:black; fill:black; font-size:24pt;" x="761" y="2991">
LFI
</text>
<use id="r_9_c_2_25_rep_3" style="stroke:black; stroke-width:4;" transform="translate(700 3110) rotate(90)" xlink:href="#BFL&gt;&gt;&gt;[len=420]"/>
<text id="r_9_c_2_25_rep_3_n2" style="stroke:black; fill:black; font-size:24pt;" x="663" y="3243">
LFO
</text>
<text id="r_9_c_2_25_rep_3_n3" style="stroke:black; fill:black; font-size:24pt;" x="471" y="3243">
RFI
</text>
<use id="r_10_c_2_25_rep_3" style="stroke:black; stroke-width:4;" transform="translate(700 3377) rotate(270)" xlink:href="#BFR&gt;&gt;&gt;[len=420]"/>
<text id="r_10_c_2_25_rep_3_n2" style="stroke:black; fill:black; font-size:24pt;" x="929" y="3510">
LFI
</text>
<text id="r_10_c_2_25_rep_3_n3" style="stroke:black; fill:black; font-size:24pt;" x="737" y="3510">
RFO
</text>
<use id="r_11_c_2_25_rep_3" style="stroke:black; stroke-width:4;" transform="translate(700 3629) rotate(90)" xlink:href="#RFI&gt;&gt;&gt;[len=420]"/>
<text id="r_11_c_2_25_rep_3_n2" style="stroke:black; fill:black; font-size:24pt;" x="639" y="3762">
RFI
</text>
<use id="r_12_c_2_25_rep_3" style="stroke:black; stroke-width:4;" transform="translate(700 3896) rotate(270)" xlink:href="#RFO&gt;&gt;&gt;[len=420]"/>
<text id="r_12_c_2_25_rep_3_n2" style="stroke:black; fill:black; font-size:24pt;" x="761" y="4029">
RFO
</text>
<use id="r_13_c_2_25_rep_3" style="stroke:black; stroke-width:4;" transform="translate(700 4163) rotate(90)" xlink:href="#RFI&gt;&gt;&gt;[len=420]"/>
<text id="r_13_c_2_25_rep_3_n2" style="stroke:black; fill:black; font-size:24pt;" x="639" y="4296">
RFI
</text>
<use id="r_9_c_2_25_rep_4" style="stroke:black; stroke-width:4;" transform="translate(700 4415) rotate(270)" xlink:href="#BFR&gt;&gt;&gt;[len=420]"/>
<text id="r_9_c_2_25_rep_4_n2" style="stroke:black; fill:black; font-size:24pt;" x="929" y="4548">
LFI
</text>
<text id="r_9_c_2_25_rep_4_n3" style="stroke:black; fill:black; font-size:24pt;" x="737" y="4548">
RFO
</text>
<use id="r_10_c_2_25_rep_4" style="stroke:black; stroke-width:4;" transform="translate(700 4682) rotate(90)" xlink:href="#BFL&gt;&gt;&gt;[len=420]"/>
<text id="r_10_c_2_25_rep_4_n2" style="stroke:black; fill:black; font-size:24pt;" x="663" y="4815">
LFO
</text>
<text id="r_10_c_2_25_rep_4_n3" style="stroke:black; fill:black; font-size:24pt;" x="471" y="4815">
RFI
</text>
<use id="r_11_c_2_25_rep_4" style="stroke:black; stroke-width:4;" transform="translate(700 4934) rotate(270)" xlink:href="#LFI&gt;&gt;&gt;[len=420]"/>
<text id="r_11_c_2_25_rep_4_n2" style="stroke:black; fill:black; font-size:24pt;" x="761" y="5067">
LFI
</text>
<use id="r_12_c_2_25_rep_4" style="stroke:black; stroke-width:4;" transform="translate(700 5201) rotate(90)" xlink:href="#LFO&gt;&gt;&gt;[len=420]"/>
<text id="r_12_c_2_25_rep_4_n2" style="stroke:black; fill:black; font-size:24pt;" x="639" y="5334">
LFO
</text>
<use id="r_13_c_2_25_rep_4" style="stroke:black; stroke-width:4;" transform="translate(700 5468) rotate(270)" xlink:href="#LFI&gt;&gt;&gt;[len=420]"/>
<text id="r_13_c_2_25_rep_4_n2" style="stroke:black; fill:black; font-size:24pt;" x="761" y="5601">
LFI
</text>
<text id="r_16_c_0_47" style="stroke:black; fill:black; font-size:50pt;" x="1500" y="5500">
SIDE 2
</text>
<use id="r_18_c_0_37" style="stroke:black; stroke-width:4;" transform="translate(1700 5500) rotate(270)" xlink:href="#LB[len=500,label=&quot; &quot;,style=&quot;dashed&quot;]"/>
<use id="r_21_c_2_25" style="stroke:black; stroke-width:4;" transform="translate(2200 5485) rotate(270)" xlink:href="#BBL&gt;&gt;&gt;[len=500]"/>
<text id="r_21_c_2_25_n2" style="stroke:black; fill:black; font-size:24pt;" x="2455" y="5326">
LBI
</text>
<text id="r_21_c_2_25_n3" style="stroke:black; fill:black; font-size:24pt;" x="2263" y="5326">
RBO
</text>
<use id="r_22_c_2_25" style="stroke:black; stroke-width:4;" transform="translate(2200 5167) rotate(90)" xlink:href="#BBR&gt;&gt;&gt;[len=500]"/>
<text id="r_22_c_2_25_n2" style="stroke:black; fill:black; font-size:24pt;" x="2137" y="5008">
LBO
</text>
<text id="r_22_c_2_25_n3" style="stroke:black; fill:black; font-size:24pt;" x="1945" y="5008">
RBI
</text>
<use id="r_21_c_2_25_rep_2" style="stroke:black; stroke-width:4;" transform="translate(2200 4849) rotate(270)" xlink:href="#BBL&gt;&gt;&gt;[len=500]"/>
<text id="r_21_c_2_25_rep_2_n2" style="stroke:black; fill:black; font-size:24pt;" x="2455" y="4690">
LBI
</text>
<text id="r_21_c_2_25_rep_2_n3" style="stroke:black; fill:black; font-size:24pt;" x="2263" y="4690">
RBO
</text>
<use id="r_22_c_2_25_rep_2" style="stroke:black; stroke-width:4;" transform="translate(2200 4531) rotate(90)" xlink:href="#BBR&gt;&gt;&gt;[len=500]"/>
<text id="r_22_c_2_25_rep_2_n2" style="stroke:black; fill:black; font-size:24pt;" x="2137" y="4372">
LBO
</text>
<text id="r_22_c_2_25_rep_2_n3" style="stroke:black; fill:black; font-size:24pt;" x="1945" y="4372">
RBI
</text>
<use id="r_21_c_2_25_rep_3" style="stroke:black; stroke-width:4;" transform="translate(2200 4213) rotate(270)" xlink:href="#BBL&gt;&gt;&gt;[len=500]"/>
<text id="r_21_c_2_25_rep_3_n2" style="stroke:black; fill:black; font-size:24pt;" x="2455" y="4054">
LBI
</text>
<text id="r_21_c_2_25_rep_3_n3" style="stroke:black; fill:black; font-size:24pt;" x="2263" y="4054">
RBO
</text>
<use id="r_22_c_2_25_rep_3" style="stroke:black; stroke-width:4;" transform="translate(2200 3895) rotate(90)" xlink:href="#BBR&gt;&gt;&gt;[len=500]"/>
<text id="r_22_c_2_25_rep_3_n2" style="stroke:black; fill:black; font-size:24pt;" x="2137" y="3736">
LBO
</text>
<text id="r_22_c_2_25_rep_3_n3" style="stroke:black; fill:black; font-size:24pt;" x="1945" y="3736">
RBI
</text>
<use id="r_21_c_2_25_rep_4" style="stroke:black; stroke-width:4;" transform="translate(2200 3577) rotate(270)" xlink:href="#BBL&gt;&gt;&gt;[len=500]"/>
<text id="r_21_c_2_25_rep_4_n2" style="stroke:black; fill:black; font-size:24pt;" x="2455" y="3418">
LBI
</text>
<text id="r_21_c_2_25_rep_4_n3" style="stroke:black; fill:black; font-size:24pt;" x="2263" y="3418">
RBO
</text>
<use id="r_22_c_2_25_rep_4" style="stroke:black; stroke-width:4;" transform="translate(2200 3259) rotate(90)" xlink:href="#BBR&gt;&gt;&gt;[len=500]"/>
<text id="r_22_c_2_25_rep_4_n2" style="stroke:black; fill:black; font-size:24pt;" x="2137" y="3100">
LBO
</text>
<text id="r_22_c_2_25_rep_4_n3" style="stroke:black; fill:black; font-size:24pt;" x="1945" y="3100">
RBI
</text>
<use id="r_21_c_2_25_rep_5" style="stroke:black; stroke-width:4;" transform="translate(2200 2941) rotate(270)" xlink:href="#BBL&gt;&gt;&gt;[len=500]"/>
<text id="r_21_c_2_25_rep_5_n2" style="stroke:black; fill:black; font-size:24pt;" x="2455" y="2782">
LBI
</text>
<text id="r_21_c_2_25_rep_5_n3" style="stroke:black; fill:black; font-size:24pt;" x="2263" y="2782">
RBO
</text>
<use id="r_22_c_2_25_rep_5" style="stroke:black; stroke-width:4;" transform="translate(2200 2623) rotate(90)" xlink:href="#BBR&gt;&gt;&gt;[len=500]"/>
<text id="r_22_c_2_25_rep_5_n2" style="stroke:black; fill:black; font-size:24pt;" x="2137" y="2464">
LBO
</text>
<text id="r_22_c_2_25_rep_5_n3" style="stroke:black; fill:black; font-size:24pt;" x="1945" y="2464">
RBI
</text>
<use id="r_21_c_2_25_rep_6" style="stroke:black; stroke-width:4;" transform="translate(2200 2305) rotate(270)" xlink:href="#BBL&gt;&gt;&gt;[len=500]"/>
<text id="r_21_c_2_25_rep_6_n2" style="stroke:black; fill:black; font-size:24pt;" x="2455" y="2146">
LBI
</text>
<text id="r_21_c_2_25_rep_6_n3" style="stroke:black; fill:black; font-size:24pt;" x="2263" y="2146">
RBO
</text>
<use id="r_22_c_2_25_rep_6" style="stroke:black; stroke-width:4;" transform="translate(2200 1987) rotate(90)" xlink:href="#BBR&gt;&gt;&gt;[len=500]"/>
<text id="r_22_c_2_25_rep_6_n2" style="stroke:black; fill:black; font-size:24pt;" x="2137" y="1828">
LBO
</text>
<text id="r_22_c_2_25_rep_6_n3" style="stroke:black; fill:black; font-size:24pt;" x="1945" y="1828">
RBI
</text>
<use id="r_21_c_2_25_rep_7" style="stroke:black; stroke-width:4;" transform="translate(2200 1669) rotate(270)" xlink:href="#BBL&gt;&gt;&gt;[len=500]"/>
<text id="r_21_c_2_25_rep_7_n2" style="stroke:black; fill:black; font-size:24pt;" x="2455" y="1510">
LBI
</text>
<text id="r_21_c_2_25_rep_7_n3" style="stroke:black; fill:black; font-size:24pt;" x="2263" y="1510">
RBO
</text>
<use id="r_22_c_2_25_rep_7" style="stroke:black; stroke-width:4;" transform="translate(2200 1351) rotate(90)" xlink:href="#BBR&gt;&gt;&gt;[len=500]"/>
<text id="r_22_c_2_25_rep_7_n2" style="stroke:black; fill:black; font-size:24pt;" x="2137" y="1192">
LBO
</text>
<text id="r_22_c_2_25_rep_7_n3" style="stroke:black; fill:black; font-size:24pt;" x="1945" y="1192">
RBI
</text>
</svg>